<svg width="202" height="150" viewBox="0 0 202 150" fill="none" xmlns="http://www.w3.org/2000/svg">
<path d="M201.31 131.818H0V131.918H201.31V131.818Z" fill="#EBEBEB"/>
<path d="M181.139 138.296H167.804V138.397H181.139V138.296Z" fill="#EBEBEB"/>
<path d="M133.356 139.391H129.857V139.492H133.356V139.391Z" fill="#EBEBEB"/>
<path d="M167.401 134.56H159.675V134.66H167.401V134.56Z" fill="#EBEBEB"/>
<path d="M38.5106 135.236H21.1214V135.337H38.5106V135.236Z" fill="#EBEBEB"/>
<path d="M44.6465 135.236H42.0979V135.337H44.6465V135.236Z" fill="#EBEBEB"/>
<path d="M90.6498 136.935H52.9324V137.036H90.6498V136.935Z" fill="#EBEBEB"/>
<path d="M95.4209 113.861H17.679C17.07 113.86 16.4863 113.617 16.056 113.186C15.6257 112.755 15.3841 112.171 15.3841 111.562V2.27883C15.3894 1.6733 15.6334 1.09431 16.0631 0.667631C16.4928 0.240951 17.0735 0.0010373 17.679 0H95.4209C96.0306 0 96.6153 0.242211 97.0465 0.673349C97.4776 1.10449 97.7198 1.68924 97.7198 2.29896V111.562C97.7198 112.172 97.4776 112.756 97.0465 113.188C96.6153 113.619 96.0306 113.861 95.4209 113.861ZM17.679 0.0805242C17.0967 0.0815908 16.5386 0.313667 16.1272 0.725813C15.7158 1.13796 15.4847 1.6965 15.4847 2.27883V111.562C15.4847 112.144 15.7158 112.703 16.1272 113.115C16.5386 113.527 17.0967 113.759 17.679 113.76H95.4209C96.0036 113.759 96.5621 113.527 96.9741 113.115C97.3862 112.703 97.6181 112.145 97.6192 111.562V2.27883C97.6181 1.69613 97.3862 1.1376 96.9741 0.725568C96.5621 0.313536 96.0036 0.0815885 95.4209 0.0805242H17.679Z" fill="#EBEBEB"/>
<path d="M182.512 113.861H104.766C104.156 113.86 103.572 113.617 103.141 113.186C102.71 112.755 102.468 112.171 102.467 111.562V2.27883C102.473 1.67293 102.718 1.09395 103.148 0.667379C103.579 0.24081 104.16 0.00102599 104.766 0H182.512C183.116 0.00209543 183.696 0.242477 184.125 0.669044C184.554 1.09561 184.797 1.67399 184.802 2.27883V111.562C184.802 112.17 184.561 112.754 184.132 113.185C183.703 113.616 183.12 113.859 182.512 113.861ZM104.766 0.0805242C104.183 0.0815885 103.624 0.313536 103.212 0.725568C102.8 1.1376 102.568 1.69613 102.567 2.27883V111.562C102.568 112.145 102.8 112.703 103.212 113.115C103.624 113.527 104.183 113.759 104.766 113.76H182.512C183.094 113.759 183.653 113.527 184.065 113.115C184.477 112.703 184.709 112.145 184.71 111.562V2.27883C184.709 1.69613 184.477 1.1376 184.065 0.725568C183.653 0.313536 183.094 0.0815885 182.512 0.0805242H104.766Z" fill="#EBEBEB"/>
<path d="M108.498 131.818H177.157L182.028 11.3458H113.37L108.498 131.818Z" fill="#E6E6E6"/>
<path d="M106.819 131.818H175.478L180.35 11.3458H111.691L106.819 131.818Z" fill="#F0F0F0"/>
<path d="M172.188 128.391L176.786 14.7721H114.98L110.386 128.391H172.188Z" fill="#FAFAFA"/>
<path d="M41.6268 34.73L45.2182 43.5876C45.1135 69.1983 46.2731 70.6759 46.2811 75.0805H37.2141C36.888 53.641 40.0647 58.4604 41.6268 34.73Z" fill="#EBEBEB"/>
<path d="M46.7039 60.8842C39.3883 40.7854 22.583 47.0099 23.352 54.3537C24.121 61.6975 50.8871 72.4434 46.7039 60.8842Z" fill="#EBEBEB"/>
<path d="M43.9299 72.4715C39.9439 59.5193 29.355 61.633 29.355 67.5837C29.355 73.5344 46.2208 79.924 43.9299 72.4715Z" fill="#EBEBEB"/>
<path d="M43.644 49.0954C37.3913 31.7828 21.818 34.1622 23.0741 41.4698C24.3303 48.7773 47.2394 59.0522 43.644 49.0954Z" fill="#EBEBEB"/>
<path d="M43.6883 41.3289C44.2681 29.5322 32.584 24.6766 33.3933 31.7265C34.2026 38.7763 43.3541 48.1131 43.6883 41.3289Z" fill="#EBEBEB"/>
<path d="M42.8146 53.4075C45.2826 38.8729 60.252 33.3409 58.5812 41.5705C56.9103 49.8 41.3974 61.7659 42.8146 53.4075Z" fill="#EBEBEB"/>
<path d="M41.5544 45.19C38.6475 29.9469 52.095 23.1748 52.4815 30.5226C52.868 37.8704 43.2252 53.951 41.5544 45.19Z" fill="#EBEBEB"/>
<path d="M40.3868 62.4061C46.3295 47.7185 59.0523 51.3622 57.7679 58.0457C56.4835 64.7292 36.9686 70.8611 40.3868 62.4061Z" fill="#EBEBEB"/>
<path d="M43.3219 72.6648C43.189 63.1872 51.7769 60.7392 51.8896 66.2229C52.0024 71.7066 43.3943 78.1082 43.3219 72.6648Z" fill="#EBEBEB"/>
<path d="M40.6928 84.1476C38.4352 84.1542 36.2433 83.3888 34.4806 81.9784C32.7178 80.5679 31.4903 78.5971 31.0017 76.3931C30.7669 75.2116 30.4288 74.0529 29.9912 72.9306L29.9147 72.7494H51.4629L51.3864 72.9306C50.9488 74.0529 50.6106 75.2116 50.3758 76.3931C49.8882 78.5961 48.662 80.5663 46.9008 81.9767C45.1396 83.3872 42.9492 84.1531 40.6928 84.1476Z" fill="#E0E0E0"/>
<path d="M19.8894 131.814H29.4516L29.4516 84.1315H19.8894L19.8894 131.814Z" fill="#E6E6E6"/>
<path d="M22.7601 131.818H19.8935V126.072H25.7637L22.7601 131.818Z" fill="#F0F0F0"/>
<path d="M85.4359 131.814H94.9981V84.1315H85.4359V131.814Z" fill="#E6E6E6"/>
<path d="M19.8894 129.901H87.9322V84.1314H19.8894V129.901Z" fill="#F0F0F0"/>
<path d="M85.0695 131.818H87.9362V126.072H82.062L85.0695 131.818Z" fill="#F0F0F0"/>
<path d="M22.1159 105.668L85.7097 105.668V87.3524H22.1159V105.668Z" fill="#E6E6E6"/>
<path d="M39.2916 93.0454H66.6054C69.4036 93.0454 72.077 90.7867 74.0015 86.7968H31.8996C33.82 90.7867 36.4975 93.0454 39.2916 93.0454Z" fill="#F0F0F0"/>
<path d="M22.1159 126.946L85.7097 126.946V108.631H22.1159V126.946Z" fill="#E6E6E6"/>
<path d="M39.2916 114.32H66.6054C69.4036 114.32 72.077 112.061 74.0015 108.071H31.8996C33.82 112.061 36.4975 114.32 39.2916 114.32Z" fill="#F0F0F0"/>
<path d="M100.655 150C143.768 150 178.719 147.959 178.719 145.442C178.719 142.925 143.768 140.885 100.655 140.885C57.5414 140.885 22.591 142.925 22.591 145.442C22.591 147.959 57.5414 150 100.655 150Z" fill="#F5F5F5"/>
<path d="M163.009 104.923H58.8268C58.2925 104.931 57.7626 104.825 57.2719 104.614C56.7812 104.402 56.3409 104.089 55.98 103.695C55.619 103.301 55.3456 102.835 55.1777 102.328C55.0099 101.82 54.9513 101.283 55.0059 100.752L61.2626 26.2669C61.3757 25.139 61.8982 24.0916 62.7314 23.323C63.5646 22.5543 64.6507 22.1177 65.7841 22.0958H169.966C170.5 22.0886 171.03 22.1944 171.521 22.4062C172.011 22.618 172.451 22.931 172.812 23.3248C173.174 23.7187 173.447 24.1843 173.616 24.6914C173.785 25.1984 173.844 25.7353 173.791 26.2669L167.534 100.752C167.419 101.88 166.896 102.926 166.062 103.695C165.228 104.463 164.142 104.9 163.009 104.923Z" fill="#EEB301"/>
<path opacity="0.7" d="M163.009 104.971H58.8268C58.2925 104.979 57.7626 104.874 57.2719 104.662C56.7812 104.451 56.3409 104.138 55.98 103.744C55.619 103.35 55.3456 102.884 55.1777 102.376C55.0099 101.869 54.9513 101.332 55.0059 100.8L61.2627 26.3157C61.3757 25.1877 61.8983 24.1403 62.7315 23.3717C63.5647 22.603 64.6507 22.1664 65.7841 22.1445H169.966C170.5 22.1373 171.03 22.2431 171.521 22.4549C172.011 22.6667 172.451 22.9797 172.812 23.3735C173.174 23.7674 173.447 24.233 173.616 24.7401C173.785 25.2471 173.844 25.784 173.791 26.3157L167.534 100.8C167.419 101.928 166.896 102.975 166.062 103.744C165.228 104.512 164.142 104.949 163.009 104.971Z" fill="white"/>
<path d="M58.9637 103.312C58.6353 103.318 58.3095 103.254 58.0078 103.124C57.706 102.995 57.4352 102.803 57.2133 102.561C56.9914 102.319 56.8235 102.032 56.7206 101.72C56.6177 101.408 56.5822 101.078 56.6164 100.752L62.8731 26.2669C62.9421 25.5739 63.2631 24.9303 63.7752 24.4583C64.2873 23.9862 64.9549 23.7186 65.6512 23.7063H169.829C170.158 23.7006 170.484 23.7646 170.785 23.8941C171.087 24.0237 171.358 24.2158 171.581 24.4578C171.803 24.6998 171.971 24.9862 172.075 25.298C172.178 25.6099 172.214 25.9401 172.18 26.2669L165.924 100.752C165.855 101.445 165.534 102.088 165.022 102.56C164.51 103.032 163.842 103.3 163.146 103.312H58.9637Z" fill="white"/>
<path opacity="0.1" d="M101.863 32.2297H95.8235C95.6643 32.2323 95.5063 32.2011 95.36 32.138C95.2137 32.0749 95.0826 31.9814 94.9752 31.8638C94.8678 31.7461 94.7867 31.607 94.7372 31.4556C94.6877 31.3042 94.671 31.144 94.6881 30.9856L94.8653 28.8396C94.9005 28.5041 95.057 28.193 95.3053 27.9647C95.5537 27.7364 95.8768 27.6066 96.2141 27.5996H102.253C102.412 27.5976 102.569 27.6292 102.715 27.6923C102.861 27.7554 102.991 27.8485 103.099 27.9655C103.206 28.0826 103.287 28.221 103.337 28.3716C103.387 28.5222 103.405 28.6817 103.389 28.8396L103.191 31.0017C103.156 31.3323 103.001 31.6388 102.757 31.8645C102.513 32.0903 102.195 32.22 101.863 32.2297Z" fill="#EEB301"/>
<path opacity="0.1" d="M165.223 31.2985C166.059 30.4966 166.139 29.2234 165.402 28.4546C164.665 27.6859 163.389 27.7127 162.553 28.5146C161.717 29.3164 161.637 30.5896 162.374 31.3584C163.111 32.1271 164.387 32.1003 165.223 31.2985Z" fill="#EEB301"/>
<path opacity="0.1" d="M157.172 31.2997C158.008 30.4978 158.089 29.2246 157.351 28.4559C156.614 27.6871 155.339 27.7139 154.503 28.5158C153.666 29.3176 153.586 30.5908 154.323 31.3596C155.061 32.1284 156.336 32.1015 157.172 31.2997Z" fill="#EEB301"/>
<path opacity="0.1" d="M149.118 31.3008C149.954 30.4989 150.034 29.2257 149.297 28.457C148.56 27.6882 147.284 27.715 146.448 28.5169C145.612 29.3187 145.532 30.5919 146.269 31.3607C147.006 32.1295 148.282 32.1026 149.118 31.3008Z" fill="#EEB301"/>
<path opacity="0.1" d="M96.0128 38.3134H70.5914C69.0694 38.3134 67.7287 39.4608 67.612 40.866L62.3779 103.312H93.3313L98.5654 40.866C98.6781 39.4568 97.5306 38.3134 96.0128 38.3134Z" fill="#EEB301"/>
<path d="M95.2236 39.8593H71.1188C70.572 39.8719 70.0485 40.0832 69.6462 40.4537C69.2438 40.8242 68.9901 41.3285 68.9326 41.8724L67.7247 56.3265C67.6985 56.5833 67.727 56.8428 67.8084 57.0878C67.8897 57.3328 68.022 57.5579 68.1966 57.748C68.3712 57.9382 68.5841 58.0893 68.8213 58.1912C69.0585 58.2932 69.3146 58.3437 69.5727 58.3396H93.6735C94.2211 58.3295 94.746 58.1191 95.1489 57.7481C95.5518 57.3772 95.8047 56.8714 95.8598 56.3265L97.0676 41.8724C97.0925 41.6162 97.0632 41.3576 96.9816 41.1134C96.9 40.8692 96.768 40.6449 96.5941 40.4551C96.4202 40.2653 96.2083 40.1141 95.9722 40.0115C95.7361 39.9088 95.4811 39.857 95.2236 39.8593Z" fill="white"/>
<path d="M93.4883 60.5258H69.3835C68.8364 60.5376 68.3125 60.7486 67.9099 61.1192C67.5074 61.4899 67.254 61.9947 67.1972 62.5389L65.9894 76.993C65.9632 77.2498 65.9917 77.5093 66.0731 77.7543C66.1544 77.9993 66.2867 78.2244 66.4613 78.4145C66.6359 78.6047 66.8488 78.7558 67.086 78.8577C67.3232 78.9597 67.5793 79.0102 67.8374 79.0061H91.9382C92.4858 78.996 93.0107 78.7856 93.4136 78.4147C93.8165 78.0437 94.0694 77.5379 94.1245 76.993L95.3323 62.5389C95.3572 62.2827 95.3279 62.0241 95.2463 61.7799C95.1647 61.5357 95.0327 61.3114 94.8588 61.1216C94.6849 60.9318 94.473 60.7806 94.2369 60.678C94.0008 60.5753 93.7458 60.5235 93.4883 60.5258Z" fill="white"/>
<path d="M91.753 81.1963H67.6401C67.0928 81.2072 66.5684 81.4179 66.1657 81.7887C65.763 82.1595 65.5098 82.6649 65.4539 83.2094L64.2461 97.6635C64.2199 97.9203 64.2484 98.1798 64.3297 98.4248C64.4111 98.6698 64.5434 98.8948 64.718 99.085C64.8926 99.2752 65.1055 99.4263 65.3427 99.5282C65.5798 99.6302 65.8359 99.6807 66.0941 99.6766H90.1868C90.7342 99.6657 91.2586 99.4549 91.6613 99.0841C92.064 98.7133 92.3172 98.208 92.3731 97.6635L93.5809 83.2094C93.6069 82.9543 93.5789 82.6965 93.4988 82.4529C93.4186 82.2093 93.2881 81.9853 93.1157 81.7954C92.9433 81.6055 92.7329 81.4541 92.4981 81.3509C92.2634 81.2476 92.0095 81.195 91.753 81.1963Z" fill="white"/>
<path opacity="0.5" d="M75.6201 47.9762H71.3563C71.2382 47.978 71.121 47.9547 71.0125 47.9079C70.904 47.8612 70.8066 47.792 70.7268 47.7049C70.6469 47.6178 70.5864 47.5148 70.5492 47.4027C70.5119 47.2905 70.4989 47.1718 70.5108 47.0542L70.8691 42.7905C70.8955 42.5412 71.0119 42.31 71.1964 42.1403C71.381 41.9706 71.621 41.874 71.8717 41.8685H76.1314C76.2495 41.8668 76.3667 41.89 76.4752 41.9368C76.5837 41.9836 76.6811 42.0528 76.7609 42.1399C76.8408 42.2269 76.9013 42.3299 76.9385 42.4421C76.9758 42.5542 76.9888 42.6729 76.9769 42.7905L76.6186 47.0542C76.5931 47.3032 76.4776 47.5343 76.2937 47.7041C76.1098 47.8739 75.8703 47.9707 75.6201 47.9762Z" fill="#EEB301"/>
<path opacity="0.5" d="M93.8306 51.2978H70.5914C70.5357 51.2979 70.4805 51.2866 70.4295 51.2643C70.3784 51.2421 70.3325 51.2096 70.2947 51.1687C70.2568 51.1278 70.2279 51.0795 70.2096 51.0269C70.1914 50.9743 70.1843 50.9184 70.1888 50.8629C70.2005 50.745 70.2548 50.6354 70.3415 50.5546C70.4282 50.4738 70.5414 50.4274 70.6598 50.4241H93.899C93.9551 50.4238 94.0106 50.4353 94.062 50.4578C94.1133 50.4803 94.1594 50.5132 94.1973 50.5545C94.2352 50.5958 94.2641 50.6446 94.2821 50.6977C94.3 50.7508 94.3067 50.8071 94.3016 50.8629C94.289 50.9801 94.2343 51.0888 94.1477 51.1687C94.0611 51.2487 93.9484 51.2945 93.8306 51.2978Z" fill="#EEB301"/>
<path opacity="0.2" d="M90.7545 44.4654H80.065C79.9759 44.4664 79.8877 44.4486 79.806 44.4131C79.7243 44.3777 79.651 44.3253 79.5909 44.2596C79.5309 44.1938 79.4854 44.1161 79.4574 44.0315C79.4295 43.947 79.4198 43.8574 79.4288 43.7688C79.4484 43.5815 79.5357 43.4078 79.6744 43.2802C79.813 43.1527 79.9934 43.0802 80.1817 43.0763H90.8713C90.96 43.0754 91.0479 43.0931 91.1293 43.1283C91.2107 43.1635 91.2837 43.2155 91.3437 43.2808C91.4037 43.3461 91.4493 43.4233 91.4775 43.5074C91.5057 43.5915 91.5159 43.6806 91.5074 43.7688C91.4888 43.9569 91.4019 44.1316 91.2631 44.26C91.1244 44.3883 90.9435 44.4614 90.7545 44.4654Z" fill="#263238"/>
<path opacity="0.2" d="M86.3338 46.7684H79.8717C79.783 46.7693 79.6951 46.7516 79.6137 46.7164C79.5324 46.6812 79.4593 46.6292 79.3993 46.5639C79.3393 46.4986 79.2937 46.4214 79.2655 46.3373C79.2373 46.2532 79.2271 46.1641 79.2356 46.0758C79.2542 45.8885 79.3405 45.7143 79.4784 45.586C79.6163 45.4578 79.7962 45.3843 79.9845 45.3793H86.4505C86.5396 45.3783 86.6279 45.3961 86.7096 45.4315C86.7913 45.467 86.8645 45.5193 86.9246 45.5851C86.9847 45.6509 87.0301 45.7286 87.0581 45.8132C87.086 45.8977 87.0958 45.9872 87.0867 46.0758C87.0671 46.2632 86.9798 46.4369 86.8411 46.5644C86.7025 46.692 86.5221 46.7645 86.3338 46.7684Z" fill="#263238"/>
<path opacity="0.5" d="M73.8848 68.6466H69.621C69.5029 68.6484 69.3857 68.6251 69.2772 68.5783C69.1687 68.5316 69.0714 68.4624 68.9915 68.3753C68.9116 68.2882 68.8511 68.1852 68.8139 68.0731C68.7767 67.9609 68.7636 67.8422 68.7756 67.7247L69.1339 63.4609C69.1594 63.2113 69.2755 62.9796 69.4602 62.8097C69.645 62.6398 69.8855 62.5435 70.1364 62.5389H74.3961C74.5143 62.5372 74.6314 62.5604 74.7399 62.6072C74.8484 62.654 74.9458 62.7232 75.0257 62.8103C75.1055 62.8973 75.1661 63.0003 75.2033 63.1125C75.2405 63.2246 75.2536 63.3434 75.2416 63.4609L74.8873 67.7247C74.8618 67.9743 74.7457 68.2059 74.561 68.3758C74.3762 68.5457 74.1357 68.642 73.8848 68.6466Z" fill="#EEB301"/>
<path opacity="0.5" d="M92.0953 71.9683H68.848C68.7919 71.9685 68.7364 71.957 68.6851 71.9346C68.6337 71.9121 68.5876 71.8792 68.5497 71.8379C68.5118 71.7965 68.4829 71.7478 68.465 71.6947C68.447 71.6415 68.4403 71.5853 68.4454 71.5294C68.458 71.4122 68.5127 71.3036 68.5993 71.2236C68.6859 71.1437 68.7986 71.0978 68.9164 71.0946H92.1556C92.2113 71.0944 92.2665 71.1058 92.3175 71.128C92.3686 71.1502 92.4145 71.1828 92.4524 71.2237C92.4902 71.2645 92.5192 71.3128 92.5374 71.3654C92.5556 71.4181 92.5627 71.4739 92.5583 71.5294C92.5468 71.646 92.4936 71.7546 92.4086 71.8352C92.3236 71.9158 92.2123 71.963 92.0953 71.9683Z" fill="#EEB301"/>
<path opacity="0.2" d="M89.0193 65.1359H78.3257C78.237 65.1364 78.1491 65.1181 78.0679 65.0824C77.9867 65.0467 77.9139 64.9943 77.8543 64.9286C77.7947 64.8629 77.7496 64.7854 77.7219 64.7011C77.6942 64.6168 77.6845 64.5276 77.6936 64.4394C77.7131 64.2527 77.7998 64.0795 77.9376 63.9521C78.0754 63.8247 78.2548 63.7517 78.4424 63.7469H89.136C89.2247 63.7459 89.3126 63.7636 89.394 63.7988C89.4754 63.834 89.5485 63.886 89.6085 63.9513C89.6685 64.0166 89.714 64.0938 89.7422 64.1779C89.7705 64.262 89.7806 64.3511 89.7722 64.4394C89.7535 64.6274 89.6666 64.8021 89.5279 64.9305C89.3892 65.0588 89.2082 65.1319 89.0193 65.1359Z" fill="#263238"/>
<path opacity="0.2" d="M84.5985 67.4389H78.1324C78.0439 67.4399 77.9561 67.4222 77.8749 67.387C77.7937 67.3517 77.7209 67.2997 77.6612 67.2343C77.6015 67.1689 77.5563 67.0916 77.5286 67.0075C77.5008 66.9234 77.4912 66.8344 77.5003 66.7464C77.5189 66.559 77.6052 66.3848 77.7431 66.2566C77.881 66.1283 78.0609 66.0548 78.2492 66.0498H84.7152C84.8043 66.0488 84.8926 66.0666 84.9743 66.1021C85.056 66.1375 85.1293 66.1899 85.1893 66.2556C85.2494 66.3214 85.2949 66.3991 85.3228 66.4837C85.3507 66.5683 85.3605 66.6578 85.3514 66.7464C85.3318 66.9337 85.2445 67.1075 85.1059 67.235C84.9672 67.3625 84.7868 67.435 84.5985 67.4389Z" fill="#263238"/>
<path d="M85.1662 75.8859L85.5366 76.0026C85.5048 76.0993 85.4557 76.1893 85.3917 76.2683C85.3321 76.3376 85.2578 76.3926 85.1742 76.4294C85.0741 76.4676 84.9673 76.4854 84.8602 76.4817C84.7348 76.4875 84.6097 76.4655 84.4938 76.4173C84.394 76.3665 84.3134 76.2845 84.2643 76.1838C84.1998 76.0514 84.176 75.9029 84.1959 75.757C84.2029 75.5561 84.2847 75.3651 84.4254 75.2215C84.5742 75.0918 84.7678 75.0253 84.9649 75.0363C85.1067 75.0283 85.2475 75.0649 85.3675 75.141C85.4705 75.2241 85.5404 75.3411 85.5648 75.4712L85.1622 75.5557C85.1565 75.5233 85.1456 75.492 85.13 75.4631C85.1089 75.4307 85.0798 75.4043 85.0454 75.3866C85.0112 75.367 84.9721 75.3572 84.9327 75.3584C84.8862 75.3574 84.8402 75.3679 84.7987 75.389C84.7573 75.41 84.7217 75.441 84.6951 75.4792C84.6424 75.5608 84.6145 75.6559 84.6146 75.753C84.5921 75.8605 84.6062 75.9725 84.6549 76.0711C84.6771 76.1009 84.7064 76.1246 84.7402 76.1401C84.7739 76.1555 84.8111 76.1623 84.8481 76.1596C84.8836 76.1613 84.919 76.1557 84.9522 76.1433C84.9854 76.1308 85.0158 76.1117 85.0414 76.0872C85.0987 76.0311 85.1415 75.9621 85.1662 75.8859Z" fill="white"/>
<path opacity="0.5" d="M72.1455 89.3172H67.8858C67.7674 89.3184 67.6502 89.2946 67.5417 89.2473C67.4332 89.2001 67.3358 89.1305 67.2561 89.0431C67.1763 88.9558 67.1158 88.8525 67.0786 88.7402C67.0414 88.6278 67.0284 88.5089 67.0403 88.3912L67.3986 84.1476C67.424 83.8986 67.5396 83.6675 67.7234 83.4977C67.9073 83.3279 68.1469 83.2311 68.3971 83.2256H72.6608C72.779 83.2238 72.8961 83.2471 73.0046 83.2939C73.1132 83.3406 73.2105 83.4098 73.2904 83.4969C73.3702 83.584 73.4308 83.687 73.468 83.7991C73.5052 83.9113 73.5183 84.03 73.5063 84.1476L73.148 88.4073C73.1181 88.6541 73.0003 88.8819 72.8162 89.049C72.6321 89.216 72.394 89.3113 72.1455 89.3172Z" fill="#EEB301"/>
<path opacity="0.25" d="M90.356 92.6388H67.1208C67.0647 92.639 67.0092 92.6276 66.9579 92.6051C66.9065 92.5826 66.8604 92.5497 66.8225 92.5084C66.7846 92.4671 66.7557 92.4183 66.7378 92.3652C66.7198 92.3121 66.7131 92.2558 66.7182 92.2C66.7308 92.0828 66.7855 91.9741 66.8721 91.8942C66.9587 91.8142 67.0714 91.7684 67.1892 91.7651H90.4284C90.4841 91.765 90.5393 91.7763 90.5903 91.7985C90.6414 91.8208 90.6873 91.8533 90.7252 91.8942C90.763 91.9351 90.7919 91.9834 90.8102 92.036C90.8284 92.0886 90.8355 92.1444 90.8311 92.2C90.8193 92.3186 90.7644 92.4287 90.6769 92.5096C90.5893 92.5905 90.4751 92.6364 90.356 92.6388Z" fill="#EEB301"/>
<path opacity="0.25" d="M85.8587 92.6388H67.1208C67.0647 92.639 67.0092 92.6276 66.9579 92.6051C66.9065 92.5826 66.8604 92.5497 66.8225 92.5084C66.7846 92.4671 66.7557 92.4183 66.7378 92.3652C66.7198 92.3121 66.7131 92.2558 66.7182 92.2C66.7308 92.0828 66.7855 91.9741 66.8721 91.8942C66.9587 91.8142 67.0714 91.7684 67.1892 91.7651H85.9272C85.9829 91.765 86.038 91.7763 86.0891 91.7985C86.1401 91.8208 86.186 91.8533 86.2239 91.8942C86.2617 91.9351 86.2907 91.9834 86.3089 92.036C86.3271 92.0886 86.3342 92.1444 86.3298 92.2C86.3181 92.3179 86.2638 92.4275 86.1771 92.5083C86.0904 92.5891 85.9772 92.6355 85.8587 92.6388Z" fill="#EEB301"/>
<path opacity="0.2" d="M87.284 85.8023H76.5904C76.5019 85.8034 76.4141 85.7857 76.3329 85.7504C76.2517 85.7152 76.1789 85.6631 76.1192 85.5977C76.0595 85.5323 76.0143 85.4551 75.9866 85.371C75.9588 85.2869 75.9492 85.1979 75.9583 85.1098C75.9769 84.9229 76.0634 84.7491 76.2014 84.6216C76.3394 84.494 76.5193 84.4213 76.7072 84.4173H87.4007C87.4896 84.4157 87.5778 84.433 87.6595 84.468C87.7412 84.503 87.8145 84.555 87.8747 84.6204C87.9348 84.6859 87.9803 84.7633 88.0083 84.8477C88.0363 84.9321 88.046 85.0214 88.0369 85.1098C88.0181 85.2975 87.9311 85.4718 87.7923 85.5994C87.6535 85.7271 87.4726 85.7993 87.284 85.8023Z" fill="#263238"/>
<path opacity="0.2" d="M82.8632 88.1094H76.3971C76.3084 88.1098 76.2206 88.0916 76.1394 88.0559C76.0582 88.0202 75.9854 87.9678 75.9257 87.9021C75.8661 87.8364 75.821 87.7589 75.7933 87.6746C75.7656 87.5903 75.756 87.5011 75.765 87.4128C75.7828 87.2255 75.869 87.0513 76.0072 86.9236C76.1453 86.7958 76.3257 86.7235 76.5139 86.7203H82.98C83.0685 86.72 83.1561 86.7381 83.2372 86.7735C83.3183 86.809 83.3911 86.8609 83.4509 86.9261C83.5108 86.9913 83.5564 87.0682 83.5849 87.1521C83.6133 87.2359 83.6239 87.3247 83.6161 87.4128C83.5974 87.6009 83.5105 87.7756 83.3718 87.904C83.2331 88.0323 83.0521 88.1054 82.8632 88.1094Z" fill="#263238"/>
<path opacity="0.1" d="M129.241 38.3134H103.799C102.282 38.3134 100.941 39.4608 100.824 40.866L95.59 103.312H126.539L131.773 40.866C131.89 39.4568 130.743 38.3134 129.241 38.3134Z" fill="#EEB301"/>
<path d="M128.436 39.8594H104.331C103.784 39.8711 103.26 40.0821 102.857 40.4528C102.455 40.8234 102.201 41.3282 102.145 41.8725L100.937 56.3265C100.911 56.583 100.939 56.8421 101.02 57.0869C101.101 57.3316 101.233 57.5564 101.407 57.7466C101.582 57.9367 101.794 58.0878 102.031 58.19C102.267 58.2922 102.523 58.3432 102.781 58.3396H126.886C127.433 58.3287 127.957 58.118 128.36 57.7472C128.763 57.3764 129.016 56.8711 129.072 56.3265L130.28 41.8725C130.305 41.6161 130.276 41.3572 130.195 41.1128C130.114 40.8683 129.982 40.6438 129.808 40.4538C129.634 40.2638 129.421 40.1127 129.185 40.0102C128.949 39.9078 128.693 39.8564 128.436 39.8594Z" fill="white"/>
<path d="M126.696 60.5259H102.596C102.048 60.5368 101.524 60.7475 101.121 61.1183C100.718 61.4891 100.465 61.9944 100.409 62.539L99.2015 76.993C99.176 77.2497 99.2049 77.5089 99.2865 77.7537C99.3681 77.9984 99.5004 78.2232 99.6749 78.4132C99.8494 78.6033 100.062 78.7543 100.299 78.8565C100.536 78.9587 100.792 79.0096 101.05 79.0061H125.154C125.701 78.9944 126.225 78.7833 126.628 78.4127C127.03 78.042 127.284 77.5372 127.341 76.993L128.548 62.539C128.574 62.2819 128.545 62.0224 128.463 61.7773C128.381 61.5323 128.249 61.3073 128.074 61.1172C127.899 60.9271 127.686 60.7762 127.448 60.6742C127.211 60.5723 126.955 60.5218 126.696 60.5259Z" fill="white"/>
<path d="M124.961 81.1964H100.86C100.313 81.2064 99.7878 81.4168 99.385 81.7878C98.9821 82.1588 98.7292 82.6646 98.6741 83.2095L97.4662 97.6635C97.4407 97.9202 97.4697 98.1794 97.5512 98.4242C97.6328 98.6689 97.7652 98.8937 97.9396 99.0837C98.1141 99.2737 98.3267 99.4248 98.5636 99.527C98.8005 99.6291 99.0563 99.6801 99.3143 99.6766H123.419C123.966 99.6648 124.49 99.4538 124.893 99.0832C125.295 98.7125 125.549 98.2077 125.605 97.6635L126.813 83.2095C126.839 82.9523 126.811 82.6924 126.729 82.4471C126.648 82.2018 126.515 81.9766 126.34 81.7863C126.165 81.5961 125.951 81.4451 125.714 81.3434C125.476 81.2417 125.22 81.1916 124.961 81.1964Z" fill="white"/>
<path opacity="0.5" d="M108.828 47.9762H104.568C104.45 47.978 104.333 47.9547 104.225 47.9079C104.116 47.8612 104.019 47.792 103.939 47.7049C103.859 47.6178 103.798 47.5148 103.761 47.4027C103.724 47.2905 103.711 47.1718 103.723 47.0542L104.081 42.7905C104.107 42.5412 104.223 42.3101 104.408 42.1408C104.593 41.9716 104.833 41.8761 105.084 41.8725H109.348C109.466 41.8708 109.583 41.8941 109.691 41.9408C109.8 41.9876 109.897 42.0568 109.977 42.1439C110.057 42.231 110.117 42.334 110.155 42.4461C110.192 42.5582 110.205 42.677 110.193 42.7945L109.835 47.0583C109.807 47.3075 109.69 47.5383 109.505 47.7073C109.319 47.8762 109.079 47.9719 108.828 47.9762Z" fill="#EEB301"/>
<path opacity="0.25" d="M127.039 51.2978H103.803C103.748 51.2979 103.693 51.2866 103.642 51.2643C103.591 51.2421 103.545 51.2096 103.507 51.1687C103.469 51.1278 103.44 51.0795 103.422 51.0269C103.403 50.9743 103.396 50.9184 103.401 50.8629C103.412 50.7447 103.466 50.6346 103.553 50.5536C103.64 50.4727 103.753 50.4265 103.872 50.4241H127.111C127.167 50.4238 127.223 50.4353 127.274 50.4578C127.325 50.4803 127.372 50.5132 127.409 50.5545C127.447 50.5958 127.476 50.6446 127.494 50.6977C127.512 50.7508 127.519 50.8071 127.514 50.8629C127.501 50.9808 127.446 51.09 127.358 51.17C127.271 51.2501 127.157 51.2955 127.039 51.2978Z" fill="#EEB301"/>
<path opacity="0.25" d="M113.772 51.2978H103.803C103.748 51.2979 103.693 51.2866 103.642 51.2643C103.591 51.2421 103.545 51.2096 103.507 51.1687C103.469 51.1278 103.44 51.0795 103.422 51.0269C103.403 50.9743 103.396 50.9184 103.401 50.8629C103.412 50.7447 103.466 50.6346 103.553 50.5536C103.64 50.4727 103.753 50.4265 103.872 50.4241H113.845C113.901 50.4238 113.956 50.4353 114.008 50.4578C114.059 50.4803 114.105 50.5132 114.143 50.5545C114.181 50.5958 114.21 50.6446 114.228 50.6977C114.246 50.7508 114.252 50.8071 114.247 50.8629C114.235 50.9808 114.179 51.09 114.092 51.17C114.005 51.2501 113.891 51.2955 113.772 51.2978Z" fill="#EEB301"/>
<path opacity="0.2" d="M123.967 44.4654H113.273C113.184 44.4664 113.096 44.4486 113.014 44.4131C112.932 44.3777 112.859 44.3253 112.799 44.2596C112.739 44.1938 112.693 44.1161 112.666 44.0315C112.638 43.947 112.628 43.8574 112.637 43.7688C112.657 43.5815 112.744 43.4078 112.882 43.2802C113.021 43.1527 113.202 43.0802 113.39 43.0763H124.083C124.172 43.0753 124.26 43.093 124.341 43.1283C124.422 43.1635 124.495 43.2156 124.555 43.2809C124.614 43.3463 124.66 43.4236 124.687 43.5077C124.715 43.5918 124.725 43.6808 124.716 43.7688C124.697 43.9562 124.611 44.1304 124.473 44.2587C124.335 44.3869 124.155 44.4604 123.967 44.4654Z" fill="#263238"/>
<path opacity="0.2" d="M119.546 46.7683H113.08C112.991 46.7693 112.903 46.7516 112.822 46.7164C112.74 46.6811 112.667 46.6292 112.607 46.5639C112.547 46.4986 112.502 46.4213 112.474 46.3373C112.445 46.2532 112.435 46.1641 112.444 46.0758C112.462 45.8877 112.549 45.713 112.688 45.5847C112.827 45.4564 113.008 45.3833 113.197 45.3793H119.663C119.751 45.3788 119.839 45.397 119.92 45.4328C120.002 45.4685 120.074 45.5209 120.134 45.5866C120.194 45.6523 120.239 45.7298 120.266 45.8141C120.294 45.8984 120.304 45.9876 120.295 46.0758C120.275 46.2625 120.189 46.4357 120.051 46.5631C119.913 46.6905 119.733 46.7635 119.546 46.7683Z" fill="#263238"/>
<path opacity="0.5" d="M107.097 68.6467H102.833C102.715 68.6485 102.598 68.6252 102.489 68.5784C102.381 68.5317 102.283 68.4625 102.204 68.3754C102.124 68.2883 102.063 68.1853 102.026 68.0732C101.989 67.961 101.976 67.8423 101.988 67.7247L102.346 63.461C102.371 63.2117 102.486 62.9801 102.67 62.8101C102.854 62.6402 103.094 62.5437 103.344 62.539H107.604C107.723 62.5366 107.84 62.5594 107.949 62.606C108.058 62.6525 108.155 62.7217 108.235 62.809C108.315 62.8962 108.376 62.9994 108.413 63.1119C108.45 63.2243 108.462 63.3433 108.45 63.461L108.095 67.7247C108.069 67.9734 107.953 68.204 107.77 68.3736C107.586 68.5432 107.347 68.6403 107.097 68.6467Z" fill="#EEB301"/>
<path opacity="0.25" d="M125.303 71.9683H102.068C102.012 71.9685 101.957 71.957 101.905 71.9346C101.854 71.9121 101.808 71.8792 101.77 71.8379C101.732 71.7965 101.703 71.7478 101.685 71.6947C101.667 71.6415 101.66 71.5853 101.666 71.5294C101.678 71.4116 101.734 71.3024 101.821 71.2223C101.908 71.1423 102.022 71.0969 102.141 71.0946H125.376C125.432 71.0944 125.487 71.1058 125.538 71.128C125.589 71.1502 125.635 71.1828 125.673 71.2237C125.71 71.2645 125.739 71.3128 125.758 71.3654C125.776 71.4181 125.783 71.4739 125.778 71.5294C125.767 71.648 125.712 71.7582 125.624 71.8391C125.537 71.9199 125.423 71.9659 125.303 71.9683Z" fill="#EEB301"/>
<path opacity="0.25" d="M103.308 71.9683H102.068C102.012 71.9685 101.957 71.957 101.905 71.9346C101.854 71.9121 101.808 71.8792 101.77 71.8379C101.732 71.7965 101.703 71.7478 101.685 71.6947C101.667 71.6415 101.66 71.5853 101.666 71.5294C101.678 71.4116 101.734 71.3024 101.821 71.2223C101.908 71.1423 102.022 71.0969 102.141 71.0946H103.381C103.436 71.0944 103.492 71.1058 103.543 71.128C103.594 71.1502 103.64 71.1828 103.677 71.2237C103.715 71.2645 103.744 71.3128 103.762 71.3654C103.781 71.4181 103.788 71.4739 103.783 71.5294C103.772 71.648 103.717 71.7582 103.629 71.8391C103.542 71.9199 103.427 71.9659 103.308 71.9683Z" fill="#EEB301"/>
<path opacity="0.2" d="M122.231 65.1359H111.526C111.437 65.1369 111.348 65.1191 111.267 65.0837C111.185 65.0482 111.112 64.9959 111.052 64.9301C110.992 64.8643 110.946 64.7866 110.918 64.7021C110.89 64.6175 110.88 64.528 110.89 64.4394C110.909 64.252 110.996 64.0783 111.135 63.9508C111.274 63.8233 111.454 63.7508 111.642 63.7469H122.336C122.425 63.7458 122.512 63.7635 122.594 63.7988C122.675 63.834 122.748 63.8861 122.807 63.9515C122.867 64.0169 122.912 64.0941 122.94 64.1782C122.968 64.2623 122.977 64.3513 122.968 64.4394C122.95 64.6248 122.865 64.7973 122.73 64.9253C122.595 65.0533 122.417 65.1281 122.231 65.1359Z" fill="#263238"/>
<path opacity="0.2" d="M117.811 67.4389H111.345C111.256 67.4399 111.168 67.4222 111.087 67.3869C111.005 67.3517 110.932 67.2997 110.872 67.2344C110.812 67.1691 110.767 67.0919 110.738 67.0078C110.71 66.9237 110.7 66.8347 110.708 66.7464C110.727 66.5583 110.814 66.3836 110.953 66.2553C111.091 66.1269 111.272 66.0538 111.461 66.0498H117.923C118.012 66.0488 118.101 66.0666 118.182 66.1021C118.264 66.1375 118.337 66.1899 118.397 66.2556C118.457 66.3214 118.503 66.3991 118.531 66.4837C118.559 66.5683 118.569 66.6578 118.559 66.7464C118.54 66.933 118.453 67.1062 118.315 67.2337C118.178 67.3611 117.998 67.434 117.811 67.4389Z" fill="#263238"/>
<path opacity="0.5" d="M105.358 89.3172H101.098C100.98 89.3183 100.862 89.2945 100.754 89.2473C100.645 89.2001 100.548 89.1305 100.468 89.0431C100.388 88.9557 100.328 88.8525 100.291 88.7402C100.254 88.6278 100.24 88.5089 100.252 88.3912L100.611 84.1314C100.635 83.8821 100.751 83.6505 100.935 83.4806C101.119 83.3106 101.359 83.2141 101.609 83.2094H105.889C106.007 83.2077 106.124 83.231 106.233 83.2777C106.341 83.3245 106.439 83.3937 106.519 83.4808C106.598 83.5679 106.659 83.6709 106.696 83.783C106.733 83.8951 106.746 84.0139 106.735 84.1314L106.376 88.3912C106.351 88.6443 106.233 88.8791 106.045 89.0502C105.857 89.2213 105.612 89.3164 105.358 89.3172Z" fill="#EEB301"/>
<path opacity="0.5" d="M123.568 92.6388H100.333C100.277 92.639 100.221 92.6276 100.17 92.6051C100.119 92.5826 100.072 92.5497 100.035 92.5084C99.9967 92.4671 99.9678 92.4183 99.9499 92.3652C99.9319 92.3121 99.9252 92.2558 99.9303 92.2C99.943 92.0821 99.9982 91.9729 100.086 91.8928C100.173 91.8128 100.287 91.7674 100.405 91.7651H123.641C123.696 91.765 123.751 91.7763 123.802 91.7985C123.854 91.8208 123.899 91.8533 123.937 91.8942C123.975 91.9351 124.004 91.9834 124.022 92.036C124.04 92.0886 124.048 92.1444 124.043 92.2C124.031 92.3186 123.976 92.4287 123.889 92.5096C123.801 92.5905 123.687 92.6364 123.568 92.6388Z" fill="#EEB301"/>
<path opacity="0.2" d="M120.496 85.8023H109.802C109.714 85.8039 109.625 85.7867 109.544 85.7517C109.462 85.7167 109.389 85.6647 109.329 85.5993C109.268 85.5338 109.223 85.4563 109.195 85.372C109.167 85.2876 109.157 85.1983 109.166 85.1098C109.185 84.9222 109.272 84.7479 109.411 84.6202C109.55 84.4926 109.731 84.4204 109.919 84.4173H120.609C120.698 84.4157 120.786 84.433 120.868 84.468C120.949 84.503 121.023 84.555 121.083 84.6204C121.143 84.6859 121.188 84.7633 121.216 84.8477C121.244 84.9321 121.254 85.0214 121.245 85.1098C121.226 85.2968 121.14 85.4705 121.002 85.5981C120.864 85.7257 120.684 85.7983 120.496 85.8023Z" fill="#263238"/>
<path opacity="0.2" d="M116.071 88.1093H109.609C109.52 88.1103 109.432 88.0925 109.35 88.0571C109.268 88.0216 109.195 87.9693 109.135 87.9035C109.075 87.8377 109.03 87.76 109.002 87.6754C108.974 87.5909 108.964 87.5013 108.973 87.4127C108.993 87.2254 109.08 87.0517 109.219 86.9242C109.357 86.7966 109.538 86.7241 109.726 86.7203H116.188C116.277 86.7193 116.365 86.737 116.446 86.7722C116.527 86.8074 116.6 86.8594 116.66 86.9247C116.72 86.99 116.766 87.0672 116.794 87.1513C116.822 87.2354 116.833 87.3245 116.824 87.4127C116.806 87.6008 116.719 87.7755 116.58 87.9039C116.441 88.0322 116.26 88.1053 116.071 88.1093Z" fill="#263238"/>
<path opacity="0.1" d="M162.433 38.3133H137.012C136.289 38.3024 135.588 38.5559 135.039 39.0259C134.49 39.496 134.132 40.1504 134.032 40.8659L128.798 103.312H159.747L164.982 40.8659C165.102 39.4568 163.955 38.3133 162.433 38.3133Z" fill="#EEB301"/>
<path d="M161.644 39.8594H137.543C136.996 39.8703 136.471 40.081 136.069 40.4518C135.666 40.8227 135.413 41.328 135.357 41.8725L134.149 56.3266C134.123 56.5834 134.151 56.8429 134.233 57.0879C134.314 57.3329 134.446 57.558 134.621 57.7481C134.795 57.9383 135.008 58.0894 135.245 58.1913C135.483 58.2933 135.739 58.3438 135.997 58.3397H160.098C160.645 58.3296 161.17 58.1192 161.573 57.7482C161.976 57.3773 162.229 56.8715 162.284 56.3266L163.492 41.8725C163.517 41.6158 163.488 41.3566 163.407 41.1119C163.325 40.8671 163.193 40.6424 163.018 40.4523C162.844 40.2623 162.631 40.1112 162.394 40.009C162.158 39.9069 161.902 39.8559 161.644 39.8594Z" fill="white"/>
<path d="M159.909 60.5259H135.808C135.26 60.5368 134.736 60.7475 134.333 61.1183C133.931 61.4891 133.677 61.9944 133.621 62.539L132.414 76.993C132.387 77.2499 132.416 77.5093 132.497 77.7544C132.579 77.9994 132.711 78.2244 132.886 78.4146C133.06 78.6048 133.273 78.7558 133.51 78.8578C133.747 78.9597 134.004 79.0103 134.262 79.0061H158.362C158.91 78.9961 159.435 78.7857 159.838 78.4147C160.241 78.0437 160.494 77.5379 160.549 76.993L161.757 62.539C161.781 62.2824 161.752 62.0234 161.67 61.779C161.588 61.5345 161.456 61.31 161.282 61.1201C161.107 60.9302 160.895 60.7792 160.658 60.6768C160.422 60.5744 160.166 60.523 159.909 60.5259Z" fill="white"/>
<path d="M158.173 81.1964H134.072C133.525 81.2081 133.001 81.4191 132.599 81.7898C132.196 82.1604 131.943 82.6652 131.886 83.2095L130.678 97.6635C130.652 97.9204 130.681 98.1798 130.762 98.4249C130.843 98.6699 130.976 98.8949 131.15 99.0851C131.325 99.2753 131.538 99.4263 131.775 99.5283C132.012 99.6302 132.268 99.6808 132.526 99.6766H156.619C157.167 99.6666 157.692 99.4562 158.094 99.0852C158.497 98.7142 158.75 98.2084 158.805 97.6635L160.013 83.2095C160.039 82.9534 160.01 82.6949 159.929 82.4507C159.848 82.2066 159.716 81.9822 159.542 81.7923C159.369 81.6024 159.157 81.4512 158.921 81.3485C158.685 81.2458 158.43 81.194 158.173 81.1964Z" fill="white"/>
<path opacity="0.5" d="M142.04 47.9762H137.781C137.662 47.9786 137.545 47.9558 137.436 47.9092C137.327 47.8627 137.229 47.7935 137.149 47.7063C137.069 47.619 137.009 47.5158 136.972 47.4034C136.935 47.2909 136.922 47.1719 136.935 47.0542L137.289 42.7905C137.316 42.5412 137.432 42.31 137.617 42.1403C137.801 41.9706 138.041 41.874 138.292 41.8685H142.552C142.67 41.8668 142.787 41.89 142.895 41.9368C143.004 41.9836 143.101 42.0528 143.181 42.1399C143.261 42.2269 143.322 42.3299 143.359 42.4421C143.396 42.5542 143.409 42.6729 143.397 42.7905L143.039 47.0542C143.014 47.3035 142.899 47.5351 142.715 47.7051C142.531 47.875 142.291 47.9715 142.04 47.9762Z" fill="#EEB301"/>
<path opacity="0.5" d="M160.243 51.2978H137.012C136.956 51.2979 136.901 51.2866 136.85 51.2643C136.799 51.2421 136.753 51.2096 136.715 51.1687C136.677 51.1278 136.648 51.0795 136.63 51.0269C136.612 50.9743 136.604 50.9184 136.609 50.8629C136.621 50.7443 136.676 50.6342 136.763 50.5533C136.851 50.4724 136.965 50.4264 137.084 50.4241H160.323C160.379 50.4238 160.435 50.4353 160.486 50.4578C160.538 50.4803 160.584 50.5132 160.622 50.5545C160.659 50.5958 160.688 50.6446 160.706 50.6977C160.724 50.7508 160.731 50.8071 160.726 50.8629C160.714 50.9825 160.658 51.0933 160.568 51.1737C160.479 51.2541 160.363 51.2984 160.243 51.2978Z" fill="#EEB301"/>
<path opacity="0.2" d="M157.175 44.4654H146.485C146.396 44.4664 146.308 44.4486 146.226 44.4131C146.144 44.3777 146.071 44.3253 146.011 44.2596C145.951 44.1938 145.906 44.1161 145.878 44.0315C145.85 43.947 145.84 43.8574 145.849 43.7688C145.869 43.5815 145.956 43.4078 146.095 43.2802C146.233 43.1527 146.414 43.0802 146.602 43.0763H157.292C157.38 43.0754 157.468 43.0931 157.549 43.1283C157.631 43.1635 157.704 43.2155 157.764 43.2808C157.824 43.3461 157.87 43.4233 157.898 43.5074C157.926 43.5915 157.936 43.6806 157.928 43.7688C157.909 43.9569 157.822 44.1316 157.683 44.26C157.545 44.3883 157.364 44.4614 157.175 44.4654Z" fill="#263238"/>
<path opacity="0.2" d="M152.754 46.7684H146.312C146.223 46.7693 146.135 46.7516 146.054 46.7164C145.973 46.6812 145.9 46.6292 145.84 46.5639C145.78 46.4986 145.734 46.4214 145.706 46.3373C145.678 46.2532 145.667 46.1641 145.676 46.0758C145.695 45.8878 145.781 45.7131 145.92 45.5847C146.059 45.4564 146.24 45.3833 146.429 45.3793H152.891C152.98 45.3783 153.068 45.3961 153.15 45.4315C153.232 45.467 153.305 45.5193 153.365 45.5851C153.425 45.6509 153.47 45.7286 153.498 45.8132C153.526 45.8977 153.536 45.9872 153.527 46.0758C153.507 46.2666 153.417 46.4431 153.274 46.5711C153.131 46.6991 152.946 46.7694 152.754 46.7684Z" fill="#263238"/>
<path opacity="0.5" d="M140.305 68.6466H136.041C135.923 68.6484 135.806 68.6251 135.697 68.5783C135.589 68.5316 135.492 68.4624 135.412 68.3753C135.332 68.2882 135.271 68.1852 135.234 68.0731C135.197 67.9609 135.184 67.8422 135.196 67.7247L135.554 63.4609C135.58 63.2116 135.697 62.9804 135.881 62.8107C136.066 62.641 136.306 62.5444 136.557 62.5389H140.816C140.934 62.5372 141.052 62.5604 141.16 62.6072C141.269 62.654 141.366 62.7232 141.446 62.8103C141.526 62.8973 141.586 63.0003 141.623 63.1125C141.661 63.2246 141.674 63.3434 141.662 63.4609L141.32 67.7247C141.295 67.9767 141.177 68.2105 140.99 68.3808C140.802 68.5512 140.558 68.6459 140.305 68.6466Z" fill="#EEB301"/>
<path opacity="0.5" d="M158.515 71.9683H135.28C135.224 71.9685 135.169 71.957 135.117 71.9346C135.066 71.9121 135.02 71.8792 134.982 71.8379C134.944 71.7965 134.915 71.7478 134.897 71.6947C134.879 71.6415 134.873 71.5853 134.878 71.5294C134.89 71.4122 134.945 71.3036 135.032 71.2236C135.118 71.1437 135.231 71.0978 135.349 71.0946H158.588C158.644 71.0944 158.699 71.1058 158.75 71.128C158.801 71.1502 158.847 71.1828 158.885 71.2237C158.922 71.2645 158.951 71.3128 158.97 71.3654C158.988 71.4181 158.995 71.4739 158.991 71.5294C158.979 71.648 158.924 71.7582 158.836 71.8391C158.749 71.9199 158.635 71.9659 158.515 71.9683Z" fill="#EEB301"/>
<path opacity="0.2" d="M155.439 65.1359H144.75C144.661 65.1369 144.573 65.1191 144.491 65.0837C144.409 65.0482 144.336 64.9959 144.276 64.9301C144.216 64.8643 144.17 64.7866 144.142 64.7021C144.114 64.6175 144.105 64.528 144.114 64.4394C144.133 64.252 144.221 64.0783 144.359 63.9508C144.498 63.8233 144.678 63.7507 144.867 63.7469H155.556C155.645 63.7459 155.733 63.7636 155.814 63.7988C155.896 63.834 155.969 63.886 156.029 63.9513C156.089 64.0166 156.134 64.0938 156.162 64.1779C156.191 64.262 156.201 64.3511 156.192 64.4394C156.174 64.6274 156.087 64.8021 155.948 64.9305C155.809 65.0588 155.628 65.1319 155.439 65.1359Z" fill="#263238"/>
<path opacity="0.2" d="M151.019 67.4389H144.54C144.452 67.4399 144.364 67.4222 144.283 67.3869C144.201 67.3517 144.128 67.2997 144.068 67.2344C144.008 67.1691 143.962 67.0919 143.934 67.0078C143.906 66.9237 143.896 66.8347 143.904 66.7464C143.923 66.5583 144.01 66.3836 144.149 66.2553C144.287 66.1269 144.468 66.0538 144.657 66.0498H151.119C151.208 66.0488 151.297 66.0666 151.378 66.1021C151.46 66.1375 151.533 66.1899 151.593 66.2556C151.653 66.3214 151.699 66.3991 151.727 66.4837C151.755 66.5683 151.765 66.6578 151.755 66.7464C151.736 66.931 151.651 67.1026 151.516 67.2298C151.381 67.357 151.204 67.4312 151.019 67.4389Z" fill="#263238"/>
<path opacity="0.5" d="M138.57 89.3172H134.306C134.188 89.3183 134.07 89.2945 133.962 89.2473C133.853 89.2001 133.756 89.1305 133.676 89.0431C133.596 88.9557 133.536 88.8525 133.499 88.7402C133.462 88.6278 133.449 88.5089 133.46 88.3912L133.819 84.1314C133.845 83.8821 133.961 83.651 134.146 83.4812C134.331 83.3115 134.571 83.2149 134.821 83.2094H139.081C139.199 83.2077 139.316 83.231 139.425 83.2777C139.533 83.3245 139.631 83.3937 139.711 83.4808C139.79 83.5679 139.851 83.6709 139.888 83.783C139.925 83.8951 139.938 84.0139 139.926 84.1314L139.568 88.3912C139.543 88.6405 139.427 88.8721 139.244 89.0425C139.06 89.213 138.82 89.3106 138.57 89.3172Z" fill="#EEB301"/>
<path opacity="0.25" d="M156.78 92.6388H133.541C133.485 92.639 133.429 92.6276 133.378 92.6051C133.327 92.5826 133.281 92.5497 133.243 92.5084C133.205 92.4671 133.176 92.4183 133.158 92.3652C133.14 92.3121 133.133 92.2558 133.138 92.2C133.151 92.0828 133.206 91.9741 133.292 91.8942C133.379 91.8142 133.492 91.7684 133.609 91.7651H156.849C156.904 91.765 156.959 91.7763 157.011 91.7985C157.062 91.8208 157.107 91.8533 157.145 91.8942C157.183 91.9351 157.212 91.9834 157.23 92.036C157.249 92.0886 157.256 92.1444 157.251 92.2C157.24 92.3179 157.185 92.4275 157.099 92.5083C157.012 92.5891 156.899 92.6355 156.78 92.6388Z" fill="#EEB301"/>
<path opacity="0.2" d="M153.704 85.8023H143.015C142.926 85.8039 142.838 85.7867 142.756 85.7517C142.674 85.7167 142.601 85.6647 142.541 85.5993C142.481 85.5338 142.435 85.4563 142.407 85.372C142.379 85.2876 142.369 85.1983 142.378 85.1098C142.397 84.9229 142.484 84.7491 142.622 84.6216C142.76 84.494 142.939 84.4213 143.127 84.4173H153.821C153.91 84.4157 153.998 84.433 154.08 84.468C154.161 84.503 154.235 84.555 154.295 84.6204C154.355 84.6859 154.401 84.7633 154.428 84.8477C154.456 84.9321 154.466 85.0214 154.457 85.1098C154.438 85.2975 154.351 85.4718 154.212 85.5994C154.074 85.7271 153.893 85.7993 153.704 85.8023Z" fill="#263238"/>
<path opacity="0.2" d="M149.283 88.1093H142.841C142.752 88.1103 142.664 88.0925 142.582 88.0571C142.501 88.0216 142.427 87.9693 142.367 87.9035C142.307 87.8377 142.262 87.76 142.234 87.6754C142.206 87.5909 142.196 87.5013 142.205 87.4127C142.225 87.2261 142.312 87.0529 142.449 86.9255C142.587 86.798 142.767 86.7251 142.954 86.7203H149.42C149.509 86.7193 149.597 86.737 149.678 86.7722C149.76 86.8074 149.833 86.8594 149.893 86.9247C149.953 86.99 149.998 87.0672 150.026 87.1513C150.055 87.2354 150.065 87.3245 150.056 87.4127C150.037 87.6042 149.948 87.7817 149.805 87.9106C149.662 88.0394 149.476 88.1102 149.283 88.1093Z" fill="#263238"/>
<path d="M46.6798 36.0828C46.72 38.4985 46.8489 42.7421 45.5766 44.2318C48.4999 45.1876 51.122 46.8922 53.1821 49.176C54.9254 46.3254 52.6547 44.7955 52.6547 44.7955C50.1423 43.9902 50.6416 42.4119 51.1609 40.6726L46.6798 36.0828Z" fill="#B55B52"/>
<path d="M44.4895 48.568L43.0079 51.4185L41.5464 54.2731C41.0713 55.2273 40.6042 56.1775 40.1734 57.1156C39.96 57.5866 39.7708 58.0537 39.5856 58.5046C39.4251 58.887 39.2906 59.2798 39.183 59.6803V59.0401C39.2338 59.6207 39.3403 60.1951 39.501 60.7553C39.6777 61.3763 39.8901 61.9866 40.1372 62.5832C40.3868 63.1992 40.6727 63.8152 40.9787 64.4312C41.2847 65.0472 41.6269 65.6793 41.9329 66.255L41.9772 66.3315C42.1089 66.574 42.1518 66.8549 42.0984 67.1257C42.045 67.3965 41.8987 67.6401 41.6847 67.8144C41.4708 67.9887 41.2027 68.0828 40.9267 68.0803C40.6507 68.0779 40.3843 67.9791 40.1734 67.8011C39.569 67.2957 39.0037 66.7452 38.4824 66.1544C37.9629 65.567 37.4815 64.9471 37.041 64.2983C36.5812 63.6238 36.1772 62.9128 35.8332 62.1725C35.4577 61.3801 35.1766 60.5463 34.9957 59.6883C34.9657 59.5151 34.9657 59.3381 34.9957 59.1649V59.0482C35.0849 58.3768 35.2303 57.7142 35.4306 57.0673C35.6077 56.4835 35.809 55.9359 36.0144 55.3924C36.417 54.3133 36.8639 53.2786 37.3269 52.26C37.7899 51.2414 38.2731 50.2469 38.7723 49.2444C39.2716 48.2418 39.7869 47.2796 40.3506 46.2972C40.6617 45.7697 41.1653 45.3836 41.7555 45.2201C42.3456 45.0567 42.9762 45.1287 43.5143 45.421C44.0524 45.7133 44.4561 46.203 44.6403 46.787C44.8244 47.3711 44.7747 48.0038 44.5016 48.5519L44.4895 48.568Z" fill="#B55B52"/>
<path d="M43.3702 67.1006L42.8226 66.7544L41.2685 65.7559L40.1613 67.4066C40.564 69.0171 42.1744 69.7861 42.1744 69.7861L42.7904 69.927C43.0038 69.9818 43.2301 69.9531 43.4231 69.8469C43.6161 69.7407 43.7613 69.5649 43.8292 69.3553L44.0064 68.8802C44.1072 68.5547 44.0997 68.2052 43.985 67.8843C43.8703 67.5634 43.6546 67.2884 43.3702 67.1006Z" fill="#B55B52"/>
<path d="M71.9522 60.6868L70.7443 61.2344C70.5075 61.3394 70.3218 61.5337 70.2275 61.775C70.1333 62.0163 70.1381 62.2851 70.2411 62.5228L70.6719 63.5334C70.7259 63.6545 70.8076 63.7613 70.9104 63.8452C71.0132 63.9291 71.1342 63.9878 71.2637 64.0165C72.2944 64.2299 73.7801 63.6381 74.847 63.1026C75.0216 63.0173 75.176 62.8958 75.3 62.7462C75.424 62.5965 75.5147 62.4223 75.5661 62.2349C75.6176 62.0475 75.6285 61.8513 75.5982 61.6594C75.5679 61.4674 75.4972 61.2841 75.3906 61.1217L74.9235 60.405C74.7254 60.1073 74.4189 59.8986 74.0692 59.8234C73.7196 59.7482 73.3544 59.8124 73.0513 60.0024L71.9522 60.6868Z" fill="#B55B52"/>
<path d="M42.416 44.425C40.2982 45.3631 38.3616 47.5977 36.7793 51.7285C37.2906 53.4316 42.5247 56.2258 42.5247 56.2258C42.5247 56.2258 49.0552 42.3717 42.416 44.425Z" fill="#D63825"/>
<path d="M59.8978 49.7155C59.8776 51.2535 62.4182 54.8087 59.4952 56.8701C59.2415 59.9743 58.8953 63.0302 58.2309 68.1233H42.5932C44.0788 62.4866 42.7945 58.698 40.411 48.7976C40.2756 48.2651 40.2567 47.7096 40.3557 47.1692C40.4547 46.6287 40.6692 46.116 40.9846 45.6661C41.2999 45.2161 41.7087 44.8396 42.183 44.5622C42.6573 44.2848 43.1858 44.1131 43.7326 44.0587C44.3526 43.9943 45.0129 43.942 45.6893 43.9097C48.0524 43.7425 50.4244 43.7425 52.7875 43.9097C53.5565 43.9822 54.3497 44.0789 55.1106 44.1835C56.441 44.3746 57.6577 45.0393 58.5372 46.0556C59.4167 47.0719 59.8998 48.3715 59.8978 49.7155Z" fill="#E23E2B"/>
<path opacity="0.2" d="M42.416 46.6597C44.5338 46.9495 49.0592 45.943 50.6013 45.4719C48.6284 46.5268 43.5836 48.4473 42.416 46.6597Z" fill="black"/>
<path d="M59.4146 47.8514C59.6321 48.9264 59.8454 50.0537 60.087 51.1488C60.3286 52.244 60.5621 53.3512 60.8158 54.4342C61.0694 55.5173 61.3512 56.5923 61.6572 57.623C61.8102 58.1383 61.9834 58.6416 62.1525 59.1127C62.3045 59.5401 62.4875 59.9559 62.7 60.3568L61.8948 59.628C61.8948 59.628 61.923 59.628 61.935 59.6522C61.9471 59.6763 62.0478 59.6965 62.1041 59.7246L62.6155 59.8776C62.9899 59.9823 63.4207 60.0709 63.8233 60.1555C64.6688 60.3165 65.5506 60.4735 66.4363 60.6104L69.1218 61.0332C70.0156 61.1862 70.9255 61.319 71.8194 61.4801C72.0977 61.5306 72.3487 61.6791 72.527 61.8987C72.7053 62.1184 72.799 62.3946 72.7912 62.6773C72.7834 62.9601 72.6747 63.2307 72.4846 63.4402C72.2945 63.6497 72.0356 63.7842 71.7549 63.8193C70.8168 63.9361 69.8948 63.9964 68.9608 64.0649C68.0267 64.1333 67.0966 64.1494 66.1424 64.1575C65.1882 64.1655 64.2582 64.1575 63.2878 64.081C62.8007 64.0448 62.3095 64.0045 61.7861 63.928C61.5203 63.8918 61.2506 63.8434 60.9526 63.775C60.7956 63.7307 60.6587 63.7025 60.4695 63.6381C60.3753 63.6106 60.2826 63.5784 60.1917 63.5415L59.8615 63.3925C59.5755 63.2583 59.3308 63.0497 59.1529 62.7886L59.0724 62.6638C58.6883 62.0762 58.3504 61.4597 58.0618 60.8198C57.7881 60.2279 57.5666 59.6441 57.3492 59.0684C56.9224 57.9088 56.5681 56.7614 56.2501 55.6099C55.932 54.4584 55.6501 53.3109 55.3925 52.1594C55.1348 51.0079 54.9093 49.8645 54.7241 48.6647C54.6264 48.054 54.772 47.4293 55.1296 46.9247C55.4872 46.4201 56.0284 46.0758 56.637 45.9656C57.2456 45.8555 57.8731 45.9883 58.3849 46.3356C58.8967 46.6829 59.2519 47.217 59.3744 47.8232L59.4146 47.8514Z" fill="#B55B52"/>
<path d="M56.4433 44.5378C58.3719 45.496 60.2843 47.3561 61.0775 51.6158C60.5782 53.3028 53.6854 56.5519 53.6854 56.5519C53.6854 56.5519 49.8484 42.0737 56.4433 44.5378Z" fill="#D63825"/>
<path d="M56.1695 34.2227C56.1333 34.5286 56.2661 34.8024 56.4674 34.8306C56.6688 34.8588 56.8701 34.6414 56.9023 34.3354C56.9345 34.0294 56.8056 33.7556 56.6043 33.7234C56.403 33.6912 56.2098 33.9167 56.1695 34.2227Z" fill="#263238"/>
<path d="M56.5157 33.7275L57.2807 33.6309C57.2807 33.6309 56.8298 34.1462 56.5157 33.7275Z" fill="#263238"/>
<path d="M56.2581 34.5569C56.4459 35.3006 56.733 36.0156 57.1116 36.6827C56.9381 36.7696 56.7476 36.8175 56.5536 36.823C56.3595 36.8286 56.1666 36.7917 55.9883 36.7149L56.2581 34.5569Z" fill="#A02724"/>
<path d="M56.8861 32.113C56.9317 32.1121 56.9751 32.0933 57.0069 32.0606C57.0404 32.0261 57.0591 31.9799 57.0591 31.9318C57.0591 31.8837 57.0404 31.8375 57.0069 31.8029C56.8 31.5928 56.546 31.4349 56.2659 31.3425C55.9859 31.2501 55.6878 31.2257 55.3964 31.2715C55.3732 31.2767 55.3513 31.2865 55.332 31.3003C55.3126 31.3141 55.2963 31.3317 55.2839 31.352C55.2715 31.3723 55.2633 31.3949 55.2598 31.4184C55.2563 31.4419 55.2576 31.4659 55.2636 31.4889C55.2751 31.5363 55.3047 31.5772 55.3462 31.6028C55.3876 31.6284 55.4375 31.6367 55.485 31.6258C55.7144 31.5954 55.9477 31.6189 56.1665 31.6944C56.3852 31.7698 56.5834 31.8952 56.7452 32.0606C56.7634 32.0791 56.7855 32.0934 56.8099 32.1025C56.8342 32.1115 56.8603 32.1151 56.8861 32.113Z" fill="#263238"/>
<path d="M46.0959 31.6339C45.8503 35.4306 45.6692 37.029 47.3038 39.2555C49.7638 42.5972 54.4221 42.1946 55.7588 38.575C56.9667 35.3178 57.172 29.657 53.7216 27.5916C52.9793 27.1327 52.1299 26.876 51.2577 26.8471C50.3855 26.8182 49.521 27.018 48.75 27.4267C47.979 27.8354 47.3283 28.4388 46.8627 29.1769C46.3971 29.9149 46.1328 30.762 46.0959 31.6339Z" fill="#B55B52"/>
<path d="M53.5484 35.0601C56.1333 34.0536 55.791 31.1708 54.4503 30.0274C57.0714 31.1024 58.8791 30.2649 56.8982 27.4103C54.9174 24.5558 44.0788 23.9559 45.5766 28.3847C40.7451 26.8306 42.1624 33.2604 42.416 37.4758C38.9213 40.9988 47.6179 44.0546 53.1176 42.2751C58.6174 40.4955 53.5484 35.0601 53.5484 35.0601Z" fill="#263238"/>
<path d="M52.558 34.5286C52.86 35.4949 52.9606 35.9096 53.5485 36.3726C54.4262 37.0692 55.4528 36.6947 55.4247 35.7083C55.4005 34.8185 54.9133 33.3892 53.9269 33.0712C52.9405 32.7531 52.256 33.5624 52.558 34.5286Z" fill="#B55B52"/>
<path d="M58.2269 68.1233C58.2269 68.1233 58.7785 88.3066 59.5153 101.589C60.2963 113.772 61.2989 142.274 61.2989 142.274L58.2228 142.435C58.2228 142.435 51.4065 118.455 51.6964 103.965C43.6963 83.6966 46.571 68.7313 46.571 68.7313L58.2269 68.1233Z" fill="#263238"/>
<path d="M61.0694 141.001C61.1379 140.952 61.2203 140.925 61.3049 140.925C61.3895 140.925 61.4719 140.952 61.5404 141.001C63.0182 142.103 64.8108 142.7 66.6537 142.705C68.699 142.793 68.1917 143.912 65.2647 144.283C61.8263 144.714 61.0855 145.418 59.9742 145.7C58.863 145.982 57.9611 145.132 58.0014 142.797C58.0036 142.717 58.0296 142.639 58.0763 142.574C58.1229 142.509 58.188 142.459 58.2631 142.431C59.2504 142.064 60.192 141.584 61.0694 141.001Z" fill="#263238"/>
<path d="M54.1403 68.1233C54.1403 68.1233 48.5036 92.0107 45.2384 103.127C41.804 114.803 39.0863 141.448 39.1024 142.334H36.4411C36.4411 142.334 32.9987 120.738 37.2464 103.119C37.649 74.533 42.5771 68.1233 42.5771 68.1233H54.1403Z" fill="#263238"/>
<path d="M39.1749 141.368C39.2445 141.338 39.322 141.333 39.395 141.353C39.468 141.372 39.5323 141.416 39.5776 141.477C40.266 142.366 40.7854 143.357 42.7985 144.226C44.4774 144.947 43.5514 145.93 40.9143 145.567C37.8181 145.144 37.7779 145.648 36.731 145.648C35.6842 145.648 35.1971 144.609 35.958 142.35C35.9828 142.275 36.0273 142.209 36.0868 142.157C36.1463 142.105 36.2186 142.07 36.2962 142.056C37.2803 141.945 38.2471 141.714 39.1749 141.368Z" fill="#263238"/>
<path opacity="0.2" d="M41.9369 79.0463C46.6355 82.6054 50.1987 83.2778 50.1987 83.2778C50.1987 83.2778 46.3536 84.6387 41.9369 79.0463Z" fill="black"/>
</svg>
