<svg width="202" height="150" viewBox="0 0 202 150" fill="none" xmlns="http://www.w3.org/2000/svg">
<path d="M201.31 131.818H0V131.918H201.31V131.818Z" fill="#EBEBEB"/>
<path d="M181.139 138.296H175.14V138.397H181.139V138.296Z" fill="#EBEBEB"/>
<path d="M133.356 139.391H129.857V139.492H133.356V139.391Z" fill="#EBEBEB"/>
<path d="M173.44 134.56H159.675V134.66H173.44V134.56Z" fill="#EBEBEB"/>
<path d="M44.1392 136.637H26.75V136.738H44.1392V136.637Z" fill="#EBEBEB"/>
<path d="M53.9953 136.637H47.7225V136.738H53.9953V136.637Z" fill="#EBEBEB"/>
<path d="M102.571 135.284H64.854V135.385H102.571V135.284Z" fill="#EBEBEB"/>
<path d="M95.4209 113.861H17.679C17.07 113.86 16.4863 113.617 16.056 113.186C15.6257 112.755 15.3841 112.171 15.3841 111.562V2.27883C15.3894 1.6733 15.6334 1.09431 16.0631 0.667631C16.4928 0.240951 17.0735 0.0010373 17.679 0H95.4209C96.0306 0 96.6153 0.242211 97.0465 0.673349C97.4776 1.10449 97.7198 1.68924 97.7198 2.29896V111.562C97.7198 112.172 97.4776 112.756 97.0465 113.188C96.6153 113.619 96.0306 113.861 95.4209 113.861ZM17.679 0.0805242C17.0967 0.0815908 16.5386 0.313667 16.1272 0.725813C15.7158 1.13796 15.4847 1.6965 15.4847 2.27883V111.562C15.4847 112.144 15.7158 112.703 16.1272 113.115C16.5386 113.527 17.0967 113.759 17.679 113.76H95.4209C96.0035 113.759 96.5621 113.527 96.9741 113.115C97.3861 112.703 97.6181 112.145 97.6192 111.562V2.27883C97.6181 1.69613 97.3861 1.1376 96.9741 0.725568C96.5621 0.313536 96.0035 0.0815885 95.4209 0.0805242H17.679Z" fill="#EBEBEB"/>
<path d="M182.512 113.861H104.766C104.156 113.86 103.572 113.617 103.141 113.186C102.71 112.755 102.468 112.171 102.467 111.562V2.27883C102.473 1.67293 102.718 1.09395 103.148 0.667379C103.579 0.24081 104.16 0.00102599 104.766 0H182.512C183.116 0.00209543 183.696 0.242477 184.125 0.669044C184.554 1.09561 184.797 1.67399 184.802 2.27883V111.562C184.802 112.17 184.561 112.754 184.132 113.185C183.703 113.616 183.12 113.859 182.512 113.861ZM104.766 0.0805242C104.183 0.0815885 103.624 0.313536 103.212 0.725568C102.8 1.1376 102.568 1.69613 102.567 2.27883V111.562C102.568 112.145 102.8 112.703 103.212 113.115C103.624 113.527 104.183 113.759 104.766 113.76H182.512C183.094 113.759 183.653 113.527 184.065 113.115C184.477 112.703 184.709 112.145 184.71 111.562V2.27883C184.709 1.69613 184.477 1.1376 184.065 0.725568C183.653 0.313536 183.094 0.0815885 182.512 0.0805242H104.766Z" fill="#EBEBEB"/>
<path d="M89.1802 128.879H92.3609V107.097H89.1802V128.879Z" fill="#F0F0F0"/>
<path d="M24.8456 131.818H90.2633V128.879H24.8456V131.818Z" fill="#F0F0F0"/>
<path d="M89.1803 107.097H22.744V128.879H89.1803V107.097Z" fill="#F5F5F5"/>
<path d="M84.8802 110.89H27.0399V123.33H84.8802V110.89Z" fill="#F0F0F0"/>
<path d="M41.8926 112.552H70.0357C70.5627 112.552 70.9899 112.125 70.9899 111.598V111.421C70.9899 110.894 70.5627 110.467 70.0357 110.467H41.8926C41.3656 110.467 40.9384 110.894 40.9384 111.421V111.598C40.9384 112.125 41.3656 112.552 41.8926 112.552Z" fill="#F5F5F5"/>
<path d="M21.2865 107.097L89.1803 107.097V105.152L21.2865 105.152V107.097Z" fill="#F0F0F0"/>
<path d="M93.8869 105.152H89.1803V107.097H93.8869V105.152Z" fill="#E6E6E6"/>
<path d="M86.7525 76.4213L171.878 76.4213V11.1365L86.7525 11.1365L86.7525 76.4213Z" fill="#E6E6E6"/>
<path d="M78.7846 8.59596H176.694C176.889 8.59596 177.077 8.67358 177.215 8.81176C177.353 8.94994 177.431 9.13734 177.431 9.33275C177.429 9.52746 177.351 9.71384 177.213 9.85114C177.075 9.98845 176.888 10.0655 176.694 10.0655H78.7846C78.6876 10.0661 78.5913 10.0474 78.5015 10.0106C78.4116 9.97381 78.3299 9.91962 78.2611 9.85115C78.1922 9.78268 78.1376 9.70127 78.1003 9.61162C78.063 9.52196 78.0438 9.42582 78.0438 9.32873C78.0444 9.23197 78.0639 9.13626 78.1015 9.04707C78.139 8.95788 78.1937 8.87695 78.2625 8.80891C78.3313 8.74087 78.4128 8.68704 78.5024 8.6505C78.592 8.61396 78.6879 8.59543 78.7846 8.59596Z" fill="#E6E6E6"/>
<path d="M83.5959 76.4213L170.405 76.4213V11.1365L83.5959 11.1365L83.5959 76.4213Z" fill="#F0F0F0"/>
<path d="M86.7525 76.4213H171.878V78.5109H84.5783L86.7525 76.4213Z" fill="#E6E6E6"/>
<path d="M78.3377 76.4213H165.147L162.972 78.5109H76.1676L78.3377 76.4213Z" fill="#F0F0F0"/>
<path d="M165.984 72.0045V15.5532L88.0127 15.5532V72.0045H165.984Z" fill="#FAFAFA"/>
<path d="M139.967 72.0005L114.042 15.5532H101.798L127.727 72.0005H139.967Z" fill="white"/>
<path d="M125.098 72.0005L99.1692 15.5532H94.3982L120.327 72.0005H125.098Z" fill="white"/>
<path d="M88.5763 72.0045V15.5532H88.0167V72.0045H88.5763Z" fill="#E6E6E6"/>
<g opacity="0.4">
<path opacity="0.4" d="M165.936 61.1459H173.537V7.27134H165.936V61.1459Z" fill="#F0F0F0"/>
<path opacity="0.4" d="M162.972 61.1459H168.895V7.27134H162.972V61.1459Z" fill="#E6E6E6"/>
<path opacity="0.4" d="M158.334 61.1459H165.936V7.27134H158.334V61.1459Z" fill="#F0F0F0"/>
<path opacity="0.4" d="M155.371 61.1459H161.293V7.27134H155.371V61.1459Z" fill="#E6E6E6"/>
<path opacity="0.4" d="M150.729 61.1459H158.33V7.27134H150.729V61.1459Z" fill="#F0F0F0"/>
</g>
<g opacity="0.4">
<path opacity="0.4" d="M90.8472 61.1459H95.2277V7.27134H90.8472V61.1459Z" fill="#F0F0F0"/>
<path opacity="0.4" d="M89.1361 61.1459H92.5503V7.27134H89.1361V61.1459Z" fill="#E6E6E6"/>
<path opacity="0.4" d="M86.4627 61.1459H90.8432V7.27134H86.4627V61.1459Z" fill="#F0F0F0"/>
<path opacity="0.4" d="M84.7557 61.1459H88.1699V7.27134H84.7557V61.1459Z" fill="#E6E6E6"/>
<path opacity="0.4" d="M82.0822 61.1459H86.4627V7.27134H82.0822V61.1459Z" fill="#F0F0F0"/>
</g>
<path d="M63.2918 7.30762H28.3163V96.6731H63.2918V7.30762Z" fill="#F5F5F5"/>
<path d="M63.2959 96.6689H64.2541L64.2541 7.30348H63.2959L63.2959 96.6689Z" fill="#E0E0E0"/>
<path d="M60.0507 93.4319L60.0507 10.5446L31.5533 10.5446L31.5533 93.4319H60.0507Z" fill="white"/>
<path d="M41.5866 93.4319L51.0441 10.5446H56.4996L47.0461 93.4319H41.5866Z" fill="#FAFAFA"/>
<path d="M36.8598 93.4319L46.3134 10.5446H49.0431L39.5896 93.4319H36.8598Z" fill="#FAFAFA"/>
<path d="M100.655 150C143.768 150 178.719 147.959 178.719 145.442C178.719 142.925 143.768 140.885 100.655 140.885C57.5414 140.885 22.591 142.925 22.591 145.442C22.591 147.959 57.5414 150 100.655 150Z" fill="#F5F5F5"/>
<path d="M160.263 145.442H113.237C112.582 145.449 111.932 145.32 111.33 145.062C110.727 144.804 110.185 144.424 109.738 143.945C109.291 143.467 108.948 142.9 108.732 142.282C108.515 141.663 108.43 141.006 108.482 140.353L115.045 40.8779C115.154 39.5074 115.771 38.2269 116.773 37.286C117.776 36.3452 119.093 35.8114 120.468 35.7888H167.49C168.145 35.7823 168.794 35.9122 169.395 36.1702C169.997 36.4281 170.539 36.8086 170.986 37.2872C171.433 37.7659 171.775 38.3324 171.991 38.9505C172.207 39.5687 172.292 40.2251 172.241 40.8779L165.686 140.353C165.576 141.724 164.96 143.004 163.957 143.945C162.955 144.886 161.637 145.42 160.263 145.442Z" fill="#263238"/>
<path d="M170.163 62.5389H164.47C164.312 62.5405 164.155 62.5092 164.01 62.447C163.865 62.3847 163.734 62.293 163.626 62.1775C163.518 62.062 163.435 61.9253 163.383 61.7761C163.331 61.6269 163.31 61.4685 163.323 61.3109L163.89 52.6948C163.922 52.3672 164.074 52.0628 164.316 51.84C164.558 51.6171 164.874 51.4914 165.203 51.487H170.892C171.048 51.4856 171.203 51.5164 171.347 51.5774C171.491 51.6384 171.62 51.7283 171.728 51.8416C171.836 51.9549 171.919 52.0891 171.972 52.2359C172.026 52.3826 172.049 52.5389 172.039 52.6948L171.472 61.3109C171.446 61.6418 171.297 61.951 171.055 62.1781C170.813 62.4053 170.495 62.5339 170.163 62.5389Z" fill="#263238"/>
<path d="M159.546 145.443H112.52C111.865 145.449 111.216 145.319 110.614 145.061C110.012 144.803 109.47 144.423 109.023 143.944C108.576 143.466 108.233 142.899 108.016 142.281C107.8 141.663 107.714 141.006 107.765 140.353L114.344 40.8782C114.454 39.5077 115.07 38.2272 116.073 37.2863C117.075 36.3455 118.393 35.8117 119.767 35.7891H166.793C167.446 35.7865 168.092 35.9193 168.69 36.179C169.289 36.4387 169.827 36.8197 170.271 37.298C170.714 37.7762 171.054 38.3413 171.269 38.9575C171.483 39.5738 171.567 40.2278 171.516 40.8782L164.969 140.353C164.86 141.724 164.243 143.005 163.241 143.945C162.238 144.886 160.921 145.42 159.546 145.443Z" fill="#EEB301"/>
<path d="M161.68 133.855H111.928C111.556 133.859 111.187 133.785 110.845 133.639C110.503 133.492 110.195 133.276 109.941 133.004C109.687 132.733 109.492 132.411 109.369 132.059C109.246 131.708 109.198 131.335 109.227 130.964L114.94 44.3606C115.002 43.584 115.35 42.8582 115.917 42.3239C116.484 41.7897 117.229 41.4853 118.008 41.4698H167.772C168.144 41.4658 168.513 41.5394 168.855 41.6858C169.197 41.8322 169.505 42.0483 169.759 42.3202C170.013 42.5921 170.208 42.9139 170.331 43.2652C170.454 43.6165 170.502 43.9895 170.473 44.3606L164.76 130.964C164.698 131.743 164.348 132.47 163.779 133.005C163.209 133.539 162.461 133.842 161.68 133.855Z" fill="white"/>
<path d="M152.4 41.4697H142.519L118.584 133.855H128.464L152.4 41.4697Z" fill="#FAFAFA"/>
<path d="M161.104 41.4697H156.164L132.228 133.855H137.168L161.104 41.4697Z" fill="#FAFAFA"/>
<path d="M154.542 105.229L143.8 64.6002C143.512 63.5201 142.809 62.5979 141.843 62.0357C140.877 61.4734 139.727 61.317 138.646 61.6007L113.233 68.3164L109.843 121.406L151.542 110.386C152.622 110.097 153.543 109.392 154.105 108.426C154.667 107.46 154.824 106.31 154.542 105.229Z" fill="#F0F0F0"/>
<path opacity="0.2" d="M138.602 140.733C139.894 139.484 139.993 137.492 138.824 136.284C137.656 135.075 135.661 135.109 134.37 136.358C133.079 137.607 132.979 139.599 134.148 140.807C135.317 142.016 137.311 141.982 138.602 140.733Z" fill="white"/>
<path opacity="0.2" d="M144.391 38.4662C144.363 38.817 144.206 39.1448 143.949 39.3853C143.692 39.6258 143.354 39.7618 143.002 39.7667C142.836 39.7672 142.671 39.7332 142.518 39.6668C142.365 39.6003 142.227 39.503 142.114 39.3808C142 39.2587 141.913 39.1144 141.859 38.957C141.804 38.7995 141.782 38.6325 141.795 38.4662C141.822 38.1151 141.979 37.7869 142.236 37.5462C142.494 37.3055 142.831 37.1698 143.184 37.1658C143.35 37.1653 143.515 37.1993 143.668 37.2657C143.821 37.3321 143.959 37.4295 144.072 37.5516C144.186 37.6738 144.273 37.8181 144.328 37.9755C144.382 38.1329 144.404 38.3 144.391 38.4662Z" fill="white"/>
<path opacity="0.2" d="M143.804 38.4663C143.79 38.6593 143.704 38.84 143.563 38.9727C143.422 39.1054 143.236 39.1804 143.043 39.1829C142.95 39.1844 142.859 39.1665 142.774 39.1303C142.689 39.0942 142.612 39.0406 142.549 38.973C142.486 38.9055 142.438 38.8255 142.408 38.7382C142.378 38.6509 142.366 38.5583 142.374 38.4663C142.388 38.2732 142.474 38.0925 142.615 37.9598C142.756 37.8271 142.942 37.7521 143.135 37.7496C143.228 37.7481 143.319 37.7661 143.404 37.8022C143.489 37.8384 143.566 37.8919 143.629 37.9595C143.692 38.027 143.74 38.107 143.77 38.1943C143.8 38.2816 143.812 38.3742 143.804 38.4663Z" fill="white"/>
<path d="M68.1715 33.4416C69.6733 29.7495 69.1337 25.2523 64.874 24.2457C63.9354 24.0039 62.9531 23.9854 62.006 24.1916C61.0589 24.3979 60.1733 24.8232 59.4202 25.4334C58.6671 26.0437 58.0674 26.8219 57.6693 27.7056C57.2712 28.5894 57.0857 29.5542 57.1276 30.5226C57.2967 34.5488 59.946 37.9026 55.3038 40.8216C50.6616 43.7406 51.1568 52.5378 60.1352 50.8388C69.1136 49.1397 64.262 44.5217 64.262 44.5217C64.262 44.5217 62.0597 46.3173 61.3511 44.4895C60.4533 42.1221 66.4322 37.7617 68.1715 33.4416Z" fill="#263238"/>
<path d="M52.3727 45.5523L52.1754 45.508C52.7753 42.8226 53.7175 42.1301 54.7119 41.3973C55.7064 40.6645 56.6485 39.968 57.4095 37.3268C57.7678 36.0827 57.5424 34.7058 57.3209 33.3771C57.0391 31.6821 56.7492 29.9267 57.6229 28.3564L57.796 28.4571C56.9586 29.9629 57.2444 31.6781 57.5182 33.3449C57.7437 34.6977 57.9772 36.0948 57.6027 37.3711C56.8257 40.0767 55.8111 40.8216 54.8327 41.5463C53.8544 42.271 52.9565 42.9434 52.3727 45.5523Z" fill="#263238"/>
<path d="M79.6059 53.7216C79.6341 53.8584 79.6824 54.0638 79.7267 54.249L79.8676 54.8167C79.9643 55.1992 80.073 55.5817 80.1857 55.9642C80.4152 56.7251 80.6608 57.4941 80.9265 58.251C81.4579 59.7742 82.0653 61.2698 82.7464 62.7322L83.2537 63.7911C83.3395 63.9804 83.4612 64.1513 83.612 64.2944C84.0645 64.6583 84.6045 64.8971 85.1782 64.9869C86.6836 65.2302 88.2183 65.2302 89.7238 64.9869L90.2673 66.698C89.8507 66.8816 89.4247 67.0429 88.991 67.1811C88.56 67.3245 88.1219 67.4454 87.6784 67.5435C86.7549 67.7562 85.807 67.8442 84.8601 67.8052C83.7459 67.7738 82.6625 67.4322 81.7318 66.8188C81.2081 66.4555 80.7664 65.9864 80.4353 65.4418L80.3709 65.3412L80.3306 65.2727L80.2501 65.1278L80.085 64.8459L79.7589 64.2742C78.9164 62.7386 78.1766 61.1488 77.5445 59.5153C77.2385 58.71 76.9366 57.8685 76.691 57.019C76.5702 56.6164 76.4494 56.1695 76.3407 55.7347C76.232 55.2998 76.1353 54.8892 76.0468 54.3738L79.6059 53.7216Z" fill="#FFC3BD"/>
<path d="M76.4977 48.0929C80.5601 49.9047 80.5239 55.9923 80.5239 55.9923L76.244 58.565C76.244 58.565 73.0231 53.798 73.2647 51.6319C73.5022 49.3732 74.1947 47.0743 76.4977 48.0929Z" fill="#E23E2B"/>
<path opacity="0.2" d="M77.1379 53.2867C76.0267 52.1634 75.0483 53.4599 74.1545 54.8972C74.7675 56.1682 75.4656 57.3963 76.2441 58.5731L77.9995 57.5183C78.3457 56.1776 78.2451 54.4141 77.1379 53.2867Z" fill="black"/>
<path d="M89.301 65.1399L92.1596 63.7146L92.1918 67.4549C92.1918 67.4549 90.0579 67.8253 88.6367 66.3276L89.301 65.1399Z" fill="#FFC3BD"/>
<path d="M95.2316 64.3789L94.7404 67.157L92.1918 67.4549L92.1596 63.7146L95.2316 64.3789Z" fill="#FFC3BD"/>
<path d="M63.1347 142.471L66.6697 142.809L68.3164 134.584L64.7814 134.245L63.1347 142.471Z" fill="#FFC3BD"/>
<path d="M39.9559 132.828L42.8306 134.922L47.6258 128.118L44.7471 126.024L39.9559 132.828Z" fill="#FFC3BD"/>
<path d="M43.8855 133.613L41.5181 130.372C41.4787 130.315 41.4195 130.274 41.3519 130.258C41.2842 130.241 41.2129 130.251 41.1517 130.284L38.3132 131.79C38.2431 131.83 38.1823 131.885 38.1349 131.951C38.0875 132.017 38.0546 132.092 38.0382 132.172C38.0219 132.251 38.0225 132.333 38.0401 132.412C38.0576 132.491 38.0917 132.566 38.1401 132.631C38.9856 133.746 39.4486 134.241 40.4914 135.671C41.1356 136.549 42.424 138.582 43.3098 139.794C44.1955 141.006 45.4396 140.196 45.1819 139.612C44.0143 136.991 43.9741 135.457 44.0627 134.229C44.0795 134.009 44.0166 133.791 43.8855 133.613Z" fill="#263238"/>
<path d="M67.1368 141.742H62.8931C62.8168 141.742 62.7427 141.768 62.6823 141.814C62.6218 141.861 62.5785 141.926 62.559 142L61.637 145.346C61.6143 145.425 61.6105 145.508 61.6259 145.589C61.6413 145.67 61.6754 145.746 61.7255 145.811C61.7756 145.877 61.8403 145.93 61.9144 145.965C61.9885 146.001 62.07 146.019 62.1523 146.018C63.6501 146.018 64.3587 146.018 66.2228 146.018H71.9279C73.478 146.018 73.8001 144.452 73.1599 144.307C70.2852 143.671 68.6265 142.793 67.7367 141.956C67.5709 141.811 67.3565 141.735 67.1368 141.742Z" fill="#263238"/>
<path opacity="0.2" d="M68.3165 134.588L67.4669 138.827H63.8635L64.7815 134.25L68.3165 134.588Z" fill="black"/>
<path opacity="0.2" d="M44.7471 126.024L47.6258 128.122L45.1537 131.628L42.275 129.531L44.7471 126.024Z" fill="black"/>
<path d="M78.1726 51.3018C77.923 54.0195 77.0211 59.3542 74.384 69.778L59.9138 68.5259C60.6103 63.0945 60.9365 59.5756 59.5756 49.2927C59.5314 48.9528 59.5575 48.6075 59.6523 48.2781C59.7472 47.9487 59.9088 47.6424 60.127 47.3781C60.3452 47.1138 60.6155 46.8972 60.921 46.7417C61.2264 46.5863 61.5606 46.4953 61.9028 46.4744C62.9455 46.418 64.1856 46.3818 65.4297 46.4301C67.6306 46.4631 69.8265 46.6528 72.0005 46.9978C73.2768 47.2273 74.6376 47.5575 75.7448 47.8473C76.4926 48.0432 77.1467 48.4977 77.5912 49.1301C78.0356 49.7625 78.2416 50.5319 78.1726 51.3018Z" fill="#E23E2B"/>
<path opacity="0.2" d="M59.946 52.3043C60.1312 53.9148 60.2681 55.3521 60.3486 56.6405C61.6813 56.5237 62.6637 55.0622 62.7643 52.0064C62.2651 50.5287 61.0774 51.0642 59.946 52.3043Z" fill="black"/>
<path d="M74.384 69.778C74.384 69.778 79.2798 91.4389 75.9944 106.71C73.8082 116.937 68.9405 137.595 68.9405 137.595L62.7684 137.438C62.7684 137.438 65.7156 115.757 66.9516 107.242C69.0653 92.6588 63.7709 68.8761 63.7709 68.8761L74.384 69.778Z" fill="#263238"/>
<path opacity="0.2" d="M68.7392 74.1545L65.6511 79.0222C66.581 84.7938 67.1712 90.6149 67.4186 96.4557C71.7588 88.6851 69.7015 78.2653 68.7392 74.1545Z" fill="black"/>
<path d="M69.8263 137.917L62.2007 137.724L62.6436 135.381L70.4222 135.747L69.8263 137.917Z" fill="#E23E2B"/>
<path d="M71.2193 69.5485C71.2193 69.5485 68.3487 92.518 62.1201 105.06C57.0914 115.19 46.571 131.29 46.571 131.29L42.726 128.21C42.726 128.21 49.3048 110.402 53.0411 103.675C62.2087 87.1672 54.716 74.5853 59.9138 68.5259L71.2193 69.5485Z" fill="#263238"/>
<path d="M131.434 49.1075L62.998 77.8612C60.8496 78.7638 59.8397 81.2372 60.7424 83.3857L77.0196 122.126C77.9222 124.275 80.3956 125.285 82.544 124.382L150.98 95.6284C153.128 94.7257 154.138 92.2523 153.235 90.1039L136.958 51.3631C136.056 49.2147 133.582 48.2048 131.434 49.1075Z" fill="#E23E2B"/>
<path opacity="0.1" d="M131.434 49.1075L62.998 77.8612C60.8496 78.7638 59.8397 81.2372 60.7424 83.3857L77.0196 122.126C77.9222 124.275 80.3956 125.285 82.544 124.382L150.98 95.6284C153.128 94.7257 154.138 92.2523 153.235 90.1039L136.958 51.3631C136.056 49.2147 133.582 48.2048 131.434 49.1075Z" fill="black"/>
<path opacity="0.2" d="M81.8754 76.1366L68.4755 81.7666C67.4423 82.2007 66.9567 83.3902 67.3908 84.4234L70.2152 91.1456C70.6493 92.1788 71.8388 92.6645 72.872 92.2304L86.2718 86.6003C87.305 86.1662 87.7907 84.9767 87.3566 83.9435L84.5322 77.2213C84.0981 76.1881 82.9086 75.7024 81.8754 76.1366Z" fill="white"/>
<path opacity="0.4" d="M91.278 102.709L78.1491 108.225C77.7617 108.388 77.5795 108.834 77.7423 109.221L78.7389 111.593C78.9017 111.981 79.3478 112.163 79.7352 112L92.8641 106.484C93.2516 106.321 93.4337 105.875 93.2709 105.488L92.2743 103.116C92.1115 102.728 91.6655 102.546 91.278 102.709Z" fill="white"/>
<path opacity="0.4" d="M108.359 95.534L95.2305 101.05C94.843 101.213 94.6609 101.659 94.8237 102.047L95.8203 104.418C95.983 104.806 96.4291 104.988 96.8166 104.825L109.945 99.309C110.333 99.1462 110.515 98.7002 110.352 98.3127L109.356 95.9408C109.193 95.5534 108.747 95.3712 108.359 95.534Z" fill="white"/>
<path opacity="0.4" d="M125.437 88.3592L112.308 93.8754C111.92 94.0382 111.738 94.4843 111.901 94.8717L112.898 97.2436C113.06 97.6311 113.507 97.8132 113.894 97.6504L127.023 92.1342C127.41 91.9714 127.592 91.5253 127.43 91.1379L126.433 88.766C126.27 88.3786 125.824 88.1964 125.437 88.3592Z" fill="white"/>
<path opacity="0.4" d="M142.518 81.1844L129.389 86.7006C129.002 86.8634 128.82 87.3094 128.983 87.6969L129.979 90.0688C130.142 90.4562 130.588 90.6384 130.975 90.4756L144.104 84.9594C144.492 84.7966 144.674 84.3505 144.511 83.9631L143.515 81.5912C143.352 81.2037 142.906 81.0216 142.518 81.1844Z" fill="white"/>
<g opacity="0.6">
<path opacity="0.6" d="M130.639 67.8867C133.691 67.167 135.581 64.1098 134.861 61.0582C134.142 58.0067 131.084 56.1163 128.033 56.836C124.981 57.5556 123.091 60.6128 123.811 63.6644C124.53 66.716 127.587 68.6063 130.639 67.8867Z" fill="#263238"/>
<path opacity="0.6" d="M126.998 68.6436C128.879 66.1351 128.37 62.5768 125.861 60.6961C123.353 58.8154 119.795 59.3243 117.914 61.8329C116.033 64.3414 116.542 67.8996 119.051 69.7804C121.559 71.6611 125.117 71.1522 126.998 68.6436Z" fill="white"/>
</g>
<path d="M46.9736 131.717L42.0415 127.985L43.2534 125.819L48.4955 129.885L46.9736 131.717Z" fill="#E23E2B"/>
<path d="M59.7688 67.6602L59.0038 68.9003C58.9434 68.9929 59.0562 69.1096 59.2212 69.1217L74.4 70.4343C74.5288 70.4343 74.6416 70.39 74.6577 70.3095L74.8993 69.0251C74.9194 68.9365 74.8107 68.852 74.6698 68.8399L60.0144 67.5716C59.9693 67.5644 59.9231 67.5687 59.8802 67.5842C59.8372 67.5997 59.7989 67.6259 59.7688 67.6602Z" fill="#E23E2B"/>
<path opacity="0.5" d="M59.7688 67.6602L59.0038 68.9003C58.9434 68.9929 59.0562 69.1096 59.2212 69.1217L74.4 70.4343C74.5288 70.4343 74.6416 70.39 74.6577 70.3095L74.8993 69.0251C74.9194 68.9365 74.8107 68.852 74.6698 68.8399L60.0144 67.5716C59.9693 67.5644 59.9231 67.5687 59.8802 67.5842C59.8372 67.5997 59.7989 67.6259 59.7688 67.6602Z" fill="black"/>
<path d="M61.6008 69.468L61.1982 69.4358C61.1217 69.4358 61.0653 69.3835 61.0733 69.3351L61.4035 67.6683C61.4035 67.616 61.484 67.5838 61.5645 67.5918L61.9672 67.624C62.0477 67.624 62.1041 67.6764 62.092 67.7247L61.7618 69.3915C61.7457 69.4398 61.6732 69.4761 61.6008 69.468Z" fill="#E23E2B"/>
<path d="M73.2767 70.4785L72.8741 70.4463C72.7976 70.4463 72.7413 70.394 72.7493 70.3457L73.0795 68.6788C73.0939 68.65 73.1177 68.6268 73.1468 68.6129C73.176 68.599 73.209 68.5953 73.2405 68.6023L73.6431 68.6345C73.7237 68.6345 73.78 68.6869 73.7679 68.7352L73.4378 70.402C73.4338 70.4584 73.3613 70.4866 73.2767 70.4785Z" fill="#E23E2B"/>
<path d="M67.4387 69.9754L67.0361 69.9391C66.9556 69.9391 66.8992 69.8868 66.9113 69.8385L67.2415 68.1716C67.2415 68.1233 67.322 68.0871 67.3985 68.0951L67.8011 68.1314C67.8776 68.1314 67.934 68.1837 67.9259 68.232L67.5958 69.8989C67.5877 69.9472 67.5193 69.9794 67.4387 69.9754Z" fill="#E23E2B"/>
<path d="M44.7874 135.405C44.7421 135.413 44.6958 135.413 44.6505 135.405C44.2116 135.316 43.8452 134.572 43.652 134.137C43.6444 134.125 43.6403 134.112 43.6403 134.099C43.6403 134.085 43.6444 134.072 43.652 134.06C43.6624 134.052 43.6752 134.048 43.6882 134.048C43.7013 134.048 43.714 134.052 43.7245 134.06C43.8614 134.109 45.0612 134.572 45.1538 135.01C45.1649 135.058 45.1625 135.108 45.1468 135.154C45.1312 135.2 45.1029 135.241 45.0652 135.272C44.9891 135.345 44.8917 135.391 44.7874 135.405ZM43.8493 134.229C44.1231 134.829 44.429 135.212 44.6787 135.26C44.735 135.269 44.7927 135.263 44.8462 135.243C44.8996 135.223 44.9473 135.19 44.9847 135.147C45.0048 135.132 45.0201 135.112 45.0287 135.088C45.0373 135.065 45.0387 135.039 45.033 135.015C44.9766 134.745 44.264 134.399 43.8493 134.229Z" fill="#E23E2B"/>
<path d="M44.8236 134.286C44.4409 134.333 44.0524 134.292 43.6882 134.165C43.6771 134.16 43.6675 134.152 43.6604 134.142C43.6533 134.132 43.649 134.121 43.6479 134.109C43.6464 134.096 43.6482 134.084 43.6531 134.072C43.6581 134.061 43.666 134.051 43.6761 134.044C43.7124 134.02 44.5417 133.416 45.041 133.529C45.1027 133.541 45.161 133.566 45.2118 133.603C45.2626 133.64 45.3046 133.687 45.3349 133.742C45.3747 133.793 45.3964 133.855 45.3964 133.919C45.3964 133.984 45.3747 134.046 45.3349 134.096C45.1917 134.217 45.0108 134.284 44.8236 134.286ZM43.8855 134.072C44.2881 134.189 45.041 134.197 45.2262 133.992C45.2584 133.96 45.2866 133.907 45.2262 133.803C45.2063 133.765 45.1783 133.733 45.1441 133.708C45.11 133.682 45.0706 133.665 45.0289 133.658C44.6907 133.589 44.1109 133.923 43.8855 134.072Z" fill="#E23E2B"/>
<path d="M69.0211 142.427C68.6307 142.417 68.2423 142.368 67.8615 142.282C67.8486 142.276 67.8376 142.267 67.8299 142.255C67.8221 142.243 67.818 142.229 67.818 142.215C67.818 142.201 67.8221 142.187 67.8299 142.176C67.8376 142.164 67.8486 142.154 67.8615 142.149C68.0387 142.064 69.5767 141.344 69.9632 141.617C69.9991 141.64 70.0276 141.673 70.0455 141.711C70.0633 141.75 70.0697 141.793 70.0639 141.835C70.0629 141.914 70.0435 141.991 70.0071 142.061C69.9708 142.131 69.9185 142.191 69.8545 142.237C69.604 142.388 69.312 142.454 69.0211 142.427ZM68.1031 142.185C68.5621 142.27 69.4076 142.382 69.7539 142.121C69.7987 142.085 69.8356 142.041 69.862 141.99C69.8884 141.94 69.9037 141.884 69.9068 141.827C69.9068 141.77 69.9068 141.746 69.8706 141.734C69.6532 141.585 68.7433 141.903 68.1031 142.185Z" fill="#E23E2B"/>
<path d="M67.8776 142.282C67.8634 142.287 67.8476 142.287 67.8333 142.282C67.8229 142.274 67.815 142.264 67.8107 142.251C67.8064 142.239 67.8059 142.226 67.8092 142.213C67.8092 142.145 68.1715 140.627 69.017 140.724C69.2264 140.752 69.2828 140.852 69.2948 140.937C69.3472 141.34 68.3769 142.105 67.9098 142.294L67.8776 142.282ZM68.9325 140.844C68.397 140.844 68.087 141.73 67.9823 142.085C68.4856 141.819 69.1902 141.187 69.1459 140.941C69.1459 140.921 69.1459 140.865 68.9889 140.848L68.9325 140.844Z" fill="#E23E2B"/>
<path d="M61.5162 52.3767L61.3028 52.6787L61.0693 53.0209C60.9123 53.2545 60.7553 53.492 60.6063 53.7376C60.3003 54.2207 60.0225 54.724 59.7407 55.2273C59.1841 56.2396 58.6946 57.2873 58.2751 58.3637C57.8522 59.4337 57.4985 60.5297 57.2162 61.6451L57.027 62.4503C57.027 62.4261 57.0028 62.5107 57.0471 62.6637C57.1857 63.094 57.3879 63.5011 57.647 63.8715C58.2974 64.8066 59.0275 65.6835 59.8292 66.4926C60.6345 67.3461 61.5283 68.1715 62.4181 68.9929C63.3079 69.8142 64.2419 70.6033 65.176 71.3804C66.1101 72.1574 67.0643 72.9426 67.9944 73.6995L66.9878 75.1852C64.8312 73.906 62.7489 72.5053 60.7512 70.9899C59.7447 70.2329 58.7583 69.4357 57.8041 68.5741C56.8035 67.6972 55.8906 66.725 55.0783 65.6713C54.5915 65.0524 54.2105 64.3572 53.951 63.6139C53.7748 63.0965 53.7156 62.5464 53.7779 62.0034V61.8907V61.8303L53.798 61.7095L53.8382 61.4639L53.9228 60.9767C54.1597 59.6799 54.4935 58.4027 54.9213 57.1558C55.3638 55.9151 55.8869 54.7047 56.4875 53.5323C56.7894 52.9444 57.1196 52.3767 57.4739 51.8171C57.647 51.5353 57.8282 51.2575 58.0174 50.9797L58.3154 50.577C58.4201 50.4361 58.5086 50.3113 58.6495 50.1382L61.5162 52.3767Z" fill="#FFC3BD"/>
<path d="M61.1579 46.7039C58.3959 47.4286 55.7306 54.1242 55.7306 54.1242L59.3059 57.3935C59.3059 57.3935 64.9224 52.2721 64.7332 49.9611C64.5761 47.9963 63.3763 46.1161 61.1579 46.7039Z" fill="#E23E2B"/>
<path opacity="0.2" d="M65.4297 46.3013C64.9237 46.4046 64.408 46.4518 63.8917 46.4422C63.783 48.4311 65.0593 50.3516 68.1957 52.9284C68.9486 50.5811 70.6114 50.0738 70.6114 50.0738L65.4297 46.3013Z" fill="black"/>
<path opacity="0.2" d="M72.0004 46.9333C72.0004 46.9333 72.3668 46.9857 73.2405 47.187C73.8243 48.0848 74.5812 50.8508 72.862 52.8237C72.1937 50.408 70.5993 50.102 70.5993 50.102L72.0004 46.9333Z" fill="black"/>
<path d="M65.4297 46.3013C65.4297 46.3013 64.6245 46.3013 63.6421 46.3013C63.0583 47.1991 65.0673 49.6873 68.1997 52.2641C68.9526 49.9168 70.6154 50.0577 70.6154 50.0577L65.4297 46.3013Z" fill="white"/>
<path d="M72.0004 46.9333C72.0004 46.9333 72.3668 46.9857 73.2405 47.187C73.8243 48.0848 75.0845 50.5167 73.3653 52.4734C72.697 50.0577 70.5993 50.0899 70.5993 50.0899L72.0004 46.9333Z" fill="white"/>
<path d="M66.722 39.0742C66.9556 41.2242 67.0321 45.1135 65.4296 46.418C65.4296 46.418 66.2631 48.8337 70.5993 50.0899C73.2083 48.5841 72.0004 46.9857 72.0004 46.9857C69.6934 46.2207 69.9068 44.4774 70.4584 42.8669L66.722 39.0742Z" fill="#FFC3BD"/>
<path opacity="0.2" d="M68.244 40.6243L70.4584 42.8669C70.3227 43.2396 70.2203 43.6236 70.1524 44.0143C69.2626 43.809 67.9742 42.883 67.9621 41.9328C67.9785 41.4834 68.0739 41.0405 68.244 40.6243Z" fill="black"/>
<path d="M71.618 30.4823C72.3226 29.7052 73.7197 30.6957 74.235 32.6001C75.008 35.4184 72.9466 35.6197 71.8676 34.2105C70.7886 32.8014 71.0302 31.1305 71.618 30.4823Z" fill="#263238"/>
<path d="M73.8001 35.4305C74.5071 35.6751 75.1755 36.0195 75.785 36.4531C75.4348 35.5996 75.1207 35.0802 73.8001 35.4305Z" fill="#263238"/>
<path d="M74.2068 35.5634C74.7791 35.4494 75.3647 35.4169 75.9461 35.4667C75.3744 35.0279 74.9597 34.8105 74.2068 35.5634Z" fill="#263238"/>
<path d="M64.8217 35.7164C65.7195 39.1508 66.0295 40.6244 68.1312 42.0617C71.2998 44.2278 75.322 42.3758 75.471 38.7401C75.6038 35.4708 74.1141 30.4059 70.4382 29.6892C69.6282 29.5248 68.7895 29.5709 68.0023 29.8232C67.2152 30.0755 66.5059 30.5256 65.9424 31.1303C65.3789 31.735 64.98 32.4742 64.7837 33.2772C64.5875 34.0801 64.6006 34.92 64.8217 35.7164Z" fill="#FFC3BD"/>
<path d="M66.4805 31.1869L65.4861 32.3424C65.1877 32.6838 64.7668 32.8939 64.3146 32.927C63.8624 32.9602 63.4153 32.8138 63.0703 32.5196C62.7283 32.2218 62.5175 31.8011 62.4836 31.3489C62.4497 30.8967 62.5954 30.4493 62.8892 30.1039L63.8836 28.9524C64.182 28.6113 64.6025 28.4012 65.0544 28.3673C65.5063 28.3334 65.9534 28.4784 66.2993 28.7712C66.6404 29.0696 66.8505 29.4901 66.8844 29.942C66.9183 30.3939 66.7733 30.841 66.4805 31.1869Z" fill="white"/>
<path d="M67.3985 32.4753L66.1906 33.0792C65.6949 33.322 65.1232 33.3588 64.6004 33.1815C64.0776 33.0042 63.6463 32.6273 63.4005 32.133C63.1575 31.6367 63.1206 31.0644 63.2978 30.541C63.4751 30.0176 63.8521 29.5854 64.3466 29.3388L65.5545 28.7349C66.0513 28.4922 66.624 28.4559 67.1475 28.6339C67.671 28.812 68.1028 29.1898 68.3487 29.6851C68.5912 30.1813 68.6274 30.7534 68.4493 31.2762C68.2713 31.7991 67.8934 32.2302 67.3985 32.4753Z" fill="#E23E2B"/>
<path d="M65.8524 38.2851C65.8524 38.2851 68.3326 37.7175 67.2777 34.0898C67.2383 33.9502 67.2314 33.8035 67.2576 33.6608C67.2837 33.5181 67.3421 33.3833 67.4284 33.2667C67.5147 33.1501 67.6265 33.0548 67.7553 32.9882C67.8841 32.9215 68.0265 32.8851 68.1715 32.882C70.9657 32.8055 73.5787 32.2217 73.2083 30.6032C72.7453 28.5579 65.784 26.9796 64.5198 31.0742C62.0517 31.65 61.9591 36.5136 65.8524 38.2851Z" fill="#263238"/>
<path d="M65.8645 37.5684C66.5715 37.813 67.2399 38.1574 67.8494 38.591C67.4991 37.7455 67.1851 37.2262 65.8645 37.5684Z" fill="#263238"/>
<path d="M66.2711 37.7093C66.8435 37.5954 67.429 37.5628 68.0105 37.6127C67.4428 37.1819 67.0281 36.9605 66.2711 37.7093Z" fill="#263238"/>
<path d="M64.258 38.414C64.5796 39.0205 65.1282 39.475 65.7839 39.6782C66.6576 39.9399 67.1086 39.1669 66.8831 38.3335C66.6778 37.5846 65.9772 36.5498 65.0955 36.6505C64.9037 36.677 64.7215 36.7509 64.5653 36.8653C64.4091 36.9798 64.2838 37.1313 64.2008 37.3062C64.1177 37.4811 64.0795 37.6739 64.0895 37.8673C64.0994 38.0607 64.1574 38.2486 64.258 38.414Z" fill="#FFC3BD"/>
<path d="M70.6436 35.5996C70.6999 35.8815 70.8972 36.0828 71.0784 36.0465C71.2596 36.0103 71.3683 35.7486 71.3159 35.4668C71.2636 35.1849 71.0623 34.9836 70.8771 35.0198C70.6919 35.0561 70.5872 35.3138 70.6436 35.5996Z" fill="#263238"/>
<path d="M73.8445 34.9675C73.9008 35.2534 74.0941 35.4507 74.2793 35.4144C74.4645 35.3782 74.5692 35.1205 74.5128 34.8387C74.4565 34.5569 74.2632 34.3556 74.078 34.3918C73.8928 34.428 73.7881 34.6857 73.8445 34.9675Z" fill="#263238"/>
<path d="M74.0014 34.424L74.6416 34.0939C74.6416 34.0939 74.396 34.6938 74.0014 34.424Z" fill="#263238"/>
<path d="M72.7453 35.6761C73.1242 36.273 73.5835 36.815 74.1102 37.2866C73.9873 37.4212 73.8363 37.527 73.6679 37.5966C73.4995 37.6662 73.3179 37.6978 73.1358 37.6892L72.7453 35.6761Z" fill="#ED847E"/>
<path d="M71.8273 39.0219C71.2315 39.0295 70.6554 38.8092 70.2168 38.4059C70.2038 38.3924 70.1965 38.3743 70.1965 38.3556C70.1965 38.3368 70.2038 38.3187 70.2168 38.3052C70.2303 38.2922 70.2484 38.2849 70.2671 38.2849C70.2859 38.2849 70.304 38.2922 70.3175 38.3052C70.5885 38.5441 70.912 38.7157 71.2618 38.806C71.6116 38.8962 71.9778 38.9026 72.3306 38.8246C72.3487 38.8214 72.3674 38.8255 72.3825 38.8361C72.3976 38.8467 72.4079 38.8628 72.4111 38.881C72.4143 38.8991 72.4102 38.9178 72.3996 38.9329C72.389 38.948 72.3729 38.9583 72.3547 38.9615C72.1816 39.0005 72.0048 39.0207 71.8273 39.0219Z" fill="#263238"/>
<path d="M68.7231 34.5004C68.6977 34.4994 68.6729 34.4925 68.6506 34.4803C68.6186 34.4611 68.5955 34.4299 68.5865 34.3937C68.5774 34.3574 68.5831 34.3191 68.6023 34.2871C68.7355 34.0608 68.9208 33.8697 69.1428 33.7296C69.3648 33.5895 69.6171 33.5046 69.8786 33.4818C69.9157 33.4818 69.9514 33.4959 69.9784 33.5214C70.0053 33.5468 70.0215 33.5817 70.0236 33.6187C70.0241 33.6372 70.021 33.6556 70.0144 33.6729C70.0078 33.6902 69.9979 33.7061 69.9852 33.7195C69.9725 33.733 69.9572 33.7438 69.9403 33.7514C69.9234 33.759 69.9052 33.7631 69.8867 33.7636C69.6707 33.7874 69.4635 33.8622 69.2822 33.982C69.1008 34.1017 68.9506 34.2628 68.8439 34.4521C68.8291 34.4693 68.8104 34.4826 68.7894 34.4911C68.7684 34.4995 68.7457 34.5027 68.7231 34.5004Z" fill="#263238"/>
<path d="M74.7342 33.3651C74.7118 33.3711 74.6882 33.3711 74.6658 33.3651C74.478 33.2544 74.2668 33.1894 74.0493 33.1754C73.8318 33.1614 73.614 33.1988 73.4136 33.2846C73.3778 33.3027 73.3363 33.3059 73.2982 33.2935C73.2601 33.281 73.2285 33.2539 73.2103 33.2182C73.1921 33.1824 73.1889 33.1409 73.2014 33.1027C73.2139 33.0646 73.241 33.033 73.2767 33.0148C73.5178 32.9056 73.7818 32.8562 74.046 32.871C74.3103 32.8857 74.5671 32.964 74.7946 33.0994C74.8107 33.1082 74.8248 33.1201 74.8361 33.1345C74.8475 33.1488 74.8559 33.1653 74.8608 33.1829C74.8656 33.2006 74.8669 33.219 74.8646 33.2372C74.8622 33.2553 74.8562 33.2728 74.8469 33.2886C74.8368 33.3103 74.821 33.3289 74.8011 33.3424C74.7813 33.3559 74.7582 33.3637 74.7342 33.3651Z" fill="#263238"/>
<path d="M66.6778 73.0996L69.8987 73.3251L68.4453 76.7675C68.4453 76.7675 65.7558 75.9179 65.6471 73.9491L66.6778 73.0996Z" fill="#FFC3BD"/>
<path d="M71.1348 75.2738L69.5766 77.6251L68.4493 76.7675L69.9108 73.3251L71.1348 75.2738Z" fill="#FFC3BD"/>
<path d="M70.8006 35.0521L71.4408 34.7219C71.4408 34.7219 71.1952 35.3218 70.8006 35.0521Z" fill="#263238"/>
</svg>
