<svg width="202" height="150" viewBox="0 0 202 150" fill="none" xmlns="http://www.w3.org/2000/svg">
<path d="M201.31 131.818H0V131.918H201.31V131.818Z" fill="#EBEBEB"/>
<path d="M181.139 138.296H167.804V138.397H181.139V138.296Z" fill="#EBEBEB"/>
<path d="M133.356 139.391H129.857V139.492H133.356V139.391Z" fill="#EBEBEB"/>
<path d="M167.401 134.559H159.675V134.66H167.401V134.559Z" fill="#EBEBEB"/>
<path d="M38.5106 135.236H21.1215V135.336H38.5106V135.236Z" fill="#EBEBEB"/>
<path d="M44.6465 135.236H42.0979V135.336H44.6465V135.236Z" fill="#EBEBEB"/>
<path d="M90.6498 136.935H52.9324V137.036H90.6498V136.935Z" fill="#EBEBEB"/>
<path d="M95.4208 113.861H17.679C17.0699 113.86 16.4862 113.617 16.056 113.186C15.6257 112.755 15.384 112.171 15.384 111.562V2.27883C15.3893 1.6733 15.6333 1.09431 16.063 0.667631C16.4927 0.240951 17.0734 0.0010373 17.679 0H95.4208C96.0305 0 96.6153 0.242211 97.0464 0.673349C97.4776 1.10449 97.7198 1.68924 97.7198 2.29896V111.562C97.7198 112.172 97.4776 112.756 97.0464 113.188C96.6153 113.619 96.0305 113.861 95.4208 113.861ZM17.679 0.0805243C17.0966 0.0815908 16.5385 0.313667 16.1271 0.725813C15.7157 1.13796 15.4847 1.6965 15.4847 2.27883V111.562C15.4847 112.144 15.7157 112.703 16.1271 113.115C16.5385 113.527 17.0966 113.759 17.679 113.76H95.4208C96.0035 113.759 96.562 113.527 96.9741 113.115C97.3861 112.703 97.618 112.145 97.6191 111.562V2.27883C97.618 1.69613 97.3861 1.1376 96.9741 0.725568C96.562 0.313536 96.0035 0.0815885 95.4208 0.0805243H17.679Z" fill="#EBEBEB"/>
<path d="M182.512 113.861H104.766C104.156 113.86 103.572 113.617 103.141 113.186C102.71 112.755 102.468 112.171 102.467 111.562V2.27883C102.473 1.67293 102.718 1.09395 103.148 0.66738C103.579 0.24081 104.16 0.00102599 104.766 0H182.512C183.116 0.00209543 183.696 0.242477 184.125 0.669044C184.554 1.09561 184.797 1.67399 184.802 2.27883V111.562C184.802 112.17 184.561 112.754 184.132 113.185C183.703 113.616 183.12 113.859 182.512 113.861ZM104.766 0.0805243C104.183 0.0815885 103.624 0.313536 103.212 0.725568C102.8 1.1376 102.568 1.69613 102.567 2.27883V111.562C102.568 112.145 102.8 112.703 103.212 113.115C103.624 113.527 104.183 113.759 104.766 113.76H182.512C183.094 113.759 183.653 113.527 184.065 113.115C184.477 112.703 184.709 112.145 184.71 111.562V2.27883C184.709 1.69613 184.477 1.1376 184.065 0.725568C183.653 0.313536 183.094 0.0815885 182.512 0.0805243H104.766Z" fill="#EBEBEB"/>
<path d="M123.298 77.1178H180.925V17.5703L123.298 17.5703V77.1178Z" fill="#EBEBEB"/>
<path d="M121.285 77.1178H178.912V17.5703L121.285 17.5703V77.1178Z" fill="#F0F0F0"/>
<path d="M177.459 18.9834H122.811V75.7327H177.459V18.9834Z" fill="#E0E0E0"/>
<path d="M177.459 18.9834H124.176V75.7327H177.459V18.9834Z" fill="#F5F5F5"/>
<path d="M150.262 75.7368H151.345V18.9876H150.262V75.7368Z" fill="#EBEBEB"/>
<path d="M157.577 18.9834L172.764 75.7327H174.222L159.035 18.9834H157.577Z" fill="white"/>
<path d="M149.803 76.8199H150.729V18.1059H149.803V76.8199Z" fill="#F0F0F0"/>
<path d="M163.089 18.9834L177.459 72.6888V43.1688L170.989 18.9834H163.089Z" fill="white"/>
<path d="M124.176 24.1331V29.5805L136.528 75.7328H137.986L124.176 24.1331Z" fill="white"/>
<path d="M124.176 35.1326V64.6526L127.139 75.7327H135.039L124.176 35.1326Z" fill="white"/>
<path d="M171.472 82.4282H127.804C126.861 82.4282 125.956 82.8028 125.29 83.4695C124.623 84.1362 124.248 85.0405 124.248 85.9833L119.417 116.768H170.195L175.027 85.9833C175.027 85.0405 174.652 84.1362 173.986 83.4695C173.319 82.8028 172.415 82.4282 171.472 82.4282Z" fill="#EBEBEB"/>
<path d="M119.542 94.3339L119.598 94.1729H102.688V131.616H123.624V98.6621C123.64 97.5514 123.223 96.4784 122.46 95.6704C121.698 94.8624 120.651 94.383 119.542 94.3339Z" fill="#E0E0E0"/>
<path d="M102.511 94.3218C101.36 94.3218 100.256 94.7791 99.442 95.593C98.6281 96.407 98.1708 97.5109 98.1708 98.662V131.616H106.847V98.662C106.847 97.5116 106.391 96.4083 105.577 95.5944C104.764 94.7806 103.661 94.3228 102.511 94.3218Z" fill="#F0F0F0"/>
<path d="M168.259 94.3339L168.315 94.1729H151.405V131.616H172.341V98.6621C172.357 97.5514 171.94 96.4784 171.178 95.6704C170.415 94.8624 169.368 94.383 168.259 94.3339Z" fill="#E0E0E0"/>
<path d="M146.888 105.245H109.682V131.616H146.888V105.245Z" fill="#E0E0E0"/>
<path d="M112.105 102.543H153.978V111.687H112.105C111.503 111.687 110.907 111.568 110.351 111.337C109.795 111.106 109.291 110.768 108.866 110.341C108.441 109.915 108.104 109.409 107.875 108.852C107.646 108.295 107.53 107.699 107.532 107.097C107.537 105.887 108.021 104.729 108.878 103.876C109.736 103.022 110.896 102.543 112.105 102.543Z" fill="#F5F5F5"/>
<path d="M151.228 94.3218C150.077 94.3218 148.973 94.7791 148.159 95.593C147.345 96.407 146.888 97.5109 146.888 98.662V131.616H155.564V98.662C155.564 97.5116 155.107 96.4083 154.294 95.5944C153.481 94.7806 152.378 94.3228 151.228 94.3218Z" fill="#F0F0F0"/>
<path d="M163.081 117.223H170.195L175.027 85.9834C175.027 85.5161 174.935 85.0535 174.756 84.6219C174.577 84.1903 174.315 83.7982 173.984 83.4681C173.654 83.1379 173.261 82.8761 172.829 82.6977C172.398 82.5193 171.935 82.4277 171.468 82.4282C170.525 82.4282 169.621 82.8028 168.954 83.4695C168.287 84.1362 167.913 85.0405 167.913 85.9834L163.081 117.223Z" fill="#E0E0E0"/>
<path d="M30.5266 116.877C30.5266 116.716 29.9871 100.901 27.4143 98.4003C24.9141 95.9846 22.0394 98.3077 21.9186 98.4003L21.6609 98.0944C21.6931 98.0662 24.9342 95.421 27.7002 98.0944C30.3857 100.707 30.9211 116.188 30.9211 116.848L30.5266 116.877Z" fill="#E0E0E0"/>
<path d="M30.7481 119.981C30.7481 119.791 28.9927 100.993 35.8574 93.1139L36.1593 93.3796C29.4074 101.126 31.1306 119.751 31.1507 119.953L30.7481 119.981Z" fill="#E0E0E0"/>
<path d="M30.4944 117.996L30.0918 117.968C30.0918 117.754 31.4366 96.6006 26.3998 91.9664L26.6736 91.6725C31.8513 96.4315 30.5548 117.118 30.4944 117.996Z" fill="#E0E0E0"/>
<path d="M31.1507 117.968H30.748C30.748 117.384 30.9131 103.679 34.8065 101.46C35.176 101.22 35.598 101.072 36.0367 101.03C36.4753 100.987 36.9179 101.05 37.3269 101.215C39.6822 102.185 40.8498 106.376 40.8981 106.553L40.4955 106.662C40.4955 106.618 39.3319 102.483 37.1618 101.585C36.8092 101.447 36.4287 101.395 36.0519 101.433C35.6752 101.472 35.3131 101.6 34.9957 101.806C31.3117 103.924 31.1507 117.843 31.1507 117.968Z" fill="#E0E0E0"/>
<path d="M29.6328 117.992L29.2302 117.972C29.2302 117.863 29.814 107.137 26.9232 103.361C26.2186 102.443 25.4576 102.008 24.6564 102.064C22.7601 102.197 21.1697 104.971 21.1536 104.999L20.8033 104.802C20.8718 104.681 22.5145 101.81 24.6242 101.662C25.5704 101.597 26.4521 102.084 27.2412 103.115C30.2287 107.012 29.661 117.565 29.6328 117.992Z" fill="#E0E0E0"/>
<path d="M30.2689 119.453C30.1884 118.41 28.3766 93.9231 31.5653 89.6111L31.8915 89.8486C28.7873 94.0439 30.6514 119.167 30.6836 119.421L30.2689 119.453Z" fill="#E0E0E0"/>
<path d="M38.1965 103.695C38.1965 103.695 36.28 104.399 36.8477 106.066C37.4154 107.733 43.4829 110.475 43.4829 110.475C43.4829 110.475 46.0154 108.152 43.6883 104.371C41.3611 100.591 38.2489 102.503 38.1965 103.695Z" fill="#EBEBEB"/>
<path d="M29.8744 100.522C29.8744 100.522 31.9117 100.438 32.0284 102.193C32.1452 103.948 27.5996 108.812 27.5996 108.812C27.5996 108.812 24.3786 107.64 25.0631 103.26C25.7476 98.8794 29.3671 99.4471 29.8744 100.522Z" fill="#EBEBEB"/>
<path d="M28.1471 92.1154C28.1471 92.1154 29.508 91.9705 29.3993 91.1411C29.2906 90.3117 24.1169 88.1738 21.0651 91.6282C21.0651 91.6282 23.0178 94.9861 25.8442 95.0304C28.6706 95.0747 28.1471 92.1154 28.1471 92.1154Z" fill="#EBEBEB"/>
<path d="M30.6796 90.1063C30.6796 90.1063 29.4717 90.7021 29.1054 89.9412C28.739 89.1802 32.0243 84.6387 36.4371 85.9472C36.4371 85.9472 36.5538 89.8285 34.1784 91.3584C31.8029 92.8884 30.6796 90.1063 30.6796 90.1063Z" fill="#EBEBEB"/>
<path d="M24.2458 103.026C24.2458 103.026 25.1839 102.27 24.1733 101.899C23.1628 101.529 18.1944 101.633 18.134 106.553C18.134 106.553 23.9197 107.516 24.6363 105.639C25.353 103.763 24.2458 103.026 24.2458 103.026Z" fill="#EBEBEB"/>
<path d="M36.0425 91.9946C36.0425 91.9946 35.1044 91.2336 36.115 90.8673C37.1255 90.5009 42.0939 90.6015 42.1542 95.5215C42.1542 95.5215 36.3686 96.4798 35.6519 94.6076C34.9353 92.7354 36.0425 91.9946 36.0425 91.9946Z" fill="#EBEBEB"/>
<path d="M32.9826 95.9564C32.9826 95.9564 32.9021 95.0344 33.6429 95.3968C34.3837 95.7591 36.9766 98.5493 34.2911 101.199C34.2911 101.199 30.6676 98.5251 31.3319 97.132C31.9962 95.739 32.9826 95.9564 32.9826 95.9564Z" fill="#EBEBEB"/>
<path d="M23.4083 97.2649C23.4083 97.2649 23.9719 96.5322 23.1506 96.4396C22.3293 96.347 18.6493 97.3334 19.527 101.005C19.527 101.005 24.0082 100.667 24.2014 99.1411C24.3947 97.6152 23.4083 97.2649 23.4083 97.2649Z" fill="#EBEBEB"/>
<path d="M38.5508 131.616H23.1748L21.516 114.779H40.2136L38.5508 131.616Z" fill="#F0F0F0"/>
<path d="M41.035 112.923H20.6946V116.639H41.035V112.923Z" fill="#E6E6E6"/>
<path d="M100.655 150C143.768 150 178.719 147.96 178.719 145.442C178.719 142.925 143.768 140.885 100.655 140.885C57.5414 140.885 22.591 142.925 22.591 145.442C22.591 147.96 57.5414 150 100.655 150Z" fill="#F5F5F5"/>
<path d="M103.658 6.63516V122.59C103.658 122.814 103.614 123.037 103.528 123.245C103.441 123.452 103.314 123.64 103.154 123.798C102.994 123.956 102.804 124.08 102.595 124.164C102.387 124.247 102.163 124.288 101.939 124.285H47.9876C47.5851 124.289 47.1971 124.134 46.9086 123.854C46.761 123.707 46.6444 123.532 46.5656 123.339C46.4867 123.146 46.4473 122.939 46.4496 122.731V6.49425C46.4426 6.31445 46.4711 6.13503 46.5335 5.96626C46.5959 5.79749 46.6909 5.64267 46.8132 5.51067C46.9355 5.37867 47.0826 5.27207 47.2461 5.19697C47.4096 5.12187 47.5863 5.07974 47.7662 5.073H63.0899C63.3042 5.07634 63.5126 5.14367 63.6884 5.26635C63.8641 5.38903 63.9992 5.56145 64.0763 5.76148L64.7124 7.32364C64.7905 7.52261 64.926 7.69388 65.1016 7.81573C65.2773 7.93759 65.4851 8.00454 65.6988 8.0081H84.4488C84.6615 8.00712 84.8691 7.94259 85.0449 7.82278C85.2206 7.70297 85.3566 7.53336 85.4352 7.33572L86.0714 5.7655C86.1483 5.56504 86.2832 5.39206 86.4589 5.26869C86.6346 5.14533 86.8431 5.07719 87.0578 5.073H102.16C102.565 5.08459 102.949 5.25493 103.229 5.54721C103.509 5.8395 103.663 6.23028 103.658 6.63516Z" fill="#EEB301"/>
<path opacity="0.6" d="M103.658 14.3333H46.4462V111.687H103.658V14.3333Z" fill="white"/>
<path opacity="0.6" d="M53.5605 9.74341H54.3576V8.68049H53.5605V9.74341Z" fill="white"/>
<path opacity="0.6" d="M52.2641 9.74341H53.0612V8.32619H52.2641V9.74341Z" fill="white"/>
<path opacity="0.6" d="M50.9596 9.74341H51.7568V7.97188H50.9596V9.74341Z" fill="white"/>
<path opacity="0.6" d="M49.6631 9.74341H50.4603V7.61758H49.6631V9.74341Z" fill="white"/>
<path opacity="0.6" d="M96.355 8.29395H95.8839V9.35686H96.355V8.29395Z" fill="white"/>
<path opacity="0.6" d="M96.677 9.74341H100.442V7.90344H96.677V9.74341Z" fill="white"/>
<g opacity="0.1">
<path opacity="0.1" d="M72.1858 8.0081L55.7146 69.7015L55.5334 70.394L55.2355 71.5052L55.0463 72.1978L46.4463 104.407V65.4338L62.5511 5.073H63.0745C63.2888 5.07634 63.4973 5.14367 63.673 5.26635C63.8488 5.38903 63.9839 5.56145 64.0609 5.76148L64.6971 7.32364C64.7752 7.52261 64.9107 7.69388 65.0863 7.81573C65.2619 7.93759 65.4698 8.00454 65.6835 8.0081H72.1858Z" fill="white"/>
<path opacity="0.1" d="M103.658 39.5131V78.5028L93.3876 116.981L93.138 117.915L91.443 124.265H81.0353L82.7303 117.919L83.0001 116.901L84.3609 111.803L84.6347 110.785L85.1782 108.744L85.452 107.725L85.9955 105.684L86.2653 104.665L94.829 72.5923V72.5883L95.2236 71.1107V71.1066L103.658 39.5131Z" fill="white"/>
<path opacity="0.1" d="M77.8264 8.00806L61.4599 69.315L61.3592 69.6813L60.4654 73.0432L60.3648 73.4096L46.9052 123.834C46.7576 123.687 46.641 123.511 46.5622 123.318C46.4833 123.126 46.4439 122.919 46.4462 122.71V116.78L58.0255 73.4096L58.1262 73.0432L59.02 69.6813L59.1207 69.315L75.4872 8.00806H77.8264Z" fill="white"/>
</g>
<path opacity="0.9" d="M100.047 22.6031V21.9951L99.7329 21.9669C99.6903 21.7676 99.6111 21.5778 99.4994 21.4073L99.7007 21.1657L99.2699 20.7349L99.0283 20.9362C98.8596 20.8211 98.6692 20.7417 98.4687 20.7027L98.4405 20.3887H97.8366L97.8084 20.7027C97.6079 20.7417 97.4175 20.8211 97.2487 20.9362L97.0031 20.7349L96.5764 21.1657L96.7777 21.4073C96.6626 21.576 96.5831 21.7665 96.5441 21.9669L96.2301 21.9951V22.6031L96.5441 22.6313C96.5831 22.8317 96.6626 23.0222 96.7777 23.1909L96.5764 23.4325L97.0031 23.8633L97.2487 23.662C97.4175 23.7771 97.6079 23.8565 97.8084 23.8955L97.8366 24.2095H98.4445L98.4727 23.8955C98.6732 23.8565 98.8636 23.7771 99.0323 23.662L99.2739 23.8633L99.7047 23.4325L99.5034 23.1909C99.6151 23.0204 99.6943 22.8306 99.7369 22.6313L100.047 22.6031ZM98.1345 23.1184C97.9752 23.1184 97.8196 23.0712 97.6871 22.9827C97.5547 22.8942 97.4515 22.7685 97.3906 22.6213C97.3296 22.4742 97.3137 22.3123 97.3447 22.1561C97.3758 21.9999 97.4525 21.8564 97.5651 21.7438C97.6777 21.6312 97.8212 21.5545 97.9774 21.5234C98.1336 21.4924 98.2955 21.5083 98.4426 21.5693C98.5898 21.6302 98.7155 21.7334 98.804 21.8658C98.8925 21.9982 98.9397 22.1539 98.9397 22.3132C98.9397 22.5268 98.8549 22.7316 98.7039 22.8826C98.5529 23.0336 98.3481 23.1184 98.1345 23.1184Z" fill="white"/>
<path d="M55.3441 22.2205L53.2907 20.5255C53.2758 20.5137 53.2574 20.5073 53.2384 20.5073C53.2194 20.5073 53.201 20.5137 53.1861 20.5255L51.1327 22.2205C51.1189 22.2308 51.1087 22.2453 51.1037 22.2619C51.0988 22.2784 51.0993 22.2961 51.1051 22.3124C51.111 22.3286 51.1219 22.3426 51.1363 22.3521C51.1507 22.3617 51.1678 22.3663 51.185 22.3654H51.644C51.6658 22.3654 51.6867 22.3738 51.7024 22.3888C51.7182 22.4038 51.7275 22.4243 51.7286 22.446V24.0081C51.7285 24.0299 51.7369 24.0508 51.7519 24.0665C51.7669 24.0823 51.7874 24.0916 51.8091 24.0927H54.6637C54.6854 24.0916 54.7059 24.0823 54.7209 24.0665C54.7359 24.0508 54.7442 24.0299 54.7442 24.0081V22.446C54.7442 22.435 54.7464 22.4242 54.7507 22.4142C54.755 22.4042 54.7613 22.3951 54.7692 22.3876C54.7771 22.38 54.7865 22.3742 54.7967 22.3704C54.8069 22.3666 54.8178 22.3649 54.8287 22.3654H55.2877C55.3053 22.3674 55.3231 22.3634 55.3382 22.3542C55.3534 22.345 55.365 22.3311 55.3715 22.3146C55.3779 22.2981 55.3787 22.2799 55.3737 22.2629C55.3688 22.2459 55.3584 22.231 55.3441 22.2205Z" fill="white"/>
<g opacity="0.6">
<path opacity="0.6" d="M97.0675 115.672H100.204C100.264 115.671 100.321 115.647 100.364 115.604C100.406 115.561 100.429 115.503 100.429 115.443C100.429 115.383 100.406 115.326 100.363 115.284C100.321 115.241 100.264 115.218 100.204 115.218H97.0675C97.0077 115.218 96.9504 115.241 96.9081 115.284C96.8658 115.326 96.842 115.383 96.842 115.443C96.842 115.503 96.8657 115.561 96.9078 115.604C96.95 115.647 97.0073 115.671 97.0675 115.672Z" fill="white"/>
<path opacity="0.6" d="M100.204 116.357H97.0675C97.0077 116.357 96.9504 116.381 96.9081 116.423C96.8658 116.466 96.842 116.523 96.842 116.583C96.842 116.643 96.8657 116.701 96.9078 116.744C96.95 116.786 97.0073 116.811 97.0675 116.812H100.204C100.264 116.811 100.321 116.786 100.364 116.744C100.406 116.701 100.429 116.643 100.429 116.583C100.429 116.523 100.406 116.466 100.363 116.423C100.321 116.381 100.264 116.357 100.204 116.357Z" fill="white"/>
<path opacity="0.6" d="M100.204 117.513H97.0675C97.0077 117.513 96.9504 117.536 96.9081 117.579C96.8658 117.621 96.842 117.678 96.842 117.738C96.842 117.798 96.8658 117.855 96.9081 117.898C96.9504 117.94 97.0077 117.964 97.0675 117.964H100.204C100.264 117.964 100.321 117.94 100.363 117.898C100.406 117.855 100.429 117.798 100.429 117.738C100.429 117.678 100.406 117.621 100.363 117.579C100.321 117.536 100.264 117.513 100.204 117.513Z" fill="white"/>
<path opacity="0.6" d="M76.4654 116.357H75.1247V115.016C75.1174 114.961 75.0903 114.911 75.0484 114.874C75.0066 114.837 74.9529 114.817 74.8972 114.817C74.8416 114.817 74.7879 114.837 74.7461 114.874C74.7042 114.911 74.6771 114.961 74.6698 115.016V116.357H73.329C73.2692 116.357 73.2119 116.381 73.1696 116.423C73.1273 116.465 73.1036 116.523 73.1036 116.582C73.1036 116.643 73.1272 116.7 73.1694 116.743C73.2115 116.786 73.2689 116.811 73.329 116.812H74.6698V118.153C74.6771 118.208 74.7042 118.258 74.7461 118.295C74.7879 118.332 74.8416 118.352 74.8972 118.352C74.9529 118.352 75.0066 118.332 75.0484 118.295C75.0903 118.258 75.1174 118.208 75.1247 118.153V116.812H76.4654C76.5256 116.811 76.583 116.786 76.6251 116.743C76.6673 116.7 76.6909 116.643 76.6909 116.582C76.6909 116.523 76.6672 116.465 76.6249 116.423C76.5826 116.381 76.5252 116.357 76.4654 116.357Z" fill="white"/>
<path opacity="0.6" d="M52.413 115.109H49.9248C49.8642 115.11 49.8065 115.135 49.7636 115.177C49.7208 115.22 49.6963 115.278 49.6953 115.338V117.847C49.6963 117.907 49.721 117.964 49.7639 118.006C49.8068 118.049 49.8646 118.072 49.9248 118.072H52.4331C52.4929 118.072 52.5502 118.048 52.5925 118.006C52.6348 117.964 52.6586 117.907 52.6586 117.847V115.338C52.6586 115.307 52.6522 115.276 52.6397 115.247C52.6272 115.218 52.6088 115.192 52.5858 115.17C52.5627 115.149 52.5355 115.132 52.5057 115.122C52.476 115.111 52.4444 115.107 52.413 115.109ZM52.1835 117.617H50.1301V115.552H52.1835V117.617Z" fill="white"/>
</g>
<g opacity="0.6">
<path opacity="0.6" d="M73.2043 108.981C73.1652 108.981 73.1271 108.968 73.0956 108.945L71.4851 107.894C71.459 107.882 71.4358 107.864 71.4171 107.842C71.3984 107.82 71.3846 107.795 71.3767 107.767C71.3688 107.739 71.3669 107.71 71.3712 107.682C71.3755 107.653 71.3858 107.626 71.4015 107.602C71.4172 107.578 71.438 107.557 71.4623 107.542C71.4866 107.526 71.5139 107.516 71.5425 107.512C71.571 107.508 71.6001 107.51 71.6277 107.519C71.6553 107.527 71.6808 107.541 71.7025 107.56L73.2083 108.538L74.7141 107.56C74.7591 107.53 74.8139 107.52 74.8666 107.53C74.9192 107.541 74.9657 107.572 74.996 107.616C75.0247 107.661 75.0345 107.715 75.0232 107.768C75.0119 107.82 74.9804 107.865 74.9356 107.894L73.3251 108.945C73.2899 108.97 73.2475 108.983 73.2043 108.981Z" fill="#E23E2B"/>
<path opacity="0.6" d="M73.2043 108.16C73.1658 108.159 73.1282 108.148 73.0956 108.128L71.4851 107.077C71.44 107.047 71.4084 107.001 71.3971 106.948C71.3858 106.895 71.3957 106.84 71.4247 106.795C71.4542 106.751 71.5 106.72 71.552 106.709C71.604 106.699 71.6581 106.709 71.7025 106.738L73.2083 107.717L74.7141 106.738C74.759 106.709 74.8136 106.699 74.8661 106.71C74.9186 106.721 74.9646 106.752 74.9939 106.797C75.0233 106.842 75.0336 106.896 75.0227 106.949C75.0117 107.001 74.9804 107.047 74.9355 107.077L73.3251 108.128C73.2886 108.149 73.2467 108.16 73.2043 108.16Z" fill="#E23E2B"/>
</g>
<path opacity="0.1" d="M100.188 39.5131C99.791 39.5141 99.4106 39.6723 99.13 39.9529C98.8493 40.2336 98.6912 40.6139 98.6901 41.0108V103.147C98.6901 103.544 98.8479 103.925 99.1288 104.206C99.4097 104.487 99.7906 104.645 100.188 104.645C100.585 104.645 100.966 104.487 101.247 104.206C101.528 103.925 101.686 103.544 101.686 103.147V41.0108C101.686 40.8141 101.647 40.6194 101.572 40.4376C101.496 40.2559 101.386 40.0908 101.247 39.9517C101.108 39.8127 100.943 39.7023 100.761 39.6271C100.579 39.5518 100.385 39.5131 100.188 39.5131Z" fill="black"/>
<path opacity="0.6" d="M100.188 39.9318C99.8675 39.9318 99.5603 40.059 99.3338 40.2855C99.1072 40.5121 98.98 40.8193 98.98 41.1396V49.5222C99.021 49.8101 99.1645 50.0735 99.3842 50.2641C99.6039 50.4547 99.8849 50.5596 100.176 50.5596C100.467 50.5596 100.748 50.4547 100.967 50.2641C101.187 50.0735 101.331 49.8101 101.372 49.5222V41.1275C101.368 40.8134 101.243 40.5129 101.022 40.2896C100.801 40.0664 100.502 39.938 100.188 39.9318Z" fill="white"/>
<path opacity="0.3" d="M50.4684 27.8452H99.6403C99.9091 27.8447 100.175 27.8972 100.424 27.9998C100.672 28.1024 100.898 28.2531 101.088 28.4431C101.278 28.6331 101.428 28.8588 101.531 29.1072C101.634 29.3556 101.686 29.6218 101.686 29.8905C101.686 30.1595 101.634 30.4259 101.531 30.6745C101.429 30.9231 101.278 31.149 101.088 31.3394C100.898 31.5297 100.672 31.6807 100.424 31.7838C100.176 31.8868 99.9093 31.9399 99.6403 31.9399H50.4684C50.1993 31.9399 49.9328 31.8869 49.6842 31.7839C49.4355 31.6809 49.2096 31.5299 49.0193 31.3396C48.829 31.1493 48.6781 30.9234 48.5751 30.6748C48.4721 30.4261 48.4191 30.1597 48.4191 29.8905C48.4191 29.6216 48.4721 29.3553 48.5751 29.1069C48.6782 28.8585 48.8292 28.6328 49.0195 28.4428C49.2099 28.2529 49.4358 28.1023 49.6845 27.9997C49.9331 27.8972 50.1995 27.8447 50.4684 27.8452Z" fill="black"/>
<path d="M98.8633 30.4179C98.6445 30.4172 98.4348 30.3304 98.2795 30.1764C98.2019 30.1004 98.1405 30.0095 98.099 29.9091C98.0575 29.8088 98.0367 29.7011 98.0379 29.5926C98.0367 29.484 98.0575 29.3763 98.099 29.276C98.1405 29.1757 98.2019 29.0848 98.2795 29.0088C98.3561 28.9321 98.4471 28.8712 98.5473 28.8297C98.6475 28.7882 98.7548 28.7668 98.8633 28.7668C98.9717 28.7668 99.0791 28.7882 99.1792 28.8297C99.2794 28.8712 99.3704 28.9321 99.4471 29.0088C99.5246 29.0848 99.586 29.1757 99.6275 29.276C99.669 29.3763 99.6898 29.484 99.6886 29.5926C99.6926 29.7045 99.6731 29.816 99.6315 29.92C99.5899 30.024 99.5271 30.1182 99.4471 30.1965C99.2885 30.3432 99.0792 30.4226 98.8633 30.4179ZM98.8633 29.1698C98.808 29.1684 98.753 29.1784 98.7017 29.1992C98.6505 29.22 98.604 29.2511 98.5653 29.2906C98.5257 29.3303 98.4943 29.3774 98.4729 29.4292C98.4515 29.481 98.4405 29.5365 98.4405 29.5926C98.4396 29.6482 98.4502 29.7033 98.4717 29.7546C98.4932 29.8059 98.5251 29.8522 98.5653 29.8905C98.646 29.9664 98.7525 30.0086 98.8633 30.0086C98.974 30.0086 99.0805 29.9664 99.1612 29.8905C99.2014 29.8522 99.2333 29.8059 99.2548 29.7546C99.2763 29.7033 99.2869 29.6482 99.286 29.5926C99.2861 29.5365 99.2751 29.481 99.2536 29.4292C99.2322 29.3774 99.2008 29.3303 99.1612 29.2906C99.1225 29.2511 99.0761 29.22 99.0248 29.1992C98.9735 29.1784 98.9186 29.1684 98.8633 29.1698Z" fill="white"/>
<path d="M100.087 31.0018C100.034 31.0011 99.9835 30.9794 99.9463 30.9414L99.141 30.1604C99.1039 30.122 99.0831 30.0708 99.0831 30.0174C99.0831 29.9641 99.1039 29.9128 99.141 29.8745C99.1598 29.8556 99.182 29.8406 99.2066 29.8304C99.2311 29.8202 99.2574 29.8149 99.284 29.8149C99.3105 29.8149 99.3369 29.8202 99.3614 29.8304C99.3859 29.8406 99.4082 29.8556 99.4269 29.8745L100.212 30.6596C100.249 30.6972 100.27 30.7478 100.27 30.8005C100.27 30.8532 100.249 30.9038 100.212 30.9414C100.179 30.9754 100.135 30.9968 100.087 31.0018Z" fill="white"/>
<path opacity="0.6" d="M96.3067 61.6572H49.2968C48.812 61.6572 48.4191 62.0502 48.4191 62.5349V81.5708C48.4191 82.0555 48.812 82.4485 49.2968 82.4485H96.3067C96.7914 82.4485 97.1844 82.0555 97.1844 81.5708V62.5349C97.1844 62.0502 96.7914 61.6572 96.3067 61.6572Z" fill="#EEB301" fill-opacity="0.71"/>
<path d="M67.773 63.6823H50.7301V79.3442H67.773V63.6823Z" fill="#EEB301"/>
<path opacity="0.6" d="M67.773 63.6823H50.7301V79.3442H67.773V63.6823Z" fill="white"/>
<path opacity="0.3" d="M66.7785 64.5078H51.4306V78.4747H66.7785V64.5078Z" fill="white"/>
<path opacity="0.3" d="M66.7785 75.5194V78.4747H51.4346L51.4306 71.6462L54.5992 68.8762L59.2978 73.458L61.786 71.6462L66.7785 75.5194Z" fill="white"/>
<g opacity="0.6">
<path opacity="0.6" d="M64.2218 68.8722C64.2218 69.1166 64.1494 69.3556 64.0135 69.5589C63.8777 69.7621 63.6847 69.9206 63.4588 70.0141C63.233 70.1077 62.9844 70.1321 62.7447 70.0844C62.5049 70.0368 62.2846 69.919 62.1118 69.7462C61.9389 69.5733 61.8212 69.3531 61.7735 69.1133C61.7258 68.8735 61.7503 68.625 61.8438 68.3991C61.9374 68.1733 62.0958 67.9802 62.2991 67.8444C62.5024 67.7086 62.7413 67.6361 62.9858 67.6361C63.1483 67.6356 63.3092 67.6672 63.4594 67.7291C63.6096 67.791 63.7461 67.8821 63.861 67.997C63.9759 68.1118 64.0669 68.2483 64.1288 68.3985C64.1908 68.5487 64.2224 68.7097 64.2218 68.8722Z" fill="white"/>
<path opacity="0.3" d="M64.2218 68.8722C64.2218 69.1166 64.1494 69.3556 64.0135 69.5589C63.8777 69.7621 63.6847 69.9206 63.4588 70.0141C63.233 70.1077 62.9844 70.1321 62.7447 70.0844C62.5049 70.0368 62.2846 69.919 62.1118 69.7462C61.9389 69.5733 61.8212 69.3531 61.7735 69.1133C61.7258 68.8735 61.7503 68.625 61.8438 68.3991C61.9374 68.1733 62.0958 67.9802 62.2991 67.8444C62.5024 67.7086 62.7413 67.6361 62.9858 67.6361C63.1483 67.6356 63.3092 67.6672 63.4594 67.7291C63.6096 67.791 63.7461 67.8821 63.861 67.997C63.9759 68.1118 64.0669 68.2483 64.1288 68.3985C64.1908 68.5487 64.2224 68.7097 64.2218 68.8722Z" fill="white"/>
</g>
<g opacity="0.3">
<path opacity="0.3" d="M87.3927 65.0232H70.6839C70.5483 65.0232 70.4183 64.9693 70.3224 64.8734C70.2265 64.7775 70.1726 64.6474 70.1726 64.5118C70.1726 64.4449 70.1859 64.3786 70.2116 64.3168C70.2374 64.255 70.2751 64.1988 70.3226 64.1517C70.3701 64.1045 70.4266 64.0672 70.4886 64.042C70.5506 64.0167 70.617 64.004 70.6839 64.0045H87.3927C87.4594 64.004 87.5256 64.0168 87.5874 64.0421C87.6492 64.0674 87.7054 64.1047 87.7526 64.1519C87.7998 64.1991 87.8371 64.2553 87.8624 64.3171C87.8877 64.3789 87.9005 64.4451 87.9 64.5118C87.9005 64.5788 87.8878 64.6452 87.8625 64.7072C87.8372 64.7692 87.8 64.8256 87.7528 64.8732C87.7056 64.9207 87.6495 64.9584 87.5877 64.9842C87.5259 65.0099 87.4596 65.0232 87.3927 65.0232Z" fill="white"/>
<path opacity="0.3" d="M93.9191 68.0791H70.6839C70.6169 68.0796 70.5506 68.0669 70.4885 68.0416C70.4265 68.0163 70.3701 67.9791 70.3226 67.9319C70.275 67.8847 70.2373 67.8286 70.2116 67.7668C70.1858 67.705 70.1726 67.6387 70.1726 67.5718C70.1726 67.4361 70.2265 67.3061 70.3223 67.2102C70.4182 67.1143 70.5483 67.0604 70.6839 67.0604H93.9191C94.0547 67.0604 94.1848 67.1143 94.2807 67.2102C94.3765 67.3061 94.4304 67.4361 94.4304 67.5718C94.4304 67.6387 94.4172 67.705 94.3914 67.7668C94.3657 67.8286 94.3279 67.8847 94.2804 67.9319C94.2329 67.9791 94.1765 68.0163 94.1145 68.0416C94.0524 68.0669 93.9861 68.0796 93.9191 68.0791Z" fill="white"/>
<path opacity="0.3" d="M80.0569 71.1389H70.6839C70.5483 71.1389 70.4182 71.085 70.3223 70.9891C70.2265 70.8932 70.1726 70.7632 70.1726 70.6276C70.1726 70.5606 70.1858 70.4943 70.2116 70.4325C70.2373 70.3707 70.275 70.3146 70.3226 70.2674C70.3701 70.2203 70.4265 70.183 70.4885 70.1577C70.5506 70.1324 70.6169 70.1197 70.6839 70.1203H80.0569C80.1237 70.1197 80.1899 70.1325 80.2517 70.1578C80.3134 70.1831 80.3696 70.2204 80.4168 70.2676C80.464 70.3149 80.5014 70.371 80.5267 70.4328C80.552 70.4946 80.5647 70.5608 80.5642 70.6276C80.5647 70.6945 80.552 70.7609 80.5267 70.8229C80.5015 70.8849 80.4642 70.9413 80.417 70.9889C80.3699 71.0364 80.3138 71.0741 80.252 71.0999C80.1902 71.1256 80.1239 71.1389 80.0569 71.1389Z" fill="white"/>
</g>
<path d="M70.3739 76.3366C70.8248 75.6038 71.6904 75.8857 72.1333 76.4534C72.5802 75.8816 73.4418 75.5998 73.8968 76.3326C74.6577 77.5686 73.0916 78.7161 72.3507 79.1509L72.1414 79.2798L71.928 79.1509C71.1872 78.7201 69.6129 77.5767 70.3739 76.3366Z" fill="white"/>
<g opacity="0.6">
<path opacity="0.6" d="M77.3714 76.5339H79.8757L79.7589 79.2959H77.4922L77.3714 76.5339Z" fill="white"/>
<path opacity="0.6" d="M79.0946 75.8817L78.9779 75.6401H78.2733L78.1525 75.8817L77.1459 75.9985V76.2723H80.1052V75.9985L79.0946 75.8817Z" fill="white"/>
</g>
<g opacity="0.6">
<path opacity="0.6" d="M86.7082 75.7408H86.064C86.0289 75.7402 85.9947 75.7519 85.9675 75.774C85.9402 75.7961 85.9216 75.8271 85.915 75.8616L85.8707 76.071H82.7625H82.7343H82.7101C82.7101 76.071 82.7101 76.071 82.69 76.0911V76.1152V76.1394C82.688 76.15 82.688 76.161 82.69 76.1716L83.0202 78.0357C83.0267 78.0706 83.0451 78.1021 83.0723 78.1248C83.0995 78.1476 83.1337 78.1602 83.1691 78.1606H85.6493C85.6843 78.1612 85.7185 78.1494 85.7458 78.1273C85.773 78.1052 85.7916 78.0742 85.7982 78.0398L86.1727 76.2119C86.1764 76.1906 86.1764 76.1688 86.1727 76.1475L86.2049 75.9743H86.7283C86.7641 75.9685 86.7967 75.9501 86.8202 75.9224C86.8436 75.8947 86.8565 75.8596 86.8565 75.8233C86.8565 75.7871 86.8436 75.752 86.8202 75.7243C86.7967 75.6966 86.7641 75.6782 86.7283 75.6724L86.7082 75.7408ZM85.6815 77.0131H85.0292L85.0655 76.3729H85.8103L85.6815 77.0131ZM84.071 77.0131L84.0428 76.3729H84.7675L84.7313 77.0131H84.071ZM84.7152 77.3151L84.679 77.9351H84.1153L84.0871 77.3151H84.7152ZM82.9879 76.3729H83.7449L83.7731 77.0131H83.1047L82.9879 76.3729ZM83.153 77.3151H83.7851L83.8133 77.9351H83.2617L83.153 77.3151ZM85.4963 77.9351H84.9809L85.0172 77.3151H85.6211L85.4963 77.9351Z" fill="white"/>
<path opacity="0.6" d="M83.2738 78.5431C83.1988 78.5423 83.1252 78.5638 83.0624 78.6049C82.9997 78.646 82.9505 78.7048 82.9213 78.7739C82.892 78.843 82.8839 78.9192 82.8981 78.9929C82.9122 79.0666 82.948 79.1344 83.0007 79.1877C83.0535 79.2411 83.1209 79.2775 83.1944 79.2924C83.268 79.3074 83.3443 79.3001 83.4136 79.2716C83.483 79.2431 83.5424 79.1946 83.5841 79.1322C83.6259 79.0699 83.6482 78.9966 83.6482 78.9216C83.6482 78.8219 83.6089 78.7262 83.5388 78.6554C83.4687 78.5845 83.3735 78.5442 83.2738 78.5431Z" fill="white"/>
<path opacity="0.6" d="M85.7821 78.5431C85.7071 78.5423 85.6335 78.5638 85.5708 78.6049C85.508 78.646 85.4589 78.7048 85.4296 78.7739C85.4003 78.843 85.3923 78.9192 85.4064 78.9929C85.4206 79.0666 85.4563 79.1344 85.509 79.1877C85.5618 79.2411 85.6292 79.2775 85.7028 79.2924C85.7763 79.3074 85.8526 79.3001 85.922 79.2716C85.9914 79.2431 86.0507 79.1946 86.0925 79.1322C86.1342 79.0699 86.1565 78.9966 86.1566 78.9216C86.1566 78.8219 86.1172 78.7262 86.0471 78.6554C85.977 78.5845 85.8818 78.5442 85.7821 78.5431Z" fill="white"/>
</g>
<path opacity="0.6" d="M96.3067 83.8013H49.2968C48.812 83.8013 48.4191 84.1942 48.4191 84.679V103.715C48.4191 104.2 48.812 104.593 49.2968 104.593H96.3067C96.7914 104.593 97.1844 104.2 97.1844 103.715V84.679C97.1844 84.1942 96.7914 83.8013 96.3067 83.8013Z" fill="#EEB301" fill-opacity="0.71"/>
<path d="M67.773 85.7581H50.7301V101.42H67.773V85.7581Z" fill="#EEB301"/>
<path opacity="0.6" d="M67.773 85.7581H50.7301V101.42H67.773V85.7581Z" fill="white"/>
<path opacity="0.3" d="M66.8831 86.5632H51.5353V100.53H66.8831V86.5632Z" fill="white"/>
<path opacity="0.3" d="M66.7785 97.6635V100.619H51.4346L51.4306 93.7903L54.5992 91.0203L59.2978 95.6021L61.786 93.7903L66.7785 97.6635Z" fill="white"/>
<g opacity="0.6">
<path opacity="0.6" d="M64.2218 91.0162C64.2218 91.2607 64.1494 91.4996 64.0135 91.7029C63.8777 91.9062 63.6847 92.0646 63.4588 92.1582C63.233 92.2517 62.9844 92.2762 62.7447 92.2285C62.5049 92.1808 62.2846 92.0631 62.1118 91.8902C61.9389 91.7173 61.8212 91.4971 61.7735 91.2573C61.7258 91.0176 61.7503 90.769 61.8438 90.5432C61.9374 90.3173 62.0958 90.1243 62.2991 89.9885C62.5024 89.8527 62.7413 89.7802 62.9858 89.7802C63.1483 89.7796 63.3092 89.8112 63.4594 89.8732C63.6096 89.9351 63.7461 90.0261 63.861 90.141C63.9759 90.2559 64.0669 90.3924 64.1288 90.5426C64.1908 90.6928 64.2224 90.8537 64.2218 91.0162Z" fill="white"/>
<path opacity="0.3" d="M64.2218 91.0162C64.2218 91.2607 64.1494 91.4996 64.0135 91.7029C63.8777 91.9062 63.6847 92.0646 63.4588 92.1582C63.233 92.2517 62.9844 92.2762 62.7447 92.2285C62.5049 92.1808 62.2846 92.0631 62.1118 91.8902C61.9389 91.7173 61.8212 91.4971 61.7735 91.2573C61.7258 91.0176 61.7503 90.769 61.8438 90.5432C61.9374 90.3173 62.0958 90.1243 62.2991 89.9885C62.5024 89.8527 62.7413 89.7802 62.9858 89.7802C63.1483 89.7796 63.3092 89.8112 63.4594 89.8732C63.6096 89.9351 63.7461 90.0261 63.861 90.141C63.9759 90.2559 64.0669 90.3924 64.1288 90.5426C64.1908 90.6928 64.2224 90.8537 64.2218 91.0162Z" fill="white"/>
</g>
<g opacity="0.3">
<path opacity="0.3" d="M87.3927 87.1672H70.6839C70.5483 87.1672 70.4183 87.1133 70.3224 87.0174C70.2265 86.9215 70.1726 86.7915 70.1726 86.6559C70.1726 86.5889 70.1859 86.5226 70.2116 86.4608C70.2374 86.399 70.2751 86.3429 70.3226 86.2957C70.3701 86.2486 70.4266 86.2113 70.4886 86.186C70.5506 86.1608 70.617 86.148 70.6839 86.1486H87.3927C87.4594 86.148 87.5256 86.1608 87.5874 86.1861C87.6492 86.2114 87.7054 86.2488 87.7526 86.296C87.7998 86.3432 87.8371 86.3993 87.8624 86.4611C87.8877 86.5229 87.9005 86.5891 87.9 86.6559C87.9005 86.7228 87.8878 86.7892 87.8625 86.8512C87.8372 86.9133 87.8 86.9697 87.7528 87.0172C87.7056 87.0647 87.6495 87.1025 87.5877 87.1282C87.5259 87.1539 87.4596 87.1672 87.3927 87.1672Z" fill="white"/>
<path opacity="0.3" d="M93.9191 90.223H70.6839C70.6169 90.2235 70.5506 90.2108 70.4885 90.1855C70.4265 90.1603 70.3701 90.123 70.3226 90.0758C70.275 90.0287 70.2373 89.9726 70.2116 89.9107C70.1858 89.8489 70.1726 89.7826 70.1726 89.7157C70.1726 89.5801 70.2265 89.45 70.3223 89.3541C70.4182 89.2582 70.5483 89.2043 70.6839 89.2043H93.9191C94.0547 89.2043 94.1848 89.2582 94.2807 89.3541C94.3765 89.45 94.4304 89.5801 94.4304 89.7157C94.4304 89.7826 94.4172 89.8489 94.3914 89.9107C94.3657 89.9726 94.3279 90.0287 94.2804 90.0758C94.2329 90.123 94.1765 90.1603 94.1145 90.1855C94.0524 90.2108 93.9861 90.2235 93.9191 90.223Z" fill="white"/>
<path opacity="0.3" d="M80.0569 93.2829H70.6839C70.5483 93.2829 70.4182 93.2291 70.3223 93.1332C70.2265 93.0373 70.1726 92.9072 70.1726 92.7716C70.1726 92.7046 70.1858 92.6383 70.2116 92.5765C70.2373 92.5147 70.275 92.4586 70.3226 92.4114C70.3701 92.3643 70.4265 92.327 70.4885 92.3017C70.5506 92.2765 70.6169 92.2638 70.6839 92.2643H80.0569C80.1237 92.2638 80.1899 92.2765 80.2517 92.3018C80.3134 92.3271 80.3696 92.3645 80.4168 92.4117C80.464 92.4589 80.5014 92.515 80.5267 92.5768C80.552 92.6386 80.5647 92.7048 80.5642 92.7716C80.5647 92.8386 80.552 92.905 80.5267 92.967C80.5015 93.029 80.4642 93.0854 80.417 93.1329C80.3699 93.1804 80.3138 93.2182 80.252 93.2439C80.1902 93.2697 80.1239 93.2829 80.0569 93.2829Z" fill="white"/>
</g>
<path d="M70.3739 98.4808C70.8248 97.748 71.6904 98.0298 72.1333 98.5975C72.5802 98.0258 73.4418 97.744 73.8968 98.4767C74.6577 99.7128 73.0916 100.86 72.3507 101.295L72.1414 101.424L71.928 101.295C71.1872 100.864 69.6129 99.7208 70.3739 98.4808Z" fill="white"/>
<g opacity="0.6">
<path opacity="0.6" d="M77.3714 98.6741H79.8757L79.7589 101.44H77.4922L77.3714 98.6741Z" fill="white"/>
<path opacity="0.6" d="M79.0946 98.0259L78.9779 97.7843H78.2733L78.1525 98.0259L77.1459 98.1426V98.4164H80.1052V98.1426L79.0946 98.0259Z" fill="white"/>
</g>
<g opacity="0.6">
<path opacity="0.6" d="M86.7082 97.8848H86.064C86.0289 97.8842 85.9947 97.896 85.9675 97.9181C85.9402 97.9402 85.9216 97.9712 85.915 98.0056L85.8707 98.215H82.7625H82.7343H82.7101L82.69 98.2351V98.2593V98.2834C82.688 98.2941 82.688 98.305 82.69 98.3157L83.0202 100.18C83.0267 100.215 83.0451 100.246 83.0723 100.269C83.0995 100.292 83.1337 100.304 83.1691 100.305H85.6493C85.6843 100.305 85.7185 100.293 85.7458 100.271C85.773 100.249 85.7916 100.218 85.7982 100.184L86.1727 98.3559C86.1764 98.3346 86.1764 98.3128 86.1727 98.2915L86.2049 98.1184H86.7283C86.7641 98.1125 86.7967 98.0941 86.8202 98.0664C86.8436 98.0388 86.8565 98.0037 86.8565 97.9674C86.8565 97.9311 86.8436 97.896 86.8202 97.8683C86.7967 97.8407 86.7641 97.8223 86.7283 97.8164L86.7082 97.8848ZM85.6815 99.1571H85.0292L85.0655 98.517H85.8103L85.6815 99.1571ZM84.071 99.1571L84.0428 98.517H84.7675L84.7313 99.1571H84.071ZM84.7152 99.4591L84.679 100.079H84.1153L84.0871 99.4591H84.7152ZM82.9879 98.517H83.7449L83.7731 99.1571H83.1047L82.9879 98.517ZM83.153 99.4591H83.7851L83.8133 100.079H83.2617L83.153 99.4591ZM85.4963 100.079H84.9809L85.0172 99.4591H85.6211L85.4963 100.079Z" fill="white"/>
<path opacity="0.6" d="M83.2738 100.687C83.1988 100.686 83.1252 100.708 83.0624 100.749C82.9997 100.79 82.9505 100.849 82.9213 100.918C82.892 100.987 82.8839 101.063 82.8981 101.137C82.9122 101.211 82.948 101.278 83.0007 101.332C83.0535 101.385 83.1209 101.422 83.1944 101.436C83.268 101.451 83.3443 101.444 83.4136 101.416C83.483 101.387 83.5424 101.339 83.5841 101.276C83.6259 101.214 83.6482 101.141 83.6482 101.066C83.6482 100.966 83.6089 100.87 83.5388 100.799C83.4687 100.729 83.3735 100.688 83.2738 100.687Z" fill="white"/>
<path opacity="0.6" d="M85.7821 100.687C85.7071 100.686 85.6335 100.708 85.5708 100.749C85.508 100.79 85.4589 100.849 85.4296 100.918C85.4003 100.987 85.3923 101.063 85.4064 101.137C85.4206 101.211 85.4563 101.278 85.509 101.332C85.5618 101.385 85.6292 101.422 85.7028 101.436C85.7763 101.451 85.8526 101.444 85.922 101.416C85.9914 101.387 86.0507 101.339 86.0925 101.276C86.1342 101.214 86.1565 101.141 86.1566 101.066C86.1566 100.966 86.1172 100.87 86.0471 100.799C85.977 100.729 85.8818 100.688 85.7821 100.687Z" fill="white"/>
</g>
<path opacity="0.6" d="M96.3067 39.5131H49.2968C48.812 39.5131 48.4191 39.906 48.4191 40.3908V59.4266C48.4191 59.9114 48.812 60.3043 49.2968 60.3043H96.3067C96.7914 60.3043 97.1844 59.9114 97.1844 59.4266V40.3908C97.1844 39.906 96.7914 39.5131 96.3067 39.5131Z" fill="#EEB301" fill-opacity="0.71"/>
<path d="M67.773 41.4698H50.7301V57.1318H67.773V41.4698Z" fill="#EEB301"/>
<path opacity="0.6" d="M67.773 41.4698H50.7301V57.1318H67.773V41.4698Z" fill="white"/>
<path opacity="0.3" d="M66.7785 42.3635H51.4306V56.3304H66.7785V42.3635Z" fill="white"/>
<path opacity="0.3" d="M66.7785 53.3753V56.3305H51.4346L51.4306 49.5021L54.5992 46.7321L59.2978 51.3139L61.786 49.5021L66.7785 53.3753Z" fill="white"/>
<g opacity="0.6">
<path opacity="0.6" d="M64.2218 46.728C64.2218 46.9725 64.1494 47.2114 64.0135 47.4147C63.8777 47.618 63.6847 47.7764 63.4588 47.8699C63.233 47.9635 62.9844 47.988 62.7447 47.9403C62.5049 47.8926 62.2846 47.7749 62.1118 47.602C61.9389 47.4291 61.8212 47.2089 61.7735 46.9691C61.7258 46.7294 61.7503 46.4808 61.8438 46.255C61.9374 46.0291 62.0958 45.8361 62.2991 45.7003C62.5024 45.5644 62.7413 45.4919 62.9858 45.4919C63.1483 45.4914 63.3092 45.523 63.4594 45.585C63.6096 45.6469 63.7461 45.7379 63.861 45.8528C63.9759 45.9677 64.0669 46.1041 64.1288 46.2544C64.1908 46.4046 64.2224 46.5655 64.2218 46.728Z" fill="white"/>
<path opacity="0.3" d="M64.2218 46.728C64.2218 46.9725 64.1494 47.2114 64.0135 47.4147C63.8777 47.618 63.6847 47.7764 63.4588 47.8699C63.233 47.9635 62.9844 47.988 62.7447 47.9403C62.5049 47.8926 62.2846 47.7749 62.1118 47.602C61.9389 47.4291 61.8212 47.2089 61.7735 46.9691C61.7258 46.7294 61.7503 46.4808 61.8438 46.255C61.9374 46.0291 62.0958 45.8361 62.2991 45.7003C62.5024 45.5644 62.7413 45.4919 62.9858 45.4919C63.1483 45.4914 63.3092 45.523 63.4594 45.585C63.6096 45.6469 63.7461 45.7379 63.861 45.8528C63.9759 45.9677 64.0669 46.1041 64.1288 46.2544C64.1908 46.4046 64.2224 46.5655 64.2218 46.728Z" fill="white"/>
</g>
<g opacity="0.3">
<path opacity="0.3" d="M87.3927 42.879H70.6839C70.6168 42.879 70.5503 42.8658 70.4883 42.8401C70.4262 42.8144 70.3699 42.7767 70.3224 42.7292C70.2749 42.6817 70.2372 42.6254 70.2115 42.5633C70.1858 42.5013 70.1726 42.4348 70.1726 42.3677C70.1726 42.3007 70.1859 42.2344 70.2116 42.1726C70.2374 42.1108 70.2751 42.0547 70.3226 42.0075C70.3701 41.9604 70.4266 41.9231 70.4886 41.8978C70.5506 41.8726 70.617 41.8598 70.6839 41.8604H87.3927C87.4594 41.8598 87.5256 41.8726 87.5874 41.8979C87.6492 41.9232 87.7054 41.9605 87.7526 42.0078C87.7998 42.055 87.8371 42.1111 87.8624 42.1729C87.8877 42.2347 87.9005 42.3009 87.9 42.3677C87.9005 42.4346 87.8878 42.501 87.8625 42.563C87.8372 42.6251 87.8 42.6815 87.7528 42.729C87.7056 42.7765 87.6495 42.8143 87.5877 42.84C87.5259 42.8657 87.4596 42.879 87.3927 42.879Z" fill="white"/>
<path opacity="0.3" d="M93.9191 45.9349H70.6839C70.6169 45.9354 70.5506 45.9227 70.4885 45.8974C70.4265 45.8722 70.3701 45.8349 70.3226 45.7877C70.275 45.7406 70.2373 45.6845 70.2116 45.6227C70.1858 45.5608 70.1726 45.4945 70.1726 45.4276C70.1726 45.292 70.2265 45.1619 70.3223 45.066C70.4182 44.9701 70.5483 44.9163 70.6839 44.9163H93.9191C94.0547 44.9163 94.1848 44.9701 94.2807 45.066C94.3765 45.1619 94.4304 45.292 94.4304 45.4276C94.4304 45.4945 94.4172 45.5608 94.3914 45.6227C94.3657 45.6845 94.3279 45.7406 94.2804 45.7877C94.2329 45.8349 94.1765 45.8722 94.1145 45.8974C94.0524 45.9227 93.9861 45.9354 93.9191 45.9349Z" fill="white"/>
<path opacity="0.3" d="M80.0569 48.9947H70.6839C70.5483 48.9947 70.4182 48.9408 70.3223 48.845C70.2265 48.7491 70.1726 48.619 70.1726 48.4834C70.1726 48.4164 70.1858 48.3501 70.2116 48.2883C70.2373 48.2265 70.275 48.1704 70.3226 48.1232C70.3701 48.0761 70.4265 48.0388 70.4885 48.0135C70.5506 47.9883 70.6169 47.9756 70.6839 47.9761H80.0569C80.1237 47.9756 80.1899 47.9883 80.2517 48.0136C80.3134 48.0389 80.3696 48.0763 80.4168 48.1235C80.464 48.1707 80.5014 48.2268 80.5267 48.2886C80.552 48.3504 80.5647 48.4166 80.5642 48.4834C80.5647 48.5503 80.552 48.6168 80.5267 48.6788C80.5015 48.7408 80.4642 48.7972 80.417 48.8447C80.3699 48.8922 80.3138 48.93 80.252 48.9557C80.1902 48.9815 80.1239 48.9947 80.0569 48.9947Z" fill="white"/>
</g>
<path d="M70.3739 54.1927C70.8248 53.4599 71.6904 53.7418 72.1333 54.3094C72.5802 53.7377 73.4418 53.4559 73.8968 54.1887C74.6577 55.4247 73.0916 56.5722 72.3507 57.007L72.1414 57.1358L71.928 57.007C71.1872 56.5762 69.6129 55.4328 70.3739 54.1927Z" fill="white"/>
<g opacity="0.6">
<path opacity="0.6" d="M77.3714 54.3899H79.8757L79.7589 57.1519H77.4922L77.3714 54.3899Z" fill="white"/>
<path opacity="0.6" d="M79.0946 53.7377L78.9779 53.4961H78.2733L78.1525 53.7377L77.1459 53.8544V54.1282H80.1052V53.8544L79.0946 53.7377Z" fill="white"/>
</g>
<g opacity="0.6">
<path opacity="0.6" d="M86.7082 53.5968H86.064C86.0289 53.5961 85.9947 53.6079 85.9675 53.63C85.9402 53.6521 85.9216 53.6831 85.915 53.7176L85.8707 53.9269H82.7625H82.7343H82.7101C82.7101 53.9269 82.7101 53.9269 82.69 53.947V53.9712V53.9954C82.688 54.006 82.688 54.0169 82.69 54.0276L83.0202 55.8917C83.0267 55.9265 83.0451 55.958 83.0723 55.9808C83.0995 56.0036 83.1337 56.0162 83.1691 56.0165H85.6493C85.6843 56.0171 85.7185 56.0054 85.7458 55.9833C85.773 55.9612 85.7916 55.9302 85.7982 55.8957L86.1727 54.0678C86.1764 54.0465 86.1764 54.0247 86.1727 54.0034L86.2049 53.8303H86.7283C86.7641 53.8244 86.7967 53.806 86.8202 53.7784C86.8436 53.7507 86.8565 53.7156 86.8565 53.6793C86.8565 53.643 86.8436 53.6079 86.8202 53.5803C86.7967 53.5526 86.7641 53.5342 86.7283 53.5283L86.7082 53.5968ZM85.6815 54.869H85.0292L85.0655 54.2289H85.8103L85.6815 54.869ZM84.071 54.869L84.0428 54.2289H84.7675L84.7313 54.869H84.071ZM84.7152 55.171L84.679 55.791H84.1153L84.0871 55.171H84.7152ZM82.9879 54.2289H83.7449L83.7731 54.869H83.1047L82.9879 54.2289ZM83.153 55.171H83.7851L83.8133 55.791H83.2617L83.153 55.171ZM85.4963 55.791H84.9809L85.0172 55.171H85.6211L85.4963 55.791Z" fill="white"/>
<path opacity="0.6" d="M83.2738 56.3989C83.1988 56.3981 83.1252 56.4197 83.0624 56.4608C82.9997 56.5019 82.9505 56.5607 82.9213 56.6298C82.892 56.6988 82.8839 56.7751 82.8981 56.8487C82.9122 56.9224 82.948 56.9902 83.0007 57.0436C83.0535 57.0969 83.1209 57.1333 83.1944 57.1483C83.268 57.1632 83.3443 57.156 83.4136 57.1274C83.483 57.0989 83.5424 57.0504 83.5841 56.9881C83.6259 56.9258 83.6482 56.8524 83.6482 56.7774C83.6482 56.6777 83.6089 56.5821 83.5388 56.5112C83.4687 56.4403 83.3735 56.4 83.2738 56.3989Z" fill="white"/>
<path opacity="0.6" d="M85.7821 56.3989C85.7071 56.3981 85.6335 56.4197 85.5708 56.4608C85.508 56.5019 85.4589 56.5607 85.4296 56.6298C85.4003 56.6988 85.3923 56.7751 85.4064 56.8487C85.4206 56.9224 85.4563 56.9902 85.509 57.0436C85.5618 57.0969 85.6292 57.1333 85.7028 57.1483C85.7763 57.1632 85.8526 57.156 85.922 57.1274C85.9914 57.0989 86.0507 57.0504 86.0925 56.9881C86.1342 56.9258 86.1565 56.8524 86.1566 56.7774C86.1566 56.6777 86.1172 56.5821 86.0471 56.5112C85.977 56.4403 85.8818 56.4 85.7821 56.3989Z" fill="white"/>
</g>
<path d="M133.734 72.9224L130.392 75.926C130.392 75.926 131.685 76.9446 132.035 77.3029C132.385 77.6613 130.509 78.8409 129.954 78.5108C129.398 78.1806 128.561 76.707 128.242 76.0951C127.924 75.4831 129.45 74.5047 129.45 74.5047L132.152 71.8756L133.734 72.9224Z" fill="#B97964"/>
<path d="M139.27 66.4322C139.153 68.8479 133.013 73.941 133.013 73.941L131.081 72.6728C131.081 72.6728 135.997 67.475 135.357 65.9048C135.131 65.3532 134.35 64.6566 133.436 63.9923C132.209 63.1307 130.931 62.3455 129.607 61.641L131.02 58.1664L132.136 55.4286C134.213 56.2781 139.391 64.0406 139.27 66.4322Z" fill="#E23E2B"/>
<path opacity="0.2" d="M133.436 64.0166C132.209 63.155 130.931 62.3697 129.607 61.6653L131.02 58.1907C132.172 59.3784 133.948 61.6733 133.436 64.0166Z" fill="black"/>
<path d="M100.196 57.3492L93.2628 54.5308C93.2628 54.5308 92.7233 53.633 92.2603 53.5162C91.7973 53.3995 88.9387 53.5766 88.7213 53.9188C88.5039 54.2611 88.9508 56.4272 89.5265 56.6083C90.1023 56.7895 92.5583 56.2862 92.7716 56.1494L98.968 59.318L100.196 57.3492Z" fill="#B97964"/>
<path d="M139.769 143.167L137.241 143.614L136.206 140.168L135.26 137.007L138.175 135.989L139.021 139.79L139.769 143.167Z" fill="#B97964"/>
<path opacity="0.2" d="M139.033 139.866L136.218 140.236L135.264 137.04L138.175 136.005L139.033 139.866Z" fill="black"/>
<path d="M122.896 143.232H120.331L119.908 139.79L119.526 136.573L122.574 136.11L122.747 139.886L122.896 143.232Z" fill="#B97964"/>
<path opacity="0.2" d="M122.747 140.116L119.908 139.991L119.526 136.673L122.574 136.162L122.747 140.116Z" fill="black"/>
<path d="M139.27 137.104L135.115 137.837C130.924 127.369 127.94 118.668 125.855 111.433C124.72 107.528 123.822 104.057 123.141 100.965L123.318 112.335V137.986H119.107C108.844 89.2689 116.12 77.9432 116.12 77.9432L128.395 75.8899C128.882 78.1652 129.226 80.4686 129.426 82.7868L129.978 86.8573L134.777 111.647L139.27 137.104Z" fill="#E23E2B"/>
<g opacity="0.5">
<path opacity="0.5" d="M139.27 137.104L135.115 137.837C131.286 128.291 128.464 120.19 126.402 113.346C126.205 112.697 126 112.061 125.819 111.433C124.788 107.89 124.103 104.701 123.298 101.843C123.266 101.551 123.201 101.263 123.105 100.985L123.298 112.355V138.006H119.107C112.838 108.212 113.112 92.3932 114.276 84.6146C115.016 79.6543 116.12 78.0076 116.12 78.0076L128.395 75.9341C128.882 78.2053 129.226 80.5047 129.426 82.8189L129.591 84.0267L129.994 86.8692L134.793 111.655L139.27 137.104Z" fill="white"/>
</g>
<path d="M134.467 137.322L139.62 135.615L139.548 137.805L135.288 139.166L134.467 137.322Z" fill="#E23E2B"/>
<path opacity="0.6" d="M134.467 137.322L139.62 135.615L139.548 137.805L135.288 139.166L134.467 137.322Z" fill="white"/>
<path d="M118.555 137.559L123.93 136.774L123.479 138.92L119.047 139.52L118.555 137.559Z" fill="#E23E2B"/>
<path opacity="0.6" d="M118.555 137.559L123.93 136.774L123.479 138.92L119.047 139.52L118.555 137.559Z" fill="white"/>
<path opacity="0.2" d="M126.423 113.346C126.225 112.697 126.02 112.061 125.839 111.433C124.812 107.89 124.124 104.701 123.318 101.843L122.916 96.5765C122.916 96.5765 125.541 90.7908 124.558 86.7163C124.647 86.9498 126.386 91.3867 125.706 95.8155C125.547 101.668 125.786 107.525 126.423 113.346Z" fill="black"/>
<path d="M125.931 51.3219C125.905 51.3531 125.875 51.3815 125.843 51.4065C125.421 51.8241 124.92 52.1539 124.369 52.3768C122.759 52.9767 121.587 52.8921 120.746 52.2359C119.562 51.2414 119.047 49.2726 118.882 46.8408C118.785 45.8756 118.842 44.9012 119.051 43.954C119.049 43.9406 119.049 43.9271 119.051 43.9137C119.051 43.8815 119.051 43.8372 119.079 43.805C119.217 43.2686 119.487 42.7752 119.864 42.3701C120.242 41.965 120.715 41.661 121.241 41.4859C121.695 41.3201 122.167 41.204 122.646 41.1397C127.345 40.4874 129.193 48.1734 125.931 51.3219Z" fill="#B97964"/>
<path opacity="0.2" d="M125.843 51.4065C125.412 51.8038 124.907 52.1117 124.357 52.3124C122.747 52.9083 121.571 52.7714 120.734 52.1031C121.76 52.2229 122.797 52.0022 123.685 51.475C124.016 51.3013 124.382 51.205 124.756 51.1931C125.13 51.1813 125.501 51.2542 125.843 51.4065Z" fill="black"/>
<path d="M127.159 55.0422C127.904 56.2058 126.455 57.3291 126.455 57.3291C123.347 57.1801 122.32 55.936 122.32 55.936C124.128 53.9229 122.255 50.8791 122.255 50.8791L122.795 50.9315L126.221 50.3759C126.221 50.3759 125.968 52.389 125.992 52.8359C126.141 55.0986 127.159 55.0422 127.159 55.0422Z" fill="#B97964"/>
<path d="M119.043 43.9259C119.043 43.9259 119.208 47.2555 122.513 48.2741C122.513 48.2741 124.297 51.5273 126.278 51.322C128.983 51.0442 130.864 46.8932 129.43 43.1206C127.574 38.2127 119.848 38.7844 119.043 43.9259Z" fill="#263238"/>
<path d="M120.81 47.5294C120.746 47.014 121.048 46.096 121.865 46.1121C122.682 46.1283 123.427 48.1252 121.462 48.8258C121.189 48.9305 120.947 48.6044 120.81 47.5294Z" fill="#B97964"/>
<path d="M120.057 142.745H122.924C122.983 142.746 123.04 142.767 123.086 142.804C123.132 142.841 123.164 142.893 123.178 142.95L123.765 145.607C123.777 145.664 123.778 145.722 123.767 145.779C123.756 145.836 123.734 145.89 123.702 145.938C123.67 145.986 123.629 146.028 123.581 146.06C123.534 146.093 123.48 146.115 123.423 146.127C123.391 146.131 123.359 146.131 123.326 146.127C122.155 146.107 122.062 146.034 120.589 146.034C119.683 146.034 116.945 146.131 115.693 146.131C114.441 146.131 114.28 144.895 114.791 144.778C117.09 144.279 118.817 143.57 119.558 142.922C119.696 142.801 119.874 142.738 120.057 142.745Z" fill="#263238"/>
<path d="M119.071 143.268C118.869 143.284 118.667 143.232 118.499 143.119C118.439 143.073 118.393 143.011 118.366 142.939C118.34 142.868 118.334 142.791 118.35 142.717C118.35 142.676 118.361 142.635 118.382 142.601C118.403 142.566 118.434 142.537 118.471 142.519C118.801 142.35 119.767 142.942 119.872 143.01C119.884 143.016 119.894 143.027 119.9 143.039C119.906 143.051 119.907 143.066 119.904 143.079C119.903 143.093 119.897 143.107 119.888 143.118C119.878 143.128 119.866 143.136 119.852 143.139C119.597 143.211 119.335 143.254 119.071 143.268ZM118.628 142.652C118.598 142.644 118.566 142.644 118.535 142.652C118.535 142.652 118.495 142.68 118.491 142.737C118.485 142.783 118.491 142.831 118.507 142.875C118.523 142.919 118.549 142.958 118.584 142.99C118.918 143.143 119.298 143.163 119.646 143.047C119.336 142.851 118.99 142.717 118.628 142.652Z" fill="#E23E2B"/>
<path d="M119.836 143.164H119.799C119.493 142.998 118.898 142.338 118.958 142.024C118.968 141.972 118.996 141.925 119.038 141.891C119.079 141.857 119.13 141.839 119.183 141.839C119.237 141.833 119.292 141.838 119.344 141.854C119.396 141.87 119.444 141.897 119.485 141.932C119.832 142.209 119.888 143.067 119.888 143.111C119.889 143.124 119.886 143.136 119.881 143.148C119.875 143.159 119.866 143.169 119.856 143.176C119.848 143.173 119.842 143.169 119.836 143.164ZM119.236 141.956H119.2C119.111 141.956 119.103 142.012 119.099 142.028C119.059 142.221 119.441 142.721 119.747 142.95C119.726 142.61 119.602 142.285 119.393 142.016C119.349 141.977 119.294 141.954 119.236 141.952V141.956Z" fill="#E23E2B"/>
<path d="M137.144 142.745H140.007C140.066 142.744 140.124 142.765 140.17 142.802C140.217 142.84 140.249 142.892 140.261 142.95L140.848 145.607C140.861 145.664 140.862 145.722 140.851 145.779C140.841 145.835 140.82 145.89 140.788 145.938C140.757 145.986 140.716 146.028 140.668 146.06C140.62 146.093 140.567 146.115 140.51 146.127H140.414C139.242 146.107 139.145 146.034 137.676 146.034C136.766 146.034 134.032 146.131 132.78 146.131C131.528 146.131 131.363 144.895 131.878 144.778C134.177 144.279 135.904 143.57 136.641 142.922C136.78 142.801 136.96 142.738 137.144 142.745Z" fill="#263238"/>
<path d="M136.158 143.268C135.955 143.285 135.752 143.232 135.582 143.119C135.525 143.071 135.481 143.008 135.456 142.937C135.43 142.867 135.424 142.79 135.437 142.717C135.436 142.676 135.447 142.635 135.469 142.6C135.49 142.565 135.521 142.537 135.558 142.519C135.888 142.35 136.85 142.942 136.959 143.01C136.971 143.017 136.981 143.027 136.986 143.039C136.992 143.052 136.994 143.066 136.991 143.079C136.989 143.093 136.984 143.106 136.974 143.117C136.965 143.128 136.953 143.135 136.939 143.139C136.684 143.21 136.422 143.253 136.158 143.268ZM135.711 142.652C135.682 142.644 135.651 142.644 135.622 142.652C135.602 142.652 135.578 142.68 135.578 142.737C135.571 142.783 135.576 142.831 135.593 142.875C135.609 142.919 135.636 142.959 135.671 142.99C136.005 143.143 136.385 143.163 136.734 143.047C136.422 142.85 136.074 142.715 135.711 142.652Z" fill="#E23E2B"/>
<path d="M136.919 143.164H136.891C136.581 142.998 135.985 142.338 136.045 142.024C136.057 141.972 136.086 141.925 136.128 141.892C136.169 141.858 136.221 141.839 136.275 141.839C136.328 141.834 136.382 141.839 136.433 141.855C136.484 141.871 136.532 141.897 136.573 141.932C136.919 142.209 136.975 143.067 136.995 143.111C136.995 143.124 136.992 143.136 136.986 143.147C136.981 143.158 136.973 143.168 136.963 143.176C136.947 143.177 136.932 143.173 136.919 143.164ZM136.319 141.956H136.287C136.194 141.956 136.186 142.012 136.182 142.028C136.146 142.221 136.524 142.721 136.83 142.95C136.812 142.61 136.69 142.284 136.48 142.016C136.435 141.977 136.378 141.954 136.319 141.952V141.956Z" fill="#E23E2B"/>
<path d="M116.12 77.9995C116.12 77.9995 114.509 62.3295 118.535 55.9319C118.535 55.9319 124.172 53.9752 132.136 55.4447C132.136 55.4447 129.16 66.4483 128.814 77.9914L116.12 77.9995Z" fill="#263238"/>
<path d="M131.057 75.1209L117.77 75.4711C116.865 73.2084 116.304 70.8224 116.107 68.3931C115.951 66.5827 115.929 64.7634 116.039 62.9497C116.144 60.9182 116.413 58.8985 116.844 56.9104C120.238 53.17 132.112 55.4328 132.112 55.4328C130.328 63.9321 131.057 75.1209 131.057 75.1209Z" fill="#E23E2B"/>
<path d="M119.578 41.5705C119.493 41.3491 118.286 42.4804 118.229 42.565C117.969 42.9295 117.816 43.3597 117.788 43.8067C117.761 44.2537 117.859 44.6996 118.072 45.0934C118.543 45.8987 119.522 46.4583 119.606 47.3884C119.642 47.8151 119.473 48.2339 119.473 48.6647C119.5 49.2326 119.744 49.7686 120.154 50.1624C120.939 50.9677 122.227 51.3099 122.308 52.6144C122.296 53.1865 122.255 53.7577 122.183 54.3255C122.15 54.611 122.185 54.9002 122.285 55.1695C122.385 55.4389 122.547 55.6808 122.759 55.8756C123.117 56.0724 123.5 56.2187 123.898 56.3104C124.281 56.4513 124.667 56.7654 124.651 57.172C124.591 57.4297 124.502 57.6797 124.385 57.9169C124.341 58.1535 124.366 58.398 124.458 58.6205C124.55 58.8429 124.706 59.0336 124.905 59.169C125.682 59.7649 126.95 59.7005 127.574 60.5259C127.682 60.6415 127.763 60.7793 127.812 60.9296C127.861 61.08 127.876 61.2392 127.857 61.3961C127.838 61.5531 127.785 61.7039 127.701 61.838C127.617 61.9722 127.505 62.0864 127.373 62.1726C127.373 62.1726 128.871 62.2772 129.136 60.8439C129.253 61.2033 129.223 61.594 129.053 61.9315C128.884 62.2691 128.588 62.5263 128.23 62.6477C128.23 62.6477 129.656 62.861 129.925 61.0573C130.048 61.3063 130.253 61.5056 130.505 61.6214C130.757 61.7373 131.042 61.7627 131.31 61.6934C131.31 61.6934 130.207 61.315 131.053 60.1232C131.536 59.4428 132.172 58.7463 132.261 57.8806C132.373 56.9144 131.576 56.1776 131.713 55.2072C131.838 54.2973 132.703 53.6411 132.921 52.7472C133.037 52.1731 132.932 51.5765 132.627 51.0764C132.164 50.2711 131.242 49.8685 131.242 48.8459C131.242 48.0406 131.568 47.2595 131.741 46.4664C131.897 45.9144 131.851 45.325 131.612 44.8035C131.355 44.42 131.034 44.0836 130.662 43.8091C129.579 42.8388 130.139 41.3169 129.164 40.2499C128.939 39.9984 128.659 39.8021 128.345 39.6764C128.032 39.5508 127.693 39.499 127.357 39.5252C126.968 39.6017 126.585 39.7025 126.209 39.8272C125.404 40.0245 124.921 39.6218 124.305 39.2031C123.306 38.5267 121.865 38.2086 120.742 38.7723C120.244 39.021 119.852 39.4407 119.638 39.9546C119.425 40.4685 119.403 41.0421 119.578 41.5705Z" fill="#263238"/>
<path d="M121.511 51.4266C121.206 51.4453 120.901 51.4013 120.615 51.2974C120.328 51.1935 120.066 51.032 119.844 50.8227C119.32 50.2792 119.256 49.5263 119.26 48.8096V48.6164C119.26 47.8715 119.26 47.2313 118.857 46.6033C118.729 46.406 118.576 46.2006 118.431 46.0315C118.134 45.6929 117.889 45.3116 117.706 44.9002C117.606 44.6498 117.558 44.3815 117.567 44.112C117.575 43.8426 117.639 43.5777 117.754 43.334C118.318 42.1261 119.872 41.5343 120.335 41.3813C120.358 41.3727 120.384 41.3739 120.407 41.3845C120.43 41.395 120.447 41.4142 120.456 41.4377C120.464 41.4611 120.463 41.4871 120.453 41.5097C120.442 41.5324 120.423 41.5499 120.399 41.5584C119.477 41.8685 118.346 42.5207 117.927 43.4145C117.822 43.6346 117.763 43.8744 117.755 44.1184C117.748 44.3625 117.791 44.6055 117.883 44.8317C118.058 45.2251 118.293 45.589 118.58 45.9108C118.729 46.1 118.882 46.2932 119.014 46.4986C119.457 47.171 119.449 47.8715 119.441 48.6123V48.8056C119.441 49.4981 119.498 50.2107 119.973 50.7019C120.637 51.3864 121.7 51.2938 122.553 51.1368C122.578 51.1341 122.602 51.1406 122.621 51.155C122.641 51.1694 122.654 51.1907 122.659 51.2146C122.664 51.2385 122.659 51.2632 122.646 51.2839C122.633 51.3045 122.613 51.3196 122.59 51.326C122.234 51.3903 121.873 51.424 121.511 51.4266Z" fill="#263238"/>
<path d="M131.125 60.86C131.11 60.8597 131.095 60.8559 131.082 60.8489C131.069 60.842 131.057 60.832 131.049 60.8198C130.702 60.3205 131.451 59.471 131.975 58.9073C132.085 58.7919 132.19 58.6709 132.289 58.545C132.521 58.2705 132.657 57.9278 132.677 57.5688C132.697 57.2098 132.598 56.8542 132.397 56.556L132.257 56.3588C131.934 55.9078 131.568 55.3925 131.854 54.7724C131.979 54.5275 132.138 54.3012 132.325 54.1001C132.493 53.9242 132.637 53.7265 132.752 53.5122C132.94 53.1464 132.976 52.7214 132.853 52.329C132.731 51.9365 132.458 51.6081 132.095 51.4146C132.084 51.4087 132.075 51.4007 132.067 51.3909C132.059 51.3812 132.053 51.37 132.05 51.3579C132.046 51.3459 132.046 51.3333 132.047 51.3209C132.049 51.3085 132.053 51.2965 132.059 51.2857C132.073 51.2647 132.094 51.2494 132.119 51.2427C132.143 51.236 132.169 51.2385 132.192 51.2495C132.594 51.4705 132.894 51.8385 133.03 52.2762C133.166 52.7139 133.127 53.1873 132.921 53.5968C132.798 53.8243 132.646 54.0353 132.47 54.2249C132.294 54.411 132.145 54.6211 132.027 54.8489C131.794 55.3723 132.1 55.7991 132.43 56.2501L132.571 56.4514C132.794 56.7807 132.904 57.1739 132.884 57.5714C132.863 57.9689 132.714 58.3489 132.458 58.6537C132.357 58.7874 132.248 58.9151 132.132 59.0362C131.693 59.5193 130.96 60.3366 131.218 60.7111C131.232 60.7315 131.238 60.7568 131.235 60.7816C131.231 60.8064 131.218 60.8287 131.198 60.8439C131.176 60.8583 131.15 60.8641 131.125 60.86Z" fill="#263238"/>
<path opacity="0.2" d="M116.12 68.393C115.964 66.5826 115.941 64.7633 116.051 62.9496C117.529 61.7176 118.676 60.8398 118.676 60.8398C118.676 60.8398 119.107 65.4659 116.12 68.393Z" fill="black"/>
<path d="M119.284 55.5615C119.284 55.5615 120.355 60.9607 116.015 63.6703C116.015 63.6703 105.631 63.6421 103.658 62.9979C101.686 62.3537 95.6705 58.396 95.6705 58.396L97.1883 55.7588C97.1883 55.7588 102.994 57.8162 104.746 58.396C106.497 58.9757 119.284 55.5615 119.284 55.5615Z" fill="#E23E2B"/>
</svg>
