<svg width="204" height="150" viewBox="0 0 204 150" fill="none" xmlns="http://www.w3.org/2000/svg">
<path d="M183.03 139.74H169.556V139.842H183.03V139.74Z" fill="#EBEBEB"/>
<path d="M134.748 140.846H131.213V140.948H134.748V140.846Z" fill="#EBEBEB"/>
<path d="M169.149 135.965H161.342V136.066H169.149V135.965Z" fill="#EBEBEB"/>
<path d="M38.9127 136.648H21.3419V136.75H38.9127V136.648Z" fill="#EBEBEB"/>
<path d="M45.1127 136.648H42.5375V136.75H45.1127V136.648Z" fill="#EBEBEB"/>
<path d="M91.5964 138.365H53.4851V138.467H91.5964V138.365Z" fill="#EBEBEB"/>
<path d="M96.4172 115.05H17.8677C17.2516 115.05 16.6608 114.805 16.2251 114.369C15.7895 113.934 15.5447 113.343 15.5447 112.727V2.30262C15.5501 1.69007 15.7972 1.10442 16.2323 0.673173C16.6673 0.241923 17.2551 -2.34843e-05 17.8677 1.7097e-09H96.4172C97.0333 1.7097e-09 97.6242 0.24474 98.0598 0.68038C98.4955 1.11602 98.7402 1.70688 98.7402 2.32296V112.727C98.7402 113.343 98.4955 113.934 98.0598 114.369C97.6242 114.805 97.0333 115.05 96.4172 115.05ZM17.8677 0.0813651C17.2789 0.0824405 16.7146 0.31681 16.2982 0.733144C15.8819 1.14948 15.6475 1.71384 15.6464 2.30262V112.727C15.6475 113.316 15.8819 113.88 16.2982 114.296C16.7146 114.713 17.2789 114.947 17.8677 114.948H96.4172C97.006 114.947 97.5704 114.713 97.9867 114.296C98.4031 113.88 98.6374 113.316 98.6385 112.727V2.30262C98.6374 1.71384 98.4031 1.14948 97.9867 0.733144C97.5704 0.31681 97.006 0.0824405 96.4172 0.0813651H17.8677Z" fill="#EBEBEB"/>
<path d="M184.417 115.05H105.86C105.244 115.049 104.654 114.804 104.218 114.368C103.783 113.933 103.538 113.343 103.537 112.727V2.30262C103.543 1.6904 103.791 1.10537 104.225 0.674348C104.66 0.243325 105.247 0.0010367 105.86 0H184.417C185.028 0.00211731 185.614 0.245009 186.047 0.67603C186.481 1.10705 186.727 1.69147 186.732 2.30262V112.727C186.732 113.341 186.488 113.931 186.055 114.367C185.621 114.802 185.032 115.048 184.417 115.05ZM105.86 0.0813651C105.271 0.0824405 104.706 0.31681 104.29 0.733144C103.874 1.14948 103.639 1.71384 103.638 2.30262V112.727C103.639 113.316 103.874 113.88 104.29 114.296C104.706 114.713 105.271 114.947 105.86 114.948H184.417C185.006 114.947 185.57 114.713 185.987 114.296C186.403 113.88 186.637 113.316 186.639 112.727V2.30262C186.637 1.71384 186.403 1.14948 185.987 0.733144C185.57 0.31681 185.006 0.0824405 184.417 0.0813651H105.86Z" fill="#EBEBEB"/>
<path d="M203.412 133.194H0V133.296H203.412V133.194Z" fill="#EBEBEB"/>
<path d="M102.914 96.1447H67.7606V128.898H102.914V96.1447Z" fill="#E6E6E6"/>
<path d="M73.3544 129.927H68.8671V132.791H73.3544V129.927Z" fill="#E0E0E0"/>
<path d="M174.296 96.1447H102.914V128.581H174.296V96.1447Z" fill="#E6E6E6"/>
<path d="M179.743 93.7322H175.256V132.791H179.743V93.7322Z" fill="#E6E6E6"/>
<path d="M137.336 98.728H106.393V127.067H137.336V98.728Z" fill="#F5F5F5"/>
<path d="M111.616 127.067H119.879L122.857 98.728H114.598L111.616 127.067Z" fill="#FAFAFA"/>
<path d="M121.994 127.067H123.638L126.616 98.728H124.972L121.994 127.067Z" fill="#FAFAFA"/>
<path d="M102.052 98.728H71.1088V127.067H102.052V98.728Z" fill="#F5F5F5"/>
<path d="M172.957 98.728H142.014V127.067H172.957V98.728Z" fill="#F5F5F5"/>
<path d="M174.121 93.7323H66.4831V132.787H68.8752V130.59H172.9V132.779H175.296V93.7241L174.121 93.7323ZM68.8752 97.2676H101.759V110.835H68.8752V97.2676ZM68.8752 127.067V112.853H101.759V127.067H68.8752ZM137.336 127.067H104.147V97.2676H137.331L137.336 127.067ZM172.916 127.067H139.732V112.853H172.9L172.916 127.067ZM172.916 110.835H139.732V97.2676H172.9L172.916 110.835Z" fill="#F0F0F0"/>
<path d="M87.0888 102.088C87.0888 102.373 87.0042 102.652 86.8458 102.889C86.6874 103.126 86.4622 103.31 86.1988 103.419C85.9354 103.528 85.6456 103.556 85.3662 103.501C85.0867 103.445 84.8301 103.307 84.6288 103.105C84.4276 102.903 84.2908 102.646 84.2356 102.367C84.1805 102.087 84.2096 101.797 84.3193 101.534C84.4289 101.271 84.6141 101.047 84.8515 100.889C85.0888 100.731 85.3677 100.647 85.6527 100.648C85.8416 100.648 86.0287 100.685 86.2032 100.758C86.3777 100.83 86.5362 100.936 86.6696 101.07C86.803 101.204 86.9087 101.363 86.9806 101.538C87.0526 101.712 87.0893 101.899 87.0888 102.088Z" fill="#EBEBEB"/>
<path d="M85.6527 103.524C85.3777 103.524 85.1086 103.445 84.8772 103.296C84.6458 103.148 84.4618 102.936 84.3468 102.686C84.2575 102.881 84.2131 103.094 84.2168 103.309C84.2205 103.523 84.2722 103.734 84.3681 103.926C84.464 104.118 84.6017 104.286 84.7711 104.417C84.9404 104.549 85.1371 104.641 85.3467 104.687C85.5563 104.733 85.7735 104.731 85.9823 104.682C86.1911 104.632 86.3862 104.537 86.5533 104.402C86.7204 104.268 86.8552 104.098 86.9479 103.904C87.0406 103.711 87.0887 103.499 87.0888 103.284C87.0892 103.078 87.0433 102.873 86.9545 102.686C86.8403 102.936 86.6569 103.147 86.4262 103.296C86.1955 103.444 85.9271 103.524 85.6527 103.524Z" fill="#E0E0E0"/>
<path d="M85.6527 120.229C86.4458 120.229 87.0888 119.586 87.0888 118.793C87.0888 117.999 86.4458 117.356 85.6527 117.356C84.8596 117.356 84.2166 117.999 84.2166 118.793C84.2166 119.586 84.8596 120.229 85.6527 120.229Z" fill="#EBEBEB"/>
<path d="M85.6527 120.229C85.3777 120.228 85.1086 120.149 84.8772 120.001C84.6458 119.852 84.4618 119.64 84.3468 119.391C84.2575 119.586 84.2131 119.798 84.2168 120.013C84.2205 120.227 84.2722 120.438 84.3681 120.63C84.464 120.822 84.6017 120.99 84.7711 121.122C84.9404 121.253 85.1371 121.345 85.3467 121.391C85.5563 121.437 85.7735 121.435 85.9823 121.386C86.1911 121.337 86.3862 121.241 86.5533 121.107C86.7204 120.972 86.8552 120.802 86.9479 120.608C87.0406 120.415 87.0887 120.203 87.0888 119.989C87.0892 119.782 87.0433 119.577 86.9545 119.391C86.8403 119.64 86.6569 119.852 86.4262 120C86.1955 120.149 85.9271 120.228 85.6527 120.229Z" fill="#E0E0E0"/>
<path d="M159.625 102.088C159.625 102.373 159.541 102.652 159.383 102.888C159.225 103.125 159 103.31 158.736 103.419C158.473 103.528 158.184 103.556 157.904 103.501C157.625 103.445 157.368 103.308 157.167 103.107C156.966 102.905 156.828 102.649 156.773 102.369C156.717 102.09 156.746 101.8 156.855 101.537C156.964 101.274 157.148 101.049 157.385 100.891C157.622 100.733 157.9 100.648 158.185 100.648C158.375 100.648 158.562 100.685 158.737 100.757C158.912 100.829 159.071 100.935 159.205 101.069C159.339 101.203 159.445 101.362 159.517 101.537C159.589 101.712 159.626 101.899 159.625 102.088Z" fill="#EBEBEB"/>
<path d="M158.185 103.524C157.911 103.524 157.642 103.444 157.412 103.296C157.181 103.147 156.998 102.936 156.883 102.686C156.795 102.873 156.749 103.078 156.749 103.284C156.747 103.501 156.793 103.716 156.885 103.912C156.976 104.108 157.111 104.281 157.279 104.418C157.447 104.555 157.644 104.652 157.854 104.703C158.065 104.753 158.284 104.755 158.496 104.709C158.708 104.663 158.906 104.57 159.077 104.436C159.248 104.302 159.386 104.132 159.481 103.938C159.577 103.743 159.628 103.53 159.629 103.313C159.631 103.097 159.584 102.882 159.491 102.686C159.376 102.936 159.192 103.148 158.961 103.296C158.729 103.445 158.46 103.524 158.185 103.524Z" fill="#E0E0E0"/>
<path d="M134.415 113.724C134.415 114.008 134.33 114.285 134.173 114.521C134.015 114.758 133.79 114.942 133.528 115.05C133.266 115.159 132.977 115.187 132.698 115.132C132.42 115.077 132.164 114.94 131.963 114.739C131.762 114.538 131.625 114.282 131.57 114.004C131.515 113.725 131.543 113.436 131.652 113.174C131.76 112.912 131.944 112.687 132.181 112.529C132.417 112.372 132.694 112.287 132.978 112.287C133.359 112.287 133.725 112.439 133.994 112.708C134.263 112.977 134.415 113.343 134.415 113.724Z" fill="#EBEBEB"/>
<path d="M132.978 115.164C132.704 115.163 132.436 115.084 132.205 114.935C131.974 114.787 131.791 114.575 131.677 114.326C131.588 114.513 131.542 114.717 131.542 114.924C131.542 115.138 131.591 115.35 131.683 115.543C131.776 115.737 131.911 115.907 132.078 116.042C132.245 116.176 132.44 116.272 132.649 116.321C132.858 116.37 133.075 116.372 133.285 116.326C133.494 116.281 133.691 116.188 133.86 116.057C134.029 115.925 134.167 115.757 134.263 115.565C134.359 115.373 134.411 115.162 134.414 114.948C134.418 114.733 134.374 114.521 134.284 114.326C134.169 114.575 133.985 114.787 133.754 114.936C133.523 115.084 133.253 115.163 132.978 115.164Z" fill="#E0E0E0"/>
<path d="M158.185 120.229C158.978 120.229 159.621 119.586 159.621 118.793C159.621 117.999 158.978 117.356 158.185 117.356C157.392 117.356 156.749 117.999 156.749 118.793C156.749 119.586 157.392 120.229 158.185 120.229Z" fill="#EBEBEB"/>
<path d="M158.185 120.229C157.911 120.228 157.642 120.149 157.412 120C157.181 119.852 156.998 119.64 156.883 119.391C156.795 119.577 156.749 119.782 156.749 119.989C156.747 120.205 156.793 120.42 156.885 120.616C156.976 120.812 157.111 120.985 157.279 121.122C157.447 121.259 157.644 121.357 157.854 121.407C158.065 121.457 158.284 121.459 158.496 121.413C158.708 121.367 158.906 121.274 159.077 121.14C159.248 121.007 159.386 120.836 159.481 120.642C159.577 120.448 159.628 120.234 159.629 120.017C159.631 119.801 159.584 119.586 159.491 119.391C159.376 119.64 159.192 119.852 158.961 120.001C158.729 120.149 158.46 120.228 158.185 120.229Z" fill="#E0E0E0"/>
<path opacity="0.1" d="M54.5388 9.12097H27.0538V50.0841H54.5388V9.12097Z" fill="black"/>
<path d="M53.4241 8.00635H25.9391V48.9694H53.4241V8.00635Z" fill="#EBEBEB"/>
<path d="M52.0857 11.4684H28.3922V46.7807H52.0857V11.4684Z" fill="#F5F5F5"/>
<path d="M46.142 24.9302C46.142 25.8708 45.8631 26.7903 45.3405 27.5724C44.8179 28.3545 44.0752 28.964 43.2062 29.324C42.3372 29.6839 41.3809 29.7781 40.4584 29.5946C39.5359 29.4111 38.6885 28.9582 38.0234 28.2931C37.3583 27.6279 36.9053 26.7805 36.7218 25.858C36.5383 24.9355 36.6325 23.9793 36.9924 23.1103C37.3524 22.2413 37.962 21.4985 38.744 20.9759C39.5261 20.4534 40.4456 20.1744 41.3862 20.1744C42.0109 20.1739 42.6296 20.2966 43.2068 20.5354C43.784 20.7742 44.3085 21.1245 44.7502 21.5662C45.192 22.0079 45.5422 22.5324 45.7811 23.1096C46.0199 23.6869 46.1425 24.3055 46.142 24.9302Z" fill="#E0E0E0"/>
<path d="M35.9673 37.5051L39.9297 32.7656L41.3861 37.5051H35.9673Z" fill="#EBEBEB"/>
<path d="M32.6191 16.7001C29.2954 22.1149 31.6997 28.8397 35.4669 33.2578C36.0487 33.9372 37.025 32.9527 36.4474 32.2774C33.0707 28.3312 30.821 22.2532 33.803 17.3958C34.2749 16.635 33.0748 15.9393 32.6069 16.7001H32.6191Z" fill="#EBEBEB"/>
<path d="M49.0385 16.3706L46.5 18.9702L49.0385 21.1427L51.3493 18.7587L49.0385 16.3706Z" fill="#EBEBEB"/>
<path d="M53.4241 8.00635L54.5388 9.12104V50.0841H27.0538L25.9391 48.9694H53.4241V8.00635Z" fill="#E0E0E0"/>
<path d="M22.0011 92.943C22.0011 89.4809 26.0693 86.5477 31.7038 85.5469L26.1425 78.8994H45.7962L40.2308 85.5469C45.8613 86.5477 49.9377 89.4809 49.9377 92.943C49.9377 96.759 44.9948 124.651 38.4774 130.778L40.5116 133.219H31.4068L33.441 130.778C26.944 124.651 22.0011 96.759 22.0011 92.943Z" fill="#F0F0F0"/>
<path d="M43.4976 121.543C41.1543 119.842 39.5392 116.315 39.5392 112.226C39.5392 106.482 42.7287 101.82 46.6586 101.82C47.3203 101.83 47.9738 101.968 48.5829 102.227C47.456 108.081 45.6863 115.538 43.4976 121.543Z" fill="#E0E0E0"/>
<path d="M26.2646 87.3613C28.8804 88.8991 30.7396 92.65 30.7396 97.0112C30.7396 102.357 27.9814 106.775 24.4339 107.345C22.9083 100.542 21.9929 94.5662 21.9929 92.943C22.0011 90.7502 23.6365 88.773 26.2646 87.3613Z" fill="#E6E6E6"/>
<path d="M168.189 54.8805C168.084 55.1246 167.932 55.3458 167.742 55.5314C167.64 55.6368 167.527 55.7297 167.404 55.8081C167.085 56.0203 166.709 56.1297 166.326 56.1213C166.057 56.0827 165.807 55.9587 165.614 55.7675C165.42 55.5764 165.294 55.3282 165.252 55.0595C165.211 54.8063 165.245 54.5467 165.351 54.3131C165.457 54.0794 165.629 53.882 165.846 53.7455L166.057 54.0913C165.91 54.1852 165.794 54.3197 165.721 54.4786C165.649 54.6374 165.625 54.8137 165.651 54.9863C165.712 55.3239 166.017 55.7064 166.334 55.7186C166.651 55.7137 166.959 55.6163 167.222 55.4386C167.484 55.2608 167.689 55.0103 167.811 54.7178C167.926 54.4527 167.954 54.1578 167.891 53.8757C167.828 53.5935 167.678 53.3386 167.461 53.1474C167.282 52.9558 167.059 52.8095 166.813 52.7204C166.566 52.6313 166.301 52.602 166.041 52.6348C165.602 52.7302 165.188 52.9181 164.828 53.1861C164.467 53.4541 164.168 53.796 163.95 54.1889C162.937 55.8528 163.006 57.8015 163.238 59.144C163.401 60.0223 163.659 60.8803 164.007 61.7029C164.076 61.8738 164.149 62.0447 164.227 62.2115C164.511 62.8583 164.829 63.4848 165.138 64.1032C165.98 65.7834 166.847 67.5124 167.103 69.4977C167.127 69.6767 167.148 69.8638 167.16 70.051C167.172 70.2381 167.18 70.4049 167.184 70.5839C167.184 70.7019 167.184 70.8239 167.184 70.9419C167.205 75.3193 165.097 79.3021 161.631 81.4461L161.546 81.0149C164.731 78.9807 166.737 75.1566 166.773 71.0843C166.773 71.0395 166.773 70.9907 166.773 70.9419C166.773 70.8077 166.773 70.6693 166.773 70.5351C166.773 70.4008 166.773 70.23 166.749 70.0794C166.749 69.9899 166.749 69.9004 166.725 69.8109C166.691 69.4635 166.637 69.1184 166.562 68.7776C166.228 67.191 165.516 65.7712 164.772 64.3025C164.341 63.4401 163.901 62.5654 163.551 61.646C163.389 61.2392 163.242 60.8323 163.116 60.3889C163.005 60.0076 162.916 59.6205 162.847 59.2294C162.494 57.1953 162.758 55.3972 163.608 53.9936C163.86 53.548 164.205 53.1616 164.619 52.8606C165.033 52.5595 165.507 52.3507 166.009 52.2483C166.49 52.1821 166.98 52.2951 167.384 52.5657C167.506 52.6419 167.619 52.732 167.721 52.8342C167.737 52.8451 167.752 52.8574 167.766 52.8708C168.035 53.1212 168.22 53.4487 168.296 53.8086C168.372 54.1684 168.335 54.5428 168.189 54.8805Z" fill="#E6E6E6"/>
<path d="M166.712 69.815C166.009 68.4237 164.633 67.1218 163.653 66.9062L163.738 66.4994C164.845 66.7394 166.31 68.1267 167.074 69.6238L166.712 69.815Z" fill="#E6E6E6"/>
<path d="M167.144 71.0721H166.737C166.725 70.5983 166.814 70.1274 166.998 69.6905C167.182 69.2537 167.456 68.8607 167.803 68.5376L168.079 68.8386C167.774 69.1232 167.532 69.4695 167.371 69.8546C167.21 70.2397 167.132 70.6547 167.144 71.0721Z" fill="#E6E6E6"/>
<path d="M163.543 61.6379C162.762 60.5248 161.892 59.4759 160.944 58.5013L161.241 58.2206C162.2 59.2158 163.082 60.282 163.881 61.4101L163.543 61.6379Z" fill="#E6E6E6"/>
<path d="M164.371 60.8138L163.824 62.0754L164.197 62.2373L164.744 60.9757L164.371 60.8138Z" fill="#E6E6E6"/>
<path d="M168.901 56.3044C168.291 56.2388 167.707 56.0236 167.201 55.6779L167.428 55.3402C167.88 55.6499 168.401 55.8428 168.946 55.9016L168.901 56.3044Z" fill="#E6E6E6"/>
<path d="M167.721 51.4515L167.234 52.9358L167.62 53.0627L168.108 51.5784L167.721 51.4515Z" fill="#E6E6E6"/>
<path d="M166.236 57.7364C166.39 57.6558 166.564 57.6262 166.736 57.6518C166.907 57.6774 167.065 57.7569 167.188 57.8788C167.449 58.184 167.343 58.6518 167.188 59.0261C166.818 59.9536 165.606 62.5858 164.341 61.467C163.136 60.45 165.272 58.1758 166.236 57.7364Z" fill="#E6E6E6"/>
<path d="M161.977 58.1025C162.079 58.2419 162.134 58.41 162.134 58.5826C162.134 58.7552 162.079 58.9233 161.977 59.0626C161.708 59.3637 161.232 59.3271 160.842 59.2335C159.87 59.0016 157.087 58.1839 157.994 56.7926C158.844 55.4338 161.403 57.2075 161.977 58.1025Z" fill="#E6E6E6"/>
<path d="M164.882 65.4621C163.73 63.7575 161.18 62.7242 158.897 63.0211C157.827 63.1676 157.677 64.7827 158.006 65.6452C158.336 66.5076 159.194 67.2155 160.183 67.6467C161.214 68.1273 162.385 68.2184 163.478 67.903C164.499 67.5532 165.443 66.2879 164.882 65.4621Z" fill="#E6E6E6"/>
<path d="M172.326 65.3806C171.106 65.2138 169.82 65.1406 168.706 65.6491C167.591 66.1576 166.729 67.4228 167.078 68.6026C167.205 69.0241 167.477 69.3873 167.845 69.6284C168.214 69.8694 168.655 69.973 169.092 69.9207C169.999 69.8272 170.776 69.2413 171.436 68.6108C171.899 68.2216 172.25 67.7161 172.453 67.1462C172.611 66.5645 172.925 65.462 172.326 65.3806Z" fill="#E6E6E6"/>
<path d="M167.676 52.3908C167.453 51.9484 167.357 51.4525 167.4 50.9587C167.425 50.7129 167.517 50.4785 167.664 50.2802C167.812 50.0819 168.01 49.927 168.238 49.8318C168.471 49.7501 168.726 49.7626 168.95 49.8668C169.173 49.9709 169.347 50.1584 169.434 50.3892C169.499 50.6656 169.495 50.9535 169.425 51.2284C169.354 51.5033 169.217 51.757 169.027 51.9677C168.865 52.1589 168.652 52.3003 168.413 52.3752C168.174 52.4501 167.919 52.4555 167.676 52.3908Z" fill="#E6E6E6"/>
<path d="M172.375 57.3947C172.025 57.7066 171.596 57.9162 171.135 58.0005C170.673 58.0847 170.198 58.0404 169.76 57.8723C169.322 57.7043 168.939 57.419 168.653 57.0477C168.366 56.6764 168.188 56.2335 168.136 55.7674C168.489 55.4906 168.906 55.3081 169.349 55.2369C169.792 55.1657 170.245 55.2083 170.667 55.3605C171.097 55.5328 171.478 55.8085 171.776 56.1634C172.074 56.5182 172.28 56.9412 172.375 57.3947Z" fill="#E6E6E6"/>
<path d="M167.611 92.9592L168.482 94.0007H164.609L165.484 92.9592C163.673 91.2546 162.152 85.6038 161.318 81.4461L161.232 81.0148C160.939 79.6588 160.735 78.2848 160.622 76.9019C160.622 75.4292 162.351 74.1843 164.739 73.7612L162.38 70.9419H170.703L168.344 73.7612C170.732 74.168 172.461 75.4292 172.461 76.9019C172.461 78.517 170.366 90.3515 167.611 92.9592Z" fill="#F0F0F0"/>
<path d="M99.7451 150C143.309 150 178.624 147.938 178.624 145.395C178.624 142.851 143.309 140.79 99.7451 140.79C56.1814 140.79 20.866 142.851 20.866 145.395C20.866 147.938 56.1814 150 99.7451 150Z" fill="#F5F5F5"/>
<path d="M139.48 115.876H100.307C99.2794 115.89 98.2606 115.689 97.3159 115.286C96.3712 114.882 95.5217 114.285 94.822 113.533C94.1224 112.781 93.5883 111.891 93.2541 110.919C92.9199 109.948 92.7932 108.917 92.882 107.894L99.4319 14.2633C99.6079 12.1089 100.581 10.0975 102.161 8.62221C103.741 7.14692 105.814 6.31374 107.975 6.28548H147.148C148.175 6.27024 149.194 6.47061 150.139 6.87362C151.083 7.27664 151.933 7.87334 152.633 8.62518C153.332 9.37702 153.867 10.2673 154.201 11.2385C154.535 12.2096 154.662 13.2401 154.573 14.2633L148.023 107.894C147.847 110.049 146.874 112.06 145.294 113.536C143.715 115.012 141.641 115.846 139.48 115.876Z" fill="#EEB301"/>
<path d="M137.445 115.876H98.2724C97.2453 115.89 96.2265 115.689 95.2818 115.286C94.3371 114.882 93.4875 114.285 92.7879 113.533C92.0882 112.781 91.5541 111.891 91.2199 110.919C90.8858 109.948 90.759 108.917 90.8479 107.894L97.3977 14.2633C97.5737 12.1089 98.5467 10.0975 100.127 8.62221C101.706 7.14692 103.78 6.31374 105.941 6.28548H145.114C146.141 6.27024 147.16 6.47061 148.104 6.87362C149.049 7.27664 149.899 7.87334 150.598 8.62518C151.298 9.37702 151.832 10.2673 152.167 11.2385C152.501 12.2096 152.628 13.2401 152.539 14.2633L145.989 107.894C145.813 110.049 144.84 112.06 143.26 113.536C141.68 115.012 139.607 115.846 137.445 115.876Z" fill="#263238"/>
<path d="M144.98 8.13659H134.809C134.48 8.14182 134.162 8.25913 133.909 8.46916C133.655 8.6792 133.48 8.96942 133.414 9.29197L133.353 9.61336C133.192 10.4021 132.766 11.112 132.146 11.6255C131.526 12.139 130.749 12.4252 129.944 12.4367H120.253C119.482 12.4493 118.737 12.1617 118.175 11.6349C117.612 11.108 117.276 10.3831 117.239 9.61336V9.29197C117.222 8.97969 117.086 8.68573 116.859 8.47074C116.632 8.25575 116.331 8.13614 116.018 8.13659H105.847C104.183 8.16032 102.587 8.80309 101.371 9.93957C100.155 11.076 99.4055 12.6247 99.2691 14.2837L92.7193 107.914C92.651 108.703 92.7487 109.497 93.0062 110.245C93.2636 110.994 93.6751 111.68 94.2141 112.259C94.753 112.839 95.4075 113.299 96.1352 113.61C96.863 113.921 97.6478 114.076 98.4392 114.065H137.612C139.277 114.042 140.874 113.398 142.09 112.261C143.306 111.124 144.055 109.574 144.191 107.914L150.74 14.2837C150.809 13.4919 150.71 12.6945 150.451 11.9435C150.191 11.1924 149.775 10.5045 149.232 9.92462C148.688 9.34471 148.029 8.88577 147.296 8.5777C146.564 8.26962 145.774 8.11933 144.98 8.13659Z" fill="#E23E2B"/>
<path opacity="0.8" d="M150.7 14.2673L144.154 107.898C144.017 109.557 143.267 111.106 142.05 112.242C140.833 113.379 139.236 114.021 137.572 114.045H98.3986C97.6074 114.057 96.8224 113.903 96.0946 113.593C95.3667 113.282 94.7122 112.822 94.1734 112.243C93.6345 111.663 93.2234 110.977 92.9666 110.229C92.7098 109.48 92.6131 108.686 92.6827 107.898L99.2285 14.2673C99.3687 12.6113 100.12 11.0666 101.335 9.93345C102.551 8.80035 104.145 8.15985 105.807 8.13649H115.977C116.291 8.1361 116.592 8.25628 116.82 8.47212C117.047 8.68797 117.182 8.98295 117.198 9.29594V9.61326C117.232 10.3867 117.565 11.1165 118.128 11.6481C118.691 12.1797 119.438 12.4713 120.212 12.461H129.891C130.699 12.4489 131.478 12.1594 132.098 11.6409C132.718 11.1224 133.141 10.4065 133.296 9.61326L133.361 9.29594C133.428 8.96513 133.609 8.66822 133.872 8.45651C134.135 8.24481 134.464 8.13162 134.801 8.13649H144.972C145.762 8.1247 146.546 8.27843 147.273 8.58779C148 8.89714 148.655 9.35528 149.194 9.93274C149.734 10.5102 150.146 11.1942 150.406 11.9407C150.665 12.6872 150.765 13.4798 150.7 14.2673Z" fill="white"/>
<path d="M144.939 96.6451L144.154 107.898C144.017 109.557 143.267 111.106 142.05 112.242C140.833 113.379 139.236 114.021 137.572 114.045H98.3986C97.6074 114.057 96.8224 113.903 96.0946 113.593C95.3667 113.282 94.7122 112.822 94.1734 112.243C93.6345 111.663 93.2234 110.977 92.9666 110.229C92.7098 109.48 92.6131 108.686 92.6827 107.898L93.4679 96.6451H144.939Z" fill="#263238"/>
<path opacity="0.5" d="M144.939 96.6451L144.154 107.898C144.017 109.557 143.267 111.106 142.05 112.242C140.833 113.379 139.236 114.021 137.572 114.045H98.3986C97.6074 114.057 96.8224 113.903 96.0946 113.593C95.3667 113.282 94.7122 112.822 94.1734 112.243C93.6345 111.663 93.2234 110.977 92.9666 110.229C92.7098 109.48 92.6131 108.686 92.6827 107.898L93.4679 96.6451H144.939Z" fill="white"/>
<g opacity="0.7">
<path opacity="0.7" d="M122.95 9.15354C122.934 9.36059 122.843 9.55444 122.692 9.69787C122.542 9.84129 122.344 9.92417 122.137 9.93057C122.036 9.93272 121.937 9.91365 121.845 9.87464C121.752 9.83562 121.669 9.77753 121.601 9.70418C121.532 9.63082 121.48 9.54385 121.448 9.44896C121.415 9.35406 121.403 9.25339 121.413 9.15354C121.429 8.94649 121.52 8.75264 121.671 8.60921C121.821 8.46579 122.019 8.38291 122.226 8.37651C122.326 8.37436 122.426 8.39343 122.518 8.43244C122.611 8.47146 122.694 8.52955 122.762 8.6029C122.831 8.67626 122.883 8.76323 122.915 8.85812C122.948 8.95302 122.96 9.05369 122.95 9.15354Z" fill="black"/>
<path opacity="0.7" d="M128.524 8.37646H125.855C125.644 8.3788 125.442 8.45976 125.288 8.60349C125.133 8.74722 125.038 8.94336 125.021 9.1535C125.013 9.25322 125.025 9.35362 125.058 9.44823C125.09 9.54283 125.143 9.62954 125.211 9.70276C125.279 9.77598 125.362 9.83408 125.454 9.87331C125.546 9.91254 125.645 9.93204 125.745 9.93053H128.414C128.622 9.92413 128.82 9.84125 128.97 9.69783C129.12 9.5544 129.212 9.36055 129.228 9.1535C129.237 9.05536 129.225 8.95643 129.194 8.86295C129.163 8.76947 129.113 8.68349 129.046 8.61045C128.98 8.53741 128.9 8.4789 128.81 8.43862C128.72 8.39835 128.623 8.37718 128.524 8.37646Z" fill="black"/>
</g>
<path d="M103.622 12.4041H104.444L104.501 11.5782H103.679L103.622 12.4041Z" fill="#E23E2B"/>
<path d="M105.327 11.5783L105.27 12.4041H106.092L106.153 11.5783L106.21 10.7565H105.384L105.327 11.5783Z" fill="#E23E2B"/>
<path d="M107.088 9.93066L107.031 10.7565L106.974 11.5783L106.917 12.4042H107.739L107.8 11.5783L107.857 10.7565L107.914 9.93066H107.088Z" fill="#E23E2B"/>
<path d="M142.51 9.98755L142.47 10.5774H142.063L141.982 11.7979H142.388L142.348 12.4041H145.973L146.139 9.98755H142.51ZM144.016 11.7979H142.795L142.881 10.5774H144.101L144.016 11.7979Z" fill="#E23E2B"/>
<path d="M105.957 56.6787H105.681C105.637 56.6795 105.593 56.671 105.553 56.6537C105.512 56.6365 105.476 56.6109 105.446 56.5787C105.416 56.5464 105.393 56.5083 105.379 56.4666C105.365 56.425 105.359 56.3808 105.363 56.337L105.77 50.5072C105.818 49.9502 106.07 49.4306 106.479 49.0494C106.888 48.6683 107.424 48.4527 107.983 48.4446H113.809C113.853 48.4439 113.897 48.4524 113.937 48.4696C113.978 48.4869 114.014 48.5124 114.044 48.5447C114.074 48.5769 114.097 48.6151 114.111 48.6567C114.125 48.6984 114.13 48.7425 114.126 48.7864V49.0589C114.12 49.1517 114.079 49.2387 114.011 49.3022C113.943 49.3657 113.853 49.4009 113.76 49.4007H107.914C107.616 49.4083 107.33 49.5252 107.112 49.7291C106.894 49.933 106.758 50.2099 106.73 50.5072L106.323 56.337C106.315 56.4291 106.274 56.515 106.206 56.5781C106.138 56.6412 106.05 56.6771 105.957 56.6787Z" fill="#EEB301"/>
<path d="M128.056 80.7383L128.076 80.4616C128.083 80.3699 128.124 80.284 128.191 80.2208C128.258 80.1576 128.346 80.1217 128.438 80.1199H134.252C134.551 80.1132 134.838 79.9968 135.057 79.7928C135.276 79.5888 135.412 79.3114 135.44 79.0134L135.847 73.1836C135.854 73.0911 135.895 73.0047 135.963 72.9414C136.031 72.8781 136.12 72.8426 136.213 72.8418H136.485C136.53 72.8411 136.573 72.8497 136.614 72.8669C136.655 72.8841 136.691 72.9096 136.722 72.9417C136.752 72.9739 136.775 73.012 136.79 73.0537C136.804 73.0953 136.81 73.1395 136.807 73.1836L136.4 79.0134C136.355 79.5708 136.103 80.0913 135.695 80.4734C135.286 80.8555 134.75 81.0718 134.191 81.08H128.373C128.33 81.0801 128.286 81.0712 128.246 81.0538C128.206 81.0363 128.17 81.0107 128.14 80.9786C128.11 80.9465 128.087 80.9086 128.073 80.8672C128.058 80.8259 128.053 80.782 128.056 80.7383Z" fill="#EEB301"/>
<path d="M137.633 56.6788H137.356C137.312 56.6795 137.268 56.671 137.228 56.6538C137.187 56.6365 137.151 56.611 137.121 56.5787C137.091 56.5465 137.068 56.5083 137.054 56.4667C137.04 56.425 137.035 56.3809 137.039 56.3371L137.445 50.552C137.468 50.3211 137.416 50.089 137.299 49.8889C137.207 49.7385 137.077 49.6148 136.922 49.5299C136.767 49.4451 136.593 49.4019 136.416 49.4048H130.591C130.547 49.4049 130.503 49.396 130.463 49.3785C130.423 49.3611 130.387 49.3355 130.357 49.3034C130.327 49.2713 130.304 49.2334 130.29 49.192C130.276 49.1506 130.27 49.1067 130.273 49.0631L130.294 48.7864C130.301 48.6939 130.342 48.6075 130.41 48.5442C130.478 48.4809 130.567 48.4454 130.66 48.4447H136.408C136.907 48.4315 137.394 48.6024 137.775 48.9247C137.997 49.1213 138.171 49.3671 138.281 49.6427C138.391 49.9182 138.435 50.2157 138.41 50.5113L138.003 56.3371C137.995 56.4299 137.952 56.5163 137.884 56.5795C137.815 56.6427 137.726 56.6781 137.633 56.6788Z" fill="#EEB301"/>
<path d="M105.697 81.08C105.4 81.0839 105.107 81.0187 104.84 80.8895C104.573 80.7602 104.34 80.5706 104.159 80.3355C103.865 79.9313 103.731 79.4331 103.781 78.936L104.188 73.1835C104.196 73.0914 104.238 73.0055 104.305 72.9424C104.373 72.8793 104.461 72.8435 104.554 72.8418H104.83C104.874 72.8417 104.918 72.8506 104.958 72.8681C104.998 72.8855 105.034 72.9111 105.064 72.9432C105.094 72.9753 105.117 73.0132 105.131 73.0546C105.145 73.0959 105.151 73.1399 105.148 73.1835L104.741 78.9767C104.718 79.2064 104.77 79.4373 104.887 79.6358C104.98 79.7855 105.109 79.9089 105.263 79.9937C105.417 80.0786 105.59 80.122 105.766 80.1199H111.592C111.636 80.1192 111.68 80.1277 111.72 80.1449C111.761 80.1621 111.798 80.1876 111.828 80.2198C111.858 80.2519 111.881 80.29 111.896 80.3317C111.911 80.3733 111.917 80.4176 111.913 80.4616V80.7383C111.905 80.8304 111.863 80.9163 111.796 80.9794C111.728 81.0425 111.64 81.0783 111.547 81.08H105.697Z" fill="#EEB301"/>
<path d="M111.226 89.302C111.105 89.4339 110.958 89.5385 110.794 89.6086C110.63 89.6788 110.452 89.713 110.274 89.7088C109.765 89.7088 109.423 89.5257 108.935 88.9684C108.723 88.952 108.515 88.8935 108.326 88.796C108.136 88.6986 107.968 88.5644 107.831 88.4011C107.693 88.2378 107.59 88.0488 107.527 87.8451C107.464 87.6414 107.442 87.4272 107.463 87.2149C107.502 86.7208 107.731 86.261 108.102 85.9319C108.473 85.6028 108.957 85.4299 109.452 85.4493C109.688 85.4313 109.924 85.4647 110.145 85.5474C110.367 85.63 110.567 85.7599 110.734 85.9279C110.9 86.0959 111.027 86.2981 111.107 86.5203C111.187 86.7426 111.218 86.9796 111.197 87.2149C111.172 87.5964 111.03 87.961 110.792 88.2599C110.553 88.5587 110.229 88.7775 109.863 88.887C109.916 88.9601 109.986 89.0196 110.066 89.0606C110.147 89.1016 110.236 89.123 110.327 89.123C110.434 89.1223 110.541 89.0996 110.64 89.0562C110.738 89.0128 110.827 88.9497 110.9 88.8707L111.226 89.302ZM109.253 88.3215C109.549 88.3249 109.835 88.2123 110.049 88.0078C110.263 87.8034 110.389 87.5232 110.4 87.2272C110.419 87.0878 110.407 86.9459 110.366 86.8116C110.324 86.6773 110.253 86.5537 110.159 86.4497C110.064 86.3457 109.948 86.2638 109.818 86.2097C109.688 86.1556 109.548 86.1308 109.407 86.1369C109.112 86.1335 108.826 86.2455 108.612 86.4491C108.398 86.6527 108.272 86.9318 108.26 87.2272C108.24 87.3668 108.251 87.5091 108.293 87.644C108.334 87.7788 108.405 87.9029 108.499 88.0074C108.594 88.1119 108.711 88.1942 108.841 88.2485C108.971 88.3028 109.112 88.3277 109.253 88.3215Z" fill="#263238"/>
<path d="M113.854 88.9358L113.26 87.9839H112.532L112.467 88.9358H111.677L111.917 85.5226H113.394C114.305 85.5226 114.842 85.9945 114.789 86.7431C114.778 86.9786 114.698 87.2058 114.561 87.3971C114.423 87.5885 114.232 87.7357 114.012 87.8211L114.7 88.9196L113.854 88.9358ZM113.305 86.1654H112.662L112.576 87.3574H113.223C113.703 87.3574 113.964 87.1295 113.992 86.7593C114.021 86.3891 113.789 86.1654 113.305 86.1654Z" fill="#263238"/>
<path d="M116.551 87.2272C116.588 86.734 116.814 86.2743 117.183 85.945C117.552 85.6156 118.034 85.4423 118.528 85.4616C118.787 85.4466 119.046 85.4938 119.283 85.5993C119.52 85.7047 119.729 85.8654 119.891 86.0677L119.35 86.5356C119.255 86.409 119.133 86.3063 118.991 86.2357C118.85 86.1651 118.694 86.1284 118.536 86.1287C118.237 86.1199 117.947 86.2295 117.728 86.4337C117.51 86.6379 117.38 86.9201 117.369 87.219C117.349 87.3607 117.361 87.5049 117.404 87.6413C117.447 87.7777 117.52 87.9028 117.618 88.0076C117.715 88.1123 117.834 88.1941 117.967 88.247C118.1 88.2999 118.243 88.3226 118.386 88.3134C118.554 88.313 118.72 88.2765 118.873 88.2063C119.026 88.1361 119.163 88.0339 119.273 87.9066L119.745 88.3744C119.561 88.5747 119.336 88.733 119.085 88.8383C118.834 88.9436 118.564 88.9935 118.292 88.9847C118.058 89.0019 117.822 88.9682 117.602 88.8857C117.382 88.8033 117.182 88.6741 117.017 88.5071C116.851 88.34 116.724 88.1391 116.644 87.9182C116.563 87.6972 116.532 87.4615 116.551 87.2272Z" fill="#263238"/>
<path d="M120.058 87.2272C120.097 86.733 120.327 86.2732 120.697 85.9441C121.068 85.615 121.552 85.4421 122.047 85.4615C122.283 85.4435 122.519 85.477 122.741 85.5596C122.962 85.6422 123.163 85.7721 123.329 85.9401C123.495 86.1081 123.622 86.3103 123.702 86.5325C123.783 86.7548 123.813 86.9918 123.792 87.2272C123.754 87.7221 123.525 88.1828 123.154 88.5128C122.783 88.8427 122.299 89.0162 121.803 88.9968C121.567 89.015 121.33 88.9814 121.109 88.8985C120.887 88.8157 120.686 88.6855 120.52 88.517C120.354 88.3485 120.226 88.1458 120.146 87.9231C120.067 87.7003 120.036 87.4628 120.058 87.2272ZM122.995 87.2272C123.014 87.0878 123.003 86.9459 122.961 86.8116C122.919 86.6773 122.849 86.5537 122.754 86.4497C122.659 86.3457 122.543 86.2638 122.413 86.2097C122.283 86.1557 122.143 86.1308 122.002 86.1369C121.707 86.1335 121.422 86.2455 121.207 86.4491C120.993 86.6527 120.867 86.9318 120.855 87.2272C120.835 87.3668 120.847 87.5091 120.888 87.644C120.929 87.7788 121 87.9029 121.095 88.0074C121.189 88.1119 121.306 88.1942 121.436 88.2485C121.566 88.3028 121.707 88.3277 121.848 88.3215C122.144 88.3249 122.43 88.2123 122.644 88.0078C122.859 87.8034 122.985 87.5232 122.995 87.2272Z" fill="#263238"/>
<path d="M124.508 85.5226H126.063C127.177 85.5226 127.897 86.1938 127.824 87.2272C127.751 88.2605 126.941 88.9358 125.823 88.9358H124.273L124.508 85.5226ZM125.831 88.289C125.979 88.3006 126.129 88.2821 126.271 88.2345C126.412 88.187 126.543 88.1114 126.654 88.0123C126.766 87.9132 126.857 87.7925 126.921 87.6577C126.984 87.5228 127.021 87.3763 127.027 87.2272C127.045 87.0846 127.031 86.9397 126.985 86.8036C126.938 86.6674 126.862 86.5436 126.761 86.4416C126.659 86.3396 126.536 86.262 126.4 86.2148C126.265 86.1677 126.12 86.1521 125.977 86.1694H125.257L125.107 88.289H125.831Z" fill="#263238"/>
<path d="M130.997 88.3012L130.953 88.9358H128.308L128.548 85.5226H131.128L131.083 86.1572H129.289L129.236 86.8976H130.822L130.778 87.5119H129.191L129.138 88.3012H130.997Z" fill="#263238"/>
<path d="M149.272 34.6737H97.6622L98.8786 17.2738H150.488L149.272 34.6737Z" fill="#EEB301"/>
<path opacity="0.2" d="M92.7884 107.568C92.7235 108.367 92.8273 109.171 93.0929 109.927C93.3585 110.683 93.7801 111.375 94.3303 111.958L149.162 9.43837C148.627 8.90684 147.992 8.48677 147.294 8.20254C146.596 7.91831 145.848 7.77557 145.094 7.7826H105.917C104.252 7.80825 102.657 8.4522 101.441 9.58916C100.225 10.7261 99.4755 12.2748 99.3383 13.9338L92.7884 107.568Z" fill="white"/>
<path d="M111.583 20.3483L110.802 31.582L111.208 31.6103L111.989 20.3765L111.583 20.3483Z" fill="#E0E0E0"/>
<path d="M124.453 20.3468L123.672 31.5806L124.078 31.6088L124.859 20.3751L124.453 20.3468Z" fill="#E0E0E0"/>
<path d="M137.303 20.3393L136.524 31.5731L136.929 31.6013L137.709 20.3674L137.303 20.3393Z" fill="#E0E0E0"/>
<path d="M108.439 51.0238L108.366 52.1141H109.456L109.533 51.0238H108.439Z" fill="#263238"/>
<path d="M109.533 51.0238L109.456 52.1141H110.55L110.624 51.0238H109.533Z" fill="#263238"/>
<path d="M110.624 51.0238L110.55 52.1141H111.641L111.718 51.0238H110.624Z" fill="#263238"/>
<path d="M111.718 51.0238L111.641 52.1141H112.735L112.808 51.0238H111.718Z" fill="#263238"/>
<path d="M112.808 51.0238L112.735 52.1141H113.825L113.903 51.0238H112.808Z" fill="#263238"/>
<path d="M113.903 51.0238L113.825 52.1141H114.92L114.997 51.0238H113.903Z" fill="#263238"/>
<path d="M114.997 51.0238L114.92 52.1141H116.01L116.087 51.0238H114.997Z" fill="#263238"/>
<path d="M119.366 51.0238L119.289 52.1141H120.379L120.456 51.0238H119.366Z" fill="#263238"/>
<path d="M122.641 51.0238L122.564 52.1141H123.658L123.735 51.0238H122.641Z" fill="#263238"/>
<path d="M123.735 51.0238L123.658 52.1141H124.748L124.826 51.0238H123.735Z" fill="#263238"/>
<path d="M124.826 51.0238L124.748 52.1141H125.843L125.92 51.0238H124.826Z" fill="#263238"/>
<path d="M125.92 51.0238L125.843 52.1141H126.933L127.01 51.0238H125.92Z" fill="#263238"/>
<path d="M128.105 51.0238L128.027 52.1141H129.118L129.195 51.0238H128.105Z" fill="#263238"/>
<path d="M129.195 51.0238L129.118 52.1141H130.212L130.289 51.0238H129.195Z" fill="#263238"/>
<path d="M130.289 51.0238L130.212 52.1141H131.306L131.38 51.0238H130.289Z" fill="#263238"/>
<path d="M131.38 51.0238L131.306 52.1141H132.397L132.474 51.0238H131.38Z" fill="#263238"/>
<path d="M132.474 51.0238L132.397 52.1141H133.491L133.564 51.0238H132.474Z" fill="#263238"/>
<path d="M133.564 51.0238L133.491 52.1141H134.581L134.659 51.0238H133.564Z" fill="#263238"/>
<path d="M134.659 51.0238L134.581 52.1141H135.676L135.753 51.0238H134.659Z" fill="#263238"/>
<path d="M108.366 52.1141L108.288 53.2085H109.379L109.456 52.1141H108.366Z" fill="#263238"/>
<path d="M114.92 52.1141L114.842 53.2085H115.933L116.01 52.1141H114.92Z" fill="#263238"/>
<path d="M118.195 52.1141L118.121 53.2085H119.212L119.289 52.1141H118.195Z" fill="#263238"/>
<path d="M123.658 52.1141L123.581 53.2085H124.675L124.748 52.1141H123.658Z" fill="#263238"/>
<path d="M124.748 52.1141L124.675 53.2085H125.766L125.843 52.1141H124.748Z" fill="#263238"/>
<path d="M125.843 52.1141L125.766 53.2085H126.86L126.933 52.1141H125.843Z" fill="#263238"/>
<path d="M128.027 52.1141L127.95 53.2085H129.045L129.118 52.1141H128.027Z" fill="#263238"/>
<path d="M134.581 52.1141L134.504 53.2085H135.598L135.676 52.1141H134.581Z" fill="#263238"/>
<path d="M108.288 53.2085L108.211 54.2988H109.305L109.379 53.2085H108.288Z" fill="#263238"/>
<path d="M110.473 53.2085L110.396 54.2988H111.49L111.563 53.2085H110.473Z" fill="#263238"/>
<path d="M111.563 53.2085L111.49 54.2988H112.58L112.658 53.2085H111.563Z" fill="#263238"/>
<path d="M112.658 53.2085L112.58 54.2988H113.675L113.748 53.2085H112.658Z" fill="#263238"/>
<path d="M114.842 53.2085L114.765 54.2988H115.859L115.933 53.2085H114.842Z" fill="#263238"/>
<path d="M117.027 53.2085L116.95 54.2988H118.044L118.121 53.2085H117.027Z" fill="#263238"/>
<path d="M120.306 53.2085L120.229 54.2988H121.319L121.396 53.2085H120.306Z" fill="#263238"/>
<path d="M123.581 53.2085L123.504 54.2988H124.598L124.675 53.2085H123.581Z" fill="#263238"/>
<path d="M127.95 53.2085L127.873 54.2988H128.967L129.044 53.2085H127.95Z" fill="#263238"/>
<path d="M130.135 53.2085L130.058 54.2988H131.152L131.229 53.2085H130.135Z" fill="#263238"/>
<path d="M131.229 53.2085L131.152 54.2988H132.246L132.319 53.2085H131.229Z" fill="#263238"/>
<path d="M132.319 53.2085L132.246 54.2988H133.337L133.414 53.2085H132.319Z" fill="#263238"/>
<path d="M134.504 53.2085L134.431 54.2988H135.521L135.598 53.2085H134.504Z" fill="#263238"/>
<path d="M108.211 54.2987L108.134 55.3931H109.228L109.305 54.2987H108.211Z" fill="#263238"/>
<path d="M110.396 54.2987L110.318 55.3931H111.413L111.49 54.2987H110.396Z" fill="#263238"/>
<path d="M111.49 54.2987L111.413 55.3931H112.503L112.58 54.2987H111.49Z" fill="#263238"/>
<path d="M112.58 54.2987L112.503 55.3931H113.597L113.675 54.2987H112.58Z" fill="#263238"/>
<path d="M114.765 54.2987L114.688 55.3931H115.782L115.859 54.2987H114.765Z" fill="#263238"/>
<path d="M118.044 54.2987L117.967 55.3931H119.057L119.134 54.2987H118.044Z" fill="#263238"/>
<path d="M123.504 54.2987L123.43 55.3931H124.521L124.598 54.2987H123.504Z" fill="#263238"/>
<path d="M124.598 54.2987L124.521 55.3931H125.615L125.688 54.2987H124.598Z" fill="#263238"/>
<path d="M127.873 54.2987L127.8 55.3931H128.89L128.967 54.2987H127.873Z" fill="#263238"/>
<path d="M130.058 54.2987L129.984 55.3931H131.075L131.152 54.2987H130.058Z" fill="#263238"/>
<path d="M131.152 54.2987L131.075 55.3931H132.169L132.246 54.2987H131.152Z" fill="#263238"/>
<path d="M132.246 54.2987L132.169 55.3931H133.259L133.337 54.2987H132.246Z" fill="#263238"/>
<path d="M134.431 54.2987L134.354 55.3931H135.444L135.521 54.2987H134.431Z" fill="#263238"/>
<path d="M108.134 55.3931L108.056 56.4834H109.151L109.228 55.3931H108.134Z" fill="#263238"/>
<path d="M110.318 55.3931L110.245 56.4834H111.335L111.413 55.3931H110.318Z" fill="#263238"/>
<path d="M111.413 55.3931L111.336 56.4834H112.43L112.503 55.3931H111.413Z" fill="#263238"/>
<path d="M112.503 55.3931L112.43 56.4834H113.52L113.597 55.3931H112.503Z" fill="#263238"/>
<path d="M114.688 55.3931L114.614 56.4834H115.705L115.782 55.3931H114.688Z" fill="#263238"/>
<path d="M117.967 55.3931L117.889 56.4834H118.984L119.057 55.3931H117.967Z" fill="#263238"/>
<path d="M121.242 55.3931L121.168 56.4834H122.259L122.336 55.3931H121.242Z" fill="#263238"/>
<path d="M122.336 55.3931L122.259 56.4834H123.353L123.43 55.3931H122.336Z" fill="#263238"/>
<path d="M123.43 55.3931L123.353 56.4834H124.443L124.521 55.3931H123.43Z" fill="#263238"/>
<path d="M124.521 55.3931L124.443 56.4834H125.538L125.615 55.3931H124.521Z" fill="#263238"/>
<path d="M127.8 55.3931L127.722 56.4834H128.813L128.89 55.3931H127.8Z" fill="#263238"/>
<path d="M129.984 55.3931L129.907 56.4834H130.997L131.075 55.3931H129.984Z" fill="#263238"/>
<path d="M131.075 55.3931L130.997 56.4834H132.092L132.169 55.3931H131.075Z" fill="#263238"/>
<path d="M132.169 55.3931L132.092 56.4834H133.186L133.259 55.3931H132.169Z" fill="#263238"/>
<path d="M134.354 55.3931L134.276 56.4834H135.371L135.444 55.3931H134.354Z" fill="#263238"/>
<path d="M108.057 56.4834L107.983 57.5778H109.074L109.151 56.4834H108.057Z" fill="#263238"/>
<path d="M114.614 56.4834L114.537 57.5778H115.627L115.705 56.4834H114.614Z" fill="#263238"/>
<path d="M118.984 56.4834L118.906 57.5778H119.997L120.074 56.4834H118.984Z" fill="#263238"/>
<path d="M120.074 56.4834L119.997 57.5778H121.091L121.168 56.4834H120.074Z" fill="#263238"/>
<path d="M122.259 56.4834L122.181 57.5778H123.276L123.353 56.4834H122.259Z" fill="#263238"/>
<path d="M123.353 56.4834L123.276 57.5778H124.366L124.443 56.4834H123.353Z" fill="#263238"/>
<path d="M124.443 56.4834L124.366 57.5778H125.46L125.538 56.4834H124.443Z" fill="#263238"/>
<path d="M125.538 56.4834L125.46 57.5778H126.555L126.628 56.4834H125.538Z" fill="#263238"/>
<path d="M127.722 56.4834L127.645 57.5778H128.739L128.813 56.4834H127.722Z" fill="#263238"/>
<path d="M134.276 56.4834L134.199 57.5778H135.293L135.371 56.4834H134.276Z" fill="#263238"/>
<path d="M107.983 57.5778L107.906 58.6721H108.996L109.073 57.5778H107.983Z" fill="#263238"/>
<path d="M109.074 57.5778L108.996 58.6721H110.091L110.168 57.5778H109.074Z" fill="#263238"/>
<path d="M110.168 57.5778L110.091 58.6721H111.181L111.258 57.5778H110.168Z" fill="#263238"/>
<path d="M111.258 57.5778L111.181 58.6721H112.275L112.353 57.5778H111.258Z" fill="#263238"/>
<path d="M112.353 57.5778L112.275 58.6721H113.37L113.443 57.5778H112.353Z" fill="#263238"/>
<path d="M113.443 57.5778L113.37 58.6721H114.46L114.537 57.5778H113.443Z" fill="#263238"/>
<path d="M114.537 57.5778L114.46 58.6721H115.554L115.627 57.5778H114.537Z" fill="#263238"/>
<path d="M116.722 57.5778L116.645 58.6721H117.739L117.812 57.5778H116.722Z" fill="#263238"/>
<path d="M118.906 57.5778L118.829 58.6721H119.924L119.997 57.5778H118.906Z" fill="#263238"/>
<path d="M121.091 57.5778L121.014 58.6721H122.108L122.181 57.5778H121.091Z" fill="#263238"/>
<path d="M123.276 57.5778L123.198 58.6721H124.293L124.366 57.5778H123.276Z" fill="#263238"/>
<path d="M125.46 57.5778L125.383 58.6721H126.478L126.555 57.5778H125.46Z" fill="#263238"/>
<path d="M127.645 57.5778L127.568 58.6721H128.662L128.739 57.5778H127.645Z" fill="#263238"/>
<path d="M128.739 57.5778L128.662 58.6721H129.752L129.83 57.5778H128.739Z" fill="#263238"/>
<path d="M129.83 57.5778L129.752 58.6721H130.847L130.924 57.5778H129.83Z" fill="#263238"/>
<path d="M130.924 57.5778L130.847 58.6721H131.937L132.014 57.5778H130.924Z" fill="#263238"/>
<path d="M132.014 57.5778L131.937 58.6721H133.031L133.109 57.5778H132.014Z" fill="#263238"/>
<path d="M133.109 57.5778L133.031 58.6721H134.126L134.199 57.5778H133.109Z" fill="#263238"/>
<path d="M134.199 57.5778L134.126 58.6721H135.216L135.293 57.5778H134.199Z" fill="#263238"/>
<path d="M116.645 58.6721L116.567 59.7624H117.662L117.739 58.6721H116.645Z" fill="#263238"/>
<path d="M121.014 58.6721L120.937 59.7624H122.031L122.108 58.6721H121.014Z" fill="#263238"/>
<path d="M122.108 58.6721L122.031 59.7624H123.121L123.198 58.6721H122.108Z" fill="#263238"/>
<path d="M125.383 58.6721L125.306 59.7624H126.4L126.477 58.6721H125.383Z" fill="#263238"/>
<path d="M107.829 59.7623L107.751 60.8567H108.846L108.923 59.7623H107.829Z" fill="#263238"/>
<path d="M108.923 59.7623L108.846 60.8567H109.936L110.013 59.7623H108.923Z" fill="#263238"/>
<path d="M110.013 59.7623L109.936 60.8567H111.03L111.108 59.7623H110.013Z" fill="#263238"/>
<path d="M112.198 59.7623L112.121 60.8567H113.215L113.292 59.7623H112.198Z" fill="#263238"/>
<path d="M113.292 59.7623L113.215 60.8567H114.309L114.383 59.7623H113.292Z" fill="#263238"/>
<path d="M114.383 59.7623L114.309 60.8567H115.4L115.477 59.7623H114.383Z" fill="#263238"/>
<path d="M115.477 59.7623L115.4 60.8567H116.494L116.567 59.7623H115.477Z" fill="#263238"/>
<path d="M116.567 59.7623L116.494 60.8567H117.584L117.662 59.7623H116.567Z" fill="#263238"/>
<path d="M119.846 59.7623L119.769 60.8567H120.863L120.937 59.7623H119.846Z" fill="#263238"/>
<path d="M120.937 59.7623L120.863 60.8567H121.954L122.031 59.7623H120.937Z" fill="#263238"/>
<path d="M122.031 59.7623L121.954 60.8567H123.048L123.121 59.7623H122.031Z" fill="#263238"/>
<path d="M125.306 59.7623L125.233 60.8567H126.323L126.4 59.7623H125.306Z" fill="#263238"/>
<path d="M126.4 59.7623L126.323 60.8567H127.417L127.495 59.7623H126.4Z" fill="#263238"/>
<path d="M127.495 59.7623L127.417 60.8567H128.508L128.585 59.7623H127.495Z" fill="#263238"/>
<path d="M131.864 59.7623L131.787 60.8567H132.877L132.954 59.7623H131.864Z" fill="#263238"/>
<path d="M109.936 60.8567L109.863 61.947H110.953L111.03 60.8567H109.936Z" fill="#263238"/>
<path d="M111.03 60.8567L110.953 61.947H112.047L112.121 60.8567H111.03Z" fill="#263238"/>
<path d="M112.121 60.8567L112.047 61.947H113.138L113.215 60.8567H112.121Z" fill="#263238"/>
<path d="M115.4 60.8567L115.322 61.947H116.417L116.494 60.8567H115.4Z" fill="#263238"/>
<path d="M116.494 60.8567L116.417 61.947H117.507L117.584 60.8567H116.494Z" fill="#263238"/>
<path d="M117.584 60.8567L117.507 61.947H118.601L118.679 60.8567H117.584Z" fill="#263238"/>
<path d="M119.769 60.8567L119.692 61.947H120.786L120.863 60.8567H119.769Z" fill="#263238"/>
<path d="M120.863 60.8567L120.786 61.947H121.876L121.954 60.8567H120.863Z" fill="#263238"/>
<path d="M125.233 60.8567L125.155 61.947H126.246L126.323 60.8567H125.233Z" fill="#263238"/>
<path d="M127.417 60.8567L127.34 61.947H128.43L128.508 60.8567H127.417Z" fill="#263238"/>
<path d="M133.971 60.8567L133.894 61.947H134.988L135.066 60.8567H133.971Z" fill="#263238"/>
<path d="M109.863 61.947L109.785 63.0414H110.876L110.953 61.947H109.863Z" fill="#263238"/>
<path d="M114.232 61.947L114.155 63.0414H115.245L115.322 61.947H114.232Z" fill="#263238"/>
<path d="M115.322 61.947L115.245 63.0414H116.339L116.417 61.947H115.322Z" fill="#263238"/>
<path d="M118.601 61.947L118.524 63.0414H119.614L119.692 61.947H118.601Z" fill="#263238"/>
<path d="M120.786 61.947L120.709 63.0414H121.803L121.876 61.947H120.786Z" fill="#263238"/>
<path d="M122.971 61.947L122.893 63.0414H123.988L124.061 61.947H122.971Z" fill="#263238"/>
<path d="M127.34 61.947L127.263 63.0414H128.357L128.43 61.947H127.34Z" fill="#263238"/>
<path d="M128.43 61.947L128.357 63.0414H129.447L129.525 61.947H128.43Z" fill="#263238"/>
<path d="M129.525 61.947L129.447 63.0414H130.542L130.619 61.947H129.525Z" fill="#263238"/>
<path d="M131.709 61.947L131.632 63.0414H132.726L132.804 61.947H131.709Z" fill="#263238"/>
<path d="M132.804 61.947L132.726 63.0414H133.817L133.894 61.947H132.804Z" fill="#263238"/>
<path d="M133.894 61.947L133.817 63.0414H134.911L134.988 61.947H133.894Z" fill="#263238"/>
<path d="M107.601 63.0414L107.523 64.1317H108.618L108.691 63.0414H107.601Z" fill="#263238"/>
<path d="M108.691 63.0414L108.618 64.1317H109.708L109.785 63.0414H108.691Z" fill="#263238"/>
<path d="M109.785 63.0414L109.708 64.1317H110.803L110.876 63.0414H109.785Z" fill="#263238"/>
<path d="M111.97 63.0414L111.893 64.1317H112.987L113.06 63.0414H111.97Z" fill="#263238"/>
<path d="M117.43 63.0414L117.356 64.1317H118.447L118.524 63.0414H117.43Z" fill="#263238"/>
<path d="M118.524 63.0414L118.447 64.1317H119.541L119.614 63.0414H118.524Z" fill="#263238"/>
<path d="M120.709 63.0414L120.631 64.1317H121.726L121.803 63.0414H120.709Z" fill="#263238"/>
<path d="M121.803 63.0414L121.726 64.1317H122.816L122.893 63.0414H121.803Z" fill="#263238"/>
<path d="M122.893 63.0414L122.816 64.1317H123.91L123.988 63.0414H122.893Z" fill="#263238"/>
<path d="M123.988 63.0414L123.91 64.1317H125.001L125.078 63.0414H123.988Z" fill="#263238"/>
<path d="M126.172 63.0414L126.095 64.1317H127.185L127.263 63.0414H126.172Z" fill="#263238"/>
<path d="M127.263 63.0414L127.185 64.1317H128.28L128.357 63.0414H127.263Z" fill="#263238"/>
<path d="M128.357 63.0414L128.28 64.1317H129.37L129.447 63.0414H128.357Z" fill="#263238"/>
<path d="M132.726 63.0414L132.649 64.1317H133.743L133.817 63.0414H132.726Z" fill="#263238"/>
<path d="M109.708 64.1317L109.631 65.2261H110.725L110.803 64.1317H109.708Z" fill="#263238"/>
<path d="M110.803 64.1317L110.725 65.2261H111.816L111.893 64.1317H110.803Z" fill="#263238"/>
<path d="M114.077 64.1317L114 65.2261H115.095L115.172 64.1317H114.077Z" fill="#263238"/>
<path d="M116.262 64.1317L116.185 65.2261H117.279L117.356 64.1317H116.262Z" fill="#263238"/>
<path d="M118.447 64.1317L118.369 65.2261H119.464L119.541 64.1317H118.447Z" fill="#263238"/>
<path d="M121.726 64.1317L121.648 65.2261H122.743L122.816 64.1317H121.726Z" fill="#263238"/>
<path d="M125.001 64.1317L124.927 65.2261H126.018L126.095 64.1317H125.001Z" fill="#263238"/>
<path d="M126.095 64.1317L126.018 65.2261H127.112L127.185 64.1317H126.095Z" fill="#263238"/>
<path d="M127.185 64.1317L127.112 65.2261H128.202L128.28 64.1317H127.185Z" fill="#263238"/>
<path d="M128.28 64.1317L128.202 65.2261H129.297L129.37 64.1317H128.28Z" fill="#263238"/>
<path d="M130.464 64.1317L130.387 65.2261H131.481L131.559 64.1317H130.464Z" fill="#263238"/>
<path d="M132.649 64.1317L132.572 65.2261H133.666L133.743 64.1317H132.649Z" fill="#263238"/>
<path d="M133.743 64.1317L133.666 65.2261H134.756L134.834 64.1317H133.743Z" fill="#263238"/>
<path d="M112.91 65.2261L112.833 66.3164H113.927L114 65.2261H112.91Z" fill="#263238"/>
<path d="M115.095 65.2261L115.017 66.3164H116.112L116.185 65.2261H115.095Z" fill="#263238"/>
<path d="M116.185 65.2261L116.112 66.3164H117.202L117.279 65.2261H116.185Z" fill="#263238"/>
<path d="M118.369 65.2261L118.296 66.3164H119.387L119.464 65.2261H118.369Z" fill="#263238"/>
<path d="M120.554 65.2261L120.481 66.3164H121.571L121.648 65.2261H120.554Z" fill="#263238"/>
<path d="M124.927 65.2261L124.85 66.3164H125.94L126.018 65.2261H124.927Z" fill="#263238"/>
<path d="M126.018 65.2261L125.94 66.3164H127.035L127.112 65.2261H126.018Z" fill="#263238"/>
<path d="M127.112 65.2261L127.035 66.3164H128.125L128.202 65.2261H127.112Z" fill="#263238"/>
<path d="M130.387 65.2261L130.31 66.3164H131.404L131.481 65.2261H130.387Z" fill="#263238"/>
<path d="M133.666 65.2261L133.589 66.3164H134.683L134.756 65.2261H133.666Z" fill="#263238"/>
<path d="M107.369 66.3163L107.296 67.4106H108.386L108.463 66.3163H107.369Z" fill="#263238"/>
<path d="M110.648 66.3163L110.571 67.4106H111.665L111.742 66.3163H110.648Z" fill="#263238"/>
<path d="M111.742 66.3163L111.665 67.4106H112.755L112.833 66.3163H111.742Z" fill="#263238"/>
<path d="M112.833 66.3163L112.755 67.4106H113.85L113.927 66.3163H112.833Z" fill="#263238"/>
<path d="M113.927 66.3163L113.85 67.4106H114.94L115.017 66.3163H113.927Z" fill="#263238"/>
<path d="M115.017 66.3163L114.94 67.4106H116.034L116.112 66.3163H115.017Z" fill="#263238"/>
<path d="M117.202 66.3163L117.125 67.4106H118.219L118.296 66.3163H117.202Z" fill="#263238"/>
<path d="M118.296 66.3163L118.219 67.4106H119.309L119.387 66.3163H118.296Z" fill="#263238"/>
<path d="M121.571 66.3163L121.494 67.4106H122.588L122.666 66.3163H121.571Z" fill="#263238"/>
<path d="M124.85 66.3163L124.773 67.4106H125.867L125.94 66.3163H124.85Z" fill="#263238"/>
<path d="M125.94 66.3163L125.867 67.4106H126.958L127.035 66.3163H125.94Z" fill="#263238"/>
<path d="M127.035 66.3163L126.957 67.4106H128.052L128.125 66.3163H127.035Z" fill="#263238"/>
<path d="M128.125 66.3163L128.052 67.4106H129.142L129.219 66.3163H128.125Z" fill="#263238"/>
<path d="M131.404 66.3163L131.327 67.4106H132.421L132.498 66.3163H131.404Z" fill="#263238"/>
<path d="M132.498 66.3163L132.421 67.4106H133.511L133.589 66.3163H132.498Z" fill="#263238"/>
<path d="M133.589 66.3163L133.511 67.4106H134.606L134.683 66.3163H133.589Z" fill="#263238"/>
<path d="M108.386 67.4106L108.309 68.5009H109.403L109.48 67.4106H108.386Z" fill="#263238"/>
<path d="M109.48 67.4106L109.403 68.5009H110.497L110.571 67.4106H109.48Z" fill="#263238"/>
<path d="M112.755 67.4106L112.682 68.5009H113.772L113.85 67.4106H112.755Z" fill="#263238"/>
<path d="M114.94 67.4106L114.867 68.5009H115.957L116.034 67.4106H114.94Z" fill="#263238"/>
<path d="M117.125 67.4106L117.051 68.5009H118.142L118.219 67.4106H117.125Z" fill="#263238"/>
<path d="M118.219 67.4106L118.142 68.5009H119.236L119.309 67.4106H118.219Z" fill="#263238"/>
<path d="M121.494 67.4106L121.421 68.5009H122.511L122.588 67.4106H121.494Z" fill="#263238"/>
<path d="M123.683 67.4106L123.605 68.5009H124.696L124.773 67.4106H123.683Z" fill="#263238"/>
<path d="M126.958 67.4106L126.88 68.5009H127.975L128.052 67.4106H126.958Z" fill="#263238"/>
<path d="M129.142 67.4106L129.065 68.5009H130.159L130.237 67.4106H129.142Z" fill="#263238"/>
<path d="M132.421 67.4106L132.344 68.5009H133.438L133.511 67.4106H132.421Z" fill="#263238"/>
<path d="M107.218 68.501L107.141 69.5953H108.235L108.309 68.501H107.218Z" fill="#263238"/>
<path d="M109.403 68.501L109.326 69.5953H110.42L110.497 68.501H109.403Z" fill="#263238"/>
<path d="M112.682 68.501L112.605 69.5953H113.695L113.772 68.501H112.682Z" fill="#263238"/>
<path d="M113.772 68.501L113.695 69.5953H114.789L114.867 68.501H113.772Z" fill="#263238"/>
<path d="M114.867 68.501L114.789 69.5953H115.88L115.957 68.501H114.867Z" fill="#263238"/>
<path d="M121.421 68.501L121.343 69.5953H122.434L122.511 68.501H121.421Z" fill="#263238"/>
<path d="M124.696 68.501L124.618 69.5953H125.713L125.79 68.501H124.696Z" fill="#263238"/>
<path d="M125.79 68.501L125.713 69.5953H126.807L126.88 68.501H125.79Z" fill="#263238"/>
<path d="M126.88 68.501L126.807 69.5953H127.897L127.975 68.501H126.88Z" fill="#263238"/>
<path d="M127.975 68.501L127.897 69.5953H128.992L129.065 68.501H127.975Z" fill="#263238"/>
<path d="M129.065 68.501L128.992 69.5953H130.082L130.159 68.501H129.065Z" fill="#263238"/>
<path d="M130.159 68.501L130.082 69.5953H131.176L131.254 68.501H130.159Z" fill="#263238"/>
<path d="M115.88 69.5953L115.802 70.6856H116.897L116.974 69.5953H115.88Z" fill="#263238"/>
<path d="M118.064 69.5953L117.991 70.6856H119.081L119.159 69.5953H118.064Z" fill="#263238"/>
<path d="M120.249 69.5953L120.176 70.6856H121.266L121.343 69.5953H120.249Z" fill="#263238"/>
<path d="M124.618 69.5953L124.545 70.6856H125.635L125.713 69.5953H124.618Z" fill="#263238"/>
<path d="M128.992 69.5953L128.914 70.6856H130.005L130.082 69.5953H128.992Z" fill="#263238"/>
<path d="M130.082 69.5953L130.005 70.6856H131.099L131.176 69.5953H130.082Z" fill="#263238"/>
<path d="M132.267 69.5953L132.189 70.6856H133.284L133.361 69.5953H132.267Z" fill="#263238"/>
<path d="M133.361 69.5953L133.284 70.6856H134.378L134.451 69.5953H133.361Z" fill="#263238"/>
<path d="M107.064 70.6855L106.991 71.7799H108.081L108.158 70.6855H107.064Z" fill="#263238"/>
<path d="M108.158 70.6855L108.081 71.7799H109.175L109.248 70.6855H108.158Z" fill="#263238"/>
<path d="M109.248 70.6855L109.175 71.7799H110.266L110.343 70.6855H109.248Z" fill="#263238"/>
<path d="M110.343 70.6855L110.266 71.7799H111.36L111.433 70.6855H110.343Z" fill="#263238"/>
<path d="M111.433 70.6855L111.36 71.7799H112.45L112.527 70.6855H111.433Z" fill="#263238"/>
<path d="M112.527 70.6855L112.45 71.7799H113.545L113.622 70.6855H112.527Z" fill="#263238"/>
<path d="M113.622 70.6855L113.545 71.7799H114.635L114.712 70.6855H113.622Z" fill="#263238"/>
<path d="M115.802 70.6855L115.729 71.7799H116.819L116.897 70.6855H115.802Z" fill="#263238"/>
<path d="M116.897 70.6855L116.819 71.7799H117.914L117.991 70.6855H116.897Z" fill="#263238"/>
<path d="M117.991 70.6855L117.914 71.7799H119.004L119.081 70.6855H117.991Z" fill="#263238"/>
<path d="M121.266 70.6855L121.189 71.7799H122.283L122.36 70.6855H121.266Z" fill="#263238"/>
<path d="M122.36 70.6855L122.283 71.7799H123.373L123.451 70.6855H122.36Z" fill="#263238"/>
<path d="M123.451 70.6855L123.373 71.7799H124.468L124.545 70.6855H123.451Z" fill="#263238"/>
<path d="M124.545 70.6855L124.468 71.7799H125.558L125.635 70.6855H124.545Z" fill="#263238"/>
<path d="M126.73 70.6855L126.652 71.7799H127.747L127.82 70.6855H126.73Z" fill="#263238"/>
<path d="M128.914 70.6855L128.837 71.7799H129.931L130.005 70.6855H128.914Z" fill="#263238"/>
<path d="M130.005 70.6855L129.931 71.7799H131.022L131.099 70.6855H130.005Z" fill="#263238"/>
<path d="M132.189 70.6855L132.116 71.7799H133.206L133.284 70.6855H132.189Z" fill="#263238"/>
<path d="M133.284 70.6855L133.206 71.7799H134.301L134.378 70.6855H133.284Z" fill="#263238"/>
<path d="M106.991 71.7799L106.913 72.8702H108.004L108.081 71.7799H106.991Z" fill="#263238"/>
<path d="M113.545 71.7799L113.467 72.8702H114.562L114.635 71.7799H113.545Z" fill="#263238"/>
<path d="M115.729 71.7799L115.652 72.8702H116.742L116.819 71.7799H115.729Z" fill="#263238"/>
<path d="M120.098 71.7799L120.021 72.8702H121.116L121.189 71.7799H120.098Z" fill="#263238"/>
<path d="M121.189 71.7799L121.116 72.8702H122.206L122.283 71.7799H121.189Z" fill="#263238"/>
<path d="M122.283 71.7799L122.206 72.8702H123.3L123.373 71.7799H122.283Z" fill="#263238"/>
<path d="M124.468 71.7799L124.39 72.8702H125.485L125.558 71.7799H124.468Z" fill="#263238"/>
<path d="M128.837 71.7799L128.76 72.8702H129.854L129.931 71.7799H128.837Z" fill="#263238"/>
<path d="M129.931 71.7799L129.854 72.8702H130.944L131.022 71.7799H129.931Z" fill="#263238"/>
<path d="M132.116 71.7799L132.039 72.8702H133.129L133.206 71.7799H132.116Z" fill="#263238"/>
<path d="M106.913 72.8702L106.836 73.9646H107.93L108.004 72.8702H106.913Z" fill="#263238"/>
<path d="M109.098 72.8702L109.021 73.9646H110.115L110.188 72.8702H109.098Z" fill="#263238"/>
<path d="M110.188 72.8702L110.115 73.9646H111.205L111.283 72.8702H110.188Z" fill="#263238"/>
<path d="M111.283 72.8702L111.205 73.9646H112.3L112.373 72.8702H111.283Z" fill="#263238"/>
<path d="M113.467 72.8702L113.39 73.9646H114.484L114.562 72.8702H113.467Z" fill="#263238"/>
<path d="M115.652 72.8702L115.575 73.9646H116.669L116.742 72.8702H115.652Z" fill="#263238"/>
<path d="M118.931 72.8702L118.854 73.9646H119.944L120.021 72.8702H118.931Z" fill="#263238"/>
<path d="M120.021 72.8702L119.944 73.9646H121.038L121.116 72.8702H120.021Z" fill="#263238"/>
<path d="M121.116 72.8702L121.038 73.9646H122.129L122.206 72.8702H121.116Z" fill="#263238"/>
<path d="M122.206 72.8702L122.129 73.9646H123.223L123.3 72.8702H122.206Z" fill="#263238"/>
<path d="M124.39 72.8702L124.313 73.9646H125.407L125.485 72.8702H124.39Z" fill="#263238"/>
<path d="M125.485 72.8702L125.408 73.9646H126.498L126.575 72.8702H125.485Z" fill="#263238"/>
<path d="M126.575 72.8702L126.498 73.9646H127.592L127.669 72.8702H126.575Z" fill="#263238"/>
<path d="M127.669 72.8702L127.592 73.9646H128.682L128.76 72.8702H127.669Z" fill="#263238"/>
<path d="M128.76 72.8702L128.682 73.9646H129.777L129.854 72.8702H128.76Z" fill="#263238"/>
<path d="M129.854 72.8702L129.777 73.9646H130.871L130.944 72.8702H129.854Z" fill="#263238"/>
<path d="M132.039 72.8702L131.961 73.9646H133.056L133.129 72.8702H132.039Z" fill="#263238"/>
<path d="M106.836 73.9646L106.759 75.0549H107.853L107.93 73.9646H106.836Z" fill="#263238"/>
<path d="M109.021 73.9646L108.943 75.0549H110.038L110.115 73.9646H109.021Z" fill="#263238"/>
<path d="M110.115 73.9646L110.038 75.0549H111.128L111.205 73.9646H110.115Z" fill="#263238"/>
<path d="M111.205 73.9646L111.128 75.0549H112.222L112.3 73.9646H111.205Z" fill="#263238"/>
<path d="M113.39 73.9646L113.313 75.0549H114.407L114.484 73.9646H113.39Z" fill="#263238"/>
<path d="M116.669 73.9646L116.592 75.0549H117.682L117.759 73.9646H116.669Z" fill="#263238"/>
<path d="M117.759 73.9646L117.682 75.0549H118.776L118.854 73.9646H117.759Z" fill="#263238"/>
<path d="M119.944 73.9646L119.867 75.0549H120.961L121.038 73.9646H119.944Z" fill="#263238"/>
<path d="M123.223 73.9646L123.146 75.0549H124.24L124.313 73.9646H123.223Z" fill="#263238"/>
<path d="M124.313 73.9646L124.24 75.0549H125.33L125.408 73.9646H124.313Z" fill="#263238"/>
<path d="M127.592 73.9646L127.515 75.0549H128.609L128.682 73.9646H127.592Z" fill="#263238"/>
<path d="M128.682 73.9646L128.609 75.0549H129.7L129.777 73.9646H128.682Z" fill="#263238"/>
<path d="M129.777 73.9646L129.699 75.0549H130.794L130.871 73.9646H129.777Z" fill="#263238"/>
<path d="M130.871 73.9646L130.794 75.0549H131.884L131.961 73.9646H130.871Z" fill="#263238"/>
<path d="M106.759 75.0549L106.681 76.1493H107.776L107.853 75.0549H106.759Z" fill="#263238"/>
<path d="M108.943 75.0549L108.87 76.1493H109.96L110.038 75.0549H108.943Z" fill="#263238"/>
<path d="M110.038 75.0549L109.96 76.1493H111.055L111.128 75.0549H110.038Z" fill="#263238"/>
<path d="M111.128 75.0549L111.055 76.1493H112.145L112.222 75.0549H111.128Z" fill="#263238"/>
<path d="M113.313 75.0549L113.239 76.1493H114.33L114.407 75.0549H113.313Z" fill="#263238"/>
<path d="M115.497 75.0549L115.424 76.1493H116.514L116.592 75.0549H115.497Z" fill="#263238"/>
<path d="M120.961 75.0549L120.884 76.1493H121.978L122.055 75.0549H120.961Z" fill="#263238"/>
<path d="M123.146 75.0549L123.068 76.1493H124.163L124.24 75.0549H123.146Z" fill="#263238"/>
<path d="M128.609 75.0549L128.532 76.1493H129.626L129.7 75.0549H128.609Z" fill="#263238"/>
<path d="M132.979 75.0549L132.901 76.1493H133.996L134.069 75.0549H132.979Z" fill="#263238"/>
<path d="M106.681 76.1493L106.608 77.2396H107.698L107.776 76.1493H106.681Z" fill="#263238"/>
<path d="M113.239 76.1493L113.162 77.2396H114.252L114.33 76.1493H113.239Z" fill="#263238"/>
<path d="M115.424 76.1493L115.347 77.2396H116.437L116.514 76.1493H115.424Z" fill="#263238"/>
<path d="M116.514 76.1493L116.437 77.2396H117.531L117.609 76.1493H116.514Z" fill="#263238"/>
<path d="M118.699 76.1493L118.622 77.2396H119.716L119.793 76.1493H118.699Z" fill="#263238"/>
<path d="M120.884 76.1493L120.806 77.2396H121.901L121.978 76.1493H120.884Z" fill="#263238"/>
<path d="M121.978 76.1493L121.901 77.2396H122.995L123.068 76.1493H121.978Z" fill="#263238"/>
<path d="M123.068 76.1493L122.995 77.2396H124.085L124.163 76.1493H123.068Z" fill="#263238"/>
<path d="M124.163 76.1493L124.085 77.2396H125.18L125.253 76.1493H124.163Z" fill="#263238"/>
<path d="M126.347 76.1493L126.27 77.2396H127.364L127.438 76.1493H126.347Z" fill="#263238"/>
<path d="M128.532 76.1493L128.455 77.2396H129.549L129.626 76.1493H128.532Z" fill="#263238"/>
<path d="M129.626 76.1493L129.549 77.2396H130.639L130.717 76.1493H129.626Z" fill="#263238"/>
<path d="M131.811 76.1493L131.734 77.2396H132.824L132.901 76.1493H131.811Z" fill="#263238"/>
<path d="M106.608 77.2395L106.531 78.3339H107.621L107.698 77.2395H106.608Z" fill="#263238"/>
<path d="M107.698 77.2395L107.621 78.3339H108.716L108.793 77.2395H107.698Z" fill="#263238"/>
<path d="M108.793 77.2395L108.716 78.3339H109.81L109.883 77.2395H108.793Z" fill="#263238"/>
<path d="M109.883 77.2395L109.81 78.3339H110.9L110.977 77.2395H109.883Z" fill="#263238"/>
<path d="M110.977 77.2395L110.9 78.3339H111.995L112.068 77.2395H110.977Z" fill="#263238"/>
<path d="M112.068 77.2395L111.995 78.3339H113.085L113.162 77.2395H112.068Z" fill="#263238"/>
<path d="M113.162 77.2395L113.085 78.3339H114.179L114.252 77.2395H113.162Z" fill="#263238"/>
<path d="M115.347 77.2395L115.269 78.3339H116.364L116.437 77.2395H115.347Z" fill="#263238"/>
<path d="M116.437 77.2395L116.364 78.3339H117.454L117.531 77.2395H116.437Z" fill="#263238"/>
<path d="M117.531 77.2395L117.454 78.3339H118.548L118.622 77.2395H117.531Z" fill="#263238"/>
<path d="M118.622 77.2395L118.548 78.3339H119.639L119.716 77.2395H118.622Z" fill="#263238"/>
<path d="M119.716 77.2395L119.639 78.3339H120.733L120.806 77.2395H119.716Z" fill="#263238"/>
<path d="M120.806 77.2395L120.733 78.3339H121.823L121.901 77.2395H120.806Z" fill="#263238"/>
<path d="M124.085 77.2395L124.008 78.3339H125.102L125.18 77.2395H124.085Z" fill="#263238"/>
<path d="M125.18 77.2395L125.102 78.3339H126.193L126.27 77.2395H125.18Z" fill="#263238"/>
<path d="M127.364 77.2395L127.287 78.3339H128.377L128.455 77.2395H127.364Z" fill="#263238"/>
<path d="M131.734 77.2395L131.656 78.3339H132.751L132.824 77.2395H131.734Z" fill="#263238"/>
<path d="M132.824 77.2395L132.751 78.3339H133.841L133.918 77.2395H132.824Z" fill="#263238"/>
<path d="M77.5448 144.589L80.718 143.824L79.0785 136.453L75.9094 137.218L77.5448 144.589Z" fill="#FF887B"/>
<path d="M80.5959 143.06L77.1297 143.898C77.0677 143.912 77.0127 143.947 76.974 143.998C76.9354 144.048 76.9156 144.111 76.9182 144.174L77.0402 147.12C77.0434 147.184 77.0591 147.247 77.0866 147.305C77.114 147.363 77.1527 147.415 77.2003 147.458C77.2479 147.501 77.3036 147.534 77.3641 147.556C77.4246 147.577 77.4887 147.587 77.5528 147.584C77.5839 147.587 77.6153 147.587 77.6464 147.584C78.8669 147.258 80.6732 146.75 82.2476 146.363C84.0783 145.92 84.2532 145.985 86.4053 145.464C87.7072 145.151 87.7153 143.755 87.1417 143.772C84.5177 143.829 83.9115 143.914 81.4217 143.113C81.1564 143.02 80.8708 143.002 80.5959 143.06Z" fill="#263238"/>
<path opacity="0.2" d="M79.0785 136.457L79.9247 140.257L76.7515 141.021L75.9094 137.222L79.0785 136.457Z" fill="black"/>
<path d="M80.9946 142.852C80.9823 142.853 80.9701 142.85 80.9588 142.845C80.9475 142.84 80.9375 142.833 80.9295 142.824C80.9224 142.817 80.9167 142.809 80.9128 142.8C80.909 142.79 80.907 142.781 80.907 142.771C80.907 142.761 80.909 142.751 80.9128 142.742C80.9167 142.733 80.9224 142.725 80.9295 142.718C81.0516 142.608 82.15 141.672 82.5772 141.794C82.6172 141.806 82.6538 141.827 82.6836 141.856C82.7134 141.885 82.7355 141.921 82.748 141.961C82.7778 142.027 82.7897 142.099 82.7825 142.17C82.7754 142.242 82.7494 142.31 82.7074 142.368C82.5187 142.572 82.2661 142.705 81.9913 142.746C81.6627 142.81 81.3292 142.845 80.9946 142.852ZM81.198 142.689C81.9181 142.641 82.4185 142.486 82.569 142.283C82.5957 142.245 82.612 142.201 82.6163 142.156C82.6206 142.11 82.6127 142.064 82.5934 142.022C82.5898 142.006 82.5818 141.991 82.5703 141.979C82.5589 141.967 82.5444 141.958 82.5283 141.953C82.4801 141.943 82.4302 141.943 82.3819 141.953C81.9482 142.129 81.5479 142.378 81.198 142.689Z" fill="#E23E2B"/>
<path d="M80.958 142.856C80.9465 142.85 80.9366 142.841 80.9288 142.831C80.9211 142.82 80.9158 142.808 80.9132 142.795C80.9132 142.763 80.779 141.9 81.08 141.485C81.1225 141.423 81.178 141.371 81.2426 141.332C81.3072 141.294 81.3795 141.27 81.4543 141.262C81.6618 141.229 81.7635 141.318 81.7838 141.396C81.9344 141.737 81.377 142.584 81.0393 142.848H81.0068C80.9915 142.855 80.9747 142.858 80.958 142.856ZM81.2061 141.579C81.0486 141.906 80.9974 142.275 81.0597 142.633C81.3811 142.311 81.7472 141.66 81.6577 141.461C81.6577 141.441 81.6252 141.379 81.4909 141.412H81.4462C81.3953 141.421 81.3468 141.44 81.3034 141.468C81.2601 141.496 81.2228 141.532 81.1939 141.575L81.2061 141.579Z" fill="#E23E2B"/>
<path d="M53.1393 143.955L56.3614 144.459L57.6673 137.022L54.4412 136.514L53.1393 143.955Z" fill="#FF887B"/>
<path d="M56.3899 144.081L52.8627 143.532C52.8 143.521 52.7356 143.533 52.6806 143.565C52.6256 143.597 52.5836 143.647 52.5617 143.707L51.5487 146.473C51.5262 146.534 51.516 146.598 51.5189 146.663C51.5217 146.727 51.5374 146.79 51.5651 146.849C51.5927 146.907 51.6318 146.959 51.68 147.003C51.7282 147.046 51.7845 147.079 51.8457 147.099C51.8743 147.111 51.9044 147.12 51.9352 147.124C53.2085 147.299 55.0514 147.51 56.6502 147.763C58.5135 148.055 58.6518 148.169 60.8365 148.523C62.1586 148.731 62.6997 147.445 62.1627 147.238C59.7218 146.29 59.1278 146.135 57.1303 144.443C56.9203 144.258 56.6646 144.133 56.3899 144.081Z" fill="#263238"/>
<path opacity="0.2" d="M57.6673 137.022L56.9066 141.343L53.6845 140.838L54.4412 136.518L57.6673 137.022Z" fill="black"/>
<path d="M56.8333 144.04C56.8214 144.037 56.8105 144.031 56.8019 144.023C56.7933 144.014 56.7872 144.003 56.7845 143.991C56.7814 143.982 56.7802 143.972 56.7809 143.962C56.7817 143.952 56.7845 143.943 56.789 143.934C56.7936 143.925 56.7998 143.918 56.8075 143.911C56.8151 143.905 56.8239 143.9 56.8333 143.898C56.9879 143.845 58.3548 143.393 58.7047 143.674C58.7386 143.699 58.7653 143.732 58.7825 143.771C58.7996 143.809 58.8064 143.852 58.8024 143.894C58.8029 143.962 58.7861 144.03 58.7533 144.091C58.7206 144.151 58.6731 144.202 58.6152 144.239C58.3605 144.357 58.0731 144.382 57.8016 144.313C57.4711 144.252 57.147 144.16 56.8333 144.04ZM57.0815 143.971C57.769 144.199 58.302 144.252 58.5135 144.105C58.5516 144.081 58.5829 144.047 58.6043 144.007C58.6256 143.967 58.6364 143.923 58.6356 143.877C58.6372 143.861 58.6351 143.844 58.6295 143.829C58.6239 143.813 58.6148 143.799 58.603 143.788C58.56 143.764 58.5132 143.747 58.4647 143.739C57.9939 143.738 57.5263 143.817 57.0815 143.971Z" fill="#E23E2B"/>
<path d="M56.7886 144.016C56.7802 144.005 56.774 143.992 56.7705 143.979C56.767 143.966 56.7663 143.952 56.7683 143.938C56.7683 143.906 56.9839 143.06 57.4233 142.791C57.4866 142.751 57.5577 142.724 57.632 142.713C57.7063 142.702 57.7821 142.706 57.8545 142.726C58.062 142.779 58.123 142.901 58.1108 142.978C58.1108 143.353 57.2768 143.922 56.8659 144.036H56.8334C56.8167 144.034 56.8011 144.027 56.7886 144.016ZM57.5046 142.925C57.2346 143.169 57.047 143.49 56.9676 143.845C57.3744 143.67 57.9765 143.21 57.9684 142.99C57.9684 142.99 57.9684 142.901 57.8342 142.881H57.7853C57.6875 142.866 57.5877 142.888 57.5046 142.942V142.925Z" fill="#E23E2B"/>
<path d="M69.0218 96.7956C71.5645 96.934 73.9037 97.0967 76.4545 97.0112C76.7067 94.0414 76.3202 89.8389 75.2788 87.0481C73.1755 85.9253 70.7142 86.6413 68.4604 87.4346L69.0218 96.7956Z" fill="#E23E2B"/>
<path opacity="0.2" d="M69.0218 96.7956C71.5645 96.934 73.9037 97.0967 76.4545 97.0112C76.7067 94.0414 76.3202 89.8389 75.2788 87.0481C73.1755 85.9253 70.7142 86.6413 68.4604 87.4346L69.0218 96.7956Z" fill="black"/>
<path opacity="0.2" d="M68.4604 87.4753L69.3147 87.8456L70.5067 96.0064L76.4992 96.3685L76.4545 97.052L69.0218 96.8364L68.4604 87.4753Z" fill="black"/>
<path opacity="0.2" d="M75.2625 87.0603L75.6245 88.1709L73.5375 88.948L70.1121 88.411L68.4441 87.4468C69.5764 86.9237 70.7901 86.599 72.0323 86.4867C74.2006 86.2467 75.2625 87.0603 75.2625 87.0603Z" fill="white"/>
<path d="M72.7849 73.5741L77.439 112.82L80.8929 137.567C80.9472 137.867 80.8829 138.176 80.7136 138.429C80.5443 138.681 80.2832 138.858 79.9857 138.922L76.1453 139.903C75.8607 139.923 75.5786 139.838 75.3533 139.663C75.1279 139.488 74.9753 139.236 74.9248 138.955C73.7043 133.841 70.4253 123.862 69.807 114.061C69.807 114.061 63.2978 89.0619 61.9593 81.3282L61.5525 74.3389L72.7849 73.5741Z" fill="#E23E2B"/>
<path opacity="0.2" d="M67.0162 83.0531C67.0162 83.0531 68.2 94.1797 67.0162 103.223C67.0162 103.223 64.5142 92.8453 63.3792 88.7486L67.0162 83.0531Z" fill="black"/>
<path d="M67.9396 71.6661L64.0178 115.945L59.0383 139.581C59.0204 139.721 58.9739 139.856 58.9017 139.977C58.8295 140.098 58.7331 140.202 58.6186 140.284C58.5041 140.367 58.3739 140.424 58.2361 140.454C58.0983 140.483 57.9559 140.484 57.8179 140.456L53.595 139.577C53.3164 139.494 53.0757 139.316 52.9151 139.073C52.7545 138.831 52.6841 138.54 52.7163 138.251C53.1231 133.145 52.879 124.826 55.3688 115.802C55.3688 115.802 55.6495 85.2907 56.7154 71.7475L67.9396 71.6661Z" fill="#E23E2B"/>
<path d="M92.52 51.7236L93.3702 50.5438L96.4539 52.4396C95.8275 52.9723 95.1455 53.4361 94.4198 53.8228C94.1767 53.9466 93.9033 53.9986 93.6317 53.9727C93.36 53.9467 93.1014 53.844 92.8861 53.6764L92.7722 53.5869C92.4963 53.3699 92.3157 53.0541 92.2686 52.7063C92.2215 52.3585 92.3117 52.0061 92.52 51.7236Z" fill="#FF8B7B"/>
<path d="M95.864 48.7986L97.4791 51.5894L96.458 52.4437L93.3743 50.5439L95.864 48.7986Z" fill="#FF8B7B"/>
<path d="M71.3326 55.0595C74.5554 55.8069 77.8142 56.3894 81.0963 56.8048C82.7236 57.0163 89.664 55.4216 92.6542 54.9009C92.7558 54.9062 92.8571 54.8851 92.9481 54.8397C93.0392 54.7943 93.117 54.7261 93.1739 54.6417C93.2308 54.5574 93.2649 54.4597 93.273 54.3583C93.281 54.2568 93.2626 54.1551 93.2197 54.0628L92.8535 51.4551C92.8469 51.2025 92.7567 50.9593 92.5972 50.7635C92.4481 50.6592 92.2767 50.5909 92.0967 50.5641C91.9167 50.5372 91.7329 50.5526 91.5598 50.6089C87.6014 51.2598 81.9466 51.6666 81.9466 51.6666C79.1476 51.2598 76.1494 50.1003 73.5904 48.945C65.9543 45.5114 69.6361 54.6202 71.3326 55.0595Z" fill="#263238"/>
<path opacity="0.1" d="M71.3326 55.0595C74.5554 55.8069 77.8142 56.3894 81.0963 56.8048C82.7236 57.0163 89.664 55.4216 92.6542 54.9009C92.7558 54.9062 92.8571 54.8851 92.9481 54.8397C93.0392 54.7943 93.117 54.7261 93.1739 54.6417C93.2308 54.5574 93.2649 54.4597 93.273 54.3583C93.281 54.2568 93.2626 54.1551 93.2197 54.0628L92.8535 51.4551C92.8469 51.2025 92.7567 50.9593 92.5972 50.7635C92.4481 50.6592 92.2767 50.5909 92.0967 50.5641C91.9167 50.5372 91.7329 50.5526 91.5598 50.6089C87.6014 51.2598 81.9466 51.6666 81.9466 51.6666C79.1476 51.2598 76.1494 50.1003 73.5904 48.945C65.9543 45.5114 69.6361 54.6202 71.3326 55.0595Z" fill="black"/>
<path d="M98.5287 54.0058L95.0219 53.3102L97.1699 45.9467L100.673 46.6423L98.5287 54.0058Z" fill="#E23E2B"/>
<path d="M101.393 46.378L98.9925 54.6162C98.9631 54.7126 98.899 54.7947 98.8126 54.8466C98.7261 54.8984 98.6235 54.9164 98.5246 54.8969L98.3212 54.8562C98.4195 54.8746 98.5211 54.8561 98.6067 54.8043C98.6922 54.7526 98.7557 54.6711 98.785 54.5755L101.185 46.3332C101.2 46.2795 101.204 46.2232 101.197 46.1679C101.189 46.1126 101.17 46.0594 101.141 46.0117C101.112 45.964 101.074 45.9228 101.028 45.8906C100.982 45.8585 100.931 45.836 100.876 45.8247L101.079 45.8654C101.135 45.8762 101.188 45.8984 101.234 45.9306C101.28 45.9628 101.32 46.0044 101.349 46.0526C101.379 46.1009 101.398 46.1547 101.405 46.2107C101.413 46.2667 101.408 46.3237 101.393 46.378Z" fill="#E23E2B"/>
<path opacity="0.3" d="M101.393 46.378L98.9925 54.6162C98.9631 54.7126 98.899 54.7947 98.8126 54.8466C98.7261 54.8984 98.6235 54.9164 98.5246 54.8969L98.3212 54.8562C98.4195 54.8746 98.5211 54.8561 98.6067 54.8043C98.6922 54.7526 98.7557 54.6711 98.785 54.5755L101.185 46.3332C101.2 46.2795 101.204 46.2232 101.197 46.1679C101.189 46.1126 101.17 46.0594 101.141 46.0117C101.112 45.964 101.074 45.9228 101.028 45.8906C100.982 45.8585 100.931 45.836 100.876 45.8247L101.079 45.8654C101.135 45.8762 101.188 45.8984 101.234 45.9306C101.28 45.9628 101.32 46.0044 101.349 46.0526C101.379 46.1009 101.398 46.1547 101.405 46.2107C101.413 46.2667 101.408 46.3237 101.393 46.378Z" fill="black"/>
<path d="M100.892 45.8084L97.3977 45.1168C97.2988 45.0973 97.1962 45.1152 97.1097 45.1671C97.0233 45.219 96.9592 45.3011 96.9299 45.3975L94.5296 53.6357C94.5145 53.6894 94.5106 53.7457 94.5182 53.801C94.5257 53.8563 94.5446 53.9095 94.5736 53.9572C94.6026 54.0049 94.6411 54.0461 94.6867 54.0783C94.7324 54.1105 94.7841 54.1329 94.8388 54.1442L98.3375 54.8399C98.4358 54.8583 98.5374 54.8398 98.6229 54.788C98.7085 54.7363 98.772 54.6548 98.8012 54.5592L101.202 46.3169C101.217 46.2632 101.221 46.2069 101.213 46.1516C101.205 46.0963 101.186 46.0431 101.157 45.9954C101.128 45.9477 101.09 45.9065 101.044 45.8743C100.999 45.8422 100.947 45.8197 100.892 45.8084ZM98.5449 54.0059L95.0259 53.294L97.1699 45.9305L100.673 46.6261L98.5449 54.0059Z" fill="#E23E2B"/>
<path d="M100.673 46.6423L98.5287 54.0058L95.0219 53.3102L97.1699 45.9467L100.673 46.6423Z" fill="#E23E2B"/>
<path opacity="0.7" d="M100.673 46.6423L98.5287 54.0058L95.0219 53.3102L97.1699 45.9467L100.673 46.6423Z" fill="white"/>
<path d="M94.9121 49.4657L95.7013 48.6317C95.7185 48.6126 95.7405 48.5983 95.7649 48.5904C95.7894 48.5825 95.8155 48.5811 95.8407 48.5865C95.8658 48.5918 95.8891 48.6037 95.9082 48.6209C95.9273 48.6382 95.9416 48.6601 95.9495 48.6846L96.0593 49.0019C96.0921 49.1008 96.1026 49.2057 96.0899 49.3092C96.0773 49.4126 96.0418 49.5119 95.9861 49.5999L94.79 51.4835L93.3784 50.5438L94.9121 49.4657Z" fill="#FF8B7B"/>
<path d="M73.3748 59.6079C73.4358 70.3195 74.0745 74.343 72.4838 74.339C69.5262 74.339 58.721 74.7458 58.0904 74.64C53.4241 73.9769 56.2882 63.3547 56.2231 61.6908C56.1824 60.6656 56.097 59.6567 55.9627 58.6356C55.8849 58.0259 55.7487 57.4251 55.5559 56.8415C55.2142 55.861 54.6609 55.0108 53.7089 54.6975C52.8546 54.4127 51.9189 54.6609 51.0198 54.5999C50.1207 54.5389 49.0996 53.9164 49.2094 53.0255C49.3047 52.6073 49.5297 52.23 49.8522 51.9474C51.1622 50.552 52.6349 49.1688 53.1516 47.3299C53.3713 46.561 53.416 45.7026 53.8513 45.0354C55.6495 42.2731 59.9537 44.9663 62.0814 45.7555C63.4523 46.26 64.6932 47.0126 66.056 47.5211C67.484 48.0581 69.9941 48.1843 71.8248 48.2575C73.4765 48.3226 73.3748 59.6079 73.3748 59.6079Z" fill="#263238"/>
<path d="M61.2393 41.9761C61.6908 43.7824 61.5891 46.7237 61.6013 48.7578C61.6013 50.6455 66.4832 52.2158 66.4832 52.2158C66.4832 52.2158 68.497 50.5153 66.9389 49.246C65.633 48.1801 65.4499 46.9393 65.7184 45.4463L61.2393 41.9761Z" fill="#FF8B7B"/>
<path opacity="0.2" d="M63.0821 43.4L65.7468 45.4341C65.6628 45.8485 65.6111 46.2688 65.5922 46.6912C64.624 46.6017 63.2449 45.6132 63.0862 44.6124C63.0116 44.2118 63.0103 43.8011 63.0821 43.4Z" fill="black"/>
<path d="M60.7958 38.5872C61.1416 41.6425 61.2026 43.4447 62.8299 44.9418C65.2709 47.1875 68.9933 45.5887 69.5669 42.5009C70.0836 39.7141 69.4286 35.178 66.3652 34.1203C65.6911 33.8825 64.9674 33.821 64.2628 33.9415C63.5582 34.0621 62.8962 34.3607 62.3394 34.809C61.7827 35.2573 61.3497 35.8405 61.0817 36.5032C60.8137 37.1659 60.7195 37.886 60.808 38.5954L60.7958 38.5872Z" fill="#FF8B7B"/>
<path d="M69.7134 41.5815C69.8761 42.7735 70.0755 44.8808 70.4294 46.0565C68.3424 46.0565 66.3612 46.1664 64.262 46.1582C63.9731 45.9385 61.4142 43.7173 61.6013 43.5098C62.3092 42.7816 63.1757 41.9598 62.354 41.138C62.1017 40.8858 62.236 40.4342 62.1994 40.0844C62.956 41.2235 65.8608 42.0452 67.187 41.8011L69.7134 41.5815Z" fill="#263238"/>
<path d="M66.4425 42.204C65.9991 42.3626 66.6419 43.0176 67.3457 43.0542H68.6027C68.7537 43.0601 68.9035 43.0255 69.0366 42.954C69.1696 42.8825 69.2811 42.7766 69.3594 42.6474C69.4896 42.4074 69.4856 42.1511 69.2862 42.0779C68.9817 41.9873 68.6623 41.9582 68.3464 41.9924C67.706 41.9942 67.0677 42.0652 66.4425 42.204Z" fill="#FF8B7B"/>
<path d="M68.7533 42.4765C68.4089 42.5811 68.0446 42.6016 67.6907 42.5365C67.3368 42.4714 67.0037 42.3225 66.7191 42.1023C66.7119 42.0951 66.7061 42.0865 66.7022 42.0771C66.6983 42.0677 66.6962 42.0576 66.6962 42.0473C66.6962 42.0371 66.6983 42.027 66.7022 42.0176C66.7061 42.0082 66.7119 41.9996 66.7191 41.9924C66.7324 41.9837 66.748 41.979 66.7639 41.979C66.7798 41.979 66.7954 41.9837 66.8086 41.9924C67.0778 42.1963 67.3911 42.3338 67.7233 42.3939C68.0555 42.454 68.3972 42.4349 68.7207 42.3382C68.7309 42.3352 68.7415 42.3342 68.7521 42.3355C68.7626 42.3367 68.7727 42.3401 68.7819 42.3455C68.7911 42.3508 68.799 42.358 68.8053 42.3665C68.8116 42.3751 68.816 42.3848 68.8183 42.3952C68.8221 42.4145 68.8182 42.4346 68.8076 42.4512C68.7971 42.4679 68.7805 42.4798 68.7614 42.4847L68.7533 42.4765Z" fill="#263238"/>
<path d="M68.2163 40.7394C67.554 40.7155 66.8972 40.867 66.3124 41.1788C65.7239 41.4869 65.0552 41.6075 64.3962 41.5246C64.9537 41.9419 65.6123 42.2031 66.3042 42.2813C67.0151 42.369 67.7359 42.2385 68.3709 41.907C68.7407 42.1332 69.1578 42.2711 69.5896 42.3099C70.0214 42.3487 70.4564 42.2874 70.8606 42.1307C70.0836 42.3179 69.7744 41.2601 68.973 40.8899C68.7273 40.811 68.4734 40.7605 68.2163 40.7394Z" fill="#263238"/>
<path opacity="0.1" d="M68.2163 40.7394C67.554 40.7155 66.8972 40.867 66.3124 41.1788C65.7239 41.4869 65.0552 41.6075 64.3962 41.5246C64.9537 41.9419 65.6123 42.2031 66.3042 42.2813C67.0151 42.369 67.7359 42.2385 68.3709 41.907C68.7407 42.1332 69.1578 42.2711 69.5896 42.3099C70.0214 42.3487 70.4564 42.2874 70.8606 42.1307C70.0836 42.3179 69.7744 41.2601 68.973 40.8899C68.7273 40.811 68.4734 40.7605 68.2163 40.7394Z" fill="black"/>
<path d="M63.4198 37.8754C63.6191 38.2166 63.7178 38.6073 63.7046 39.0023C63.3806 39.3206 63.0964 39.6772 62.8584 40.0641C62.5126 40.6336 62.4027 41.3456 61.9593 41.846C61.9593 41.846 61.8617 41.907 61.8779 41.8989C61.5203 41.238 61.1972 40.559 60.9097 39.8647C61.617 39.0529 62.4679 38.3785 63.4198 37.8754Z" fill="#263238"/>
<path d="M59.6567 41.5692C59.9961 42.2656 60.5972 42.7994 61.3287 43.0542C62.297 43.3837 62.8421 42.5294 62.6143 41.5733C62.415 40.7271 61.6664 39.5392 60.6697 39.6084C60.4512 39.6296 60.2416 39.7053 60.0599 39.8284C59.8782 39.9515 59.7303 40.1181 59.6295 40.3131C59.5288 40.5081 59.4785 40.7252 59.4832 40.9446C59.488 41.1641 59.5476 41.3788 59.6567 41.5692Z" fill="#FF8B7B"/>
<path d="M65.999 39.2097C65.999 39.4578 66.1536 39.6531 66.3204 39.645C66.4872 39.6368 66.6052 39.4294 66.5889 39.1812C66.5726 38.933 66.4343 38.7337 66.2716 38.7418C66.1089 38.75 65.9868 38.9574 65.999 39.2097Z" fill="#263238"/>
<path d="M68.6068 39.0551C68.6068 39.3073 68.7614 39.5026 68.9241 39.4904C69.0868 39.4782 69.2089 39.2748 69.1967 39.0226C69.1845 38.7703 69.0421 38.5832 68.8753 38.5913C68.7085 38.5995 68.5946 38.8151 68.6068 39.0551Z" fill="#263238"/>
<path d="M67.785 38.9087C68.2529 39.584 68.7939 39.8973 69.4123 40.418C69.0787 40.9225 68.2569 40.8614 68.2569 40.8614L67.785 38.9087Z" fill="#FF5652"/>
<path d="M65.0918 38.3431C65.1188 38.3476 65.1465 38.3438 65.1712 38.3322C65.1959 38.3206 65.2165 38.3017 65.2302 38.278C65.3307 38.1237 65.4657 37.9948 65.6245 37.9016C65.7834 37.8084 65.9618 37.7535 66.1455 37.741C66.1841 37.7411 66.2212 37.7264 66.2492 37.6999C66.2772 37.6734 66.294 37.6371 66.296 37.5986C66.2972 37.5793 66.2943 37.5599 66.2876 37.5417C66.281 37.5234 66.2707 37.5068 66.2573 37.4927C66.244 37.4786 66.2279 37.4673 66.2101 37.4597C66.1923 37.452 66.1731 37.4481 66.1537 37.4481C65.9205 37.4583 65.6932 37.5242 65.4908 37.6403C65.2883 37.7563 65.1167 37.9192 64.9901 38.1153C64.9691 38.1475 64.9612 38.1865 64.968 38.2243C64.9748 38.2621 64.9958 38.2959 65.0268 38.3187C65.0466 38.331 65.0688 38.3393 65.0918 38.3431Z" fill="#263238"/>
<path d="M69.4692 38.2008C69.4971 38.2091 69.5268 38.2091 69.5547 38.2008C69.5723 38.1923 69.5879 38.1802 69.6006 38.1653C69.6133 38.1505 69.6229 38.1331 69.6286 38.1144C69.6343 38.0957 69.6361 38.0761 69.6339 38.0566C69.6317 38.0372 69.6255 38.0184 69.6157 38.0015C69.5069 37.7924 69.3491 37.6128 69.1556 37.4782C68.9622 37.3436 68.7389 37.2579 68.5051 37.2285C68.4658 37.2263 68.4272 37.2395 68.3975 37.2653C68.3679 37.2912 68.3495 37.3276 68.3464 37.3668C68.3442 37.405 68.357 37.4426 68.382 37.4715C68.4071 37.5004 68.4425 37.5183 68.4807 37.5214C68.6626 37.5504 68.8352 37.6218 68.9843 37.73C69.1335 37.8381 69.255 37.9799 69.3391 38.1439C69.3552 38.1624 69.3753 38.1771 69.3978 38.1869C69.4203 38.1968 69.4447 38.2015 69.4692 38.2008Z" fill="#263238"/>
<path opacity="0.4" d="M58.4321 52.2322C58.4321 52.2322 58.5948 57.7324 57.5045 60.2792C57.0733 61.2962 56.6543 61.8129 56.3044 62.061C56.1458 61.044 55.9342 60.0269 55.682 59.0546C55.5346 58.4595 55.3288 57.8803 55.0677 57.3256L54.97 56.0523L58.4321 52.2322Z" fill="black"/>
<path opacity="0.2" d="M59.3963 75.2339C59.3597 75.4088 59.2539 76.3161 59.1156 76.9222C58.7892 78.0849 58.0501 79.0887 57.0367 79.7456C56.2231 80.1768 56.695 76.3893 56.695 76.3893L56.8496 75.0834L59.3963 75.2339Z" fill="black"/>
<path d="M56.0563 75.234L59.1848 76.6579C58.969 77.8331 58.2979 78.8756 57.3174 79.5585L57.0489 79.7457C57.0489 79.7457 54.01 76.8491 54.4209 75.9785L56.0563 75.234Z" fill="#FF8B7B"/>
<path d="M49.836 65.7956C49.836 70.2951 51.3656 71.9631 52.6837 75.8279C52.8136 76.2108 53.0813 76.5316 53.4348 76.7279C53.7883 76.9242 54.2021 76.9819 54.5958 76.8897C56.0888 76.5561 57.5534 75.4577 56.6299 73.5212C56.6299 73.5212 55.7268 71.007 55.1206 66.0438C54.9991 65.3712 54.9991 64.6823 55.1206 64.0097C55.5722 62.0895 57.3826 58.2775 57.8016 55.7227C58.1555 53.538 58.6152 50.8082 57.5778 49.901C52.757 45.6456 49.836 57.175 49.836 65.7956Z" fill="#263238"/>
<path opacity="0.4" d="M55.385 47.8303C55.4164 47.9783 55.4806 48.1174 55.573 48.2372C55.6654 48.357 55.7835 48.4545 55.9187 48.5225C56.0539 48.5904 56.2026 48.6271 56.3539 48.6299C56.5051 48.6326 56.6551 48.6012 56.7926 48.5382C57.7771 48.0581 60.515 48.9735 61.5972 48.7416C61.5972 48.7416 61.5972 47.2729 61.5972 46.8661C61.5972 46.4593 57.9358 45.0558 56.8577 44.9663C55.027 44.8239 55.0514 46.3779 55.385 47.8303Z" fill="black"/>
<path d="M69.0665 36.899C67.907 36.248 66.4791 36.4921 65.3318 37.078C64.3371 37.6678 63.4316 38.3966 62.6427 39.2423C61.7803 40.0803 60.9503 40.8696 60.1001 41.6832C60.045 41.7374 59.9777 41.7776 59.9039 41.8004C59.8301 41.8233 59.7519 41.8281 59.6759 41.8146C59.5998 41.801 59.5281 41.7695 59.4667 41.7226C59.4053 41.6757 59.3561 41.6147 59.3231 41.5449C59.2254 41.3374 59.1318 41.1381 59.0139 40.9225C58.9768 40.8622 58.9529 40.7948 58.9438 40.7247C58.9347 40.6546 58.9405 40.5833 58.961 40.5156C59.0586 40.2064 59.1644 39.8973 59.2539 39.5921C58.9008 38.497 58.8188 37.3325 59.0151 36.1987C59.2114 35.0649 59.6801 33.9957 60.3808 33.083C61.3287 31.8625 63.1553 31.8625 64.6565 32.1757C65.4078 32.3467 66.1171 32.6667 66.7425 33.1167C67.3679 33.5668 67.8967 34.1377 68.2976 34.7957C68.4565 34.7551 68.6229 34.7547 68.782 34.7944C68.9411 34.8342 69.0878 34.9129 69.2089 35.0235C69.4726 35.2218 69.6698 35.4957 69.7744 35.8087C69.8428 35.9537 69.8783 36.1121 69.8783 36.2725C69.8783 36.4328 69.8428 36.5912 69.7744 36.7362C69.6994 36.8486 69.5844 36.9281 69.4528 36.9583C69.3212 36.9886 69.1829 36.9673 69.0665 36.899Z" fill="#E23E2B"/>
<path d="M66.8737 34.2993C67.0852 34.5352 67.2459 34.8122 67.3456 35.113C66.7584 35.1213 66.1788 35.2472 65.641 35.4832C65.532 35.1867 65.3723 34.9114 65.1691 34.6695C65.759 34.5312 66.2879 34.4336 66.8737 34.2993Z" fill="white"/>
<path d="M59.6689 96.7956C57.1262 96.934 54.787 97.0967 52.2362 97.0112C51.984 94.0414 52.3705 89.8389 53.4119 87.0481C55.5152 85.9253 57.9765 86.6413 60.2303 87.4346L59.6689 96.7956Z" fill="#E23E2B"/>
<path opacity="0.2" d="M60.2303 87.4753L59.376 87.8456L58.184 96.0064L52.1915 96.3685L52.2362 97.052L59.6689 96.8364L60.2303 87.4753Z" fill="black"/>
<path opacity="0.2" d="M53.4119 87.0603L53.0498 88.1709L55.1368 88.948L58.5623 88.411L60.2303 87.4468C59.098 86.9237 57.8843 86.599 56.6421 86.4867C54.49 86.2467 53.4119 87.0603 53.4119 87.0603Z" fill="white"/>
</svg>
