<svg width="192" height="150" viewBox="0 0 192 150" fill="none" xmlns="http://www.w3.org/2000/svg">
<path d="M191.054 132.744H0V132.84H191.054V132.744Z" fill="#EBEBEB"/>
<path d="M171.91 138.892H166.217V138.988H171.91V138.892Z" fill="#EBEBEB"/>
<path d="M126.562 139.932H123.241V140.027H126.562V139.932Z" fill="#EBEBEB"/>
<path d="M164.604 135.346H151.54V135.442H164.604V135.346Z" fill="#EBEBEB"/>
<path d="M41.8904 137.318H25.3872V137.413H41.8904V137.318Z" fill="#EBEBEB"/>
<path d="M51.2444 137.318H45.2912V137.413H51.2444V137.318Z" fill="#EBEBEB"/>
<path d="M97.3457 136.034H61.5499V136.129H97.3457V136.034Z" fill="#EBEBEB"/>
<path d="M90.5594 115.702H16.7783C16.2003 115.701 15.6464 115.471 15.238 115.062C14.8297 114.653 14.6003 114.098 14.6003 113.52V9.80482C14.6053 9.23014 14.8369 8.68065 15.2447 8.27571C15.6525 7.87077 16.2036 7.64307 16.7783 7.64209H90.5594C91.1381 7.64209 91.693 7.87196 92.1022 8.28113C92.5114 8.69031 92.7412 9.24526 92.7412 9.82392V113.52C92.7412 114.099 92.5114 114.654 92.1022 115.063C91.693 115.472 91.1381 115.702 90.5594 115.702ZM16.7783 7.71851C16.2257 7.71952 15.696 7.93978 15.3056 8.33092C14.9151 8.72207 14.6958 9.25216 14.6958 9.80482V113.52C14.6958 114.073 14.9151 114.603 15.3056 114.994C15.696 115.385 16.2257 115.605 16.7783 115.606H90.5594C91.1124 115.605 91.6425 115.385 92.0335 114.994C92.4246 114.603 92.6447 114.073 92.6457 113.52V9.80482C92.6447 9.2518 92.4246 8.72173 92.0335 8.33069C91.6425 7.93965 91.1124 7.71952 90.5594 7.71851H16.7783Z" fill="#EBEBEB"/>
<path d="M173.213 115.702H99.4281C98.8498 115.701 98.2954 115.471 97.8864 115.062C97.4775 114.653 97.2473 114.099 97.2463 113.52V9.80482C97.2523 9.22979 97.4847 8.6803 97.8931 8.27547C98.3015 7.87063 98.853 7.64306 99.4281 7.64209H173.213C173.787 7.64408 174.337 7.87221 174.744 8.27705C175.151 8.68188 175.382 9.2308 175.387 9.80482V113.52C175.387 114.098 175.158 114.651 174.751 115.06C174.343 115.469 173.79 115.7 173.213 115.702ZM99.4281 7.71851C98.8751 7.71952 98.345 7.93965 97.954 8.33069C97.5629 8.72173 97.3428 9.2518 97.3418 9.80482V113.52C97.3428 114.073 97.5629 114.603 97.954 114.994C98.345 115.385 98.8751 115.605 99.4281 115.606H173.213C173.766 115.605 174.296 115.385 174.687 114.994C175.078 114.603 175.298 114.073 175.299 113.52V9.80482C175.298 9.2518 175.078 8.72173 174.687 8.33069C174.296 7.93965 173.766 7.71952 173.213 7.71851H99.4281Z" fill="#EBEBEB"/>
<path d="M64.6679 30.9507H28.4938V132.744H64.6679V30.9507Z" fill="#E0E0E0"/>
<path d="M64.664 132.744H160.577V30.9507L64.664 30.9507L64.664 132.744Z" fill="#F5F5F5"/>
<path d="M68.4889 43.6863H24.6727V46.2349H68.4889V43.6863Z" fill="#EBEBEB"/>
<path d="M68.4851 46.235L164.398 46.235V43.6863L68.4851 43.6863V46.235Z" fill="#E0E0E0"/>
<path d="M68.4889 58.9706H24.6727V61.5192H68.4889V58.9706Z" fill="#EBEBEB"/>
<path d="M68.4851 61.5193L164.398 61.5193V58.9706L68.4851 58.9706V61.5193Z" fill="#E0E0E0"/>
<path d="M68.4889 74.2549H24.6727V76.8035H68.4889V74.2549Z" fill="#EBEBEB"/>
<path d="M68.4851 76.8036L164.398 76.8036V74.2549L68.4851 74.2549V76.8036Z" fill="#E0E0E0"/>
<path d="M68.4889 89.5392H24.6727V92.0878H68.4889V89.5392Z" fill="#EBEBEB"/>
<path d="M68.4851 92.0879L164.398 92.0879V89.5392L68.4851 89.5392V92.0879Z" fill="#E0E0E0"/>
<path d="M68.4889 104.823H24.6727V107.372H68.4889V104.823Z" fill="#EBEBEB"/>
<path d="M68.4851 107.372L164.398 107.372V104.823L68.4851 104.823V107.372Z" fill="#E0E0E0"/>
<path d="M68.4889 120.108H24.6727V122.656H68.4889V120.108Z" fill="#EBEBEB"/>
<path d="M68.4851 122.656L164.398 122.656V120.108L68.4851 120.108V122.656Z" fill="#E0E0E0"/>
<path d="M93.6659 0H38.6425V27.1296H93.6659V0Z" fill="#F5F5F5"/>
<path d="M68.4851 27.1296H63.8157V30.9507H68.4851V27.1296Z" fill="#E0E0E0"/>
<path d="M93.6659 24.1797H38.6425V27.1296H93.6659V24.1797Z" fill="#F0F0F0"/>
<path d="M93.6659 0H38.6425V2.94987H93.6659V0Z" fill="#F0F0F0"/>
<path d="M143.722 11.3104H116.443V28.5282H143.722V11.3104Z" fill="#F5F5F5"/>
<path d="M131.563 28.5243H128.598V30.9507H131.563V28.5243Z" fill="#E0E0E0"/>
<path d="M143.722 26.6558H116.443V28.5281H143.722V26.6558Z" fill="#F0F0F0"/>
<path d="M143.722 11.3104H116.443V13.1828H143.722V11.3104Z" fill="#F0F0F0"/>
<path d="M145.919 34.0381H136.271V43.6863H145.919V34.0381Z" fill="#E6E6E6"/>
<path d="M145.915 43.6902H155.246V34.042H145.915V43.6902Z" fill="white"/>
<path d="M134.456 34.0381H124.808V43.6863H134.456V34.0381Z" fill="#E6E6E6"/>
<path d="M134.452 43.6902H143.783V34.042H134.452V43.6902Z" fill="white"/>
<path d="M122.993 34.0381H113.344V43.6863H122.993V34.0381Z" fill="#E6E6E6"/>
<path d="M122.989 43.6902H132.32V34.042H122.989V43.6902Z" fill="white"/>
<path d="M111.529 34.0381H101.881V43.6863H111.529V34.0381Z" fill="#E6E6E6"/>
<path d="M111.526 43.6902H120.857V34.042H111.526V43.6902Z" fill="white"/>
<path d="M35.3488 58.9744H39.3915V48.8256H35.3488V58.9744Z" fill="#F0F0F0"/>
<path d="M35.3526 48.8218H31.4436V58.9705H35.3526V48.8218Z" fill="white"/>
<path d="M40.1518 58.9744H44.1945V48.8256H40.1518V58.9744Z" fill="#F0F0F0"/>
<path d="M40.1519 48.8218H36.2429V58.9705H40.1519V48.8218Z" fill="white"/>
<path d="M44.9511 58.9744H48.9938V48.8256H44.9511V58.9744Z" fill="#F0F0F0"/>
<path d="M44.9549 48.8218H41.0459V58.9705H44.9549V48.8218Z" fill="white"/>
<path d="M49.758 58.9744H53.8007V48.8256H49.758V58.9744Z" fill="#F0F0F0"/>
<path d="M49.758 48.8218H45.849V58.9705H49.758V48.8218Z" fill="white"/>
<path d="M38.6578 104.827H44.099V97.9914H38.6578V104.827Z" fill="#F0F0F0"/>
<path d="M38.6577 97.9875H33.3961V104.823H38.6577V97.9875Z" fill="white"/>
<path d="M45.1231 104.827H50.5643V97.9914H45.1231V104.827Z" fill="#F0F0F0"/>
<path d="M45.1231 97.9875H39.8615V104.823H45.1231V97.9875Z" fill="white"/>
<path d="M51.5883 104.827H57.0295V97.9914H51.5883V104.827Z" fill="#F0F0F0"/>
<path d="M51.5883 97.9875H46.3267V104.823H51.5883V97.9875Z" fill="white"/>
<path d="M58.0497 104.827H63.4909V97.9914H58.0497V104.827Z" fill="#F0F0F0"/>
<path d="M58.0535 97.9875H52.7919V104.823H58.0535V97.9875Z" fill="white"/>
<path d="M147.719 64.6067H142.373V74.2549H147.719V64.6067Z" fill="#E6E6E6"/>
<path d="M147.723 74.2587H152.893V64.6105H147.723V74.2587Z" fill="white"/>
<path d="M141.364 64.6067H136.019V74.2549H141.364V64.6067Z" fill="#E6E6E6"/>
<path d="M141.364 74.2587H146.534V64.6105H141.364V74.2587Z" fill="white"/>
<path d="M135.01 64.6067H129.664V74.2549H135.01V64.6067Z" fill="#E6E6E6"/>
<path d="M135.014 74.2587H140.184V64.6105H135.014V74.2587Z" fill="white"/>
<path d="M128.659 64.6067H123.314V74.2549H128.659V64.6067Z" fill="#E6E6E6"/>
<path d="M128.663 74.2587H133.833V64.6105H128.663V74.2587Z" fill="white"/>
<path d="M114.758 64.6067H109.413V74.2549H114.758V64.6067Z" fill="#E6E6E6"/>
<path d="M114.762 74.2587H119.932V64.6105H114.762V74.2587Z" fill="white"/>
<path d="M108.404 64.6067H103.058V74.2549H108.404V64.6067Z" fill="#E6E6E6"/>
<path d="M108.408 74.2587H113.578V64.6105H108.408V74.2587Z" fill="white"/>
<path d="M102.053 64.6067H96.7076V74.2549H102.053V64.6067Z" fill="#E6E6E6"/>
<path d="M102.053 74.2587H107.223V64.6105H102.053V74.2587Z" fill="white"/>
<path d="M95.6987 64.6067H90.3531V74.2549H95.6987V64.6067Z" fill="#E6E6E6"/>
<path d="M95.7026 74.2587H100.872V64.6105H95.7026V74.2587Z" fill="white"/>
<path d="M139.007 97.9915H125.977V104.804H139.007V97.9915Z" fill="#E6E6E6"/>
<path d="M139.007 104.801H151.605V97.9876H139.007V104.801Z" fill="white"/>
<path d="M123.524 97.9915H110.494V104.804H123.524V97.9915Z" fill="#E6E6E6"/>
<path d="M123.528 104.801H136.126V97.9876H123.528V104.801Z" fill="white"/>
<path d="M108.045 97.9915H95.0147V104.804H108.045V97.9915Z" fill="#E6E6E6"/>
<path d="M108.045 104.801H120.643V97.9876H108.045V104.801Z" fill="white"/>
<path d="M92.5654 97.9915H79.5356V104.804H92.5654V97.9915Z" fill="#E6E6E6"/>
<path d="M92.5654 104.801H105.164V97.9876H92.5654V104.801Z" fill="white"/>
<path d="M79.7496 58.9706C82.1237 58.9706 84.0483 57.046 84.0483 54.6719C84.0483 52.2978 82.1237 50.3732 79.7496 50.3732C77.3755 50.3732 75.4509 52.2978 75.4509 54.6719C75.4509 57.046 77.3755 58.9706 79.7496 58.9706Z" fill="#E6E6E6"/>
<path d="M91.2128 58.9706C93.5869 58.9706 95.5115 57.046 95.5115 54.6719C95.5115 52.2978 93.5869 50.3732 91.2128 50.3732C88.8387 50.3732 86.9141 52.2978 86.9141 54.6719C86.9141 57.046 88.8387 58.9706 91.2128 58.9706Z" fill="#E6E6E6"/>
<path d="M102.676 58.9706C105.05 58.9706 106.975 57.046 106.975 54.6719C106.975 52.2978 105.05 50.3732 102.676 50.3732C100.302 50.3732 98.3773 52.2978 98.3773 54.6719C98.3773 57.046 100.302 58.9706 102.676 58.9706Z" fill="#E6E6E6"/>
<path d="M114.139 58.9706C116.513 58.9706 118.438 57.046 118.438 54.6719C118.438 52.2978 116.513 50.3732 114.139 50.3732C111.765 50.3732 109.841 52.2978 109.841 54.6719C109.841 57.046 111.765 58.9706 114.139 58.9706Z" fill="#E6E6E6"/>
<path d="M34.3445 89.4702C35.8684 89.1105 36.8123 87.5835 36.4526 86.0595C36.0929 84.5355 34.5659 83.5917 33.0419 83.9514C31.5179 84.3111 30.5741 85.8381 30.9338 87.3621C31.2934 88.8861 32.8205 89.8299 34.3445 89.4702Z" fill="#E6E6E6"/>
<path d="M41.903 89.4688C43.427 89.1091 44.3708 87.582 44.0111 86.0581C43.6514 84.5341 42.1244 83.5902 40.6004 83.9499C39.0764 84.3096 38.1326 85.8366 38.4923 87.3606C38.852 88.8846 40.379 89.8284 41.903 89.4688Z" fill="#E6E6E6"/>
<path d="M51.4338 87.7915C52.033 86.3449 51.346 84.6864 49.8993 84.0871C48.4527 83.4879 46.7941 84.1749 46.1949 85.6216C45.5957 87.0682 46.2827 88.7267 47.7293 89.326C49.176 89.9252 50.8345 89.2382 51.4338 87.7915Z" fill="#E6E6E6"/>
<path d="M58.3763 88.7137C59.4835 87.6064 59.4835 85.8113 58.3763 84.7041C57.2691 83.5968 55.4739 83.5968 54.3667 84.704C53.2594 85.8113 53.2594 87.6065 54.3667 88.7137C55.4739 89.8209 57.2691 89.8209 58.3763 88.7137Z" fill="#E6E6E6"/>
<path d="M129.919 118.295C130.541 116.792 129.827 115.068 128.324 114.446C126.821 113.823 125.098 114.537 124.475 116.04C123.852 117.543 124.566 119.267 126.069 119.889C127.573 120.512 129.296 119.798 129.919 118.295Z" fill="white"/>
<path d="M135.318 119.566C136.896 119.191 137.872 117.609 137.498 116.03C137.123 114.452 135.541 113.476 133.962 113.85C132.384 114.224 131.408 115.807 131.782 117.385C132.157 118.964 133.739 119.94 135.318 119.566Z" fill="white"/>
<path d="M145.623 118.294C146.245 116.791 145.531 115.068 144.028 114.445C142.525 113.823 140.802 114.536 140.179 116.04C139.556 117.543 140.27 119.266 141.773 119.889C143.277 120.511 145 119.798 145.623 118.294Z" fill="white"/>
<path d="M153.476 118.292C154.099 116.789 153.385 115.066 151.882 114.443C150.379 113.82 148.656 114.534 148.033 116.037C147.41 117.541 148.124 119.264 149.627 119.887C151.13 120.509 152.854 119.795 153.476 118.292Z" fill="white"/>
<path d="M133.323 115.136C134.473 113.986 134.473 112.12 133.323 110.97C132.172 109.819 130.307 109.819 129.157 110.97C128.006 112.12 128.006 113.986 129.157 115.136C130.307 116.287 132.172 116.287 133.323 115.136Z" fill="white"/>
<path d="M141.814 114.18C142.437 112.677 141.723 110.954 140.22 110.331C138.717 109.709 136.993 110.422 136.371 111.926C135.748 113.429 136.462 115.152 137.965 115.775C139.468 116.397 141.192 115.684 141.814 114.18Z" fill="white"/>
<path d="M147.175 115.463C148.753 115.089 149.729 113.506 149.355 111.928C148.981 110.349 147.398 109.373 145.82 109.747C144.242 110.122 143.265 111.704 143.64 113.283C144.014 114.861 145.597 115.837 147.175 115.463Z" fill="white"/>
<path d="M91.1544 119.25C92.3049 118.099 92.3049 116.234 91.1544 115.083C90.0039 113.933 88.1386 113.933 86.9881 115.083C85.8376 116.234 85.8376 118.099 86.9881 119.25C88.1386 120.4 90.0039 120.4 91.1544 119.25Z" fill="white"/>
<path d="M99.6443 118.294C100.267 116.791 99.5531 115.068 98.0499 114.445C96.5467 113.823 94.8234 114.536 94.2007 116.04C93.5781 117.543 94.2919 119.266 95.7951 119.889C97.2983 120.512 99.0217 119.798 99.6443 118.294Z" fill="white"/>
<path d="M105.448 120.04C107.032 119.666 108.012 118.079 107.639 116.496C107.265 114.912 105.678 113.931 104.095 114.305C102.511 114.679 101.53 116.266 101.904 117.849C102.278 119.433 103.864 120.413 105.448 120.04Z" fill="white"/>
<path d="M115.348 118.29C115.971 116.787 115.257 115.064 113.754 114.441C112.251 113.818 110.527 114.532 109.905 116.035C109.282 117.538 109.996 119.262 111.499 119.884C113.002 120.507 114.726 119.793 115.348 118.29Z" fill="white"/>
<path d="M95.8323 114.18C96.4549 112.677 95.7411 110.954 94.2379 110.331C92.7347 109.709 91.0113 110.422 90.3887 111.926C89.766 113.429 90.4799 115.152 91.9831 115.775C93.4863 116.398 95.2096 115.684 95.8323 114.18Z" fill="white"/>
<path d="M103.047 115.138C104.198 113.987 104.198 112.122 103.047 110.972C101.897 109.821 100.031 109.821 98.8808 110.972C97.7302 112.122 97.7302 113.987 98.8807 115.138C100.031 116.288 101.897 116.288 103.047 115.138Z" fill="white"/>
<path d="M111.536 114.18C112.159 112.677 111.445 110.953 109.942 110.331C108.439 109.708 106.715 110.422 106.093 111.925C105.47 113.428 106.184 115.152 107.687 115.774C109.19 116.397 110.914 115.683 111.536 114.18Z" fill="white"/>
<path d="M144.039 81.8474L146.198 89.5392H134.888L144.039 81.8474Z" fill="#E0E0E0"/>
<path d="M144.039 81.8474L140.107 89.5392H152.04L144.039 81.8474Z" fill="white"/>
<path d="M126.153 81.8474L128.312 89.5392H116.997L126.153 81.8474Z" fill="#E0E0E0"/>
<path d="M126.153 81.8474L122.221 89.5392H134.154L126.153 81.8474Z" fill="white"/>
<path d="M108.262 81.8474L110.425 89.5392H99.111L108.262 81.8474Z" fill="#E0E0E0"/>
<path d="M108.262 81.8474L104.331 89.5392H116.268L108.262 81.8474Z" fill="white"/>
<path d="M34.6571 66.7847L33.4535 74.2549H39.7621L34.6571 66.7847Z" fill="#F5F5F5"/>
<path d="M34.6571 66.7847L36.8504 74.2549H30.1941L34.6571 66.7847Z" fill="white"/>
<path d="M44.6339 66.7847L43.4303 74.2549H49.7389L44.6339 66.7847Z" fill="#F5F5F5"/>
<path d="M44.6339 66.7847L46.8272 74.2549H40.1709L44.6339 66.7847Z" fill="white"/>
<path d="M54.6108 66.7847L53.4033 74.2549H59.7157L54.6108 66.7847Z" fill="#F5F5F5"/>
<path d="M54.6107 66.7847L56.804 74.2549H50.1477L54.6107 66.7847Z" fill="white"/>
<path d="M90.376 81.8474L92.5349 89.5392H81.2245L90.376 81.8474Z" fill="#E0E0E0"/>
<path d="M90.376 81.8474L86.4441 89.5392H98.3811L90.376 81.8474Z" fill="white"/>
<path d="M95.5268 150C136.444 150 169.614 148.063 169.614 145.675C169.614 143.286 136.444 141.349 95.5268 141.349C54.6098 141.349 21.4401 143.286 21.4401 145.675C21.4401 148.063 54.6098 150 95.5268 150Z" fill="#F5F5F5"/>
<path d="M111.755 95.7484H143.39C144.035 95.7484 144.654 96.0049 145.111 96.4613C145.567 96.9178 145.824 97.5369 145.824 98.1824C145.824 98.828 145.567 99.4471 145.111 99.9035C144.654 100.36 144.035 100.616 143.39 100.616H111.755V95.7484Z" fill="#EEB301"/>
<path opacity="0.6" d="M111.755 95.7484H143.39C144.035 95.7484 144.654 96.0049 145.111 96.4613C145.567 96.9178 145.824 97.5369 145.824 98.1824C145.824 98.828 145.567 99.4471 145.111 99.9035C144.654 100.36 144.035 100.616 143.39 100.616H111.755V95.7484Z" fill="white"/>
<path d="M143.847 81.4062C144.311 79.4406 143.093 77.4711 141.128 77.0072C139.162 76.5433 137.193 77.7606 136.729 79.7262C136.265 81.6917 137.482 83.6612 139.448 84.1252C141.413 84.5891 143.383 83.3717 143.847 81.4062Z" fill="#EEB301"/>
<path opacity="0.8" d="M143.847 81.4062C144.311 79.4406 143.093 77.4711 141.128 77.0072C139.162 76.5433 137.193 77.7606 136.729 79.7262C136.265 81.6917 137.482 83.6612 139.448 84.1252C141.413 84.5891 143.383 83.3717 143.847 81.4062Z" fill="white"/>
<path d="M132.591 77.9078H118.071V79.6502H132.591V77.9078Z" fill="#E23E2B"/>
<path opacity="0.2" d="M132.591 77.9078H118.071V79.6502H132.591V77.9078Z" fill="black"/>
<path d="M118.171 78.5269H68.9551C67.1297 78.5269 65.6499 80.0067 65.6499 81.8321V142.327C65.6499 144.153 67.1297 145.633 68.9551 145.633H118.171C119.996 145.633 121.476 144.153 121.476 142.327V81.8321C121.476 80.0067 119.996 78.5269 118.171 78.5269Z" fill="#EEB301"/>
<path d="M79.2376 103.593H33.3847C32.7388 103.594 32.1197 103.851 31.6634 104.308C31.207 104.765 30.9507 105.385 30.9507 106.031C30.9492 106.351 31.011 106.669 31.1327 106.966C31.2543 107.262 31.4334 107.532 31.6596 107.759C31.8857 107.987 32.1546 108.167 32.4506 108.29C32.7467 108.413 33.0641 108.476 33.3847 108.476H79.2376V103.593Z" fill="#EEB301"/>
<path opacity="0.3" d="M79.2376 109.814L65.7072 115.939V108.461H79.2376V109.814Z" fill="#263238"/>
<path opacity="0.7" d="M79.2376 103.593H50.0331C49.3873 103.594 48.7682 103.851 48.3118 104.308C47.8554 104.765 47.5991 105.385 47.5991 106.031C47.6001 106.676 47.8569 107.295 48.3131 107.751C48.7694 108.207 49.3879 108.464 50.0331 108.465H79.2376V103.593Z" fill="white"/>
<path opacity="0.7" d="M118.17 78.5269H84.2011C82.3757 78.5269 80.8959 80.0067 80.8959 81.8321V142.327C80.8959 144.153 82.3757 145.633 84.2011 145.633H118.17C119.996 145.633 121.476 144.153 121.476 142.327V81.8321C121.476 80.0067 119.996 78.5269 118.17 78.5269Z" fill="white"/>
<path d="M53.2123 108.465H49.0664V145.633H53.2123V108.465Z" fill="#EEB301"/>
<path opacity="0.7" d="M53.2123 108.465H49.0664V145.633H53.2123V108.465Z" fill="white"/>
<path opacity="0.3" d="M53.2123 110.077L49.0664 110.975V108.461H53.2123V110.077Z" fill="#E23E2B"/>
<path opacity="0.3" d="M116.73 86.4594H85.6379C85.1167 86.4594 84.6941 86.8819 84.6941 87.4032V98.0219C84.6941 98.5432 85.1167 98.9657 85.6379 98.9657H116.73C117.251 98.9657 117.674 98.5432 117.674 98.0219V87.4032C117.674 86.8819 117.251 86.4594 116.73 86.4594Z" fill="#EEB301"/>
<path d="M90.3608 28.83H83.6357V78.5306H90.3608V28.83Z" fill="#EEB301"/>
<path opacity="0.3" d="M90.3608 55.4399H83.6357V68.4278L90.3608 67.5986V55.4399Z" fill="#263238"/>
<path opacity="0.3" d="M90.3608 29.17H83.6357V32.9491L90.3608 32.1199V29.17Z" fill="#263238"/>
<path d="M69.4366 64.6831L67.5604 37.458C67.5447 37.2286 67.5763 36.9984 67.6533 36.7817C67.7303 36.565 67.851 36.3665 68.008 36.1984C68.1649 36.0304 68.3548 35.8964 68.5657 35.8048C68.7766 35.7131 69.0041 35.6659 69.234 35.6659H111.04C111.465 35.6649 111.874 35.8254 112.185 36.1149C112.496 36.4044 112.685 36.8012 112.714 37.2249L114.586 64.45C114.603 64.6796 114.571 64.91 114.495 65.1269C114.418 65.3439 114.297 65.5426 114.14 65.7108C113.983 65.879 113.793 66.013 113.582 66.1044C113.371 66.1958 113.143 66.2427 112.913 66.2421H71.1064C70.682 66.2431 70.2733 66.0824 69.9631 65.7929C69.653 65.5033 69.4647 65.1065 69.4366 64.6831Z" fill="#263238"/>
<path d="M110.882 36.9077H70.1074C69.9777 36.9079 69.8493 36.9348 69.7303 36.9867C69.6114 37.0385 69.5043 37.1143 69.4158 37.2092C69.3273 37.3042 69.2593 37.4163 69.2159 37.5386C69.1725 37.6609 69.1547 37.7908 69.1636 37.9203L70.9672 64.1176C70.9836 64.3568 71.0901 64.5809 71.2653 64.7447C71.4404 64.9085 71.6712 64.9998 71.911 65.0002H112.686C112.816 65.0005 112.945 64.9741 113.064 64.9224C113.183 64.8708 113.291 64.7951 113.38 64.7001C113.469 64.6051 113.537 64.4928 113.581 64.3703C113.624 64.2477 113.642 64.1175 113.633 63.9877L111.83 37.7866C111.812 37.5473 111.705 37.3236 111.529 37.1605C111.353 36.9974 111.122 36.9071 110.882 36.9077Z" fill="#EEB301"/>
<path opacity="0.8" d="M110.882 36.9077H70.1074C69.9777 36.9079 69.8493 36.9348 69.7303 36.9867C69.6114 37.0385 69.5043 37.1143 69.4158 37.2092C69.3273 37.3042 69.2593 37.4163 69.2159 37.5386C69.1725 37.6609 69.1547 37.7908 69.1636 37.9203L70.9672 64.1176C70.9836 64.3568 71.0901 64.5809 71.2653 64.7447C71.4404 64.9085 71.6712 64.9998 71.911 65.0002H112.686C112.816 65.0005 112.945 64.9741 113.064 64.9224C113.183 64.8708 113.291 64.7951 113.38 64.7001C113.469 64.6051 113.537 64.4928 113.581 64.3703C113.624 64.2477 113.642 64.1175 113.633 63.9877L111.83 37.7866C111.812 37.5473 111.705 37.3236 111.529 37.1605C111.353 36.9974 111.122 36.9071 110.882 36.9077Z" fill="white"/>
<path d="M110.972 77.6174H75.1834V78.5268H110.972V77.6174Z" fill="#263238"/>
<path opacity="0.3" d="M101.01 61.9319H74.0791L72.5851 40.2435H99.516L101.01 61.9319Z" fill="#EEB301"/>
<path opacity="0.3" d="M108.71 42.1846H101.453L101.32 40.2435H108.576L108.71 42.1846Z" fill="#E23E2B"/>
<path opacity="0.3" d="M109.244 50.0063H101.988L101.61 44.4734H108.866L109.244 50.0063Z" fill="#EEB301"/>
<path d="M93.5629 21.0159H80.0324V31.115H93.5629V21.0159Z" fill="#EEB301"/>
<path opacity="0.3" d="M85.6609 21.0159H80.0324V31.115H85.6609V21.0159Z" fill="#263238"/>
<path d="M122.58 64.5035L123.325 63.5521C123.464 63.3756 123.643 63.2349 123.847 63.1418C124.051 63.0487 124.274 63.006 124.498 63.0171L126.623 63.1126C127.041 63.1334 127.448 63.2534 127.811 63.4627C128.174 63.672 128.482 63.9646 128.709 64.3163L128.992 64.7595C127.846 66.4217 125.412 67.3846 125.412 67.3846L124.747 67.7361C124.612 67.8124 124.463 67.8612 124.31 67.8796C124.156 67.898 124 67.8857 123.851 67.8434C123.702 67.8011 123.563 67.7297 123.442 67.6332C123.321 67.5367 123.22 67.4172 123.146 67.2814L122.431 65.967C122.311 65.7349 122.261 65.473 122.288 65.2131C122.314 64.9532 122.416 64.7066 122.58 64.5035Z" fill="#FF8B7B"/>
<path d="M129.974 45.4478C130.196 45.7191 130.356 45.9102 130.516 46.1394C130.677 46.3687 130.837 46.5788 130.994 46.7966C131.307 47.2399 131.594 47.6908 131.881 48.1417C132.437 49.0554 132.947 49.9966 133.409 50.9616C133.646 51.4431 133.86 51.9398 134.078 52.4365C134.296 52.9333 134.479 53.4415 134.655 53.965C135.021 55.0049 135.317 56.0683 135.541 57.1479L135.583 57.3237C135.61 57.4492 135.623 57.5774 135.621 57.7058C135.62 58.3887 135.49 59.0652 135.239 59.7004C135.026 60.2269 134.75 60.726 134.418 61.1868C133.855 61.9438 133.189 62.6178 132.438 63.189C131.767 63.704 131.054 64.1616 130.306 64.557C129.57 64.9481 128.803 65.2791 128.014 65.5466C127.705 65.6524 127.369 65.6503 127.062 65.5405C126.755 65.4307 126.494 65.2197 126.322 64.9423C126.15 64.6648 126.078 64.3372 126.116 64.0131C126.155 63.689 126.303 63.3877 126.535 63.1585L126.63 63.0668C127.1 62.5968 127.643 62.0886 128.113 61.5918C128.579 61.1136 129.018 60.6097 129.427 60.0825C129.785 59.6436 130.086 59.1624 130.325 58.6496C130.516 58.2216 130.494 57.8854 130.436 57.8854L130.516 58.428C130.23 57.6026 129.924 56.7849 129.554 55.971C129.183 55.1571 128.789 54.3585 128.346 53.5638C127.903 52.769 127.448 51.9895 126.955 51.2253C126.711 50.8432 126.458 50.461 126.191 50.0789L125.809 49.5287L125.457 49.032L125.366 48.902C124.95 48.2946 124.784 47.5507 124.903 46.8243C125.021 46.098 125.414 45.4449 126 45.0004C126.587 44.5559 127.322 44.354 128.053 44.4366C128.784 44.5192 129.455 44.8799 129.928 45.444L129.974 45.4478Z" fill="#FF8B7B"/>
<path d="M124.731 42.2076C123.654 44.6531 123.723 47.7061 127.024 52.3754C129.217 52.6162 133.275 49.7657 133.275 49.7657C133.275 49.7657 130.49 41.9516 124.731 42.2076Z" fill="#D63825"/>
<path d="M122.893 33.7057C122.255 36.0748 121.468 40.4155 123.004 41.9936C123.004 41.9936 120.761 41.6573 116 44.6034C114.621 42.6241 115.645 41.9936 115.645 41.9936C118.32 41.3631 118.411 39.4067 118.087 37.565L122.893 33.7057Z" fill="#FF8B7B"/>
<path d="M113.203 43.7552C113.91 42.2267 115.576 40.7709 116.726 40.9887C117.876 41.2065 118.576 41.5657 119.256 40.9887C119.936 40.4117 121.617 39.5711 122.473 40.5225C123.677 41.8523 125.499 40.9046 124.812 42.3605C124.07 43.9424 113.203 43.7552 113.203 43.7552Z" fill="#E23E2B"/>
<path d="M114.285 29.3573C114.239 29.6821 114.032 29.9343 113.826 29.919C113.62 29.9037 113.49 29.6286 113.536 29.3038C113.582 28.979 113.788 28.7306 113.994 28.7459C114.201 28.7612 114.334 29.0401 114.285 29.3573Z" fill="#263238"/>
<path d="M114.082 28.7688L113.356 28.4899C113.356 28.4899 113.658 29.1242 114.082 28.7688Z" fill="#263238"/>
<path d="M114.216 29.9686C113.826 30.6881 113.346 31.3546 112.787 31.9518C113.15 32.3797 113.887 32.2498 113.887 32.2498L114.216 29.9686Z" fill="#FF5652"/>
<path d="M113.746 26.782C113.721 26.7406 113.713 26.6915 113.723 26.6444C113.739 26.597 113.772 26.5575 113.816 26.5341C113.86 26.5106 113.912 26.505 113.96 26.5183C114.26 26.5852 114.54 26.7208 114.779 26.9144C115.017 27.108 115.208 27.3544 115.335 27.6341C115.345 27.6568 115.349 27.6813 115.348 27.7059C115.347 27.7304 115.341 27.7545 115.33 27.7764C115.318 27.7983 115.302 27.8174 115.283 27.8324C115.263 27.8474 115.241 27.858 115.217 27.8633C115.168 27.8776 115.116 27.8734 115.07 27.8515C115.024 27.8297 114.988 27.7917 114.969 27.7449C114.864 27.5253 114.71 27.3326 114.519 27.1816C114.329 27.0306 114.106 26.9252 113.868 26.8737C113.817 26.8592 113.774 26.8265 113.746 26.782Z" fill="#263238"/>
<path d="M124.919 28.9522C124.196 32.7733 123.975 34.4049 121.793 36.239C118.511 39.0017 113.998 37.542 113.57 33.6407C113.188 30.1329 114.422 24.4701 118.362 23.2053C119.199 22.8985 120.104 22.8228 120.981 22.9861C121.857 23.1495 122.674 23.546 123.345 24.1338C124.016 24.7217 124.516 25.4794 124.793 26.3272C125.069 27.175 125.113 28.0818 124.919 28.9522Z" fill="#FF8B7B"/>
<path d="M116.352 30.1865C114.969 28.0199 113.471 25.3146 114.411 23.4347C115.351 21.5547 117.487 22.0018 117.487 22.0018C117.487 22.0018 121.625 19.6785 125.331 22.7048C130.245 26.7284 124.976 31.157 123.673 34.9934C122.232 39.2157 114.804 34.1031 116.352 30.1865Z" fill="#263238"/>
<path d="M137.528 23.1634C135.53 15.7314 126.764 19.1474 124.216 23.5455L125.255 23.8168C135.713 17.0687 130.562 26.8239 130.65 30.8017C130.738 34.7794 134.681 37.2287 134.681 37.2287C134.681 37.2287 139.523 30.5915 137.528 23.1634Z" fill="#263238"/>
<path d="M134.884 36.3002C133.768 36.3002 132.209 36.09 131.193 35.0622C130.276 34.1337 129.989 32.716 130.348 30.859C130.463 30.2706 130.646 29.5789 130.838 28.8491C131.441 26.5565 132.194 23.7365 131.009 22.7354C130.176 22.0285 128.423 22.2769 125.794 23.4652C125.782 23.4709 125.77 23.4743 125.758 23.4751C125.745 23.4758 125.732 23.474 125.721 23.4697C125.709 23.4654 125.698 23.4587 125.689 23.4501C125.68 23.4414 125.673 23.431 125.668 23.4194C125.663 23.4078 125.66 23.3954 125.66 23.3828C125.659 23.3702 125.662 23.3577 125.666 23.346C125.671 23.3343 125.678 23.3236 125.686 23.3145C125.695 23.3055 125.706 23.2983 125.717 23.2933C128.453 22.0514 130.226 21.8222 131.132 22.5902C132.408 23.6677 131.674 26.4457 131.025 28.8988C130.83 29.6248 130.643 30.3126 130.536 30.8972C130.192 32.7008 130.459 34.0611 131.33 34.9437C132.954 36.5868 136.179 36.0289 136.214 36.0213C136.226 36.0193 136.239 36.0197 136.251 36.0227C136.264 36.0256 136.275 36.031 136.286 36.0384C136.296 36.0459 136.305 36.0553 136.311 36.0661C136.318 36.0769 136.323 36.089 136.325 36.1015C136.327 36.1141 136.326 36.1269 136.323 36.1392C136.32 36.1516 136.315 36.1632 136.307 36.1735C136.3 36.1838 136.291 36.1925 136.28 36.1992C136.269 36.2059 136.257 36.2103 136.244 36.2123C135.794 36.2769 135.339 36.3063 134.884 36.3002Z" fill="#263238"/>
<path d="M125.48 21.9101C125.576 21.4248 124.353 21.6273 124.296 22.0591C124.238 22.4909 124.078 22.2501 123.6 22.8806C123.123 23.5111 123.058 24.2524 124.624 24.7415C125.618 25.051 125.771 24.2868 126.279 23.9047C126.558 23.6983 126.871 23.5913 127.074 23.4347C127.124 23.3959 127.161 23.3431 127.18 23.2831C127.2 23.2231 127.201 23.1586 127.184 23.0978C127.167 23.0371 127.132 22.9829 127.084 22.9422C127.035 22.9014 126.976 22.876 126.913 22.8691C126.271 22.8157 125.381 22.3877 125.48 21.9101Z" fill="#E23E2B"/>
<path d="M117.055 31.5468C116.883 31.8775 116.644 32.1686 116.353 32.4015C116.062 32.6345 115.726 32.8041 115.366 32.8995C114.468 33.0982 114.128 32.0626 114.468 31.0539C114.774 30.1521 115.614 28.9561 116.47 29.2159C117.326 29.4758 117.54 30.6718 117.055 31.5468Z" fill="#FF8B7B"/>
<path d="M133.405 147.558C136.374 147.115 136.431 146.622 138.025 146.064C139.389 145.583 139.771 145.652 140.872 145.281C141.792 144.971 141.479 144.096 140.872 143.164C140.57 142.698 140.524 142.255 140.191 141.426L135.679 142.094C135.243 143.355 135.086 144.968 132.511 145.889C130.979 146.439 132.209 147.734 133.405 147.558Z" fill="#263238"/>
<path d="M105.886 147.57C108.84 147.57 109.405 147.375 111.067 147.318C112.489 147.268 112.722 147.57 114.162 147.57C115.118 147.57 115.251 146.492 114.9 145.686C114.628 145.059 114.586 144.307 114.388 143.493H110.318C109.585 144.78 107.582 145.736 105.351 145.896C103.746 146.015 104.697 147.57 105.886 147.57Z" fill="#263238"/>
<path d="M109.336 67.1095C109.336 67.1095 108.748 88.347 110.009 101.835C109.929 114.495 110.318 143.485 110.318 143.485C110.418 144.131 113.811 143.867 114.388 143.485C114.388 143.485 120.75 122.366 117.926 101.835C124.991 80.4145 123.467 67.1095 123.467 67.1095H109.336Z" fill="#263238"/>
<path d="M113.574 67.1095C113.574 67.1095 120.475 91.0791 123.272 102.852C126.214 115.213 134.957 133.902 135.683 142.094C136.447 142.396 138.888 142.06 140.195 141.426C140.195 141.426 138.999 115.301 131.892 103.398C133.497 74.1135 125.549 67.098 125.549 67.098L113.574 67.1095Z" fill="#263238"/>
<path d="M135.094 140.455C135.164 141.016 135.193 141.582 135.182 142.148C135.178 142.197 135.185 142.246 135.201 142.292C135.217 142.338 135.243 142.381 135.276 142.417C135.31 142.452 135.35 142.481 135.395 142.501C135.44 142.52 135.488 142.53 135.537 142.53C137.226 142.53 139.561 141.812 140.298 141.559C140.367 141.537 140.427 141.493 140.469 141.435C140.512 141.377 140.535 141.307 140.535 141.235V139.633C140.535 139.582 140.523 139.532 140.502 139.485C140.48 139.439 140.448 139.398 140.409 139.365C140.37 139.332 140.324 139.308 140.274 139.294C140.225 139.28 140.173 139.278 140.123 139.286L135.369 140.084C135.286 140.101 135.211 140.148 135.16 140.217C135.109 140.285 135.086 140.37 135.094 140.455Z" fill="#E23E2B"/>
<path d="M109.852 141.708C109.852 142.148 109.814 142.931 109.772 143.508C109.771 143.6 109.803 143.69 109.863 143.76C109.923 143.83 110.006 143.876 110.097 143.89C111.592 144.013 113.095 143.996 114.586 143.84C114.658 143.834 114.725 143.805 114.779 143.756C114.832 143.708 114.868 143.644 114.881 143.573L115.186 141.995C115.193 141.943 115.19 141.891 115.176 141.841C115.162 141.791 115.138 141.745 115.105 141.704C115.073 141.664 115.032 141.631 114.986 141.606C114.941 141.582 114.89 141.567 114.839 141.563L110.2 141.38C110.155 141.377 110.11 141.384 110.068 141.399C110.026 141.414 109.988 141.438 109.955 141.469C109.922 141.5 109.897 141.537 109.879 141.578C109.861 141.619 109.852 141.664 109.852 141.708Z" fill="#E23E2B"/>
<path d="M108.419 48.0232C108.329 50.4957 108.365 52.9711 108.526 55.4399C108.652 58.6611 108.874 61.8287 109.336 67.1095H125.549C125.224 62.5433 125.755 57.339 128.667 47.0641C128.839 46.5267 128.889 45.9577 128.812 45.3986C128.736 44.8396 128.535 44.3047 128.225 43.8332C127.915 43.3617 127.504 42.9655 127.021 42.6736C126.538 42.3818 125.996 42.2016 125.434 42.1464C124.793 42.0814 124.109 42.0279 123.409 41.9936C120.959 41.8195 118.5 41.8195 116.05 41.9936C115.247 42.0662 114.418 42.1693 113.627 42.2801C112.229 42.4878 110.946 43.1735 109.997 44.2206C109.047 45.2677 108.49 46.6114 108.419 48.0232Z" fill="#E23E2B"/>
<path opacity="0.2" d="M119.267 82.5351C119.267 82.5351 123.726 78.3816 125.927 75.5464C125.752 78.5192 123.096 81.1863 119.267 82.5351Z" fill="black"/>
<path d="M94.6672 48.0003L95.7447 48.5467C95.9468 48.6471 96.1217 48.7946 96.2547 48.9769C96.3877 49.1591 96.4749 49.3706 96.509 49.5937L96.8261 51.6953C96.892 52.1107 96.857 52.5359 96.724 52.9349C96.591 53.3339 96.3639 53.6951 96.0619 53.9879L95.6798 54.37C93.8304 53.5829 92.4089 51.3705 92.4089 51.3705L91.9351 50.7858C91.8335 50.6685 91.7563 50.5321 91.708 50.3846C91.6596 50.2371 91.6412 50.0814 91.6536 49.9267C91.6661 49.772 91.7092 49.6213 91.7805 49.4834C91.8518 49.3456 91.9498 49.2233 92.0689 49.1237L93.2152 48.1684C93.4152 48.0034 93.6587 47.8997 93.9164 47.8699C94.174 47.8401 94.4347 47.8853 94.6672 48.0003Z" fill="#FF8B7B"/>
<path d="M114.021 48.3824C113.902 48.711 113.815 48.9403 113.711 49.204C113.608 49.4676 113.497 49.7045 113.39 49.9682C113.176 50.4649 112.94 50.9426 112.699 51.4202C112.212 52.3759 111.674 53.3045 111.086 54.2019C110.796 54.6528 110.486 55.0961 110.173 55.5355C109.86 55.9749 109.524 56.4029 109.168 56.8194C108.47 57.6729 107.715 58.4772 106.906 59.2266L106.799 59.3298C106.702 59.422 106.596 59.5039 106.482 59.5744C106.014 59.8651 105.496 60.0648 104.954 60.1628C104.502 60.2457 104.042 60.2637 103.586 60.2163C102.891 60.1331 102.214 59.945 101.576 59.6584C100.583 59.201 99.6547 58.6166 98.8131 57.9198C98.0473 57.2943 97.3248 56.6177 96.6504 55.8947C95.9837 55.1881 95.3621 54.4402 94.7895 53.6555C94.5912 53.3837 94.4946 53.0509 94.5164 52.7152C94.5383 52.3795 94.6774 52.0621 94.9093 51.8183C95.1412 51.5746 95.4513 51.42 95.7855 51.3814C96.1198 51.3429 96.4569 51.4229 96.7382 51.6074L96.8032 51.6494C97.5139 52.1118 98.2667 52.6162 99.0003 53.0671C99.734 53.518 100.475 53.9574 101.201 54.328C101.851 54.6788 102.538 54.9569 103.249 55.1572C103.455 55.2217 103.673 55.2425 103.887 55.2183C103.937 55.2183 103.933 55.1801 103.887 55.1801C103.797 55.183 103.708 55.2065 103.628 55.2489L103.207 55.6004C103.765 54.9279 104.308 54.2401 104.808 53.5027C105.309 52.7652 105.794 52.0086 106.241 51.21C106.688 50.4114 107.124 49.6243 107.525 48.8066C107.728 48.4015 107.907 47.9889 108.11 47.58L108.381 46.9686L108.626 46.4146L108.691 46.2694C108.991 45.5935 109.542 45.0601 110.227 44.7808C110.912 44.5015 111.679 44.498 112.366 44.7709C113.054 45.0439 113.609 45.5722 113.916 46.2454C114.223 46.9185 114.258 47.6842 114.013 48.3824H114.021Z" fill="#FF8B7B"/>
<path d="M114.074 42.219C111.426 42.5629 108.851 44.2059 106.57 49.4561C107.502 51.4583 112.042 53.4568 112.042 53.4568C112.042 53.4568 117.277 46.9992 114.074 42.219Z" fill="#D63825"/>
</svg>
