<svg width="202" height="150" viewBox="0 0 202 150" fill="none" xmlns="http://www.w3.org/2000/svg">
<path d="M201.31 131.818H0V131.918H201.31V131.818Z" fill="#EBEBEB"/>
<path d="M55.4246 134.56H42.0899V134.66H55.4246V134.56Z" fill="#EBEBEB"/>
<path d="M85.3111 138.248H68.9043V138.348H85.3111V138.248Z" fill="#EBEBEB"/>
<path d="M41.6872 136.987H21.1214V137.088H41.6872V136.987Z" fill="#EBEBEB"/>
<path d="M181.139 135.236H143.639V135.337H181.139V135.236Z" fill="#EBEBEB"/>
<path d="M140.055 135.236H137.507V135.337H140.055V135.236Z" fill="#EBEBEB"/>
<path d="M128.613 136.935H111.61V137.036H128.613V136.935Z" fill="#EBEBEB"/>
<path d="M95.4209 113.861H17.679C17.07 113.86 16.4863 113.617 16.056 113.186C15.6258 112.755 15.3841 112.171 15.3841 111.562V2.27883C15.3894 1.6733 15.6334 1.09431 16.0631 0.667631C16.4928 0.240951 17.0735 0.0010373 17.679 0H95.4209C96.0306 0 96.6153 0.242211 97.0465 0.673349C97.4776 1.10449 97.7198 1.68924 97.7198 2.29896V111.562C97.7198 112.172 97.4776 112.756 97.0465 113.188C96.6153 113.619 96.0306 113.861 95.4209 113.861ZM17.679 0.0805242C17.0967 0.0815908 16.5386 0.313667 16.1272 0.725813C15.7158 1.13796 15.4847 1.6965 15.4847 2.27883V111.562C15.4847 112.144 15.7158 112.703 16.1272 113.115C16.5386 113.527 17.0967 113.759 17.679 113.76H95.4209C96.0032 113.758 96.5612 113.526 96.973 113.114C97.3848 112.702 97.6171 112.144 97.6192 111.562V2.27883C97.6171 1.69645 97.3848 1.13854 96.973 0.726736C96.5612 0.314933 96.0032 0.0826458 95.4209 0.0805242H17.679Z" fill="#EBEBEB"/>
<path d="M182.512 113.861H104.766C104.157 113.859 103.573 113.616 103.142 113.185C102.712 112.754 102.469 112.171 102.467 111.562V2.27883C102.473 1.67293 102.718 1.09395 103.148 0.667379C103.579 0.24081 104.16 0.00102599 104.766 0H182.512C183.116 0.00209543 183.696 0.242477 184.125 0.669044C184.554 1.09561 184.797 1.67399 184.802 2.27883V111.562C184.803 111.863 184.744 112.162 184.629 112.44C184.514 112.719 184.346 112.972 184.133 113.186C183.92 113.399 183.668 113.569 183.389 113.685C183.111 113.8 182.813 113.86 182.512 113.861ZM104.766 0.0805242C104.183 0.0826458 103.625 0.314933 103.214 0.726736C102.802 1.13854 102.569 1.69645 102.567 2.27883V111.562C102.569 112.144 102.802 112.702 103.214 113.114C103.625 113.526 104.183 113.758 104.766 113.76H182.512C183.094 113.758 183.652 113.526 184.064 113.114C184.475 112.702 184.708 112.144 184.71 111.562V2.27883C184.708 1.69645 184.475 1.13854 184.064 0.726736C183.652 0.314933 183.094 0.0826458 182.512 0.0805242H104.766Z" fill="#EBEBEB"/>
<path d="M28.4532 46.7441H63.3844C63.3844 46.7441 61.5042 42.3716 55.2233 43.7325C55.2233 43.7325 53.9027 38.7601 49.1116 39.4486C49.1116 39.4486 45.1458 35.1486 39.3601 36.8155C33.5745 38.4823 34.0737 43.7325 34.0737 43.7325C34.0737 43.7325 29.7939 42.6132 28.4532 46.7441Z" fill="#FAFAFA"/>
<path d="M121.949 20.1068H87.0222C87.0222 20.1068 88.8984 15.7303 95.1793 17.0912C95.1793 17.0912 96.4999 12.1188 101.295 12.8073C101.295 12.8073 105.261 8.51134 111.043 10.1782C116.824 11.845 116.333 17.0912 116.333 17.0912C116.333 17.0912 120.629 15.9759 121.949 20.1068Z" fill="#FAFAFA"/>
<path d="M147.709 18.9674H174.431C174.431 18.9674 173.408 15.2995 169.543 16.5074C169.543 16.5074 170.348 11.5712 167.498 10.9995C164.647 10.4278 163.741 14.1842 163.741 14.1842C163.089 13.445 162.243 12.9025 161.299 12.618C160.355 12.3335 159.351 12.3181 158.399 12.5738C157.462 12.8176 156.609 13.3094 155.929 13.9974C155.249 14.6854 154.767 15.5442 154.533 16.4832C154.533 16.4832 149.775 13.7575 147.709 18.9674Z" fill="#FAFAFA"/>
<path d="M51.0119 67.3059H18.5044V131.713H51.0119V67.3059Z" fill="#E6E6E6"/>
<path d="M45.1014 67.3059H18.5044V131.713H45.1014V67.3059Z" fill="#F0F0F0"/>
<path d="M51.3944 67.3059H17.8038V68.3567H51.3944V67.3059Z" fill="#E0E0E0"/>
<path d="M51.3944 65.2042H17.8038V66.2551H51.3944V65.2042Z" fill="#E0E0E0"/>
<path d="M50.6898 66.2551H18.5044V67.306H50.6898V66.2551Z" fill="#F0F0F0"/>
<path d="M26.0253 71.0946H21.0288V76.1676H26.0253V71.0946Z" fill="#E6E6E6"/>
<path d="M26.0213 71.0946H21.4677V76.1676H26.0213V71.0946Z" fill="#F5F5F5"/>
<path d="M33.5906 71.0946H28.5941V76.1676H33.5906V71.0946Z" fill="#E6E6E6"/>
<path d="M33.5865 71.0946H29.0329V76.1676H33.5865V71.0946Z" fill="#F5F5F5"/>
<path d="M41.1558 71.0946H36.1593V76.1676H41.1558V71.0946Z" fill="#E6E6E6"/>
<path d="M41.1518 71.0946H36.5981V76.1676H41.1518V71.0946Z" fill="#F5F5F5"/>
<path d="M26.0253 78.5632H21.0288V83.6362H26.0253V78.5632Z" fill="#E6E6E6"/>
<path d="M26.0213 78.5632H21.4677V83.6362H26.0213V78.5632Z" fill="#F5F5F5"/>
<path d="M33.5906 78.5632H28.5941V83.6362H33.5906V78.5632Z" fill="#E6E6E6"/>
<path d="M33.5865 78.5632H29.0329V83.6362H33.5865V78.5632Z" fill="#F5F5F5"/>
<path d="M41.1558 78.5632H36.1593V83.6362H41.1558V78.5632Z" fill="#E6E6E6"/>
<path d="M41.1518 78.5632H36.5981V83.6362H41.1518V78.5632Z" fill="#F5F5F5"/>
<path d="M26.0253 92.2401H21.0288V97.3131H26.0253V92.2401Z" fill="#E6E6E6"/>
<path d="M26.0213 92.2401H21.4677V97.3131H26.0213V92.2401Z" fill="#F5F5F5"/>
<path d="M33.5906 92.2401H28.5941V97.3131H33.5906V92.2401Z" fill="#E6E6E6"/>
<path d="M33.5865 92.2401H29.0329V97.3131H33.5865V92.2401Z" fill="#F5F5F5"/>
<path d="M41.1558 92.2401H36.1593V97.3131H41.1558V92.2401Z" fill="#E6E6E6"/>
<path d="M41.1518 92.2401H36.5981V97.3131H41.1518V92.2401Z" fill="#F5F5F5"/>
<path d="M26.0253 99.7087H21.0288V104.782H26.0253V99.7087Z" fill="#E6E6E6"/>
<path d="M26.0213 99.7087H21.4677V104.782H26.0213V99.7087Z" fill="#F5F5F5"/>
<path d="M33.5906 99.7087H28.5941V104.782H33.5906V99.7087Z" fill="#E6E6E6"/>
<path d="M33.5865 99.7087H29.0329V104.782H33.5865V99.7087Z" fill="#F5F5F5"/>
<path d="M41.1558 99.7087H36.1593V104.782H41.1558V99.7087Z" fill="#E6E6E6"/>
<path d="M41.1518 99.7087H36.5981V104.782H41.1518V99.7087Z" fill="#F5F5F5"/>
<path d="M26.0253 114.908H21.0288V119.981H26.0253V114.908Z" fill="#E6E6E6"/>
<path d="M26.0213 114.908H21.4677V119.981H26.0213V114.908Z" fill="#F5F5F5"/>
<path d="M33.5906 114.908H28.5941V119.981H33.5906V114.908Z" fill="#E6E6E6"/>
<path d="M33.5865 114.908H29.0329V119.981H33.5865V114.908Z" fill="#F5F5F5"/>
<path d="M41.1558 114.908H36.1593V119.981H41.1558V114.908Z" fill="#E6E6E6"/>
<path d="M41.1518 114.908H36.5981V119.981H41.1518V114.908Z" fill="#F5F5F5"/>
<path d="M26.0253 122.376H21.0288V127.449H26.0253V122.376Z" fill="#E6E6E6"/>
<path d="M26.0213 122.376H21.4677V127.449H26.0213V122.376Z" fill="#F5F5F5"/>
<path d="M33.5906 122.376H28.5941V127.449H33.5906V122.376Z" fill="#E6E6E6"/>
<path d="M33.5865 122.376H29.0329V127.449H33.5865V122.376Z" fill="#F5F5F5"/>
<path d="M41.1558 122.376H36.1593V127.449H41.1558V122.376Z" fill="#E6E6E6"/>
<path d="M41.1518 122.376H36.5981V127.449H41.1518V122.376Z" fill="#F5F5F5"/>
<path d="M51.0119 87.2034H18.5044V87.6744H51.0119V87.2034Z" fill="#E0E0E0"/>
<path d="M51.0119 110.579H18.5044V111.051H51.0119V110.579Z" fill="#E0E0E0"/>
<path d="M178.844 54.0155H146.727V132.168H178.844V54.0155Z" fill="#E0E0E0"/>
<path d="M169.696 54.0155H146.727V132.168H169.696V54.0155Z" fill="#F0F0F0"/>
<path d="M157.642 60.4373H149.094V64.5883H157.642V60.4373Z" fill="#E6E6E6"/>
<path d="M157.642 60.4373H149.662V64.5883H157.642V60.4373Z" fill="#F5F5F5"/>
<path d="M167.53 60.4373H158.982V64.5883H167.53V60.4373Z" fill="#E6E6E6"/>
<path d="M167.53 60.4373H159.55V64.5883H167.53V60.4373Z" fill="#F5F5F5"/>
<path d="M157.642 68.248H149.094V72.3991H157.642V68.248Z" fill="#E6E6E6"/>
<path d="M157.642 68.248H149.662V72.3991H157.642V68.248Z" fill="#F5F5F5"/>
<path d="M167.53 68.248H158.982V72.3991H167.53V68.248Z" fill="#E6E6E6"/>
<path d="M167.53 68.248H159.55V72.3991H167.53V68.248Z" fill="#F5F5F5"/>
<path d="M157.642 78.229H149.094V82.38H157.642V78.229Z" fill="#E6E6E6"/>
<path d="M157.642 78.229H149.662V82.38H157.642V78.229Z" fill="#F5F5F5"/>
<path d="M167.53 78.229H158.982V82.38H167.53V78.229Z" fill="#E6E6E6"/>
<path d="M167.53 78.229H159.55V82.38H167.53V78.229Z" fill="#F5F5F5"/>
<path d="M157.642 83.9663H149.094V88.1173H157.642V83.9663Z" fill="#E6E6E6"/>
<path d="M157.642 83.9663H149.662V88.1173H157.642V83.9663Z" fill="#F5F5F5"/>
<path d="M167.53 83.9663H158.982V88.1173H167.53V83.9663Z" fill="#E6E6E6"/>
<path d="M167.53 83.9663H159.55V88.1173H167.53V83.9663Z" fill="#F5F5F5"/>
<path d="M157.642 93.3916H149.094V97.5426H157.642V93.3916Z" fill="#E6E6E6"/>
<path d="M157.642 93.3916H149.662V97.5426H157.642V93.3916Z" fill="#F5F5F5"/>
<path d="M167.53 93.3916H158.982V97.5426H167.53V93.3916Z" fill="#E6E6E6"/>
<path d="M167.53 93.3916H159.55V97.5426H167.53V93.3916Z" fill="#F5F5F5"/>
<path d="M157.642 99.125H149.094V103.276H157.642V99.125Z" fill="#E6E6E6"/>
<path d="M157.642 99.125H149.662V103.276H157.642V99.125Z" fill="#F5F5F5"/>
<path d="M167.53 99.125H158.982V103.276H167.53V99.125Z" fill="#E6E6E6"/>
<path d="M167.53 99.125H159.55V103.276H167.53V99.125Z" fill="#F5F5F5"/>
<path d="M157.642 109.384H149.094V113.535H157.642V109.384Z" fill="#E6E6E6"/>
<path d="M157.642 109.384H149.662V113.535H157.642V109.384Z" fill="#F5F5F5"/>
<path d="M167.53 109.384H158.982V113.535H167.53V109.384Z" fill="#E6E6E6"/>
<path d="M167.53 109.384H159.55V113.535H167.53V109.384Z" fill="#F5F5F5"/>
<path d="M157.642 116.957H149.094V121.108H157.642V116.957Z" fill="#E6E6E6"/>
<path d="M157.642 116.957H149.662V121.108H157.642V116.957Z" fill="#F5F5F5"/>
<path d="M167.53 116.957H158.982V121.108H167.53V116.957Z" fill="#E6E6E6"/>
<path d="M167.53 116.957H159.55V121.108H167.53V116.957Z" fill="#F5F5F5"/>
<path opacity="0.05" d="M178.844 74.9557H146.727V75.6683H178.844V74.9557Z" fill="black"/>
<path opacity="0.05" d="M178.844 90.3962H146.727V91.1089H178.844V90.3962Z" fill="black"/>
<path opacity="0.05" d="M178.844 105.974H146.727V106.686H178.844V105.974Z" fill="black"/>
<path d="M178.844 51.7045H145.213V54.2007H178.844V51.7045Z" fill="#E0E0E0"/>
<path opacity="0.05" d="M178.844 51.7045H171.158V54.2007H178.844V51.7045Z" fill="black"/>
<path d="M100.985 36.4692H64.6768V130.835H100.985V36.4692Z" fill="#E6E6E6"/>
<path d="M87.5497 36.4692H51.2374V130.835H87.5497V36.4692Z" fill="#F0F0F0"/>
<path d="M84.381 42.875H54.406V47.6823H84.381V42.875Z" fill="#E6E6E6"/>
<path d="M84.381 42.875H55.5696V47.6823H84.381V42.875Z" fill="#F5F5F5"/>
<path d="M84.381 50.9677H54.406V55.7749H84.381V50.9677Z" fill="#E6E6E6"/>
<path d="M84.381 50.9677H55.5696V55.7749H84.381V50.9677Z" fill="#F5F5F5"/>
<path d="M84.381 59.3743H54.406V64.1815H84.381V59.3743Z" fill="#E6E6E6"/>
<path d="M84.381 59.3743H55.5696V64.1815H84.381V59.3743Z" fill="#F5F5F5"/>
<path d="M84.381 67.785H54.406V72.5923H84.381V67.785Z" fill="#E6E6E6"/>
<path d="M84.381 67.785H55.5696V72.5923H84.381V67.785Z" fill="#F5F5F5"/>
<path d="M84.381 76.1918H54.406V80.999H84.381V76.1918Z" fill="#E6E6E6"/>
<path d="M84.381 76.1918H55.5696V80.999H84.381V76.1918Z" fill="#F5F5F5"/>
<path d="M84.381 84.6025H54.406V89.4098H84.381V84.6025Z" fill="#E6E6E6"/>
<path d="M84.381 84.6025H55.5696V89.4098H84.381V84.6025Z" fill="#F5F5F5"/>
<path d="M84.381 93.8708H54.406V98.6781H84.381V93.8708Z" fill="#E6E6E6"/>
<path d="M84.381 93.8708H55.5696V98.6781H84.381V93.8708Z" fill="#F5F5F5"/>
<path d="M84.381 103.135H54.406V107.942H84.381V103.135Z" fill="#E6E6E6"/>
<path d="M84.381 103.135H55.5696V107.942H84.381V103.135Z" fill="#F5F5F5"/>
<path d="M84.381 112.403H54.406V117.211H84.381V112.403Z" fill="#E6E6E6"/>
<path d="M84.381 112.403H55.5696V117.211H84.381V112.403Z" fill="#F5F5F5"/>
<path d="M84.381 121.672H54.406V126.479H84.381V121.672Z" fill="#E6E6E6"/>
<path d="M84.381 121.672H55.5696V126.479H84.381V121.672Z" fill="#F5F5F5"/>
<path d="M101.931 35.519H50.2107V37.822H101.931V35.519Z" fill="#F5F5F5"/>
<path d="M101.931 31.3641H50.2107V33.6671H101.931V31.3641Z" fill="#F5F5F5"/>
<path d="M100.212 33.2161H51.2374V35.519H100.212V33.2161Z" fill="#F0F0F0"/>
<path d="M100.989 42.875H90.8712V47.6823H100.989V42.875Z" fill="#E0E0E0"/>
<path d="M100.989 50.7865H90.8712V55.5938H100.989V50.7865Z" fill="#E0E0E0"/>
<path d="M100.989 58.6979H90.8712V63.5052H100.989V58.6979Z" fill="#E0E0E0"/>
<path d="M100.989 67.781H90.8712V72.5883H100.989V67.781Z" fill="#E0E0E0"/>
<path d="M100.989 76.1918H90.8712V80.999H100.989V76.1918Z" fill="#E0E0E0"/>
<path d="M100.989 84.6025H90.8712V89.4098H100.989V84.6025Z" fill="#E0E0E0"/>
<path d="M100.989 93.8667H90.8712V98.674H100.989V93.8667Z" fill="#E0E0E0"/>
<path d="M100.989 103.135H90.8712V107.942H100.989V103.135Z" fill="#E0E0E0"/>
<path d="M100.989 112.403H90.8712V117.211H100.989V112.403Z" fill="#E0E0E0"/>
<path d="M100.989 121.672H90.8712V126.479H100.989V121.672Z" fill="#E0E0E0"/>
<path d="M147.661 69.4479H143.667V75.6965H147.661V69.4479Z" fill="#E0E0E0"/>
<path d="M147.661 79.6744H143.667V85.9231H147.661V79.6744Z" fill="#E0E0E0"/>
<path d="M147.661 89.6151H143.667V95.8638H147.661V89.6151Z" fill="#E0E0E0"/>
<path d="M147.661 100.123H143.667V106.372H147.661V100.123Z" fill="#E0E0E0"/>
<path d="M147.661 110.35H143.667V116.599H147.661V110.35Z" fill="#E0E0E0"/>
<path d="M147.661 63.167H105.631V127.087H147.661V63.167Z" fill="#E6E6E6"/>
<path d="M140.563 63.167H105.635V127.087H140.563V63.167Z" fill="#F0F0F0"/>
<path d="M137.177 69.4519H108.776V75.7006H137.177V69.4519Z" fill="#EBEBEB"/>
<path d="M137.177 79.6744H108.776V85.9231H137.177V79.6744Z" fill="#EBEBEB"/>
<path d="M137.177 89.901H108.776V96.1497H137.177V89.901Z" fill="#EBEBEB"/>
<path d="M137.177 100.123H108.776V106.372H137.177V100.123Z" fill="#EBEBEB"/>
<path d="M137.177 110.35H108.776V116.599H137.177V110.35Z" fill="#EBEBEB"/>
<path d="M137.177 69.4519H109.823V75.7006H137.177V69.4519Z" fill="#F5F5F5"/>
<path d="M137.177 79.6744H109.823V85.9231H137.177V79.6744Z" fill="#F5F5F5"/>
<path d="M137.177 89.901H109.823V96.1497H137.177V89.901Z" fill="#F5F5F5"/>
<path d="M137.177 100.123H109.823V106.372H137.177V100.123Z" fill="#F5F5F5"/>
<path d="M137.177 110.35H109.823V116.599H137.177V110.35Z" fill="#F5F5F5"/>
<path d="M100.655 150C143.768 150 178.719 147.959 178.719 145.442C178.719 142.925 143.768 140.885 100.655 140.885C57.5414 140.885 22.591 142.925 22.591 145.442C22.591 147.959 57.5414 150 100.655 150Z" fill="#F5F5F5"/>
<path d="M56.2581 145.442H54.6476" stroke="#E23E2B" stroke-linecap="round" stroke-linejoin="round"/>
<path d="M51.6038 145.442H10.4762" stroke="#E23E2B" stroke-linecap="round" stroke-linejoin="round" stroke-dasharray="7.57 7.57"/>
<path d="M8.95426 145.442H7.34378" stroke="#E23E2B" stroke-linecap="round" stroke-linejoin="round"/>
<path d="M152.092 49.0676L105.636 49.8379L106.192 83.3755L152.648 82.6052L152.092 49.0676Z" fill="#EEB301"/>
<path opacity="0.3" d="M133.677 49.3689L105.59 49.8346L106.146 83.3722L134.233 82.9065L133.677 49.3689Z" fill="white"/>
<path opacity="0.3" d="M137.91 51.6288L129.821 51.7905L129.866 54.0452L137.955 53.8834L137.91 51.6288Z" fill="white"/>
<path opacity="0.3" d="M138.15 77.7081L130.062 77.8422L130.1 80.0965L138.187 79.9624L138.15 77.7081Z" fill="white"/>
<path d="M143.542 70.535C146.164 70.535 148.289 68.1303 148.289 65.164C148.289 62.1978 146.164 59.7931 143.542 59.7931C140.92 59.7931 138.795 62.1978 138.795 65.164C138.795 68.1303 140.92 70.535 143.542 70.535Z" stroke="white" stroke-miterlimit="10"/>
<path d="M143.739 60.6104V61.5122" stroke="white" stroke-linecap="round" stroke-linejoin="round"/>
<path d="M143.945 68.8721V69.7739" stroke="white" stroke-linecap="round" stroke-linejoin="round"/>
<path d="M139.54 64.9868H140.446" stroke="white" stroke-linecap="round" stroke-linejoin="round"/>
<path d="M146.811 64.9908H147.717" stroke="white" stroke-linecap="round" stroke-linejoin="round"/>
<path d="M143.735 64.9868L143.739 62.2087" stroke="white" stroke-width="0.5" stroke-linecap="round" stroke-linejoin="round"/>
<path d="M143.912 65.168L145.877 67.1328" stroke="white" stroke-width="0.5" stroke-linecap="round" stroke-linejoin="round"/>
<path d="M144.174 64.9909C144.174 65.0777 144.148 65.1625 144.1 65.2347C144.052 65.3069 143.983 65.3631 143.903 65.3963C143.823 65.4295 143.735 65.4382 143.65 65.4213C143.564 65.4044 143.486 65.3626 143.425 65.3012C143.363 65.2398 143.322 65.1616 143.305 65.0765C143.288 64.9914 143.297 64.9031 143.33 64.8229C143.363 64.7427 143.419 64.6742 143.491 64.626C143.564 64.5778 143.648 64.552 143.735 64.552C143.793 64.5515 143.85 64.5625 143.904 64.5843C143.957 64.6062 144.006 64.6385 144.047 64.6794C144.088 64.7202 144.12 64.7688 144.142 64.8223C144.164 64.8758 144.175 64.9331 144.174 64.9909Z" fill="white"/>
<path opacity="0.3" d="M143.542 71.9562C147.013 71.9562 149.827 68.9152 149.827 65.164C149.827 61.4128 147.013 58.3718 143.542 58.3718C140.071 58.3718 137.257 61.4128 137.257 65.164C137.257 68.9152 140.071 71.9562 143.542 71.9562Z" fill="white"/>
<path d="M91.3463 124.067C92.0469 124.603 106.11 123.089 102.475 98.1385C102.475 98.1385 109.146 99.8336 109.863 99.7208C109.863 99.7208 119.65 114.726 112.524 122.159C105.398 129.591 94.7766 130.046 94.7766 130.046L91.3463 124.067Z" fill="#E23E2B"/>
<path opacity="0.3" d="M91.3463 124.067C92.0469 124.603 106.11 123.089 102.475 98.1385C102.475 98.1385 109.146 99.8336 109.863 99.7208C109.863 99.7208 119.65 114.726 112.524 122.159C105.398 129.591 94.7766 130.046 94.7766 130.046L91.3463 124.067Z" fill="black"/>
<path d="M106.932 102C106.968 102 103.002 102.076 101.674 100.425C100.345 98.7747 99.447 95.8235 101.863 93.8104C104.278 91.7973 118.463 83.1007 125.142 82.4162C131.822 81.7318 138.972 86.0398 138.972 86.0398L130.227 92.5059L111.397 97.0635L106.932 102Z" fill="#263238"/>
<path d="M94.1083 120.138L94.4747 123.745L98.8069 123.379L98.1547 119.671L94.1083 120.138Z" fill="#FFC3BD"/>
<path d="M93.2668 123.483L99.5517 123.395L99.9986 126.568C99.9986 126.568 94.1123 126.648 91.6926 126.326C89.2728 126.004 89.6513 124.744 89.6513 124.744C89.6513 124.744 92.4857 124.812 93.2668 123.483Z" fill="#263238"/>
<path d="M148.115 132.615C149.053 123.392 143.485 115.272 135.679 114.478C127.872 113.683 120.782 120.516 119.844 129.738C118.905 138.961 124.473 147.081 132.28 147.876C140.087 148.67 147.176 141.838 148.115 132.615Z" fill="#263238"/>
<path d="M124.103 79.8355C124.103 79.8355 124.756 94.8008 116.051 95.2276C107.346 95.6544 97.9936 94.7002 97.9936 94.7002L100.735 121.591L92.5743 122.094C92.5743 122.094 86.7162 99.282 85.7942 93.5487C84.8722 87.8154 85.6734 83.761 91.7248 81.2164C97.7762 78.6719 124.103 79.8355 124.103 79.8355Z" fill="black"/>
<path d="M75.3905 127.316L86.2331 95.8235L100.727 79.8234C100.727 79.8234 88.0771 79.8717 81.9975 83.3664C75.9179 86.8612 75.6925 91.0605 74.5772 96.057C73.462 101.053 68.9889 124.703 68.9889 124.703L75.3905 127.316Z" fill="black"/>
<path opacity="0.7" d="M124.103 79.8355C124.103 79.8355 110.632 79.2356 100.752 79.8355C100.752 79.8355 88.1012 79.8838 82.0217 83.3785C75.9421 86.8733 75.6925 91.0605 74.5772 96.057C73.462 101.054 68.9889 124.703 68.9889 124.703L75.3905 127.316L86.2331 95.8235C88.0569 104.552 92.5743 122.078 92.5743 122.078L100.735 121.591L97.9896 94.7163C97.9896 94.7163 107.338 95.6705 116.047 95.2437C124.756 94.817 124.103 79.8355 124.103 79.8355Z" fill="black"/>
<path d="M101.863 55.5615L96.8582 56.1695C96.8582 56.1695 95.9885 65.3693 95.1793 67.157C95.1793 67.157 79.7871 69.2707 73.4821 69.0895L70.2813 71.2637L70.1685 75.0443L73.3049 75.1369L74.3155 72.7413C74.3155 72.7413 76.4333 72.6487 76.9245 71.4569C76.9245 71.4569 93.2789 75.4066 99.3021 70.8973C99.3101 70.9013 102.942 65.5666 101.863 55.5615Z" fill="#FFC3BD"/>
<path d="M116.204 30.9252C116.204 30.9252 117.77 32.9383 117.174 34.6816C117.01 35.1788 116.72 35.6252 116.333 35.9778C115.946 36.3304 115.474 36.5773 114.964 36.6947C114.964 36.6947 114.67 39.4849 113.023 39.5654C111.377 39.6459 111.928 33.4174 111.928 33.4174L116.204 30.9252Z" fill="#263238"/>
<path d="M103.526 79.9039L102.426 61.9188L95.606 57.3853C95.606 57.3853 97.8366 49.5222 102.104 48.1895C106.372 46.8568 115.681 43.8009 121.325 45.3188C126.97 46.8367 126.322 53.496 125.352 58.4362L124.265 58.6938C124.265 58.6938 124.095 78.1605 124.087 79.8354L103.526 79.9039Z" fill="#263238"/>
<path d="M115.797 46.4301C113.563 48.5922 109.005 49.8806 107.745 48.8056C106.485 47.7306 108.075 46.7442 109.259 45.5283C109.899 44.8599 109.879 43.6078 109.73 42.6093C109.651 42.1062 109.536 41.6096 109.384 41.1236C105.2 40.8941 103.465 38.9374 103.292 35.4869C103.119 32.0365 104.681 28.0304 104.681 28.0304L107.636 25.51C107.636 25.51 111.662 26.1139 114.883 28.3283C116.8 29.6328 116.232 32.2015 115.439 34.0979C115.103 34.9051 114.699 35.6823 114.231 36.421C113.78 41.1437 115.797 46.4301 115.797 46.4301Z" fill="#FFC3BD"/>
<path d="M105.619 36.437C105.619 36.437 107.23 36.5135 107.934 35.515" stroke="#263238" stroke-linecap="round" stroke-linejoin="round"/>
<path d="M108.184 32.3625C108.184 32.6685 107.999 32.9101 107.781 32.9061C107.564 32.9021 107.407 32.6484 107.415 32.3424C107.423 32.0364 107.6 31.7949 107.817 31.7989C108.035 31.8029 108.196 32.0566 108.184 32.3625Z" fill="#263238"/>
<path d="M104.512 32.4592C104.512 32.7652 104.327 33.0068 104.109 33.0028C103.892 32.9987 103.735 32.7451 103.743 32.4391C103.751 32.1331 103.928 31.8915 104.146 31.8956C104.363 31.8996 104.524 32.1573 104.512 32.4592Z" fill="#263238"/>
<path d="M105.788 34.9594L105.623 32.4913L104.444 34.8346C104.628 34.9911 104.856 35.087 105.096 35.1093C105.337 35.1317 105.578 35.0793 105.788 34.9594Z" fill="#ED847E"/>
<path d="M107.991 30.4301C108.299 30.3452 108.628 30.3727 108.919 30.5076C109.209 30.6425 109.443 30.8761 109.577 31.1668" stroke="#263238" stroke-linecap="round" stroke-linejoin="round"/>
<path d="M103.377 30.8849C103.377 30.8849 104.117 30.0796 104.987 30.285" stroke="#263238" stroke-linecap="round" stroke-linejoin="round"/>
<path d="M115.467 34.0979C110.861 34.263 110.29 29.041 110.29 29.041C108.011 30.2488 104.697 28.0344 104.697 28.0344L107.652 25.506C107.652 25.506 111.679 26.118 114.9 28.3243C116.828 29.6328 116.26 32.2096 115.467 34.0979Z" fill="#263238"/>
<path d="M103.216 29.5644C103.216 29.5644 100.832 27.978 101.883 26.8346C102.934 25.6912 109.372 27.8653 114.183 30.5306C114.183 30.5306 103.163 23.1587 100.168 25.4898C97.6916 27.4184 103.183 30.0958 103.018 30.0918L103.216 29.5644Z" fill="#EEB301"/>
<path d="M116.659 29.0248C116.652 29.8597 116.494 30.6864 116.192 31.4647L105.37 26.2306C105.818 25.7129 106.355 25.2793 106.956 24.9503C107.596 24.5839 108.293 24.3255 109.017 24.1853C109.786 24.0385 110.572 24.0113 111.348 24.1048C115.306 24.5598 116.679 27.6036 116.659 29.0248Z" fill="#EEB301"/>
<path d="M68.7312 82.3236C68.7312 82.3236 56.5077 99.2336 66.5732 125.263" stroke="#263238" stroke-linecap="round" stroke-linejoin="round"/>
<path d="M84.8641 91.1089C84.8641 91.1089 84.8641 91.1411 84.8641 91.2055C84.8641 91.2699 84.8641 91.3061 84.8641 91.3786V91.4189C84.7187 93.0474 84.4496 94.6626 84.0589 96.2503C83.5033 98.5976 82.7665 100.832 82.1585 102.628C79.5818 110.257 79.8797 118.479 79.8797 118.479C79.0262 117.416 77.464 116.659 75.5113 116.128C68.401 114.175 56.3305 115.222 56.3305 115.222C53.9631 106.916 54.8086 93.9151 57.1639 86.6357C59.5192 79.3564 66.0497 80.9991 66.0497 80.9991C66.0497 80.9991 72.9426 81.2004 73.8082 81.1078C75.3925 80.9156 76.996 80.9481 78.5712 81.2044C83.8938 82.1787 85.1742 86.3861 84.8641 91.1089Z" fill="#E23E2B"/>
<path d="M137.933 122.799C125.855 133.702 102.539 134.845 85.1903 133.637L75.471 116.152L71.5334 109.07L84.1837 92.0187L84.8521 91.1208C84.8521 91.1208 84.8521 91.1531 84.8521 91.2175C84.8521 91.2819 84.8521 91.3181 84.8521 91.3906V91.4309C84.679 94.4706 83.5597 118.865 92.5019 124.848L92.5743 124.901C93.7843 125.683 95.1883 126.112 96.6287 126.141C113.035 126.616 112.576 105.204 108.405 100.619L136.875 94.8974C136.875 94.8974 142.495 109.05 137.933 122.799Z" fill="#E23E2B"/>
<path d="M106.267 95.9764C106.267 95.9764 103.598 98.1908 104.975 101.162C106.352 104.134 119.626 98.364 124.852 97.3131C130.078 96.2623 136.126 95.2356 138.727 94.7001C141.328 94.1646 141.102 86.7041 138.976 86.0438C136.85 85.3835 116.027 89.0634 112.572 91.0846C110.291 92.4699 108.176 94.1111 106.267 95.9764Z" fill="#263238"/>
<path d="M112.951 35.9419C112.697 35.6684 112.543 35.3168 112.515 34.9446C112.486 34.5724 112.584 34.2016 112.794 33.8925C113.438 32.9262 114.739 31.3923 115.987 32.5397C117.734 34.1502 114.751 37.0773 113.515 36.3686C113.308 36.2536 113.118 36.11 112.951 35.9419Z" fill="#FFC3BD"/>
<path opacity="0.2" d="M103.216 29.5644C103.216 29.5644 100.832 27.978 101.883 26.8346C102.35 26.3273 103.747 26.432 105.635 26.9715C106.85 27.2984 108.039 27.7114 109.194 28.2075C110.853 28.9282 112.617 29.8502 114.183 30.5306C114.183 30.5306 103.163 23.1587 100.168 25.4898C97.6916 27.4184 102.841 29.9187 103.022 30.0878L103.111 29.7616L103.216 29.5644Z" fill="black"/>
<path d="M104.347 28.8759C104.347 28.8759 101.931 29.2785 103.598 31.8794L104.347 28.8759Z" fill="#263238"/>
<path d="M106.662 27.2896C106.662 27.2896 103.018 26.0093 102.004 26.734C100.989 27.4587 102.052 28.8397 103.212 29.5523L104.142 29.6731L104.689 28.0224L106.106 27.8493L106.662 27.2896Z" fill="#263238"/>
<path opacity="0.3" d="M111.626 25.3207L110.753 26.6131L106.956 24.9624C107.596 24.596 108.293 24.3375 109.017 24.1974L111.626 25.3207Z" fill="white"/>
<path opacity="0.1" d="M110.781 40.7693C110.53 41.4375 110.169 42.0593 109.714 42.6093C109.635 42.1061 109.52 41.6096 109.368 41.1236C109.856 41.0895 110.334 40.9695 110.781 40.7693Z" fill="black"/>
<path d="M74.6859 76.1757C74.5248 78.9658 73.317 81.2487 71.8353 81.8123C71.5789 81.9111 71.3044 81.9536 71.0301 81.9371C69.2022 81.8325 67.8736 79.0906 68.0588 75.8173C68.244 72.544 69.8786 69.9753 71.7065 70.08C72.4514 70.1203 73.1076 70.5994 73.619 71.3684C74.3718 72.4716 74.7946 74.235 74.6859 76.1757Z" fill="#F5F5F5"/>
<path d="M74.686 76.1757C74.5249 78.9659 73.317 81.2487 71.8354 81.8124C70.1444 81.7158 68.9164 79.1833 69.0895 76.1757C69.2627 73.1681 70.7685 70.7806 72.4595 70.8772C72.8952 70.9098 73.3075 71.0869 73.6311 71.3805C74.3719 72.4716 74.7947 74.2351 74.686 76.1757Z" fill="white"/>
<path d="M139.938 115.725C136.826 113.539 124.784 111.393 124.784 111.393C117.468 111.393 111.046 117.976 110.161 126.717C109.436 133.827 112.576 140.281 117.637 143.224C117.637 143.224 118.06 143.401 118.769 143.679C121.45 144.738 128.254 147.302 132.277 147.866" fill="#263238"/>
<path opacity="0.3" d="M148.115 132.615C149.053 123.392 143.485 115.272 135.679 114.478C127.872 113.683 120.782 120.516 119.844 129.738C118.905 138.961 124.473 147.081 132.28 147.876C140.087 148.67 147.176 141.838 148.115 132.615Z" fill="black"/>
<path d="M85.5238 132.078C86.4623 122.856 80.8943 114.735 73.0875 113.941C65.2807 113.146 58.1913 119.979 57.2529 129.202C56.3145 138.424 61.8824 146.544 69.6892 147.339C77.496 148.133 84.5854 141.301 85.5238 132.078Z" fill="#263238"/>
<path d="M80.073 117.017L72.8741 147.242C71.8239 147.412 70.7558 147.443 69.6974 147.335H69.6169C68.2359 146.98 68.8519 147.363 67.4669 146.904C63.944 145.74 58.8267 143.683 58.8267 143.683C53.4034 141.046 50.3395 134.632 51.0843 127.304C51.9862 118.427 58.3556 111.795 65.8524 112.339C65.8524 112.339 69.4116 112.995 73.0754 113.949C74.6859 114.352 76.2964 114.831 77.621 115.33C78.498 115.801 79.3203 116.366 80.073 117.017Z" fill="#263238"/>
<path opacity="0.3" d="M85.5244 132.059C84.7192 140.011 79.3361 146.183 72.8661 147.226C71.8158 147.396 70.7477 147.427 69.6894 147.319H69.6089C68.1347 147.159 66.702 146.732 65.3814 146.058C59.942 143.3 56.4996 136.601 57.2525 129.193C58.1906 119.977 65.2646 113.152 73.0674 113.933H73.0875C74.6718 114.093 76.2093 114.562 77.6129 115.314C78.4901 115.786 79.3125 116.353 80.0649 117.005C83.918 120.355 86.1606 125.976 85.5244 132.059Z" fill="black"/>
<path d="M83.5637 121.47C83.3277 121.094 83.0582 120.739 82.7585 120.411C80.9587 117.955 76.844 117.038 74.1504 117.255C72.0856 117.456 70.1031 118.168 68.3809 119.324C66.4161 120.597 65.011 122.545 63.0623 123.882C59.3663 126.435 53.7578 126.362 50.0456 123.733C49.8363 123.584 49.6372 123.421 49.4497 123.246C49.0714 122.852 48.8191 122.354 48.725 121.817C48.583 121.145 48.6346 120.447 48.874 119.803C49.6792 117.541 52.3647 115.552 54.0597 114.34C57.4962 111.915 61.5383 110.492 65.7357 110.229C77.7056 109.404 82.8108 119.626 83.5637 121.47Z" fill="#E23E2B"/>
<path opacity="0.3" d="M82.7343 121.792C80.1616 118.08 76.8601 117.037 74.1666 117.255C72.1017 117.456 70.1192 118.167 68.397 119.324C66.4322 120.597 65.0271 122.545 63.0784 123.882C59.3824 126.435 53.7739 126.362 50.0617 123.733C49.8524 123.584 49.6533 123.421 49.4658 123.246C49.0875 122.852 48.8352 122.354 48.7411 121.817C48.5991 121.145 48.6508 120.447 48.8901 119.803C50.1342 121.241 53.7578 124.703 58.6657 123.024C64.7855 120.911 66.2792 114.63 72.8218 114.686C78.0196 114.747 81.2205 118.773 82.7343 121.792Z" fill="black"/>
<g opacity="0.3">
<path opacity="0.3" d="M55.8111 113.233C57.5569 111.992 59.5212 111.092 61.6008 110.579C63.6824 110.05 65.8381 109.873 67.9783 110.056C70.1149 110.262 72.2074 110.794 74.1826 111.634L74.9154 111.956L75.6321 112.315C76.1152 112.54 76.5702 112.822 77.0372 113.08C77.5042 113.337 77.935 113.655 78.382 113.941C78.8289 114.227 79.2476 114.561 79.6744 114.879C77.9185 113.703 76.0441 112.714 74.082 111.928C72.1237 111.143 70.0602 110.65 67.9581 110.467C65.8604 110.266 63.7442 110.402 61.6893 110.869C60.6577 111.098 59.6465 111.41 58.6657 111.803C57.6703 112.187 56.7143 112.665 55.8111 113.233Z" fill="black"/>
</g>
<g opacity="0.3">
<path opacity="0.3" d="M68.8479 110.354C68.3459 108.675 68.0445 106.942 67.9501 105.192C67.8172 103.449 67.789 101.698 67.8253 99.9584C67.8615 98.219 67.9823 96.4636 68.1434 94.7243L68.4373 92.1234C68.5661 91.2578 68.6788 90.3921 68.8399 89.5305L68.4735 94.7646L68.3286 97.3736C68.3044 98.2432 68.2521 99.1129 68.248 99.9825C68.1796 101.722 68.2118 103.461 68.2762 105.217C68.3044 106.086 68.3728 106.952 68.4614 107.818C68.5321 108.671 68.6613 109.518 68.8479 110.354Z" fill="black"/>
</g>
<path opacity="0.3" d="M92.4817 124.812C84.075 119.405 83.7409 105.454 84.0267 96.2502C84.0791 94.6679 84.1435 93.2306 84.1918 91.9945C84.28 90.7574 84.28 89.5155 84.1918 88.2784C83.3423 81.9572 78.5108 81.1963 78.5108 81.1963H78.531C83.8818 82.1787 85.1621 86.3861 84.8521 91.1088C84.8521 91.1088 84.8521 91.141 84.8521 91.2054C84.8521 91.2698 84.8521 91.3061 84.8521 91.3785V91.4188C84.6709 94.4586 83.5516 118.853 92.4817 124.812Z" fill="black"/>
<path opacity="0.2" d="M91.7973 77.1661C91.0927 77.9029 81.9814 76.0146 80.3911 76.8601C79.7187 77.2144 79.4248 78.4706 78.7484 79.8476C76.848 82.8672 74.1746 83.3423 74.0095 83.3664C77.1983 80.9507 78.0881 75.1369 76.5058 71.461C74.9235 67.7851 69.2586 68.7393 68.9365 68.848C69.9025 68.4233 70.9416 68.1895 71.9964 68.1595C75.0604 67.9984 78.7967 68.8601 79.8435 70.8007C81.9693 74.7584 91.0846 73.8686 91.9221 74.9074C92.7595 75.9462 92.5019 76.4293 91.7973 77.1661Z" fill="black"/>
<path d="M84.6628 73.6512C84.109 74.6735 83.888 75.8432 84.0307 76.997L91.7489 77.8667C92.1435 77.41 92.4351 76.8738 92.6039 76.2943C92.7728 75.7149 92.8148 75.106 92.7273 74.5088C92.7273 74.5088 85.0815 73.7398 84.6628 73.6512Z" fill="#263238"/>
<path d="M61.2264 73.3653C61.2264 73.3653 60.4574 71.7307 61.3794 70.696C59.3179 70.5108 58.0416 70.2934 56.713 70.1001C56.5157 70.7 56.4191 71.2757 57.1156 72.1897C57.8121 73.1036 61.2264 73.3653 61.2264 73.3653Z" fill="#263238"/>
<path d="M56.9384 83.5959C55.6017 85.7741 54.4583 89.2608 54.3576 94.829" stroke="#E23E2B" stroke-linecap="round" stroke-linejoin="round"/>
<path d="M61.3391 80.0045C60.3666 80.2301 59.4726 80.7126 58.7502 81.4016" stroke="#E23E2B" stroke-linecap="round" stroke-linejoin="round"/>
<path d="M121.382 59.016L116.301 59.636C116.301 59.636 115.415 68.9728 114.594 70.7886C114.594 70.7886 98.9679 72.9386 92.5622 72.7493L89.3131 74.9557L89.2003 78.7967L92.3851 78.8893L93.4117 76.4736C93.4117 76.4736 95.5617 76.381 96.057 75.1691C96.057 75.1691 112.661 79.1953 118.777 74.6054C118.773 74.5893 122.465 69.1741 121.382 59.016Z" fill="#FFC3BD"/>
<path opacity="0.2" d="M80.0085 130.851C79.8636 135.916 76.546 139.926 72.5963 139.814C72.0655 139.798 71.5396 139.707 71.0342 139.544C67.8696 138.537 65.5907 134.805 65.7156 130.437C65.8404 126.209 68.1715 122.714 71.2355 121.744C71.8477 121.547 72.489 121.456 73.1318 121.474C77.0815 121.591 80.1575 125.803 80.0085 130.851Z" fill="#FAFAFA"/>
<path d="M76.3729 130.851C76.2481 135.176 73.9572 138.731 71.0342 139.556C67.8696 138.549 65.5907 134.817 65.7156 130.449C65.8404 126.221 68.1715 122.727 71.2355 121.756C74.2793 122.582 76.4977 126.374 76.3729 130.851Z" fill="#263238"/>
<path opacity="0.2" d="M142.044 131.254C141.895 136.319 138.578 140.333 134.632 140.216C134.101 140.203 133.575 140.112 133.07 139.947C129.901 138.94 127.622 135.212 127.751 130.839C127.872 126.616 130.203 123.117 133.267 122.147C133.879 121.95 134.521 121.859 135.163 121.877C139.113 121.994 142.189 126.197 142.044 131.254Z" fill="#FAFAFA"/>
<path d="M138.409 131.254C138.28 135.574 135.993 139.129 133.07 139.955C129.901 138.948 127.622 135.22 127.751 130.847C127.872 126.624 130.203 123.125 133.267 122.155C136.315 122.98 138.537 126.773 138.409 131.254Z" fill="#263238"/>
<path d="M148.269 117.911C148.337 122.892 140.756 126.189 128.069 128.267C124.65 128.868 121.155 128.909 117.722 128.387C112.085 127.457 109.331 125.074 109.331 125.074C109.331 125.074 110.765 107.862 124.949 105.68C134.612 104.198 141.883 108.095 145.571 112.295C147.306 114.267 148.249 116.317 148.269 117.911Z" fill="#E23E2B"/>
<path opacity="0.3" d="M148.269 117.911C148.337 122.892 140.756 126.189 128.069 128.267C124.65 128.868 121.155 128.909 117.722 128.387C118.33 123.713 121.06 111.453 132.925 110.181C138.308 109.601 142.463 110.688 145.571 112.295C147.306 114.267 148.249 116.317 148.269 117.911Z" fill="black"/>
<g opacity="0.3">
<path opacity="0.3" d="M110.153 125.15C110.414 122.807 110.973 120.507 111.816 118.306C112.645 116.081 113.789 113.988 115.214 112.089C115.934 111.146 116.743 110.273 117.629 109.484C118.508 108.683 119.477 107.986 120.516 107.407C122.584 106.241 124.876 105.526 127.24 105.309C126.081 105.503 124.942 105.797 123.834 106.187C123.274 106.356 122.747 106.618 122.223 106.839C121.698 107.091 121.186 107.369 120.689 107.673C120.182 107.962 119.715 108.313 119.236 108.639C118.757 108.965 118.314 109.352 117.891 109.758C117.031 110.539 116.248 111.401 115.552 112.331C114.138 114.193 112.985 116.24 112.126 118.414C111.679 119.498 111.295 120.605 110.974 121.732C110.632 122.854 110.358 123.996 110.153 125.15Z" fill="black"/>
</g>
<path d="M91.1168 119.465L91.9543 122.308L100.735 121.575L100.852 117.601L91.1168 119.465Z" fill="#E23E2B"/>
<path d="M143.397 100.079L162.719 99.2941" stroke="#E23E2B" stroke-linecap="round" stroke-linejoin="round"/>
<path d="M169.104 95.7752L171.975 95.6584" stroke="#E23E2B" stroke-linecap="round" stroke-linejoin="round"/>
<path d="M152.657 96.4435L166.902 95.8638" stroke="#E23E2B" stroke-linecap="round" stroke-linejoin="round"/>
<path d="M162.626 106.445L174.564 105.961" stroke="#E23E2B" stroke-linecap="round" stroke-linejoin="round"/>
<path d="M155.246 106.747L160.448 106.533" stroke="#E23E2B" stroke-linecap="round" stroke-linejoin="round"/>
</svg>
