<svg width="155" height="15" viewBox="0 0 155 15" fill="none" xmlns="http://www.w3.org/2000/svg">
<path fill-rule="evenodd" clip-rule="evenodd" d="M84.7884 6.46328C66.8728 6.84173 48.9573 7.77769 31.117 9.30168C21.3729 10.1339 10.0558 10.0342 0.602604 12.8706C-0.142097 13.0944 0.00644094 13.776 0.0227186 13.8431C0.0552738 13.9835 0.191601 14.4495 0.787768 14.4718C0.834567 14.4739 1.15402 14.4332 1.27814 14.4169C4.06161 14.0507 6.83695 13.6234 9.62245 13.2775C19.2446 12.0791 28.8911 11.1757 38.5539 10.3821C51.3806 9.32814 64.3152 8.76451 77.1766 8.32705C84.2187 8.08492 91.4276 8.40436 98.4941 7.90993C101.082 7.89568 103.675 7.89369 106.267 7.90183C117.106 7.94049 127.932 8.35149 138.757 8.91511C142.236 9.09619 144.894 9.29153 148.304 9.42378C149.6 9.47465 151.657 9.50924 153.085 9.53163C153.293 9.5357 153.814 9.53973 154.039 9.54176C154.07 9.54583 154.101 9.54583 154.131 9.54583C154.241 9.5438 154.296 9.53769 154.306 9.53565C155.081 9.42171 155.01 8.69329 154.988 8.57935C154.984 8.55493 154.87 7.93842 154.206 7.91604C154.107 7.91197 153.388 7.90793 153.112 7.90387C151.693 7.88148 149.653 7.84689 148.367 7.79806C144.965 7.6658 142.314 7.47047 138.84 7.28938C127.991 6.72577 117.138 6.31273 106.273 6.27407C105.003 6.27 103.736 6.26796 102.47 6.26999C102.376 6.14791 102.232 6.03596 102.002 5.97696C101.792 5.92202 100.287 5.86916 99.7048 5.82033C95.5011 5.47647 95.6252 5.49071 90.9983 5.20788C83.9908 4.77856 82.9246 4.68085 75.6384 4.49976C66.7203 4.27798 57.8001 4.21696 48.88 4.21085C61.6905 3.5923 74.5864 3.67571 87.3786 3.48852C93.1632 3.4051 98.9459 3.25454 104.731 3.29931C106.716 3.31559 108.7 3.38885 110.686 3.41326C111.097 3.41937 112.153 3.49057 112.306 3.45598C112.81 3.34408 112.918 2.96765 112.949 2.78452C112.965 2.67872 113.038 2.05204 112.287 1.8323C108.936 0.855639 102.753 0.894287 99.4973 0.70099C81.2663 -0.377402 62.9988 -0.0762723 44.7597 0.69488C37.2293 1.01229 29.7233 1.46606 22.2233 2.19855C19.6006 2.45289 16.9718 2.6706 14.3592 3.01243C13.936 3.06737 12.9817 3.14669 12.5199 3.23011C12.2818 3.27487 12.1129 3.33998 12.0336 3.38271C11.6633 3.59229 11.6002 3.90158 11.5981 4.10912C11.5961 4.25968 11.6348 4.82329 12.3835 4.96775C19.9994 6.45919 28.2847 5.87729 35.9413 5.85694C49.1608 5.82439 62.3823 5.7979 75.5977 6.12752C80.0679 6.23943 82.188 6.31882 84.7884 6.46328ZM88.5953 1.84248C74.0106 1.38874 59.4096 1.70409 44.8269 2.3206C37.327 2.63802 29.8515 3.08974 22.3821 3.81817C21.1918 3.93415 20.0035 4.04197 18.8152 4.15795C24.5185 4.56692 30.3968 4.24546 35.9372 4.22918L39.7401 4.22103C39.7096 4.14372 39.6892 4.0603 39.6831 3.97484C39.6485 3.52721 39.9843 3.1345 40.4319 3.09991C56.0014 1.91775 71.7541 2.08865 87.3562 1.86076C87.7692 1.85466 88.1823 1.84858 88.5953 1.84248Z" fill="#E23E2B"/>
</svg>
